<svg width="379" height="300" viewBox="0 0 379 300" fill="none" xmlns="http://www.w3.org/2000/svg">
<rect x="1" y="1" width="377" height="298" rx="11" stroke="white" stroke-width="2"/>
<g clip-path="url(#clip0_91_165)">
<path d="M133.807 172.087C133.181 172.087 132.56 171.821 132.125 171.305C120.76 157.819 114.5 140.664 114.5 123C114.5 102.967 122.301 84.1327 136.467 69.9671C150.632 55.8012 169.467 48 189.5 48C207.225 48 224.426 54.2982 237.934 65.7346C238.861 66.5186 238.976 67.9052 238.191 68.8312C237.407 69.757 236.021 69.8725 235.095 69.0885C222.379 58.323 206.187 52.3945 189.5 52.3945C170.64 52.3945 152.91 59.7387 139.574 73.0743C126.239 86.41 118.895 104.141 118.895 123C118.895 139.629 124.787 155.779 135.486 168.473C136.268 169.401 136.15 170.787 135.222 171.569C134.809 171.917 134.306 172.087 133.807 172.087Z" fill="white"/>
<path d="M189.5 198C170.802 198 152.89 191.079 139.065 178.511C138.167 177.694 138.101 176.305 138.917 175.407C139.734 174.509 141.124 174.443 142.021 175.259C155.035 187.09 171.897 193.605 189.5 193.605C208.36 193.605 226.09 186.261 239.426 172.926C252.761 159.59 260.105 141.86 260.105 123C260.105 105.413 253.6 88.5627 241.788 75.5531C240.972 74.6549 241.039 73.2651 241.938 72.4494C242.836 71.6338 244.226 71.7006 245.042 72.5991C257.589 86.4191 264.5 104.318 264.5 123C264.5 143.033 256.699 161.868 242.533 176.033C228.368 190.199 209.533 198 189.5 198Z" fill="white"/>
<path d="M189.5 158.647C178.801 158.647 168.102 154.574 159.957 146.43C159.099 145.571 159.099 144.18 159.957 143.322C160.816 142.464 162.207 142.464 163.065 143.322C177.641 157.899 201.358 157.899 215.935 143.322C216.793 142.464 218.184 142.464 219.042 143.322C219.9 144.18 219.9 145.572 219.042 146.43C210.898 154.574 200.199 158.647 189.5 158.647Z" fill="white"/>
<path d="M160.544 113.323C156.379 113.323 152.649 111.169 150.566 107.562C149.959 106.511 150.319 105.168 151.37 104.561C152.421 103.954 153.765 104.314 154.372 105.365C155.66 107.596 157.967 108.928 160.544 108.928C163.12 108.928 165.427 107.596 166.716 105.365C167.322 104.314 168.665 103.954 169.717 104.561C170.768 105.168 171.128 106.511 170.521 107.562C168.439 111.169 164.709 113.323 160.544 113.323Z" fill="white"/>
<path d="M218.456 113.323C214.291 113.323 210.561 111.169 208.478 107.562C207.871 106.511 208.232 105.168 209.282 104.561C210.333 103.954 211.677 104.314 212.284 105.365C213.572 107.596 215.879 108.928 218.456 108.928C221.033 108.928 223.34 107.596 224.628 105.365C225.234 104.314 226.578 103.954 227.629 104.561C228.68 105.168 229.04 106.511 228.433 107.562C226.351 111.169 222.621 113.323 218.456 113.323Z" fill="white"/>
<path d="M147.336 99.7771C146.486 99.7771 145.677 99.2817 145.318 98.4526C144.836 97.339 145.348 96.0453 146.461 95.5631L160.403 89.5256C161.517 89.0436 162.811 89.5555 163.292 90.6687C163.775 91.7823 163.263 93.0761 162.149 93.5583L148.208 99.5958C147.923 99.7188 147.627 99.7771 147.336 99.7771Z" fill="white"/>
<path d="M231.664 99.7773C231.373 99.7773 231.077 99.719 230.792 99.5956L216.85 93.5581C215.737 93.0759 215.225 91.7821 215.707 90.6686C216.189 89.5547 217.483 89.0429 218.597 89.5254L232.539 95.5629C233.652 96.0451 234.164 97.3389 233.682 98.4525C233.323 99.2819 232.514 99.7773 231.664 99.7773Z" fill="white"/>
</g>
<path d="M115.78 231H113.314C113.168 230.291 112.913 229.668 112.548 229.131C112.191 228.594 111.753 228.143 111.236 227.778C110.726 227.407 110.159 227.129 109.536 226.943C108.913 226.758 108.263 226.665 107.587 226.665C106.354 226.665 105.237 226.976 104.236 227.599C103.242 228.223 102.45 229.141 101.86 230.354C101.276 231.567 100.985 233.055 100.985 234.818C100.985 236.581 101.276 238.07 101.86 239.283C102.45 240.496 103.242 241.414 104.236 242.037C105.237 242.66 106.354 242.972 107.587 242.972C108.263 242.972 108.913 242.879 109.536 242.693C110.159 242.508 110.726 242.232 111.236 241.868C111.753 241.497 112.191 241.043 112.548 240.506C112.913 239.962 113.168 239.339 113.314 238.636H115.78C115.594 239.677 115.256 240.608 114.766 241.43C114.275 242.252 113.665 242.952 112.936 243.528C112.207 244.098 111.388 244.533 110.48 244.831C109.579 245.129 108.614 245.278 107.587 245.278C105.85 245.278 104.306 244.854 102.953 244.006C101.601 243.157 100.537 241.951 99.7615 240.386C98.986 238.822 98.5982 236.966 98.5982 234.818C98.5982 232.67 98.986 230.814 99.7615 229.25C100.537 227.686 101.601 226.479 102.953 225.631C104.306 224.782 105.85 224.358 107.587 224.358C108.614 224.358 109.579 224.507 110.48 224.805C111.388 225.104 112.207 225.541 112.936 226.118C113.665 226.688 114.275 227.384 114.766 228.206C115.256 229.021 115.594 229.953 115.78 231ZM123.941 245.358C122.973 245.358 122.095 245.176 121.306 244.811C120.517 244.44 119.891 243.906 119.427 243.21C118.963 242.508 118.731 241.659 118.731 240.665C118.731 239.79 118.903 239.08 119.248 238.537C119.592 237.987 120.053 237.556 120.63 237.244C121.206 236.933 121.843 236.701 122.539 236.548C123.242 236.389 123.948 236.263 124.657 236.17C125.585 236.051 126.337 235.962 126.914 235.902C127.497 235.836 127.921 235.726 128.187 235.574C128.458 235.421 128.594 235.156 128.594 234.778V234.699C128.594 233.718 128.326 232.955 127.789 232.412C127.259 231.868 126.453 231.597 125.373 231.597C124.252 231.597 123.374 231.842 122.738 232.332C122.101 232.823 121.654 233.347 121.395 233.903L119.168 233.108C119.566 232.18 120.096 231.457 120.759 230.94C121.429 230.417 122.158 230.052 122.947 229.847C123.742 229.634 124.524 229.528 125.293 229.528C125.784 229.528 126.347 229.588 126.983 229.707C127.626 229.82 128.246 230.055 128.843 230.413C129.446 230.771 129.947 231.312 130.344 232.034C130.742 232.757 130.941 233.724 130.941 234.938V245H128.594V242.932H128.475C128.316 243.263 128.051 243.618 127.68 243.996C127.308 244.374 126.814 244.695 126.198 244.96C125.581 245.225 124.829 245.358 123.941 245.358ZM124.299 243.25C125.227 243.25 126.009 243.068 126.645 242.703C127.288 242.339 127.772 241.868 128.097 241.291C128.429 240.714 128.594 240.108 128.594 239.472V237.324C128.495 237.443 128.276 237.553 127.938 237.652C127.607 237.745 127.222 237.828 126.785 237.901C126.354 237.967 125.933 238.027 125.522 238.08C125.117 238.126 124.789 238.166 124.537 238.199C123.928 238.278 123.358 238.408 122.827 238.587C122.304 238.759 121.879 239.021 121.555 239.372C121.236 239.717 121.077 240.187 121.077 240.784C121.077 241.599 121.379 242.216 121.982 242.634C122.592 243.045 123.364 243.25 124.299 243.25ZM137.57 224.636V245H135.224V224.636H137.57ZM141.868 245V229.727H144.135V232.114H144.334C144.653 231.298 145.166 230.665 145.876 230.214C146.585 229.757 147.437 229.528 148.431 229.528C149.439 229.528 150.277 229.757 150.947 230.214C151.623 230.665 152.15 231.298 152.528 232.114H152.687C153.078 231.325 153.664 230.698 154.447 230.234C155.229 229.764 156.167 229.528 157.26 229.528C158.626 229.528 159.743 229.956 160.611 230.811C161.48 231.66 161.914 232.982 161.914 234.778V245H159.567V234.778C159.567 233.652 159.259 232.846 158.643 232.362C158.026 231.878 157.3 231.636 156.465 231.636C155.391 231.636 154.559 231.961 153.969 232.611C153.379 233.254 153.084 234.069 153.084 235.057V245H150.698V234.54C150.698 233.671 150.416 232.972 149.853 232.442C149.289 231.905 148.564 231.636 147.675 231.636C147.065 231.636 146.495 231.799 145.965 232.124C145.441 232.448 145.017 232.899 144.692 233.476C144.374 234.046 144.215 234.705 144.215 235.455V245H141.868ZM175.233 245H172.648L180.125 224.636H182.67L190.148 245H187.562L181.477 227.858H181.318L175.233 245ZM176.187 237.045H186.608V239.233H176.187V237.045ZM193.001 245V229.727H195.268V232.114H195.467C195.785 231.298 196.299 230.665 197.008 230.214C197.718 229.757 198.569 229.528 199.564 229.528C200.571 229.528 201.41 229.757 202.079 230.214C202.756 230.665 203.282 231.298 203.66 232.114H203.819C204.211 231.325 204.797 230.698 205.579 230.234C206.362 229.764 207.3 229.528 208.393 229.528C209.759 229.528 210.876 229.956 211.744 230.811C212.613 231.66 213.047 232.982 213.047 234.778V245H210.7V234.778C210.7 233.652 210.392 232.846 209.775 232.362C209.159 231.878 208.433 231.636 207.598 231.636C206.524 231.636 205.692 231.961 205.102 232.611C204.512 233.254 204.217 234.069 204.217 235.057V245H201.831V234.54C201.831 233.671 201.549 232.972 200.986 232.442C200.422 231.905 199.696 231.636 198.808 231.636C198.198 231.636 197.628 231.799 197.098 232.124C196.574 232.448 196.15 232.899 195.825 233.476C195.507 234.046 195.348 234.705 195.348 235.455V245H193.001ZM217.655 245V224.636H220.002V232.153H220.201C220.373 231.888 220.612 231.55 220.917 231.139C221.228 230.722 221.672 230.35 222.249 230.026C222.832 229.694 223.621 229.528 224.616 229.528C225.902 229.528 227.035 229.85 228.016 230.493C228.997 231.136 229.763 232.047 230.313 233.227C230.863 234.407 231.138 235.799 231.138 237.403C231.138 239.021 230.863 240.423 230.313 241.609C229.763 242.789 229.001 243.704 228.026 244.354C227.052 244.997 225.928 245.318 224.655 245.318C223.674 245.318 222.889 245.156 222.299 244.831C221.709 244.5 221.255 244.125 220.937 243.707C220.618 243.283 220.373 242.932 220.201 242.653H219.922V245H217.655ZM219.962 237.364C219.962 238.517 220.131 239.535 220.469 240.416C220.807 241.291 221.301 241.977 221.951 242.474C222.6 242.965 223.396 243.21 224.337 243.21C225.318 243.21 226.137 242.952 226.793 242.435C227.456 241.911 227.953 241.208 228.285 240.327C228.623 239.438 228.792 238.451 228.792 237.364C228.792 236.29 228.626 235.322 228.295 234.46C227.97 233.592 227.476 232.906 226.813 232.402C226.157 231.892 225.331 231.636 224.337 231.636C223.383 231.636 222.581 231.878 221.931 232.362C221.281 232.839 220.791 233.509 220.459 234.371C220.128 235.226 219.962 236.223 219.962 237.364ZM234.728 245V229.727H237.074V245H234.728ZM235.921 227.182C235.464 227.182 235.069 227.026 234.738 226.714C234.413 226.403 234.251 226.028 234.251 225.591C234.251 225.153 234.413 224.779 234.738 224.467C235.069 224.156 235.464 224 235.921 224C236.378 224 236.769 224.156 237.094 224.467C237.426 224.779 237.591 225.153 237.591 225.591C237.591 226.028 237.426 226.403 237.094 226.714C236.769 227.026 236.378 227.182 235.921 227.182ZM247.776 245.318C246.304 245.318 245.035 244.993 243.968 244.344C242.907 243.688 242.088 242.773 241.512 241.599C240.941 240.42 240.656 239.047 240.656 237.483C240.656 235.919 240.941 234.54 241.512 233.347C242.088 232.147 242.89 231.212 243.918 230.543C244.952 229.866 246.158 229.528 247.537 229.528C248.333 229.528 249.118 229.661 249.894 229.926C250.669 230.191 251.375 230.622 252.012 231.219C252.648 231.809 253.155 232.591 253.533 233.565C253.911 234.54 254.1 235.74 254.1 237.165V238.159H242.327V236.131H251.713C251.713 235.269 251.541 234.5 251.196 233.824C250.858 233.148 250.374 232.614 249.744 232.223C249.121 231.832 248.386 231.636 247.537 231.636C246.602 231.636 245.794 231.868 245.111 232.332C244.435 232.79 243.914 233.386 243.55 234.122C243.185 234.858 243.003 235.647 243.003 236.489V237.841C243.003 238.994 243.202 239.972 243.6 240.774C244.004 241.57 244.564 242.176 245.28 242.594C245.996 243.005 246.828 243.21 247.776 243.21C248.392 243.21 248.949 243.124 249.446 242.952C249.95 242.773 250.384 242.508 250.749 242.156C251.113 241.798 251.395 241.354 251.594 240.824L253.861 241.46C253.622 242.229 253.221 242.905 252.658 243.489C252.094 244.065 251.398 244.516 250.57 244.841C249.741 245.159 248.81 245.318 247.776 245.318ZM260.016 235.812V245H257.669V229.727H259.936V232.114H260.135C260.493 231.338 261.037 230.715 261.766 230.244C262.495 229.767 263.436 229.528 264.59 229.528C265.624 229.528 266.529 229.741 267.304 230.165C268.08 230.582 268.683 231.219 269.114 232.074C269.545 232.922 269.76 233.996 269.76 235.295V245H267.414V235.455C267.414 234.255 267.102 233.32 266.479 232.651C265.856 231.974 265.001 231.636 263.914 231.636C263.164 231.636 262.495 231.799 261.905 232.124C261.322 232.448 260.861 232.922 260.523 233.545C260.185 234.169 260.016 234.924 260.016 235.812ZM280.69 229.727V231.716H272.775V229.727H280.69ZM275.082 226.068H277.429V240.625C277.429 241.288 277.525 241.785 277.717 242.116C277.916 242.441 278.168 242.66 278.473 242.773C278.784 242.879 279.113 242.932 279.457 242.932C279.716 242.932 279.928 242.919 280.094 242.892C280.259 242.859 280.392 242.832 280.491 242.812L280.969 244.92C280.809 244.98 280.587 245.04 280.302 245.099C280.017 245.166 279.656 245.199 279.219 245.199C278.556 245.199 277.906 245.056 277.27 244.771C276.64 244.486 276.116 244.052 275.699 243.469C275.288 242.885 275.082 242.15 275.082 241.261V226.068Z" fill="white"/>
<defs>
<clipPath id="clip0_91_165">
<rect width="150" height="150" fill="white" transform="translate(114.5 48)"/>
</clipPath>
</defs>
</svg>
