<svg width="379" height="300" viewBox="0 0 379 300" fill="none" xmlns="http://www.w3.org/2000/svg">
<rect x="1" y="1" width="377" height="298" rx="11" stroke="white" stroke-width="2"/>
<g clip-path="url(#clip0_91_225)">
<path d="M244.88 101.859C242.66 98.6538 240.32 98.4925 239.889 98.2762C239.881 98.2762 239.876 98.2728 239.869 98.2728C237.012 97.4728 234.577 98.2647 219.408 100.543C215.116 101.177 210.943 100.162 207.87 98.1171C176.115 76.9707 170.517 73.2434 169.952 72.868C170.143 72.995 170.748 73.3979 169.905 72.836V71.6996L172.716 50.195C172.891 48.8629 171.85 47.707 170.531 47.707H154.502C153.183 47.707 152.15 48.8652 152.317 50.1915L155.092 71.6927V179.152H143.074C140.89 179.152 139.114 180.927 139.114 183.111V193.747C139.114 195.93 140.89 197.707 143.074 197.707H194.109C195.328 197.707 196.312 196.721 196.312 195.504C196.312 194.285 195.328 193.301 194.109 193.301C188.002 193.301 148.75 193.301 143.52 193.301V183.558H215.287V193.301H202.92C201.705 193.301 200.718 194.285 200.718 195.504C200.718 196.721 201.705 197.707 202.92 197.707H215.737C217.919 197.707 219.693 195.93 219.693 193.747V183.111C219.693 180.927 217.919 179.152 215.737 179.152H214.438C215.857 178.056 217.22 176.902 218.527 175.694C226.199 168.601 231.568 159.909 234.053 150.554C246.455 103.891 245.661 106.91 245.729 106.567C246.329 103.693 244.588 101.319 244.88 101.859ZM165.499 179.152C164.792 179.152 160.445 179.152 159.498 179.152C159.498 174.023 159.498 78.4745 159.498 73.7526H165.499V179.152ZM165.77 69.3467H159.232C156.629 49.1833 157.129 53.0503 157.008 52.113H168.023C167.9 53.0491 168.405 49.1879 165.77 69.3467ZM186.369 176.731C184.55 177.275 182.688 177.73 180.797 178.094V166.374C180.797 165.159 179.81 164.171 178.594 164.171C177.378 164.171 176.391 165.159 176.391 166.374V178.767C174.253 179.014 172.088 179.144 169.905 179.152V91.206L176.391 95.4793V157.562C176.391 158.779 177.378 159.765 178.594 159.765C179.81 159.765 180.797 158.779 180.797 157.562V98.3815L186.369 102.053V176.731ZM198.553 125.134C199.769 125.134 200.756 124.148 200.756 122.931V111.532C201.701 112.102 203.352 113.489 206.413 114.584V165.538C206.398 165.549 206.387 165.564 206.372 165.575C204.634 167.182 202.757 168.663 200.756 170.005V131.743C200.756 130.524 199.769 129.54 198.553 129.54C197.337 129.54 196.35 130.524 196.35 131.743V172.649C194.558 173.604 192.696 174.461 190.775 175.213V104.955L196.35 108.63V122.931C196.35 124.148 197.337 125.134 198.553 125.134ZM241.359 105.911C241.359 105.952 229.806 149.39 229.797 149.423C226.496 161.852 217.763 172.335 206.736 179.152H192.787C208.367 172.901 218.599 161.166 222.008 148.334C222.008 148.334 222.008 148.333 222.008 148.33V148.332C222.009 148.329 222.009 148.327 222.01 148.326C222.01 148.325 222.01 148.323 222.01 148.323C222.012 148.32 222.012 148.318 222.013 148.315C222.013 148.314 222.014 148.313 222.014 148.312V148.313C222.086 148.041 222.958 144.76 231.181 113.822C231.791 111.526 229.86 109.349 227.508 109.684C207.651 112.508 210.138 112.441 196.352 103.356C182.25 94.0648 214.687 115.439 169.905 85.9337V78.13C206.477 102.137 205.69 102.778 210.819 104.275C216.66 105.981 220.643 104.816 229.36 103.523C235.191 102.865 237.87 101.608 240.338 103.296C240.339 103.296 240.339 103.296 240.339 103.297C241.809 104.449 241.374 105.881 241.359 105.911ZM210.819 160.791V115.636C212.715 115.888 214.643 115.874 216.391 115.644V151.28C215.043 154.634 213.166 157.836 210.819 160.791ZM220.797 135.735V115.039L226.504 114.254L220.797 135.735Z" fill="white"/>
<path d="M145.659 129.359C149.09 128.318 151.396 124.784 150.282 120.708C150.282 120.707 150.282 120.707 150.282 120.705C149.196 117.128 141.962 93.3025 141.095 90.446C140.259 87.6926 137.083 86.5894 134.732 88.0474L119.602 97.4315C117.9 98.4855 117.208 100.505 117.758 102.32L123.749 122.052C118.858 121.677 115.143 126.303 116.564 130.986C117.704 134.739 121.61 136.705 125.219 135.608C128.63 134.572 131.085 131.049 129.714 126.53L126.048 114.459L140.971 105.203L144.189 115.803C140.198 115.497 136.704 118.599 136.704 122.718C136.704 127.38 141.186 130.719 145.659 129.359ZM123.201 131.503C122.097 131.503 121.102 130.764 120.78 129.706C120.283 128.064 121.53 126.437 123.206 126.437C124.31 126.437 125.304 127.176 125.626 128.234C126.118 129.855 124.896 131.503 123.201 131.503ZM124.724 110.096L122 101.128L136.924 91.8731L139.646 100.841L124.724 110.096ZM141.22 123.457C140.728 121.833 141.953 120.187 143.645 120.187C146.958 120.187 147.056 125.254 143.641 125.254C142.537 125.254 141.541 124.515 141.22 123.457Z" fill="white"/>
<path d="M225.257 84.8831C228.285 84.8831 231.147 83.0349 232.097 79.1691L235.107 66.917L252.663 66.5748L250.02 77.3357C245.435 74.1085 239.082 77.3598 239.082 83.0063C239.082 86.8927 242.236 89.9414 246.025 89.9414C249.285 89.9414 252.015 87.6858 252.745 84.7114L252.757 84.6599C254.094 79.2194 259.573 56.9149 260.302 53.9451C260.97 51.2215 258.896 48.6362 256.14 48.6362L238.254 48.9841C236.314 49.0219 234.636 50.3654 234.173 52.2491L229.253 72.2763C224.657 69.0422 218.314 72.3141 218.314 77.9468C218.315 81.8333 221.469 84.8831 225.257 84.8831ZM243.561 82.3974C244.276 79.4861 248.554 80.0239 248.554 82.9983C248.554 86.7679 242.658 86.0767 243.561 82.3974ZM238.43 53.3867L255.987 53.0445L253.751 62.1471L236.194 62.4882L238.43 53.3867ZM225.25 75.4097C226.878 75.4097 228.11 76.9283 227.713 78.5477C227.434 79.6829 226.424 80.4771 225.257 80.4771C221.854 80.4771 221.928 75.4097 225.25 75.4097Z" fill="white"/>
<path d="M249.884 159.165C249.334 158.079 248.009 157.644 246.923 158.192C245.838 158.741 245.402 160.066 245.951 161.152L255.296 179.636C254.286 179.693 253.287 179.959 252.381 180.417C245.484 183.903 247.99 194.344 255.705 194.344C259.652 194.344 263.061 191.166 263.061 186.981C263.061 184.31 262.996 185.326 249.884 159.165ZM255.705 189.939C252.607 189.939 251.599 185.749 254.37 184.35C256.361 183.343 258.655 184.82 258.655 186.981C258.655 188.665 257.282 189.939 255.705 189.939Z" fill="white"/>
</g>
<path d="M134.538 231H132.072C131.926 230.291 131.671 229.668 131.306 229.131C130.948 228.594 130.511 228.143 129.994 227.778C129.483 227.407 128.917 227.129 128.294 226.943C127.67 226.758 127.021 226.665 126.345 226.665C125.112 226.665 123.995 226.976 122.994 227.599C121.999 228.223 121.207 229.141 120.617 230.354C120.034 231.567 119.742 233.055 119.742 234.818C119.742 236.581 120.034 238.07 120.617 239.283C121.207 240.496 121.999 241.414 122.994 242.037C123.995 242.66 125.112 242.972 126.345 242.972C127.021 242.972 127.67 242.879 128.294 242.693C128.917 242.508 129.483 242.232 129.994 241.868C130.511 241.497 130.948 241.043 131.306 240.506C131.671 239.962 131.926 239.339 132.072 238.636H134.538C134.352 239.677 134.014 240.608 133.524 241.43C133.033 242.252 132.423 242.952 131.694 243.528C130.965 244.098 130.146 244.533 129.238 244.831C128.337 245.129 127.372 245.278 126.345 245.278C124.608 245.278 123.063 244.854 121.711 244.006C120.359 243.157 119.295 241.951 118.519 240.386C117.744 238.822 117.356 236.966 117.356 234.818C117.356 232.67 117.744 230.814 118.519 229.25C119.295 227.686 120.359 226.479 121.711 225.631C123.063 224.782 124.608 224.358 126.345 224.358C127.372 224.358 128.337 224.507 129.238 224.805C130.146 225.104 130.965 225.541 131.694 226.118C132.423 226.688 133.033 227.384 133.524 228.206C134.014 229.021 134.352 229.953 134.538 231ZM144.608 245.318C143.136 245.318 141.867 244.993 140.8 244.344C139.739 243.688 138.92 242.773 138.344 241.599C137.773 240.42 137.488 239.047 137.488 237.483C137.488 235.919 137.773 234.54 138.344 233.347C138.92 232.147 139.722 231.212 140.75 230.543C141.784 229.866 142.99 229.528 144.369 229.528C145.165 229.528 145.95 229.661 146.726 229.926C147.501 230.191 148.207 230.622 148.844 231.219C149.48 231.809 149.987 232.591 150.365 233.565C150.743 234.54 150.932 235.74 150.932 237.165V238.159H139.159V236.131H148.545C148.545 235.269 148.373 234.5 148.028 233.824C147.69 233.148 147.206 232.614 146.577 232.223C145.953 231.832 145.218 231.636 144.369 231.636C143.434 231.636 142.626 231.868 141.943 232.332C141.267 232.79 140.747 233.386 140.382 234.122C140.017 234.858 139.835 235.647 139.835 236.489V237.841C139.835 238.994 140.034 239.972 140.432 240.774C140.836 241.57 141.396 242.176 142.112 242.594C142.828 243.005 143.66 243.21 144.608 243.21C145.224 243.21 145.781 243.124 146.278 242.952C146.782 242.773 147.216 242.508 147.581 242.156C147.945 241.798 148.227 241.354 148.426 240.824L150.693 241.46C150.454 242.229 150.053 242.905 149.49 243.489C148.926 244.065 148.23 244.516 147.402 244.841C146.573 245.159 145.642 245.318 144.608 245.318ZM156.848 224.636V245H154.501V224.636H156.848ZM167.788 229.727V231.716H159.873V229.727H167.788ZM162.18 226.068H164.526V240.625C164.526 241.288 164.623 241.785 164.815 242.116C165.014 242.441 165.266 242.66 165.57 242.773C165.882 242.879 166.21 242.932 166.555 242.932C166.813 242.932 167.026 242.919 167.191 242.892C167.357 242.859 167.49 242.832 167.589 242.812L168.066 244.92C167.907 244.98 167.685 245.04 167.4 245.099C167.115 245.166 166.754 245.199 166.316 245.199C165.653 245.199 165.004 245.056 164.367 244.771C163.738 244.486 163.214 244.052 162.796 243.469C162.385 242.885 162.18 242.15 162.18 241.261V226.068ZM171.318 245V229.727H173.664V245H171.318ZM172.511 227.182C172.053 227.182 171.659 227.026 171.328 226.714C171.003 226.403 170.84 226.028 170.84 225.591C170.84 225.153 171.003 224.779 171.328 224.467C171.659 224.156 172.053 224 172.511 224C172.968 224 173.359 224.156 173.684 224.467C174.016 224.779 174.181 225.153 174.181 225.591C174.181 226.028 174.016 226.403 173.684 226.714C173.359 227.026 172.968 227.182 172.511 227.182ZM184.167 245.318C182.735 245.318 181.502 244.98 180.468 244.304C179.434 243.628 178.638 242.696 178.081 241.51C177.525 240.323 177.246 238.968 177.246 237.443C177.246 235.892 177.531 234.523 178.101 233.337C178.678 232.143 179.48 231.212 180.508 230.543C181.542 229.866 182.748 229.528 184.127 229.528C185.201 229.528 186.169 229.727 187.03 230.125C187.892 230.523 188.598 231.08 189.148 231.795C189.698 232.511 190.04 233.347 190.172 234.301H187.826C187.647 233.605 187.249 232.989 186.633 232.452C186.023 231.908 185.201 231.636 184.167 231.636C183.252 231.636 182.45 231.875 181.76 232.352C181.078 232.823 180.544 233.489 180.16 234.351C179.782 235.206 179.593 236.21 179.593 237.364C179.593 238.544 179.778 239.571 180.15 240.446C180.528 241.321 181.058 242 181.741 242.484C182.43 242.968 183.239 243.21 184.167 243.21C184.777 243.21 185.33 243.104 185.827 242.892C186.324 242.68 186.745 242.375 187.09 241.977C187.435 241.58 187.68 241.102 187.826 240.545H190.172C190.04 241.447 189.712 242.259 189.188 242.982C188.671 243.697 187.985 244.268 187.13 244.692C186.281 245.109 185.294 245.318 184.167 245.318ZM201.796 245V224.636H204.262V233.705H215.12V224.636H217.586V245H215.12V235.892H204.262V245H201.796ZM226.699 245.358C225.731 245.358 224.853 245.176 224.064 244.811C223.275 244.44 222.648 243.906 222.184 243.21C221.72 242.508 221.488 241.659 221.488 240.665C221.488 239.79 221.661 239.08 222.006 238.537C222.35 237.987 222.811 237.556 223.388 237.244C223.964 236.933 224.601 236.701 225.297 236.548C225.999 236.389 226.705 236.263 227.415 236.17C228.343 236.051 229.095 235.962 229.672 235.902C230.255 235.836 230.679 235.726 230.944 235.574C231.216 235.421 231.352 235.156 231.352 234.778V234.699C231.352 233.718 231.084 232.955 230.547 232.412C230.016 231.868 229.211 231.597 228.131 231.597C227.01 231.597 226.132 231.842 225.496 232.332C224.859 232.823 224.412 233.347 224.153 233.903L221.926 233.108C222.324 232.18 222.854 231.457 223.517 230.94C224.186 230.417 224.916 230.052 225.704 229.847C226.5 229.634 227.282 229.528 228.051 229.528C228.541 229.528 229.105 229.588 229.741 229.707C230.384 229.82 231.004 230.055 231.601 230.413C232.204 230.771 232.704 231.312 233.102 232.034C233.5 232.757 233.699 233.724 233.699 234.938V245H231.352V242.932H231.233C231.074 243.263 230.809 243.618 230.437 243.996C230.066 244.374 229.572 244.695 228.956 244.96C228.339 245.225 227.587 245.358 226.699 245.358ZM227.057 243.25C227.985 243.25 228.767 243.068 229.403 242.703C230.046 242.339 230.53 241.868 230.855 241.291C231.186 240.714 231.352 240.108 231.352 239.472V237.324C231.253 237.443 231.034 237.553 230.696 237.652C230.364 237.745 229.98 237.828 229.542 237.901C229.112 237.967 228.691 238.027 228.28 238.08C227.875 238.126 227.547 238.166 227.295 238.199C226.685 238.278 226.115 238.408 225.585 238.587C225.061 238.759 224.637 239.021 224.312 239.372C223.994 239.717 223.835 240.187 223.835 240.784C223.835 241.599 224.137 242.216 224.74 242.634C225.35 243.045 226.122 243.25 227.057 243.25ZM237.982 245V229.727H240.249V232.034H240.408C240.686 231.278 241.19 230.665 241.919 230.195C242.648 229.724 243.47 229.489 244.385 229.489C244.557 229.489 244.773 229.492 245.031 229.499C245.29 229.505 245.486 229.515 245.618 229.528V231.915C245.539 231.895 245.356 231.865 245.071 231.825C244.793 231.779 244.498 231.756 244.186 231.756C243.444 231.756 242.781 231.911 242.198 232.223C241.621 232.528 241.164 232.952 240.825 233.496C240.494 234.033 240.328 234.646 240.328 235.335V245H237.982ZM248.4 250.727V229.727H250.667V232.153H250.945C251.117 231.888 251.356 231.55 251.661 231.139C251.973 230.722 252.417 230.35 252.993 230.026C253.577 229.694 254.366 229.528 255.36 229.528C256.646 229.528 257.779 229.85 258.76 230.493C259.742 231.136 260.507 232.047 261.057 233.227C261.608 234.407 261.883 235.799 261.883 237.403C261.883 239.021 261.608 240.423 261.057 241.609C260.507 242.789 259.745 243.704 258.77 244.354C257.796 244.997 256.672 245.318 255.4 245.318C254.419 245.318 253.633 245.156 253.043 244.831C252.453 244.5 251.999 244.125 251.681 243.707C251.363 243.283 251.117 242.932 250.945 242.653H250.746V250.727H248.4ZM250.706 237.364C250.706 238.517 250.876 239.535 251.214 240.416C251.552 241.291 252.046 241.977 252.695 242.474C253.345 242.965 254.14 243.21 255.081 243.21C256.063 243.21 256.881 242.952 257.537 242.435C258.2 241.911 258.698 241.208 259.029 240.327C259.367 239.438 259.536 238.451 259.536 237.364C259.536 236.29 259.37 235.322 259.039 234.46C258.714 233.592 258.22 232.906 257.557 232.402C256.901 231.892 256.076 231.636 255.081 231.636C254.127 231.636 253.325 231.878 252.675 232.362C252.026 232.839 251.535 233.509 251.204 234.371C250.872 235.226 250.706 236.223 250.706 237.364Z" fill="white"/>
<defs>
<clipPath id="clip0_91_225">
<rect width="150" height="150" fill="white" transform="translate(114.5 48)"/>
</clipPath>
</defs>
</svg>
