<svg width="379" height="300" viewBox="0 0 379 300" fill="none" xmlns="http://www.w3.org/2000/svg">
<rect x="1" y="1" width="377" height="298" rx="11" stroke="white" stroke-width="2"/>
<g clip-path="url(#clip0_91_232)">
<path d="M202.345 135.32C201.197 133.602 198.552 129.388 197.529 125.585C195.622 118.497 196.151 114.312 196.517 112.707C199.573 111.215 207.402 105.774 205.975 89.6315C204.99 78.5043 198.969 68.94 189.018 62.7004C176.93 55.1201 160.746 53.7001 146.781 58.9943C134.301 63.7258 124.411 73.0343 118.932 85.2048C113.453 97.3756 113.041 110.951 117.772 123.431C121.36 132.896 129.817 145.635 140.393 157.509C152.367 170.951 165.361 181.375 176.983 186.859C177.006 186.87 177.029 186.88 177.052 186.89C182.584 189.271 187.594 190.171 192.008 190.171C198.092 190.171 203.043 188.462 206.663 186.564C207.74 185.999 208.156 184.668 207.591 183.591C207.026 182.513 205.695 182.098 204.618 182.663C199.224 185.49 190.374 187.818 178.828 182.86C167.739 177.618 155.258 167.576 143.682 154.58C133.597 143.258 125.248 130.724 121.89 121.87C117.576 110.49 117.951 98.1106 122.948 87.013C127.944 75.9153 136.962 67.4271 148.343 63.1126C161.045 58.2971 175.734 59.5688 186.678 66.4319C195.433 71.9216 200.727 80.2984 201.587 90.0194C202.95 105.423 194.85 108.694 194.109 108.96C194.103 108.962 194.097 108.963 194.091 108.965L193.982 109.003C193.98 109.004 193.979 109.004 193.977 109.005C193.975 109.005 193.974 109.006 193.972 109.006C190.811 110.126 189.365 110.07 186.488 109.956C177.78 109.025 167.332 112.062 163.101 118.644C159.756 123.382 159.065 129.344 161.156 135.432C163.283 141.718 168.016 145.038 174.583 145.081C177.559 145.081 180.956 144.409 184.823 143.063C185.972 142.664 186.579 141.409 186.18 140.26C185.78 139.111 184.525 138.504 183.376 138.904C177.519 140.941 172.982 141.212 169.893 139.71C167.784 138.684 166.289 136.817 165.322 134.001C163.703 129.287 164.192 124.736 166.699 121.184C170.595 115.438 178.965 113.745 186.315 114.357C188.267 114.434 189.869 114.494 191.839 114.142C191.594 116.857 191.735 121.001 193.275 126.728C194.098 129.787 195.739 132.953 197.105 135.261C197.112 135.272 197.115 135.281 197.122 135.292C195.846 135.398 194.576 135.572 193.321 135.814C192.127 136.044 191.346 137.199 191.576 138.393C191.738 139.226 192.811 140.397 194.155 140.139C195.911 139.805 198.682 139.49 201.022 139.603C201.489 139.624 212.534 140.282 218.509 155.141C220.932 161.165 218.461 169.964 212.5 176.537C211.683 177.438 211.751 178.831 212.652 179.648C213.552 180.464 214.945 180.397 215.763 179.496C222.927 171.596 225.672 161.148 222.595 153.497C216.616 138.629 205.907 135.84 202.345 135.32Z" fill="white"/>
<path d="M137.466 86.6146C136.436 85.9656 135.077 86.2733 134.428 87.3022C128.16 97.237 126.951 109.227 131.11 120.197C133.831 127.373 144.803 145.688 153.731 156.834C155.604 159.153 159.363 159.941 162.145 157.709C164.537 155.752 165.054 152.333 163.348 149.756C154.427 136.282 151.797 131.454 151.161 129.777C145.909 115.925 150.736 100.247 162.631 91.7213C164.42 97.8851 170.129 102.287 176.705 102.287C176.745 102.287 176.786 102.287 176.825 102.286C180.767 102.254 184.399 100.666 187.05 97.8139C189.71 94.9536 191.034 91.2024 190.778 87.2521C190.458 82.2988 187.736 77.7666 183.114 74.4906C183.081 74.4666 183.046 74.4438 183.012 74.4221C175.123 69.4718 162.617 68.6673 152.599 72.465C148.419 74.0497 144.611 76.3369 141.282 79.2631C140.369 80.0661 140.279 81.4577 141.082 82.3709C141.885 83.2844 143.277 83.374 144.19 82.5713C147.121 79.9949 150.476 77.9805 154.16 76.5836C162.81 73.3044 173.923 73.9524 180.618 78.1199C182.661 79.5798 186.071 82.7157 186.383 87.5365C186.56 90.2658 185.651 92.8507 183.825 94.8148C182.006 96.7706 179.508 97.8599 176.789 97.8818C176.761 97.8821 176.734 97.8821 176.705 97.8821C171.601 97.8821 167.244 94.0932 166.552 89.0368C166.411 88.0126 165.768 87.1399 164.832 86.7024C163.897 86.2659 162.818 86.3318 161.944 86.8803C147.079 96.2084 140.812 114.906 147.042 131.338C148.097 134.122 152.23 140.942 159.675 152.188C160.128 152.872 159.991 153.781 159.356 154.301C158.966 154.526 158.162 155.031 157.168 154.08C148.626 143.416 137.784 125.376 135.228 118.636C131.564 108.971 132.63 98.4066 138.153 89.6524C138.802 88.6234 138.494 87.2635 137.466 86.6146Z" fill="white"/>
<path d="M219.175 95.7747C218.02 95.388 216.773 96.01 216.387 97.1634C216 98.3165 216.622 99.5646 217.775 99.951C222.55 101.551 226.117 105.418 227.318 110.295C228.519 115.172 227.154 120.253 223.667 123.887C222.824 124.764 222.853 126.158 223.73 127C224.157 127.41 224.707 127.614 225.255 127.614C225.834 127.614 226.412 127.387 226.844 126.936C231.382 122.208 233.158 115.593 231.594 109.242C230.032 102.891 225.388 97.8566 219.175 95.7747Z" fill="white"/>
<path d="M247.251 105.389C244.36 93.6447 235.773 84.3347 224.281 80.4846C223.126 80.0975 221.879 80.7198 221.493 81.8732C221.106 83.0264 221.728 84.2747 222.881 84.6608C232.935 88.0288 240.446 96.1713 242.974 106.442C245.502 116.712 242.628 127.411 235.287 135.06C234.445 135.938 234.473 137.332 235.351 138.174C235.778 138.584 236.327 138.787 236.875 138.787C237.454 138.787 238.032 138.561 238.464 138.11C246.857 129.365 250.141 117.133 247.251 105.389Z" fill="white"/>
<path d="M263.231 102.775C259.37 85.7336 247.216 72.0548 230.718 66.1852C229.573 65.7774 228.313 66.3756 227.905 67.5217C227.497 68.6678 228.096 69.927 229.242 70.3348C244.31 75.6959 255.41 88.1869 258.936 103.748C262.461 119.31 257.828 135.365 246.542 146.697C245.683 147.559 245.686 148.954 246.548 149.812C246.978 150.24 247.54 150.454 248.102 150.454C248.667 150.454 249.232 150.237 249.662 149.805C262.02 137.398 267.092 119.817 263.231 102.775Z" fill="white"/>
</g>
<path d="M140.348 231H137.882C137.737 230.291 137.481 229.668 137.117 229.131C136.759 228.594 136.321 228.143 135.804 227.778C135.294 227.407 134.727 227.129 134.104 226.943C133.481 226.758 132.831 226.665 132.155 226.665C130.922 226.665 129.805 226.976 128.804 227.599C127.81 228.223 127.018 229.141 126.428 230.354C125.845 231.567 125.553 233.055 125.553 234.818C125.553 236.581 125.845 238.07 126.428 239.283C127.018 240.496 127.81 241.414 128.804 242.037C129.805 242.66 130.922 242.972 132.155 242.972C132.831 242.972 133.481 242.879 134.104 242.693C134.727 242.508 135.294 242.232 135.804 241.868C136.321 241.497 136.759 241.043 137.117 240.506C137.481 239.962 137.737 239.339 137.882 238.636H140.348C140.163 239.677 139.825 240.608 139.334 241.43C138.844 242.252 138.234 242.952 137.505 243.528C136.775 244.098 135.957 244.533 135.049 244.831C134.147 245.129 133.183 245.278 132.155 245.278C130.418 245.278 128.874 244.854 127.522 244.006C126.169 243.157 125.105 241.951 124.33 240.386C123.554 238.822 123.167 236.966 123.167 234.818C123.167 232.67 123.554 230.814 124.33 229.25C125.105 227.686 126.169 226.479 127.522 225.631C128.874 224.782 130.418 224.358 132.155 224.358C133.183 224.358 134.147 224.507 135.049 224.805C135.957 225.104 136.775 225.541 137.505 226.118C138.234 226.688 138.844 227.384 139.334 228.206C139.825 229.021 140.163 229.953 140.348 231ZM144.015 245V229.727H146.362V245H144.015ZM145.208 227.182C144.751 227.182 144.356 227.026 144.025 226.714C143.7 226.403 143.538 226.028 143.538 225.591C143.538 225.153 143.7 224.779 144.025 224.467C144.356 224.156 144.751 224 145.208 224C145.665 224 146.057 224.156 146.381 224.467C146.713 224.779 146.879 225.153 146.879 225.591C146.879 226.028 146.713 226.403 146.381 226.714C146.057 227.026 145.665 227.182 145.208 227.182ZM157.301 229.727V231.716H149.387V229.727H157.301ZM151.694 226.068H154.04V240.625C154.04 241.288 154.136 241.785 154.328 242.116C154.527 242.441 154.779 242.66 155.084 242.773C155.396 242.879 155.724 242.932 156.069 242.932C156.327 242.932 156.539 242.919 156.705 242.892C156.871 242.859 157.003 242.832 157.103 242.812L157.58 244.92C157.421 244.98 157.199 245.04 156.914 245.099C156.629 245.166 156.267 245.199 155.83 245.199C155.167 245.199 154.517 245.056 153.881 244.771C153.251 244.486 152.728 244.052 152.31 243.469C151.899 242.885 151.694 242.15 151.694 241.261V226.068ZM162.343 250.727C161.945 250.727 161.59 250.694 161.279 250.628C160.967 250.568 160.752 250.509 160.632 250.449L161.229 248.381C161.799 248.527 162.303 248.58 162.74 248.54C163.178 248.5 163.566 248.304 163.904 247.953C164.248 247.608 164.563 247.048 164.848 246.273L165.286 245.08L159.638 229.727H162.184L166.4 241.898H166.559L170.775 229.727H173.32L166.837 247.227C166.545 248.016 166.184 248.669 165.753 249.186C165.322 249.71 164.822 250.098 164.252 250.349C163.688 250.601 163.052 250.727 162.343 250.727ZM200.758 224.636V245H198.372L187.275 229.011H187.076V245H184.61V224.636H186.997L198.133 240.665H198.332V224.636H200.758ZM211.579 245.318C210.2 245.318 208.99 244.99 207.95 244.334C206.915 243.678 206.107 242.759 205.523 241.58C204.947 240.4 204.658 239.021 204.658 237.443C204.658 235.852 204.947 234.464 205.523 233.277C206.107 232.09 206.915 231.169 207.95 230.513C208.99 229.857 210.2 229.528 211.579 229.528C212.958 229.528 214.164 229.857 215.198 230.513C216.239 231.169 217.048 232.09 217.624 233.277C218.208 234.464 218.499 235.852 218.499 237.443C218.499 239.021 218.208 240.4 217.624 241.58C217.048 242.759 216.239 243.678 215.198 244.334C214.164 244.99 212.958 245.318 211.579 245.318ZM211.579 243.21C212.626 243.21 213.488 242.942 214.164 242.405C214.84 241.868 215.341 241.162 215.665 240.287C215.99 239.412 216.153 238.464 216.153 237.443C216.153 236.422 215.99 235.471 215.665 234.589C215.341 233.708 214.84 232.995 214.164 232.452C213.488 231.908 212.626 231.636 211.579 231.636C210.531 231.636 209.67 231.908 208.994 232.452C208.317 232.995 207.817 233.708 207.492 234.589C207.167 235.471 207.005 236.422 207.005 237.443C207.005 238.464 207.167 239.412 207.492 240.287C207.817 241.162 208.317 241.868 208.994 242.405C209.67 242.942 210.531 243.21 211.579 243.21ZM222.081 245V229.727H224.428V245H222.081ZM223.275 227.182C222.817 227.182 222.423 227.026 222.091 226.714C221.766 226.403 221.604 226.028 221.604 225.591C221.604 225.153 221.766 224.779 222.091 224.467C222.423 224.156 222.817 224 223.275 224C223.732 224 224.123 224.156 224.448 224.467C224.779 224.779 224.945 225.153 224.945 225.591C224.945 226.028 224.779 226.403 224.448 226.714C224.123 227.026 223.732 227.182 223.275 227.182ZM239.544 233.148L237.436 233.744C237.304 233.393 237.108 233.052 236.849 232.72C236.598 232.382 236.253 232.104 235.815 231.885C235.378 231.666 234.818 231.557 234.135 231.557C233.2 231.557 232.421 231.772 231.798 232.203C231.182 232.627 230.874 233.168 230.874 233.824C230.874 234.407 231.086 234.868 231.51 235.206C231.934 235.544 232.597 235.826 233.499 236.051L235.766 236.608C237.131 236.939 238.149 237.446 238.818 238.129C239.488 238.805 239.822 239.677 239.822 240.744C239.822 241.619 239.571 242.402 239.067 243.091C238.57 243.78 237.874 244.324 236.979 244.722C236.084 245.119 235.043 245.318 233.857 245.318C232.299 245.318 231.009 244.98 229.989 244.304C228.968 243.628 228.321 242.64 228.05 241.341L230.277 240.784C230.489 241.606 230.89 242.223 231.48 242.634C232.077 243.045 232.856 243.25 233.817 243.25C234.911 243.25 235.779 243.018 236.422 242.554C237.071 242.083 237.396 241.52 237.396 240.864C237.396 240.333 237.211 239.889 236.839 239.531C236.468 239.167 235.898 238.895 235.129 238.716L232.584 238.119C231.185 237.788 230.158 237.274 229.501 236.578C228.852 235.875 228.527 234.997 228.527 233.943C228.527 233.081 228.769 232.319 229.253 231.656C229.743 230.993 230.41 230.473 231.251 230.095C232.1 229.717 233.061 229.528 234.135 229.528C235.646 229.528 236.833 229.86 237.695 230.523C238.563 231.186 239.179 232.061 239.544 233.148ZM249.758 245.318C248.287 245.318 247.017 244.993 245.95 244.344C244.889 243.688 244.071 242.773 243.494 241.599C242.924 240.42 242.639 239.047 242.639 237.483C242.639 235.919 242.924 234.54 243.494 233.347C244.071 232.147 244.873 231.212 245.9 230.543C246.934 229.866 248.141 229.528 249.52 229.528C250.315 229.528 251.1 229.661 251.876 229.926C252.652 230.191 253.358 230.622 253.994 231.219C254.63 231.809 255.137 232.591 255.515 233.565C255.893 234.54 256.082 235.74 256.082 237.165V238.159H244.309V236.131H253.696C253.696 235.269 253.523 234.5 253.179 233.824C252.841 233.148 252.357 232.614 251.727 232.223C251.104 231.832 250.368 231.636 249.52 231.636C248.585 231.636 247.776 231.868 247.093 232.332C246.417 232.79 245.897 233.386 245.532 234.122C245.168 234.858 244.985 235.647 244.985 236.489V237.841C244.985 238.994 245.184 239.972 245.582 240.774C245.986 241.57 246.547 242.176 247.262 242.594C247.978 243.005 248.81 243.21 249.758 243.21C250.375 243.21 250.931 243.124 251.429 242.952C251.932 242.773 252.367 242.508 252.731 242.156C253.096 241.798 253.377 241.354 253.576 240.824L255.843 241.46C255.605 242.229 255.204 242.905 254.64 243.489C254.077 244.065 253.381 244.516 252.552 244.841C251.724 245.159 250.792 245.318 249.758 245.318Z" fill="white"/>
<defs>
<clipPath id="clip0_91_232">
<rect width="150" height="150" fill="white" transform="translate(114.5 48)"/>
</clipPath>
</defs>
</svg>
