<svg width="379" height="300" viewBox="0 0 379 300" fill="none" xmlns="http://www.w3.org/2000/svg">
<rect x="1" y="1" width="377" height="298" rx="11" stroke="white" stroke-width="2"/>
<g clip-path="url(#clip0_91_333)">
<path d="M264.5 141.787C264.5 127.377 252.776 115.653 238.367 115.653C236.824 115.653 235.293 115.788 233.788 116.054C233.487 111.231 232.168 106.493 229.928 102.237C229.278 101.001 227.75 100.527 226.514 101.177C225.279 101.828 224.804 103.356 225.454 104.591C227.642 108.749 228.799 113.448 228.799 118.182C228.799 118.436 228.79 118.688 228.781 118.94L228.774 119.18C228.748 119.998 229.121 120.778 229.772 121.272C230.424 121.767 231.274 121.916 232.056 121.671C234.091 121.033 236.214 120.71 238.367 120.71C249.989 120.71 259.445 130.165 259.445 141.788C259.445 145.983 258.203 150.04 255.903 153.483C255.815 153.388 255.722 153.298 255.632 153.205C255.532 153.101 255.433 152.997 255.33 152.895C255.262 152.828 255.193 152.764 255.124 152.698C254.964 152.546 254.803 152.395 254.638 152.249C254.612 152.226 254.586 152.204 254.56 152.181C251.482 149.481 247.454 147.839 243.047 147.839C242.127 147.839 241.21 147.911 240.305 148.054C237.577 144.969 233.641 143.171 229.476 143.171C228.799 143.171 228.126 143.218 227.46 143.312C226.089 139.408 223.637 135.909 220.393 133.284C216.425 130.071 211.424 128.302 206.31 128.302C194.768 128.302 185.236 137.073 184.03 148.3C183.365 148.223 182.694 148.184 182.02 148.184C181.736 148.184 181.454 148.192 181.174 148.205C181.067 148.21 180.961 148.221 180.854 148.228C180.684 148.239 180.513 148.25 180.345 148.267C180.209 148.279 180.075 148.297 179.94 148.313C179.804 148.33 179.669 148.346 179.534 148.365C179.38 148.388 179.227 148.414 179.075 148.44C178.965 148.459 178.855 148.478 178.746 148.499C178.575 148.532 178.405 148.568 178.236 148.606C178.152 148.625 178.068 148.644 177.985 148.664C177.795 148.71 177.607 148.758 177.419 148.81C177.366 148.825 177.313 148.84 177.259 148.855C177.046 148.917 176.834 148.981 176.624 149.05C176.611 149.055 176.598 149.059 176.585 149.063C171.234 150.838 167.035 155.156 165.426 160.581C165.423 160.589 165.421 160.598 165.419 160.606C165.348 160.846 165.281 161.089 165.221 161.334C165.22 161.334 165.22 161.336 165.22 161.337C165.096 161.839 164.99 162.348 164.911 162.866H140.909C129.135 162.866 119.556 153.286 119.556 141.512C119.556 129.737 129.135 120.158 140.909 120.158C142.724 120.158 144.532 120.387 146.283 120.84C147.308 121.103 148.391 120.703 148.994 119.832C152.085 115.369 157.165 112.704 162.582 112.704C164.362 112.704 166.123 112.99 167.817 113.555C168.494 113.782 169.235 113.711 169.858 113.359C170.48 113.009 170.925 112.411 171.082 111.715C171.66 109.159 172.555 106.752 173.719 104.526C173.791 104.431 173.857 104.33 173.915 104.223C177.667 97.3393 184.127 92.1763 191.638 90.0584C191.727 90.0332 191.815 90.0027 191.9 89.9685C194.352 89.311 196.926 88.9595 199.577 88.9595C207.756 88.9595 215.338 92.2519 220.928 98.2302C221.881 99.2497 223.481 99.3039 224.501 98.3503C225.521 97.3967 225.574 95.7971 224.621 94.7772C218.16 87.8673 209.032 83.904 199.577 83.904C197.115 83.904 194.67 84.1732 192.286 84.6936C189.825 80.6849 185.459 78.1908 180.642 78.1908C180.317 78.1908 179.992 78.2022 179.669 78.2248C178.454 69.7407 171.14 63.1987 162.325 63.1987C154.921 63.1987 148.501 67.7225 145.954 74.4631C145.59 74.4285 145.223 74.4109 144.855 74.4109C141.649 74.4109 138.614 75.7472 136.451 78.0517C135.844 77.9708 135.233 77.9301 134.62 77.9301C127.008 77.9301 120.816 84.1231 120.816 91.7354C120.816 99.3476 127.008 105.541 134.62 105.541H152.65C154.046 105.541 155.178 104.409 155.178 103.013C155.178 101.617 154.046 100.485 152.65 100.485H134.621C129.796 100.485 125.872 96.56 125.872 91.7354C125.872 86.9104 129.797 82.9855 134.621 82.9855C135.364 82.9855 136.105 83.0796 136.826 83.2659C137.851 83.5299 138.932 83.1276 139.535 82.2575C140.746 80.51 142.735 79.4664 144.855 79.4664C145.554 79.4664 146.243 79.5783 146.906 79.7992C147.583 80.0257 148.325 79.9536 148.946 79.6032C149.569 79.2525 150.013 78.6546 150.171 77.9582C151.461 72.2447 156.459 68.2542 162.325 68.2542C169.198 68.2542 174.789 73.8455 174.789 80.718C174.789 80.8252 174.785 80.9312 174.782 81.0373L174.778 81.1445C174.751 81.9628 175.123 82.7441 175.774 83.2396C176.426 83.735 177.278 83.8841 178.06 83.64C178.894 83.3787 179.763 83.2463 180.642 83.2463C183.202 83.2463 185.562 84.3643 187.169 86.2308C187.081 86.2653 186.995 86.304 186.908 86.3392C186.747 86.4027 186.589 86.471 186.43 86.5369C186.181 86.6409 185.932 86.7446 185.686 86.8542C185.392 86.9843 185.101 87.122 184.81 87.2603C184.71 87.3083 184.609 87.3543 184.51 87.4035C182.214 88.5259 180.037 89.9011 178.035 91.5221C175.322 93.7179 172.975 96.3145 171.058 99.1914C170.981 99.3068 170.907 99.424 170.831 99.54C170.671 99.7873 170.512 100.036 170.358 100.287C170.317 100.354 170.273 100.419 170.232 100.486H160.865C159.469 100.486 158.338 101.617 158.338 103.013C158.338 104.409 159.469 105.541 160.865 105.541H167.722C167.392 106.371 167.091 107.214 166.827 108.07C165.431 107.789 164.011 107.648 162.581 107.648C156.084 107.648 149.961 110.58 145.878 115.57C144.243 115.259 142.578 115.102 140.909 115.102C126.347 115.1 114.5 126.948 114.5 141.51C114.5 156.072 126.347 167.92 140.909 167.92H164.884C166.068 176.318 173.299 182.802 182.019 182.802H226.275C227.671 182.802 228.803 181.67 228.803 180.274C228.803 178.878 227.671 177.746 226.275 177.746H182.019C175.263 177.746 169.767 172.25 169.767 165.494C169.767 165.422 169.771 165.351 169.772 165.28C169.775 165.119 169.779 164.958 169.787 164.799C169.79 164.762 169.793 164.726 169.796 164.689C169.807 164.516 169.82 164.344 169.839 164.174C169.84 164.157 169.843 164.141 169.845 164.125C170.531 158.016 175.744 153.239 182.019 153.239C183.272 153.239 184.507 153.428 185.689 153.798C186.472 154.044 187.324 153.894 187.975 153.398C188.627 152.903 188.998 152.121 188.972 151.302L188.967 151.164C188.962 151.014 188.956 150.863 188.956 150.712C188.956 141.143 196.74 133.358 206.309 133.358C214.345 133.358 221.462 139.04 223.231 146.87C223.389 147.567 223.833 148.164 224.456 148.515C225.078 148.866 225.82 148.937 226.497 148.711C227.46 148.389 228.462 148.226 229.475 148.226C232.558 148.226 235.448 149.743 237.207 152.283C237.811 153.154 238.892 153.557 239.919 153.291C240.937 153.028 241.989 152.894 243.047 152.894C243.293 152.894 243.538 152.903 243.781 152.917C243.872 152.923 243.963 152.931 244.053 152.938C244.198 152.95 244.343 152.964 244.488 152.98C244.606 152.994 244.724 153.008 244.841 153.025C244.938 153.039 245.034 153.056 245.13 153.072C248.331 153.615 251.12 155.383 252.992 157.879C253 157.888 253.007 157.898 253.014 157.907C254.558 159.978 255.473 162.544 255.473 165.32C255.473 172.172 249.898 177.746 243.046 177.746H234.489C233.093 177.746 231.961 178.878 231.961 180.274C231.961 181.67 233.093 182.801 234.489 182.801H243.046C252.686 182.801 260.529 174.959 260.529 165.319C260.529 162.687 259.94 160.19 258.893 157.948C262.517 153.352 264.5 147.682 264.5 141.787Z" fill="white"/>
</g>
<path d="M169.661 231H167.195C167.049 230.291 166.794 229.668 166.429 229.131C166.071 228.594 165.634 228.143 165.117 227.778C164.606 227.407 164.04 227.129 163.417 226.943C162.793 226.758 162.144 226.665 161.468 226.665C160.235 226.665 159.118 226.976 158.117 227.599C157.123 228.223 156.33 229.141 155.74 230.354C155.157 231.567 154.865 233.055 154.865 234.818C154.865 236.581 155.157 238.07 155.74 239.283C156.33 240.496 157.123 241.414 158.117 242.037C159.118 242.66 160.235 242.972 161.468 242.972C162.144 242.972 162.793 242.879 163.417 242.693C164.04 242.508 164.606 242.232 165.117 241.868C165.634 241.497 166.071 241.043 166.429 240.506C166.794 239.962 167.049 239.339 167.195 238.636H169.661C169.475 239.677 169.137 240.608 168.647 241.43C168.156 242.252 167.546 242.952 166.817 243.528C166.088 244.098 165.269 244.533 164.361 244.831C163.46 245.129 162.495 245.278 161.468 245.278C159.731 245.278 158.186 244.854 156.834 244.006C155.482 243.157 154.418 241.951 153.642 240.386C152.867 238.822 152.479 236.966 152.479 234.818C152.479 232.67 152.867 230.814 153.642 229.25C154.418 227.686 155.482 226.479 156.834 225.631C158.186 224.782 159.731 224.358 161.468 224.358C162.495 224.358 163.46 224.507 164.361 224.805C165.269 225.104 166.088 225.541 166.817 226.118C167.546 226.688 168.156 227.384 168.647 228.206C169.137 229.021 169.475 229.953 169.661 231ZM175.674 224.636V245H173.327V224.636H175.674ZM186.176 245.318C184.798 245.318 183.588 244.99 182.547 244.334C181.513 243.678 180.704 242.759 180.121 241.58C179.544 240.4 179.256 239.021 179.256 237.443C179.256 235.852 179.544 234.464 180.121 233.277C180.704 232.09 181.513 231.169 182.547 230.513C183.588 229.857 184.798 229.528 186.176 229.528C187.555 229.528 188.762 229.857 189.796 230.513C190.837 231.169 191.645 232.09 192.222 233.277C192.805 234.464 193.097 235.852 193.097 237.443C193.097 239.021 192.805 240.4 192.222 241.58C191.645 242.759 190.837 243.678 189.796 244.334C188.762 244.99 187.555 245.318 186.176 245.318ZM186.176 243.21C187.224 243.21 188.086 242.942 188.762 242.405C189.438 241.868 189.938 241.162 190.263 240.287C190.588 239.412 190.75 238.464 190.75 237.443C190.75 236.422 190.588 235.471 190.263 234.589C189.938 233.708 189.438 232.995 188.762 232.452C188.086 231.908 187.224 231.636 186.176 231.636C185.129 231.636 184.267 231.908 183.591 232.452C182.915 232.995 182.415 233.708 182.09 234.589C181.765 235.471 181.603 236.422 181.603 237.443C181.603 238.464 181.765 239.412 182.09 240.287C182.415 241.162 182.915 241.868 183.591 242.405C184.267 242.942 185.129 243.21 186.176 243.21ZM206.304 238.756V229.727H208.651V245H206.304V242.415H206.145C205.787 243.19 205.23 243.85 204.474 244.393C203.719 244.93 202.764 245.199 201.611 245.199C200.656 245.199 199.808 244.99 199.065 244.572C198.323 244.148 197.74 243.512 197.315 242.663C196.891 241.808 196.679 240.731 196.679 239.432V229.727H199.026V239.273C199.026 240.386 199.337 241.275 199.96 241.938C200.59 242.6 201.392 242.932 202.366 242.932C202.95 242.932 203.543 242.783 204.146 242.484C204.756 242.186 205.267 241.729 205.678 241.112C206.095 240.496 206.304 239.71 206.304 238.756ZM218.716 245.318C217.443 245.318 216.319 244.997 215.345 244.354C214.37 243.704 213.608 242.789 213.058 241.609C212.508 240.423 212.233 239.021 212.233 237.403C212.233 235.799 212.508 234.407 213.058 233.227C213.608 232.047 214.374 231.136 215.355 230.493C216.336 229.85 217.469 229.528 218.755 229.528C219.75 229.528 220.535 229.694 221.112 230.026C221.695 230.35 222.139 230.722 222.444 231.139C222.756 231.55 222.998 231.888 223.17 232.153H223.369V224.636H225.716V245H223.449V242.653H223.17C222.998 242.932 222.752 243.283 222.434 243.707C222.116 244.125 221.662 244.5 221.072 244.831C220.482 245.156 219.697 245.318 218.716 245.318ZM219.034 243.21C219.975 243.21 220.77 242.965 221.42 242.474C222.07 241.977 222.564 241.291 222.902 240.416C223.24 239.535 223.409 238.517 223.409 237.364C223.409 236.223 223.243 235.226 222.912 234.371C222.58 233.509 222.09 232.839 221.44 232.362C220.79 231.878 219.988 231.636 219.034 231.636C218.039 231.636 217.211 231.892 216.548 232.402C215.892 232.906 215.398 233.592 215.066 234.46C214.742 235.322 214.579 236.29 214.579 237.364C214.579 238.451 214.745 239.438 215.076 240.327C215.414 241.208 215.912 241.911 216.568 242.435C217.231 242.952 218.053 243.21 219.034 243.21Z" fill="white"/>
<defs>
<clipPath id="clip0_91_333">
<rect width="150" height="150" fill="white" transform="translate(114.5 48)"/>
</clipPath>
</defs>
</svg>
