<svg width="379" height="300" viewBox="0 0 379 300" fill="none" xmlns="http://www.w3.org/2000/svg">
<rect x="1" y="1" width="377" height="298" rx="11" stroke="white" stroke-width="2"/>
<g clip-path="url(#clip0_91_257)">
<path d="M125.589 72.6127L126.321 72.6933C129.413 73.034 131.81 75.4316 132.151 78.523L132.231 79.2546C132.371 80.5187 133.435 81.4724 134.707 81.4724C135.979 81.4721 137.043 80.5185 137.182 79.2552L137.263 78.5233C137.603 75.4313 140.001 73.034 143.093 72.6933L143.824 72.6127C145.088 72.4732 146.042 71.4095 146.042 70.1374C146.042 68.8656 145.088 67.8016 143.824 67.6624L143.093 67.5818C140.001 67.2411 137.603 64.8435 137.262 61.7515L137.182 61.0211C137.043 59.7566 135.979 58.803 134.707 58.8027C133.435 58.8027 132.371 59.7561 132.231 61.0205L132.151 61.7518C131.81 64.8437 129.413 67.2411 126.32 67.5818L125.589 67.6624C124.325 67.8019 123.371 68.8656 123.371 70.1374C123.371 71.4092 124.325 72.4732 125.589 72.6127ZM134.707 67.201C135.488 68.3597 136.484 69.3558 137.643 70.1374C136.484 70.9185 135.488 71.9148 134.707 73.0732C133.925 71.9148 132.929 70.9185 131.771 70.1371C132.929 69.3563 133.926 68.3594 134.707 67.201Z" fill="white"/>
<path d="M223.045 104.874C224.258 104.874 225.242 103.89 225.242 102.677V97.4031C225.242 96.1893 224.258 95.2058 223.045 95.2058C221.831 95.2058 220.848 96.1893 220.848 97.4031V102.677C220.848 103.89 221.831 104.874 223.045 104.874Z" fill="white"/>
<path d="M155.955 104.874C157.169 104.874 158.152 103.89 158.152 102.677V97.4031C158.152 96.1893 157.169 95.2058 155.955 95.2058C154.742 95.2058 153.758 96.1893 153.758 97.4031V102.677C153.758 103.89 154.742 104.874 155.955 104.874Z" fill="white"/>
<path d="M199.754 116.007C201.369 116.007 202.684 114.692 202.684 113.077C202.684 111.461 201.369 110.147 199.754 110.147C198.138 110.147 196.824 111.461 196.824 113.077C196.824 114.692 198.138 116.007 199.754 116.007Z" fill="white"/>
<path d="M179.246 116.007C180.862 116.007 182.176 114.692 182.176 113.077C182.176 111.461 180.862 110.147 179.246 110.147C177.631 110.147 176.316 111.461 176.316 113.077C176.316 114.692 177.631 116.007 179.246 116.007Z" fill="white"/>
<path d="M253.514 169.62H250.479L255.943 162.23C257.682 159.877 258.64 156.97 258.64 154.043V152.921C258.64 145.328 252.463 139.151 244.871 139.151C242.811 139.151 240.822 139.599 239.002 140.459C238.784 138.636 238.447 136.832 237.992 135.058C242.578 130.892 245.017 126.135 245.017 121.134C245.017 115.903 242.293 110.833 237.14 106.47C237.14 106.47 237.14 106.47 237.14 106.469C236.911 106.275 236.83 105.951 236.943 105.68C237.732 103.797 238.133 101.801 238.133 99.747C238.133 91.2661 231.233 84.3661 222.752 84.3661C216.465 84.3661 210.871 88.129 208.501 93.9523C208.365 94.2881 208.037 94.4817 207.704 94.4249C206.425 94.2031 205.13 94.0098 203.826 93.8363L211.964 78.1417C212.282 78.1889 212.606 78.2141 212.937 78.2141C216.572 78.2141 219.529 75.2568 219.529 71.6223C219.529 67.9877 216.572 65.0305 212.937 65.0305C209.302 65.0305 206.345 67.9877 206.345 71.6223C206.345 71.9328 206.368 72.2378 206.41 72.5372L196.606 77.9557L193.782 70.475C195.194 69.265 196.091 67.4709 196.091 65.4702C196.091 61.8356 193.135 58.8784 189.5 58.8784C185.865 58.8784 182.908 61.8356 182.908 65.4702C182.908 67.47 183.804 69.2633 185.215 70.4732L182.39 77.9557L172.588 72.5381C172.629 72.2387 172.653 71.9334 172.653 71.6226C172.653 67.988 169.696 65.0308 166.061 65.0308C162.426 65.0308 159.469 67.988 159.469 71.6226C159.469 75.2571 162.426 78.2144 166.061 78.2144C166.391 78.2144 166.715 78.1892 167.032 78.1423L175.171 93.8372C173.867 94.0109 172.573 94.204 171.295 94.4255C170.963 94.4847 170.635 94.2887 170.498 93.9529C168.129 88.1296 162.535 84.3667 156.248 84.3667C147.767 84.3667 140.867 91.2667 140.867 99.7476C140.867 101.801 141.267 103.798 142.056 105.68C142.17 105.951 142.089 106.276 141.86 106.47C136.706 110.833 133.982 115.904 133.982 121.134C133.982 126.134 136.42 130.889 141.003 135.055C141.002 135.057 141.001 135.059 141 135.061C140.546 136.832 140.213 138.636 139.995 140.458C138.176 139.599 136.188 139.152 134.129 139.152C126.536 139.152 120.359 145.329 120.359 152.921V154.044C120.359 156.97 121.317 159.877 123.057 162.23L128.521 169.62H125.486C119.428 169.62 114.5 174.549 114.5 180.607V183.536C114.5 185.556 116.143 187.198 118.162 187.198H130.992C132.206 187.198 133.189 186.215 133.189 185.001C133.189 183.787 132.206 182.804 130.992 182.804H118.895V180.607C118.895 176.972 121.851 174.015 125.486 174.015H129.974C131.364 174.015 132.617 173.243 133.244 172.002C133.87 170.76 133.745 169.294 132.919 168.175L126.591 159.617C125.406 158.015 124.754 156.036 124.754 154.043V152.921C124.754 147.751 128.959 143.546 134.129 143.546C136.154 143.546 138.076 144.182 139.696 145.381C139.696 145.404 139.695 145.427 139.695 145.45C139.695 156.602 144.038 167.086 151.923 174.971C155.143 178.191 158.797 180.82 162.753 182.804H141.246C140.033 182.804 139.049 183.787 139.049 185.001C139.049 186.215 140.033 187.198 141.246 187.198H237.754C238.967 187.198 239.951 186.215 239.951 185.001C239.951 183.787 238.967 182.804 237.754 182.804H216.186C229.88 175.946 239.305 161.779 239.305 145.45C239.305 145.427 239.304 145.404 239.304 145.381C240.924 144.182 242.846 143.546 244.871 143.546C250.041 143.546 254.246 147.751 254.246 152.921V154.043C254.246 156.036 253.594 158.015 252.409 159.617L246.081 168.175C245.254 169.294 245.13 170.76 245.756 172.002C246.382 173.243 247.635 174.015 249.026 174.015H253.514C257.149 174.015 260.105 176.972 260.105 180.606V182.804H248.008C246.794 182.804 245.811 183.787 245.811 185.001C245.811 186.215 246.794 187.198 248.008 187.198H260.838C262.857 187.198 264.5 185.555 264.5 183.536V180.606C264.5 174.548 259.572 169.62 253.514 169.62ZM212.938 69.4247C214.149 69.4247 215.135 70.4103 215.135 71.622C215.135 72.8337 214.149 73.8192 212.938 73.8192C211.726 73.8192 210.74 72.8337 210.74 71.622C210.74 70.4103 211.726 69.4247 212.938 69.4247ZM189.5 63.2724C190.712 63.2724 191.697 64.2579 191.697 65.4696C191.697 66.6813 190.712 67.6669 189.5 67.6669C188.288 67.6669 187.303 66.6813 187.303 65.4696C187.303 64.2579 188.288 63.2724 189.5 63.2724ZM163.864 71.622C163.864 70.4103 164.849 69.4247 166.061 69.4247C167.273 69.4247 168.258 70.4103 168.258 71.622C168.258 72.8337 167.273 73.8192 166.061 73.8192C164.849 73.8192 163.864 72.8337 163.864 71.622ZM171.316 76.8556L181.006 82.2104C181.938 82.7258 183.046 82.809 184.042 82.4419C185.04 82.0748 185.828 81.2935 186.203 80.2985L189.314 72.0567C189.376 72.0585 189.438 72.0614 189.5 72.0614C189.561 72.0614 189.622 72.0585 189.683 72.0567L192.794 80.2988C193.17 81.2938 193.958 82.0751 194.956 82.4422C195.951 82.8087 197.059 82.7258 197.991 82.2104L207.681 76.8556L199.144 93.3195C195.976 93.0424 192.754 92.8991 189.5 92.8991C186.245 92.8991 183.022 93.0424 179.853 93.3195L171.316 76.8556ZM144.7 109.824C146.403 108.381 146.97 106.034 146.11 103.982C145.547 102.639 145.262 101.214 145.262 99.747C145.262 93.689 150.19 88.7606 156.248 88.7606C160.739 88.7606 164.735 91.4486 166.428 95.6088C167.35 97.8746 169.66 99.1681 172.046 98.7547C177.639 97.7853 183.512 97.2939 189.5 97.2939C195.488 97.2939 201.361 97.7855 206.954 98.7547C209.34 99.1684 211.65 97.8746 212.572 95.6088C214.265 91.4486 218.261 88.7606 222.752 88.7606C228.81 88.7606 233.738 93.689 233.738 99.747C233.738 101.214 233.453 102.639 232.89 103.982C232.03 106.034 232.597 108.382 234.3 109.823C236.778 111.921 239.661 115.127 240.426 119.108C208.317 129.5 174.116 129.262 138.733 118.399C139.683 114.745 142.371 111.795 144.7 109.824ZM195.837 131.123L195.738 131.479C194.962 134.271 192.397 136.221 189.5 136.221C186.603 136.221 184.038 134.271 183.262 131.479L183.111 130.936C185.504 131.063 187.887 131.144 190.257 131.168C190.809 131.173 194.53 131.155 195.837 131.123ZM138.529 122.93C152.011 126.992 165.388 129.566 178.462 130.621L179.028 132.656C180.33 137.343 184.637 140.616 189.5 140.616C194.363 140.616 198.67 137.343 199.972 132.656L200.449 130.944C213.966 130.231 227.321 127.829 240.298 123.764C239.045 128.874 234.165 133.699 226.239 137.57C216.463 142.344 203.415 144.973 189.5 144.973C175.585 144.973 162.538 142.344 152.761 137.57C144.404 133.49 139.433 128.347 138.529 122.93ZM181.443 182.804C176.919 182.804 172.519 182.002 168.402 180.471C170.084 170.201 178.964 162.589 189.5 162.589C200.011 162.589 208.906 170.199 210.597 180.453C206.535 181.971 202.142 182.804 197.557 182.804H181.443ZM214.722 178.619C212.24 166.823 201.785 158.194 189.5 158.194C177.184 158.194 166.743 166.825 164.272 178.641C160.905 176.894 157.789 174.622 155.03 171.863C147.975 164.808 144.09 155.428 144.09 145.45C144.09 142.956 144.34 140.478 144.827 138.055C146.622 139.282 148.625 140.441 150.833 141.519C161.198 146.58 174.93 149.368 189.5 149.368C204.07 149.368 217.802 146.58 228.167 141.519C230.376 140.441 232.379 139.281 234.175 138.054C234.661 140.477 234.91 142.955 234.91 145.45C234.91 159.862 226.705 172.392 214.722 178.619Z" fill="white"/>
<path d="M235.175 72.6127L235.907 72.6933C238.999 73.034 241.396 75.4316 241.737 78.523L241.817 79.2549C241.957 80.519 243.021 81.4724 244.292 81.4724C245.564 81.4724 246.629 80.519 246.768 79.2549L246.848 78.5233C247.189 75.4313 249.586 73.034 252.679 72.6933L253.411 72.6127C254.675 72.4732 255.628 71.4092 255.628 70.1374C255.628 68.8659 254.675 67.8016 253.411 67.6624L252.679 67.5818C249.587 67.2411 247.189 64.8435 246.849 61.7521L246.768 61.0202C246.629 59.7561 245.565 58.8027 244.293 58.8027C243.021 58.8027 241.957 59.7561 241.817 61.0205L241.737 61.7518C241.396 64.8437 238.999 67.2411 235.907 67.5818L235.175 67.6624C233.911 67.8019 232.958 68.8656 232.958 70.1374C232.957 71.4092 233.911 72.4732 235.175 72.6127ZM244.292 67.201C245.074 68.3594 246.07 69.3561 247.229 70.1374C246.071 70.9185 245.074 71.9151 244.292 73.0735C243.511 71.9151 242.515 70.9185 241.356 70.1371C242.514 69.3563 243.511 68.3594 244.292 67.201Z" fill="white"/>
</g>
<path d="M117.94 231H115.474C115.328 230.291 115.073 229.668 114.709 229.131C114.351 228.594 113.913 228.143 113.396 227.778C112.886 227.407 112.319 227.129 111.696 226.943C111.073 226.758 110.423 226.665 109.747 226.665C108.514 226.665 107.397 226.976 106.396 227.599C105.402 228.223 104.61 229.141 104.02 230.354C103.436 231.567 103.145 233.055 103.145 234.818C103.145 236.581 103.436 238.07 104.02 239.283C104.61 240.496 105.402 241.414 106.396 242.037C107.397 242.66 108.514 242.972 109.747 242.972C110.423 242.972 111.073 242.879 111.696 242.693C112.319 242.508 112.886 242.232 113.396 241.868C113.913 241.497 114.351 241.043 114.709 240.506C115.073 239.962 115.328 239.339 115.474 238.636H117.94C117.755 239.677 117.416 240.608 116.926 241.43C116.435 242.252 115.826 242.952 115.096 243.528C114.367 244.098 113.549 244.533 112.64 244.831C111.739 245.129 110.774 245.278 109.747 245.278C108.01 245.278 106.466 244.854 105.113 244.006C103.761 243.157 102.697 241.951 101.922 240.386C101.146 238.822 100.758 236.966 100.758 234.818C100.758 232.67 101.146 230.814 101.922 229.25C102.697 227.686 103.761 226.479 105.113 225.631C106.466 224.782 108.01 224.358 109.747 224.358C110.774 224.358 111.739 224.507 112.64 224.805C113.549 225.104 114.367 225.541 115.096 226.118C115.826 226.688 116.435 227.384 116.926 228.206C117.416 229.021 117.755 229.953 117.94 231ZM127.811 245.318C126.432 245.318 125.223 244.99 124.182 244.334C123.148 243.678 122.339 242.759 121.756 241.58C121.179 240.4 120.891 239.021 120.891 237.443C120.891 235.852 121.179 234.464 121.756 233.277C122.339 232.09 123.148 231.169 124.182 230.513C125.223 229.857 126.432 229.528 127.811 229.528C129.19 229.528 130.396 229.857 131.431 230.513C132.471 231.169 133.28 232.09 133.857 233.277C134.44 234.464 134.732 235.852 134.732 237.443C134.732 239.021 134.44 240.4 133.857 241.58C133.28 242.759 132.471 243.678 131.431 244.334C130.396 244.99 129.19 245.318 127.811 245.318ZM127.811 243.21C128.859 243.21 129.72 242.942 130.396 242.405C131.073 241.868 131.573 241.162 131.898 240.287C132.223 239.412 132.385 238.464 132.385 237.443C132.385 236.422 132.223 235.471 131.898 234.589C131.573 233.708 131.073 232.995 130.396 232.452C129.72 231.908 128.859 231.636 127.811 231.636C126.764 231.636 125.902 231.908 125.226 232.452C124.55 232.995 124.049 233.708 123.725 234.589C123.4 235.471 123.237 236.422 123.237 237.443C123.237 238.464 123.4 239.412 123.725 240.287C124.049 241.162 124.55 241.868 125.226 242.405C125.902 242.942 126.764 243.21 127.811 243.21ZM149.132 233.148L147.024 233.744C146.891 233.393 146.696 233.052 146.437 232.72C146.185 232.382 145.841 232.104 145.403 231.885C144.966 231.666 144.406 231.557 143.723 231.557C142.788 231.557 142.009 231.772 141.386 232.203C140.77 232.627 140.461 233.168 140.461 233.824C140.461 234.407 140.674 234.868 141.098 235.206C141.522 235.544 142.185 235.826 143.086 236.051L145.354 236.608C146.719 236.939 147.737 237.446 148.406 238.129C149.076 238.805 149.41 239.677 149.41 240.744C149.41 241.619 149.158 242.402 148.655 243.091C148.157 243.78 147.461 244.324 146.567 244.722C145.672 245.119 144.631 245.318 143.444 245.318C141.887 245.318 140.597 244.98 139.577 244.304C138.556 243.628 137.909 242.64 137.638 241.341L139.865 240.784C140.077 241.606 140.478 242.223 141.068 242.634C141.665 243.045 142.443 243.25 143.405 243.25C144.498 243.25 145.367 243.018 146.01 242.554C146.659 242.083 146.984 241.52 146.984 240.864C146.984 240.333 146.799 239.889 146.427 239.531C146.056 239.167 145.486 238.895 144.717 238.716L142.172 238.119C140.773 237.788 139.746 237.274 139.089 236.578C138.44 235.875 138.115 234.997 138.115 233.943C138.115 233.081 138.357 232.319 138.841 231.656C139.331 230.993 139.997 230.473 140.839 230.095C141.688 229.717 142.649 229.528 143.723 229.528C145.234 229.528 146.421 229.86 147.282 230.523C148.151 231.186 148.767 232.061 149.132 233.148ZM152.943 245V229.727H155.21V232.114H155.409C155.727 231.298 156.24 230.665 156.95 230.214C157.659 229.757 158.511 229.528 159.505 229.528C160.513 229.528 161.351 229.757 162.021 230.214C162.697 230.665 163.224 231.298 163.602 232.114H163.761C164.152 231.325 164.739 230.698 165.521 230.234C166.303 229.764 167.241 229.528 168.335 229.528C169.7 229.528 170.817 229.956 171.686 230.811C172.554 231.66 172.988 232.982 172.988 234.778V245H170.642V234.778C170.642 233.652 170.333 232.846 169.717 232.362C169.1 231.878 168.374 231.636 167.539 231.636C166.465 231.636 165.633 231.961 165.044 232.611C164.454 233.254 164.159 234.069 164.159 235.057V245H161.772V234.54C161.772 233.671 161.49 232.972 160.927 232.442C160.364 231.905 159.638 231.636 158.749 231.636C158.14 231.636 157.57 231.799 157.039 232.124C156.516 232.448 156.091 232.899 155.767 233.476C155.448 234.046 155.289 234.705 155.289 235.455V245H152.943ZM177.279 245V229.727H179.625V245H177.279ZM178.472 227.182C178.014 227.182 177.62 227.026 177.289 226.714C176.964 226.403 176.801 226.028 176.801 225.591C176.801 225.153 176.964 224.779 177.289 224.467C177.62 224.156 178.014 224 178.472 224C178.929 224 179.32 224.156 179.645 224.467C179.977 224.779 180.142 225.153 180.142 225.591C180.142 226.028 179.977 226.403 179.645 226.714C179.32 227.026 178.929 227.182 178.472 227.182ZM190.128 245.318C188.696 245.318 187.463 244.98 186.429 244.304C185.395 243.628 184.599 242.696 184.042 241.51C183.486 240.323 183.207 238.968 183.207 237.443C183.207 235.892 183.492 234.523 184.062 233.337C184.639 232.143 185.441 231.212 186.469 230.543C187.503 229.866 188.709 229.528 190.088 229.528C191.162 229.528 192.13 229.727 192.991 230.125C193.853 230.523 194.559 231.08 195.109 231.795C195.659 232.511 196.001 233.347 196.133 234.301H193.787C193.608 233.605 193.21 232.989 192.594 232.452C191.984 231.908 191.162 231.636 190.128 231.636C189.213 231.636 188.411 231.875 187.721 232.352C187.039 232.823 186.505 233.489 186.121 234.351C185.743 235.206 185.554 236.21 185.554 237.364C185.554 238.544 185.739 239.571 186.111 240.446C186.488 241.321 187.019 242 187.702 242.484C188.391 242.968 189.2 243.21 190.128 243.21C190.738 243.21 191.291 243.104 191.788 242.892C192.285 242.68 192.706 242.375 193.051 241.977C193.396 241.58 193.641 241.102 193.787 240.545H196.133C196.001 241.447 195.673 242.259 195.149 242.982C194.632 243.697 193.946 244.268 193.091 244.692C192.242 245.109 191.255 245.318 190.128 245.318ZM207.757 245V224.636H219.967V226.824H210.223V233.705H219.052V235.892H210.223V245H207.757ZM223.708 245V229.727H225.975V232.034H226.134C226.413 231.278 226.917 230.665 227.646 230.195C228.375 229.724 229.197 229.489 230.112 229.489C230.284 229.489 230.499 229.492 230.758 229.499C231.017 229.505 231.212 229.515 231.345 229.528V231.915C231.265 231.895 231.083 231.865 230.798 231.825C230.519 231.779 230.224 231.756 229.913 231.756C229.17 231.756 228.508 231.911 227.924 232.223C227.347 232.528 226.89 232.952 226.552 233.496C226.221 234.033 226.055 234.646 226.055 235.335V245H223.708ZM239.866 245.318C238.487 245.318 237.277 244.99 236.237 244.334C235.203 243.678 234.394 242.759 233.811 241.58C233.234 240.4 232.945 239.021 232.945 237.443C232.945 235.852 233.234 234.464 233.811 233.277C234.394 232.09 235.203 231.169 236.237 230.513C237.277 229.857 238.487 229.528 239.866 229.528C241.245 229.528 242.451 229.857 243.485 230.513C244.526 231.169 245.335 232.09 245.911 233.277C246.495 234.464 246.786 235.852 246.786 237.443C246.786 239.021 246.495 240.4 245.911 241.58C245.335 242.759 244.526 243.678 243.485 244.334C242.451 244.99 241.245 245.318 239.866 245.318ZM239.866 243.21C240.913 243.21 241.775 242.942 242.451 242.405C243.127 241.868 243.628 241.162 243.953 240.287C244.277 239.412 244.44 238.464 244.44 237.443C244.44 236.422 244.277 235.471 243.953 234.589C243.628 233.708 243.127 232.995 242.451 232.452C241.775 231.908 240.913 231.636 239.866 231.636C238.819 231.636 237.957 231.908 237.281 232.452C236.605 232.995 236.104 233.708 235.779 234.589C235.454 235.471 235.292 236.422 235.292 237.443C235.292 238.464 235.454 239.412 235.779 240.287C236.104 241.162 236.605 241.868 237.281 242.405C237.957 242.942 238.819 243.21 239.866 243.21ZM256.533 251.045C255.4 251.045 254.425 250.9 253.61 250.608C252.795 250.323 252.115 249.945 251.572 249.474C251.035 249.01 250.607 248.513 250.289 247.983L252.158 246.67C252.37 246.949 252.639 247.267 252.964 247.625C253.288 247.99 253.733 248.304 254.296 248.57C254.866 248.841 255.612 248.977 256.533 248.977C257.766 248.977 258.784 248.679 259.586 248.082C260.388 247.486 260.789 246.551 260.789 245.278V242.176H260.59C260.418 242.455 260.172 242.799 259.854 243.21C259.543 243.615 259.092 243.976 258.502 244.294C257.919 244.606 257.13 244.761 256.135 244.761C254.903 244.761 253.796 244.47 252.814 243.886C251.84 243.303 251.068 242.455 250.498 241.341C249.934 240.227 249.653 238.875 249.653 237.284C249.653 235.72 249.928 234.357 250.478 233.197C251.028 232.031 251.794 231.129 252.775 230.493C253.756 229.85 254.889 229.528 256.175 229.528C257.17 229.528 257.958 229.694 258.542 230.026C259.132 230.35 259.582 230.722 259.894 231.139C260.212 231.55 260.457 231.888 260.63 232.153H260.868V229.727H263.135V245.438C263.135 246.75 262.837 247.817 262.241 248.639C261.651 249.468 260.855 250.074 259.854 250.459C258.86 250.85 257.753 251.045 256.533 251.045ZM256.454 242.653C257.395 242.653 258.19 242.438 258.84 242.007C259.49 241.576 259.983 240.956 260.322 240.148C260.66 239.339 260.829 238.371 260.829 237.244C260.829 236.144 260.663 235.173 260.331 234.331C260 233.489 259.51 232.83 258.86 232.352C258.21 231.875 257.408 231.636 256.454 231.636C255.459 231.636 254.631 231.888 253.968 232.392C253.312 232.896 252.818 233.572 252.486 234.42C252.162 235.269 251.999 236.21 251.999 237.244C251.999 238.305 252.165 239.243 252.496 240.058C252.834 240.867 253.331 241.503 253.988 241.967C254.651 242.425 255.473 242.653 256.454 242.653ZM278.249 233.148L276.141 233.744C276.009 233.393 275.813 233.052 275.555 232.72C275.303 232.382 274.958 232.104 274.52 231.885C274.083 231.666 273.523 231.557 272.84 231.557C271.905 231.557 271.126 231.772 270.503 232.203C269.887 232.627 269.579 233.168 269.579 233.824C269.579 234.407 269.791 234.868 270.215 235.206C270.639 235.544 271.302 235.826 272.204 236.051L274.471 236.608C275.836 236.939 276.854 237.446 277.523 238.129C278.193 238.805 278.528 239.677 278.528 240.744C278.528 241.619 278.276 242.402 277.772 243.091C277.275 243.78 276.579 244.324 275.684 244.722C274.789 245.119 273.748 245.318 272.562 245.318C271.004 245.318 269.715 244.98 268.694 244.304C267.673 243.628 267.027 242.64 266.755 241.341L268.982 240.784C269.194 241.606 269.595 242.223 270.185 242.634C270.782 243.045 271.561 243.25 272.522 243.25C273.616 243.25 274.484 243.018 275.127 242.554C275.777 242.083 276.101 241.52 276.101 240.864C276.101 240.333 275.916 239.889 275.545 239.531C275.173 239.167 274.603 238.895 273.834 238.716L271.289 238.119C269.89 237.788 268.863 237.274 268.206 236.578C267.557 235.875 267.232 234.997 267.232 233.943C267.232 233.081 267.474 232.319 267.958 231.656C268.448 230.993 269.115 230.473 269.956 230.095C270.805 229.717 271.766 229.528 272.84 229.528C274.351 229.528 275.538 229.86 276.4 230.523C277.268 231.186 277.885 232.061 278.249 233.148Z" fill="white"/>
<defs>
<clipPath id="clip0_91_257">
<rect width="150" height="150" fill="white" transform="translate(114.5 48)"/>
</clipPath>
</defs>
</svg>
