<svg width="379" height="300" viewBox="0 0 379 300" fill="none" xmlns="http://www.w3.org/2000/svg">
<rect x="1" y="1" width="377" height="298" rx="11" stroke="white" stroke-width="2"/>
<g clip-path="url(#clip0_91_1186)">
<path d="M260.832 145.318H199.234V135.559C199.234 130.544 201.648 125.779 205.692 122.812L215.321 115.749H220.988C224.91 115.749 228.1 112.559 228.1 108.637C228.1 104.715 224.91 101.525 220.988 101.525H220.837L226.998 98.0563C228.373 97.2823 229.934 96.873 231.513 96.873C236.587 96.873 240.716 101.002 240.716 106.077V124.184C240.716 129.63 241.758 134.948 243.813 139.991C244.272 141.128 245.585 141.655 246.682 141.199C247.808 140.74 248.349 139.455 247.89 138.33C246.051 133.817 245.118 129.057 245.118 124.184V106.077C245.118 98.5746 239.015 92.4709 231.512 92.4709C229.179 92.4709 226.871 93.0759 224.838 94.2202L211.784 101.524H196.949V96.3141C196.949 93.5736 198.268 90.9697 200.478 89.3487L205.244 85.8527H207.035C210.593 85.8527 213.488 82.9579 213.488 79.3995C213.488 75.8411 210.593 72.9463 207.035 72.9463H171.965C168.407 72.9463 165.512 75.8411 165.512 79.3995C165.512 82.9579 168.407 85.8527 171.965 85.8527H173.756L178.522 89.3487C180.732 90.97 182.051 93.5736 182.051 96.3141V101.524H167.107L154.135 94.2205C152.102 93.0759 149.794 92.4709 147.461 92.4709C139.959 92.4709 133.855 98.5743 133.855 106.077V124.184C133.855 129.058 132.922 133.817 131.083 138.33C130.624 139.456 131.165 140.74 132.291 141.199C133.388 141.654 134.701 141.128 135.16 139.992C137.215 134.949 138.257 129.63 138.257 124.184V106.077C138.257 101.002 142.386 96.873 147.461 96.873C149.039 96.873 150.6 97.2823 151.976 98.0566L158.136 101.525H158.012C154.09 101.525 150.9 104.715 150.9 108.637C150.9 112.559 154.09 115.749 158.012 115.749H163.679L173.308 122.812C177.352 125.779 179.766 130.544 179.766 135.559V145.318H118.168C116.146 145.318 114.5 146.964 114.5 148.987V155.517C114.5 159.967 118.121 163.587 122.57 163.587H133.693C134.535 163.587 135.302 164.079 135.694 164.872C138.667 170.879 144.674 174.611 151.371 174.611H157.842C159.058 174.611 160.043 173.625 160.043 172.409C160.043 171.194 159.058 170.208 157.842 170.208H151.371C146.36 170.208 141.865 167.415 139.639 162.919C138.499 160.615 136.22 159.185 133.693 159.185H122.57C120.548 159.185 118.902 157.539 118.902 155.517V149.72H260.098V155.517C260.098 157.539 258.453 159.185 256.43 159.185H245.308C242.78 159.185 240.501 160.615 239.361 162.919C237.136 167.416 232.64 170.208 227.629 170.208H169.104C167.888 170.208 166.903 171.194 166.903 172.409C166.903 173.625 167.888 174.611 169.104 174.611H174.515V176.399C174.515 180.192 172.689 183.796 169.63 186.04L165.91 188.769C164.743 189.625 164.261 191.125 164.712 192.502C165.162 193.878 166.438 194.802 167.886 194.802H211.114C212.562 194.802 213.838 193.877 214.289 192.502C214.739 191.125 214.258 189.625 213.09 188.769L209.37 186.04C206.311 183.796 204.485 180.192 204.485 176.399V174.611H227.629C234.326 174.611 240.333 170.879 243.306 164.872C243.699 164.079 244.465 163.587 245.308 163.587H256.43C260.88 163.587 264.5 159.967 264.5 155.517V148.987C264.5 146.964 262.854 145.318 260.832 145.318ZM169.914 79.4001C169.914 78.2692 170.834 77.349 171.965 77.349H207.035C208.166 77.349 209.086 78.2692 209.086 79.4001C209.086 80.531 208.166 81.4512 207.035 81.4512H171.965C170.834 81.4512 169.914 80.531 169.914 79.4001ZM181.194 85.8533H197.806C194.512 88.304 192.547 92.2066 192.547 96.3146V101.525H186.453V96.3146C186.453 92.2066 184.488 88.304 181.194 85.8533ZM175.912 119.263L171.122 115.75H189.344C190.56 115.75 191.545 114.764 191.545 113.549C191.545 112.333 190.56 111.347 189.344 111.347H158.012C156.517 111.347 155.301 110.132 155.301 108.637C155.301 107.143 156.517 105.927 158.012 105.927H220.988C222.483 105.927 223.699 107.143 223.699 108.637C223.699 110.132 222.483 111.347 220.988 111.347H200.918C199.702 111.347 198.717 112.333 198.717 113.549C198.717 114.764 199.702 115.75 200.918 115.75H207.878L203.089 119.263C197.918 123.055 194.832 129.147 194.832 135.559V145.318H184.169V135.559C184.168 129.148 181.082 123.055 175.912 119.263ZM206.766 189.589L207.871 190.4H171.129L172.234 189.589C176.419 186.52 178.917 181.589 178.917 176.399V174.611H200.083V176.399C200.083 181.589 202.581 186.52 206.766 189.589Z" fill="white"/>
<path d="M234.607 103.876C233.391 103.876 232.406 104.862 232.406 106.078V124.612C232.406 129.635 232.914 134.678 233.917 139.601C234.46 142.419 238.84 141.504 238.23 138.722C237.286 134.088 236.807 129.34 236.807 124.612V106.078C236.808 104.862 235.822 103.876 234.607 103.876Z" fill="white"/>
<path d="M142.902 141.363C143.926 141.363 144.844 140.644 145.056 139.601C146.059 134.679 146.568 129.635 146.568 124.612V106.078C146.568 104.862 145.582 103.876 144.367 103.876C143.151 103.876 142.166 104.862 142.166 106.078V124.612C142.166 129.341 141.687 134.088 140.743 138.722C140.451 140.067 141.529 141.377 142.902 141.363Z" fill="white"/>
<path d="M155.301 139.161V122.619C155.301 121.403 154.316 120.418 153.1 120.418C151.885 120.418 150.899 121.403 150.899 122.619V139.161C150.899 140.377 151.885 141.362 153.1 141.362C154.316 141.362 155.301 140.377 155.301 139.161Z" fill="white"/>
<path d="M223.699 122.619V139.161C223.699 140.377 224.684 141.362 225.9 141.362C227.115 141.362 228.101 140.377 228.101 139.161V122.619C228.101 121.403 227.115 120.418 225.9 120.418C224.684 120.418 223.699 121.404 223.699 122.619Z" fill="white"/>
<path d="M176.182 58.7398L176.828 59.292C178.763 60.9467 179.873 63.3561 179.873 65.9023V67.632C179.873 68.8478 180.858 69.833 182.074 69.833C183.289 69.833 184.275 68.8478 184.275 67.632V65.9023C184.275 62.0673 182.603 58.4386 179.689 55.9463L179.043 55.3941C178.119 54.6039 176.73 54.7123 175.94 55.6367C175.15 56.5601 175.259 57.9496 176.182 58.7398Z" fill="white"/>
<path d="M154.111 88.9863C155.219 89.4135 156.52 88.8542 156.948 87.7055L158.12 84.6062C159.472 81.029 160.157 77.2761 160.157 73.4517V69.1389C160.157 66.0422 162.677 63.5229 165.773 63.5229C167.562 63.5229 169.258 64.3857 170.311 65.8315L172.782 69.2215C173.497 70.2035 174.874 70.4197 175.857 69.704C176.839 68.988 177.055 67.6113 176.339 66.629L173.869 63.2391C171.99 60.6606 168.963 59.1211 165.773 59.1211C160.249 59.1211 155.755 63.6152 155.755 69.1389V73.4517C155.755 76.7423 155.165 79.9717 154.002 83.0499L152.83 86.1492C152.401 87.2862 152.974 88.5563 154.111 88.9863Z" fill="white"/>
<path d="M197.035 69.8329C198.251 69.8329 199.236 68.8477 199.236 67.6318V65.9022C199.236 63.356 200.346 60.9466 202.281 59.2916L202.927 58.7394C203.851 57.9492 203.959 56.56 203.169 55.6362C202.379 54.7125 200.99 54.6038 200.066 55.3943L199.421 55.9462C196.506 58.4385 194.834 62.0672 194.834 65.9022V67.6318C194.834 68.8477 195.819 69.8329 197.035 69.8329Z" fill="white"/>
<path d="M202.73 69.704C203.713 70.4203 205.09 70.2041 205.805 69.2215L208.275 65.8315C209.329 64.386 211.026 63.5229 212.814 63.5229C215.911 63.5229 218.43 66.0422 218.43 69.1389V73.4517C218.43 77.2764 219.116 81.0293 220.468 84.6062L221.639 87.7055C222.627 90.4017 226.802 88.7974 225.757 86.1492L224.585 83.0496C223.422 79.9717 222.832 76.7426 222.832 73.4517V69.1389C222.832 63.6152 218.338 59.1211 212.814 59.1211C209.623 59.1211 206.597 60.6606 204.718 63.2391L202.248 66.629C201.532 67.6113 201.748 68.988 202.73 69.704Z" fill="white"/>
<path d="M189.5 69.8327C190.716 69.8327 191.701 68.8475 191.701 67.6316V53.3983C191.701 52.1825 190.716 51.1973 189.5 51.1973C188.284 51.1973 187.299 52.1825 187.299 53.3983V67.6316C187.299 68.8475 188.284 69.8327 189.5 69.8327Z" fill="white"/>
</g>
<path d="M135.146 245V224.636H147.356V226.824H137.612V233.705H146.441V235.892H137.612V245H135.146ZM156.344 245.318C154.966 245.318 153.756 244.99 152.715 244.334C151.681 243.678 150.872 242.759 150.289 241.58C149.712 240.4 149.424 239.021 149.424 237.443C149.424 235.852 149.712 234.464 150.289 233.277C150.872 232.09 151.681 231.169 152.715 230.513C153.756 229.857 154.966 229.528 156.344 229.528C157.723 229.528 158.93 229.857 159.964 230.513C161.004 231.169 161.813 232.09 162.39 233.277C162.973 234.464 163.265 235.852 163.265 237.443C163.265 239.021 162.973 240.4 162.39 241.58C161.813 242.759 161.004 243.678 159.964 244.334C158.93 244.99 157.723 245.318 156.344 245.318ZM156.344 243.21C157.392 243.21 158.254 242.942 158.93 242.405C159.606 241.868 160.106 241.162 160.431 240.287C160.756 239.412 160.918 238.464 160.918 237.443C160.918 236.422 160.756 235.471 160.431 234.589C160.106 233.708 159.606 232.995 158.93 232.452C158.254 231.908 157.392 231.636 156.344 231.636C155.297 231.636 154.435 231.908 153.759 232.452C153.083 232.995 152.583 233.708 152.258 234.589C151.933 235.471 151.771 236.422 151.771 237.443C151.771 238.464 151.933 239.412 152.258 240.287C152.583 241.162 153.083 241.868 153.759 242.405C154.435 242.942 155.297 243.21 156.344 243.21ZM176.472 238.756V229.727H178.819V245H176.472V242.415H176.313C175.955 243.19 175.398 243.85 174.642 244.393C173.887 244.93 172.932 245.199 171.779 245.199C170.824 245.199 169.976 244.99 169.233 244.572C168.491 244.148 167.908 243.512 167.483 242.663C167.059 241.808 166.847 240.731 166.847 239.432V229.727H169.194V239.273C169.194 240.386 169.505 241.275 170.128 241.938C170.758 242.6 171.56 242.932 172.534 242.932C173.118 242.932 173.711 242.783 174.314 242.484C174.924 242.186 175.435 241.729 175.846 241.112C176.263 240.496 176.472 239.71 176.472 238.756ZM185.463 235.812V245H183.116V229.727H185.384V232.114H185.582C185.94 231.338 186.484 230.715 187.213 230.244C187.942 229.767 188.884 229.528 190.037 229.528C191.071 229.528 191.976 229.741 192.751 230.165C193.527 230.582 194.13 231.219 194.561 232.074C194.992 232.922 195.207 233.996 195.207 235.295V245H192.861V235.455C192.861 234.255 192.549 233.32 191.926 232.651C191.303 231.974 190.448 231.636 189.361 231.636C188.612 231.636 187.942 231.799 187.352 232.124C186.769 232.448 186.308 232.922 185.97 233.545C185.632 234.169 185.463 234.924 185.463 235.812ZM206.137 229.727V231.716H198.223V229.727H206.137ZM200.529 226.068H202.876V240.625C202.876 241.288 202.972 241.785 203.164 242.116C203.363 242.441 203.615 242.66 203.92 242.773C204.232 242.879 204.56 242.932 204.904 242.932C205.163 242.932 205.375 242.919 205.541 242.892C205.707 242.859 205.839 242.832 205.939 242.812L206.416 244.92C206.257 244.98 206.035 245.04 205.75 245.099C205.465 245.166 205.103 245.199 204.666 245.199C204.003 245.199 203.353 245.056 202.717 244.771C202.087 244.486 201.564 244.052 201.146 243.469C200.735 242.885 200.529 242.15 200.529 241.261V226.068ZM214.162 245.358C213.194 245.358 212.315 245.176 211.527 244.811C210.738 244.44 210.111 243.906 209.647 243.21C209.183 242.508 208.951 241.659 208.951 240.665C208.951 239.79 209.124 239.08 209.468 238.537C209.813 237.987 210.274 237.556 210.85 237.244C211.427 236.933 212.064 236.701 212.76 236.548C213.462 236.389 214.168 236.263 214.877 236.17C215.806 236.051 216.558 235.962 217.135 235.902C217.718 235.836 218.142 235.726 218.407 235.574C218.679 235.421 218.815 235.156 218.815 234.778V234.699C218.815 233.718 218.547 232.955 218.01 232.412C217.479 231.868 216.674 231.597 215.593 231.597C214.473 231.597 213.595 231.842 212.958 232.332C212.322 232.823 211.875 233.347 211.616 233.903L209.389 233.108C209.787 232.18 210.317 231.457 210.98 230.94C211.649 230.417 212.378 230.052 213.167 229.847C213.963 229.634 214.745 229.528 215.514 229.528C216.004 229.528 216.568 229.588 217.204 229.707C217.847 229.82 218.467 230.055 219.064 230.413C219.667 230.771 220.167 231.312 220.565 232.034C220.963 232.757 221.162 233.724 221.162 234.938V245H218.815V242.932H218.696C218.537 243.263 218.271 243.618 217.9 243.996C217.529 244.374 217.035 244.695 216.419 244.96C215.802 245.225 215.05 245.358 214.162 245.358ZM214.52 243.25C215.448 243.25 216.23 243.068 216.866 242.703C217.509 242.339 217.993 241.868 218.318 241.291C218.649 240.714 218.815 240.108 218.815 239.472V237.324C218.716 237.443 218.497 237.553 218.159 237.652C217.827 237.745 217.443 237.828 217.005 237.901C216.574 237.967 216.154 238.027 215.743 238.08C215.338 238.126 215.01 238.166 214.758 238.199C214.148 238.278 213.578 238.408 213.048 238.587C212.524 238.759 212.1 239.021 211.775 239.372C211.457 239.717 211.298 240.187 211.298 240.784C211.298 241.599 211.6 242.216 212.203 242.634C212.813 243.045 213.585 243.25 214.52 243.25ZM225.445 245V229.727H227.791V245H225.445ZM226.638 227.182C226.18 227.182 225.786 227.026 225.455 226.714C225.13 226.403 224.967 226.028 224.967 225.591C224.967 225.153 225.13 224.779 225.455 224.467C225.786 224.156 226.18 224 226.638 224C227.095 224 227.486 224.156 227.811 224.467C228.143 224.779 228.308 225.153 228.308 225.591C228.308 226.028 228.143 226.403 227.811 226.714C227.486 227.026 227.095 227.182 226.638 227.182ZM234.436 235.812V245H232.089V229.727H234.356V232.114H234.555C234.913 231.338 235.457 230.715 236.186 230.244C236.915 229.767 237.856 229.528 239.01 229.528C240.044 229.528 240.949 229.741 241.724 230.165C242.5 230.582 243.103 231.219 243.534 232.074C243.965 232.922 244.18 233.996 244.18 235.295V245H241.833V235.455C241.833 234.255 241.522 233.32 240.899 232.651C240.276 231.974 239.421 231.636 238.333 231.636C237.584 231.636 236.915 231.799 236.325 232.124C235.742 232.448 235.281 232.922 234.943 233.545C234.605 234.169 234.436 234.924 234.436 235.812Z" fill="white"/>
<defs>
<clipPath id="clip0_91_1186">
<rect width="150" height="150" fill="white" transform="translate(114.5 48)"/>
</clipPath>
</defs>
</svg>
