<svg width="379" height="300" viewBox="0 0 379 300" fill="none" xmlns="http://www.w3.org/2000/svg">
<rect x="1" y="1" width="377" height="298" rx="11" stroke="white" stroke-width="2"/>
<g clip-path="url(#clip0_91_364)">
<path d="M118.637 99.7969C119.776 100.345 121.064 100.622 122.443 100.622C123.233 100.622 124.052 100.532 124.891 100.348C129.928 99.2499 132.768 95.3795 131.8 90.9357C131.8 90.9346 131.8 90.9346 131.8 90.9346L126.26 65.5356L149.553 60.4544L153.659 79.2777C152.348 79.0293 150.872 79.0636 149.28 79.4104C144.131 80.5331 141.316 84.2467 142.276 88.6492C143.085 92.3594 146.143 94.6001 150.061 94.6001C150.836 94.6001 151.646 94.512 152.478 94.3312C157.515 93.2326 160.356 89.361 159.387 84.9173C159.387 84.9173 159.387 84.9173 159.387 84.9161L152.005 51.0691C151.547 48.968 149.463 47.6313 147.359 48.0902L123.104 53.3808C122.086 53.6029 121.217 54.2071 120.653 55.0826C120.089 55.9592 119.902 57.0029 120.124 58.0203L126.072 85.2961C124.761 85.0478 123.283 85.0809 121.693 85.4277C119.391 85.9301 117.503 86.9566 116.234 88.3951C114.728 90.1026 114.178 92.3296 114.689 94.6665C115.196 96.9908 116.598 98.8127 118.637 99.7969ZM151.541 90.0374C150.542 90.2548 147.228 90.7332 146.57 87.7131C145.987 85.0443 148.605 84.0556 150.217 83.7042C150.758 83.5863 151.34 83.504 151.906 83.504C153.347 83.504 154.696 84.0338 155.093 85.8523V85.8534C155.753 88.8724 152.541 89.8188 151.541 90.0374ZM147.816 52.4882L148.617 56.1606L125.324 61.2418L124.523 57.5705L147.816 52.4882ZM119.53 91.3031C120.167 90.581 121.268 90.0191 122.63 89.7215C123.171 89.6036 123.753 89.5212 124.319 89.5212C125.76 89.5212 127.109 90.0522 127.506 91.8696V91.8707C128.164 94.8908 124.954 95.8372 123.954 96.0547C122.641 96.3408 121.431 96.2641 120.545 95.8372C119.715 95.4378 119.204 94.7478 118.983 93.7304C118.766 92.7416 118.94 91.9703 119.53 91.3031Z" fill="white"/>
<path d="M264.167 157.934C263.747 156.98 262.98 156.247 262.01 155.87L238.866 146.877C236.86 146.098 234.597 147.095 233.817 149.1L223.702 175.139C222.731 174.184 221.478 173.389 219.986 172.809C217.79 171.957 215.65 171.769 213.796 172.267C211.597 172.857 209.911 174.411 209.044 176.641C208.182 178.859 208.345 181.152 209.501 183.097C210.516 184.806 212.213 186.161 214.409 187.014C215.731 187.527 217.029 187.773 218.252 187.773C221.477 187.773 224.174 186.058 225.369 182.984L234.783 158.752L257.005 167.387L250.021 185.364C249.05 184.41 247.798 183.616 246.305 183.036C241.393 181.127 236.995 182.667 235.363 186.867C234.502 189.085 234.664 191.377 235.821 193.324C236.836 195.032 238.533 196.386 240.728 197.24C242.05 197.753 243.349 198 244.572 198C247.797 198 250.495 196.283 251.688 193.209L264.233 160.919C264.61 159.947 264.587 158.887 264.167 157.934ZM216 182.917C214.747 182.43 213.78 181.698 213.279 180.853C212.808 180.06 212.762 179.203 213.14 178.233C213.506 177.288 214.077 176.742 214.937 176.511C215.238 176.43 215.571 176.39 215.927 176.39C216.669 176.39 217.516 176.564 218.394 176.906C219.677 177.404 220.654 178.115 221.147 178.908C221.605 179.644 221.644 180.433 221.272 181.392C220.153 184.273 216.954 183.287 216 182.917ZM236.374 154.655L237.735 151.152L259.958 159.787L258.597 163.29L236.374 154.655ZM242.319 193.143C241.066 192.657 240.1 191.923 239.599 191.078C239.127 190.287 239.083 189.429 239.459 188.459C240.013 187.034 241.111 186.602 242.24 186.602C243.128 186.602 244.037 186.869 244.713 187.133C245.996 187.63 246.973 188.341 247.467 189.134C247.924 189.87 247.963 190.66 247.591 191.618C246.472 194.499 243.274 193.514 242.319 193.143Z" fill="white"/>
<path d="M179.032 187.951C165.521 197.77 144.96 194.558 131.203 180.479C123.179 172.268 118.694 161.492 118.901 150.916C119.066 142.464 122.275 134.86 127.936 129.501C131.968 125.691 137.11 123.12 142.807 122.067C150.548 120.638 157.402 116.9 162.627 111.26C163.452 110.369 163.399 108.979 162.509 108.155C161.619 107.328 160.229 107.382 159.404 108.273C154.826 113.214 148.812 116.489 142.009 117.746C135.477 118.952 129.567 121.913 124.916 126.309C118.392 132.484 114.696 141.192 114.508 150.83C114.278 162.577 119.218 174.503 128.06 183.551C137.307 193.014 149.393 198 160.881 198C168.364 198 175.595 195.882 181.615 191.507C182.597 190.794 182.814 189.419 182.101 188.437C181.387 187.455 180.013 187.238 179.032 187.951Z" fill="white"/>
<path d="M216.977 143.768C221.57 139.174 223.765 133.256 223.322 126.653C222.972 121.413 220.983 115.845 217.557 110.454L231.58 96.4314C232.438 95.5731 232.438 94.1815 231.581 93.3244C230.723 92.466 229.331 92.466 228.474 93.3244L189.594 132.203C188.757 130.13 187.506 128.225 185.878 126.597C184.249 124.968 182.346 123.716 180.273 122.881L226.038 77.1127L235.361 86.4362L235.101 86.6959C234.243 87.5531 234.243 88.9447 235.101 89.803C235.53 90.2322 236.092 90.4462 236.655 90.4462C237.217 90.4462 237.78 90.2322 238.208 89.803L238.765 89.248C239.114 89.3578 239.479 89.4162 239.849 89.4162C239.887 89.4162 239.925 89.4151 239.963 89.4139C240.964 89.383 241.917 88.9333 242.579 88.1814L244.911 85.5332L247.412 88.0338C247.841 88.4629 248.404 88.6781 248.966 88.6781C249.528 88.6781 250.091 88.4629 250.52 88.0338C251.378 87.1754 251.378 85.785 250.52 84.9267L247.821 82.2282L251.491 78.0602L254.103 80.6718C254.532 81.1009 255.095 81.3149 255.657 81.3149C256.219 81.3149 256.782 81.1009 257.211 80.6718C258.07 79.8135 258.07 78.4219 257.211 77.5636L254.402 74.7552L258.044 70.6193L259.936 72.5121C260.365 72.9413 260.928 73.1553 261.49 73.1553C262.052 73.1553 262.615 72.9413 263.044 72.5121C263.903 71.6538 263.903 70.2622 263.044 69.4039L260.953 67.3142L263.59 64.3205C264.856 62.8831 264.787 60.6961 263.433 59.3412L253.158 49.0655C251.803 47.7105 249.616 47.6419 248.178 48.9076L245.184 51.5454L243.092 49.4546C242.233 48.5975 240.842 48.5975 239.984 49.4558C239.126 50.3141 239.127 51.7057 239.986 52.564L241.878 54.4557L237.744 58.096L234.909 55.2625C234.052 54.4042 232.66 54.4042 231.802 55.2625C230.944 56.1196 230.944 57.5112 231.802 58.3696L234.44 61.0063L230.271 64.6775L227.573 61.9802C226.716 61.1219 225.325 61.1219 224.466 61.9802C223.608 62.8385 223.608 64.2301 224.466 65.0872L226.967 67.5878L224.317 69.9201C223.567 70.5815 223.118 71.5348 223.086 72.5362C223.074 72.931 223.128 73.3224 223.241 73.6955L202.045 94.8922C189.692 86.9546 177.253 86.9077 169.268 94.8933C167.213 96.9441 165.639 98.9468 164.457 101.015C163.854 102.069 164.22 103.411 165.273 104.013C165.617 104.21 165.992 104.304 166.362 104.304C167.124 104.304 167.866 103.906 168.271 103.196C169.258 101.473 170.598 99.7742 172.374 98.0015C181.108 89.2663 193.074 94.6027 198.851 98.0862L175.225 121.714C174.808 121.683 174.389 121.662 173.967 121.662C169.468 121.662 165.237 123.414 162.056 126.597C158.873 129.778 157.121 134.009 157.121 138.509C157.121 143.009 158.873 147.24 162.056 150.421C165.237 153.603 169.468 155.356 173.967 155.356C178.467 155.356 182.698 153.603 185.879 150.421C189.061 147.24 190.813 143.009 190.813 138.509C190.813 138.087 190.792 137.668 190.761 137.251L214.36 113.652C217.807 119.46 223.007 131.524 213.869 140.662C212.431 142.104 210.787 143.335 208.986 144.321C198.995 149.786 192.386 158.78 190.378 169.646C189.541 174.182 187.793 178.284 185.179 181.839C184.46 182.817 184.669 184.193 185.647 184.911C186.039 185.2 186.495 185.338 186.947 185.338C187.622 185.338 188.288 185.028 188.718 184.442C191.729 180.347 193.741 175.638 194.699 170.444C196.463 160.903 202.285 152.995 211.095 148.176C213.264 146.988 215.243 145.505 216.977 143.768ZM250.551 52.6738L259.824 61.947L239.812 84.6738L227.826 72.6861L250.551 52.6738ZM182.771 147.313C180.419 149.665 177.293 150.96 173.967 150.96C170.641 150.96 167.515 149.665 165.163 147.313C162.811 144.961 161.516 141.835 161.516 138.509C161.516 135.182 162.811 132.056 165.163 129.704C167.514 127.352 170.641 126.057 173.967 126.057C177.293 126.057 180.419 127.352 182.771 129.704C185.121 132.056 186.417 135.182 186.417 138.509C186.417 141.835 185.123 144.961 182.771 147.313Z" fill="white"/>
<path d="M133.193 146.09C130.228 149.056 130.228 153.882 133.193 156.847L155.629 179.284C157.112 180.766 159.06 181.508 161.007 181.508C162.954 181.508 164.902 180.766 166.385 179.283C169.35 176.318 169.35 171.493 166.385 168.527L143.949 146.089C142.513 144.653 140.603 143.862 138.572 143.862C136.54 143.862 134.63 144.654 133.193 146.09ZM163.277 171.635C164.529 172.887 164.529 174.924 163.277 176.176C162.026 177.428 159.989 177.429 158.736 176.176L136.301 153.74C135.049 152.488 135.049 150.45 136.301 149.198C136.906 148.592 137.713 148.257 138.572 148.257C139.429 148.257 140.236 148.591 140.842 149.198L163.277 171.635Z" fill="white"/>
<path d="M224.948 94.3874C225.51 94.3874 226.073 94.1734 226.502 93.7442C227.359 92.8859 227.359 91.4943 226.502 90.6372L221.815 85.9485C220.956 85.0914 219.565 85.0914 218.706 85.9485C217.848 86.8068 217.848 88.1984 218.706 89.0567L223.394 93.7442C223.823 94.1734 224.386 94.3874 224.948 94.3874Z" fill="white"/>
<path d="M218.454 100.882C219.017 100.882 219.579 100.668 220.008 100.239C220.866 99.3806 220.866 97.989 220.008 97.1318L215.32 92.4432C214.462 91.586 213.071 91.586 212.213 92.4432C211.355 93.3015 211.355 94.6931 212.213 95.5514L216.901 100.239C217.33 100.668 217.892 100.882 218.454 100.882Z" fill="white"/>
<path d="M211.96 107.377C212.522 107.377 213.084 107.163 213.513 106.733C214.371 105.875 214.371 104.483 213.513 103.625L208.826 98.9377C207.967 98.0794 206.577 98.0794 205.719 98.9377C204.86 99.796 204.86 101.188 205.719 102.045L210.406 106.733C210.835 107.163 211.397 107.377 211.96 107.377Z" fill="white"/>
<path d="M205.466 113.871C206.028 113.871 206.591 113.657 207.02 113.228C207.878 112.37 207.878 110.978 207.02 110.12L202.332 105.432C201.474 104.574 200.082 104.574 199.225 105.432C198.367 106.291 198.367 107.682 199.225 108.539L203.913 113.228C204.342 113.657 204.904 113.871 205.466 113.871Z" fill="white"/>
<path d="M192.731 111.926C191.872 112.785 191.872 114.176 192.731 115.035L197.418 119.722C197.847 120.151 198.409 120.365 198.972 120.365C199.534 120.365 200.096 120.151 200.525 119.722C201.384 118.864 201.384 117.472 200.525 116.614L195.838 111.926C194.979 111.068 193.589 111.068 192.731 111.926Z" fill="white"/>
<path d="M236.85 70.4245C235.992 69.5662 234.601 69.5662 233.743 70.4245C232.885 71.2828 232.885 72.6733 233.743 73.5316C234.601 74.3899 235.992 74.3899 236.85 73.5316C237.708 72.6733 237.708 71.2828 236.85 70.4245Z" fill="white"/>
<path d="M242.12 75.6491C241.262 74.7908 239.87 74.7908 239.012 75.6491C238.155 76.5063 238.155 77.8979 239.012 78.7562C239.87 79.6145 241.262 79.6145 242.12 78.7562C242.977 77.8979 242.977 76.5063 242.12 75.6491Z" fill="white"/>
<path d="M243.444 63.8205C242.586 62.9622 241.194 62.9622 240.337 63.8205C239.479 64.6788 239.479 66.0704 240.337 66.9276C241.194 67.7859 242.586 67.7859 243.444 66.9276C244.302 66.0704 244.302 64.6788 243.444 63.8205Z" fill="white"/>
<path d="M248.717 69.0505C247.859 68.1922 246.468 68.1922 245.61 69.0505C244.752 69.9088 244.752 71.3004 245.61 72.1575C246.468 73.0158 247.859 73.0158 248.717 72.1575C249.576 71.3004 249.576 69.9088 248.717 69.0505Z" fill="white"/>
<path d="M250.042 57.2228C249.183 56.3645 247.793 56.3645 246.934 57.2228C246.076 58.0811 246.076 59.4716 246.934 60.3299C247.793 61.1882 249.183 61.1882 250.042 60.3299C250.9 59.4716 250.9 58.0811 250.042 57.2228Z" fill="white"/>
<path d="M255.314 62.4513C254.456 61.593 253.064 61.593 252.207 62.4513C251.348 63.3085 251.348 64.7001 252.207 65.5584C253.064 66.4167 254.456 66.4167 255.314 65.5584C256.172 64.7001 256.172 63.3085 255.314 62.4513Z" fill="white"/>
</g>
<path d="M165.841 231C165.623 230.33 165.334 229.731 164.976 229.2C164.625 228.663 164.204 228.206 163.714 227.828C163.23 227.45 162.68 227.162 162.063 226.963C161.447 226.764 160.77 226.665 160.035 226.665C158.828 226.665 157.731 226.976 156.743 227.599C155.756 228.223 154.97 229.141 154.387 230.354C153.804 231.567 153.512 233.055 153.512 234.818C153.512 236.581 153.807 238.07 154.397 239.283C154.987 240.496 155.786 241.414 156.793 242.037C157.801 242.66 158.934 242.972 160.194 242.972C161.36 242.972 162.388 242.723 163.276 242.226C164.171 241.722 164.867 241.013 165.364 240.098C165.868 239.177 166.12 238.093 166.12 236.847L166.876 237.006H160.751V234.818H168.506V237.006C168.506 238.683 168.148 240.141 167.432 241.381C166.723 242.62 165.742 243.581 164.489 244.264C163.243 244.94 161.811 245.278 160.194 245.278C158.391 245.278 156.806 244.854 155.441 244.006C154.082 243.157 153.021 241.951 152.259 240.386C151.503 238.822 151.126 236.966 151.126 234.818C151.126 233.207 151.341 231.759 151.772 230.473C152.209 229.18 152.826 228.08 153.621 227.172C154.417 226.264 155.358 225.568 156.445 225.084C157.532 224.6 158.729 224.358 160.035 224.358C161.108 224.358 162.109 224.52 163.037 224.845C163.972 225.163 164.804 225.617 165.533 226.207C166.269 226.791 166.882 227.49 167.373 228.305C167.863 229.114 168.201 230.012 168.387 231H165.841ZM182.036 238.756V229.727H184.383V245H182.036V242.415H181.877C181.519 243.19 180.963 243.85 180.207 244.393C179.451 244.93 178.497 245.199 177.343 245.199C176.389 245.199 175.54 244.99 174.798 244.572C174.055 244.148 173.472 243.512 173.048 242.663C172.624 241.808 172.411 240.731 172.411 239.432V229.727H174.758V239.273C174.758 240.386 175.07 241.275 175.693 241.938C176.322 242.6 177.124 242.932 178.099 242.932C178.682 242.932 179.276 242.783 179.879 242.484C180.489 242.186 180.999 241.729 181.41 241.112C181.828 240.496 182.036 239.71 182.036 238.756ZM188.681 245V229.727H191.028V245H188.681ZM189.874 227.182C189.417 227.182 189.022 227.026 188.691 226.714C188.366 226.403 188.204 226.028 188.204 225.591C188.204 225.153 188.366 224.779 188.691 224.467C189.022 224.156 189.417 224 189.874 224C190.331 224 190.723 224.156 191.047 224.467C191.379 224.779 191.545 225.153 191.545 225.591C191.545 226.028 191.379 226.403 191.047 226.714C190.723 227.026 190.331 227.182 189.874 227.182ZM201.968 229.727V231.716H194.053V229.727H201.968ZM196.36 226.068H198.706V240.625C198.706 241.288 198.802 241.785 198.994 242.116C199.193 242.441 199.445 242.66 199.75 242.773C200.062 242.879 200.39 242.932 200.735 242.932C200.993 242.932 201.205 242.919 201.371 242.892C201.537 242.859 201.669 242.832 201.769 242.812L202.246 244.92C202.087 244.98 201.865 245.04 201.58 245.099C201.295 245.166 200.933 245.199 200.496 245.199C199.833 245.199 199.183 245.056 198.547 244.771C197.917 244.486 197.394 244.052 196.976 243.469C196.565 242.885 196.36 242.15 196.36 241.261V226.068ZM209.992 245.358C209.024 245.358 208.146 245.176 207.357 244.811C206.568 244.44 205.941 243.906 205.477 243.21C205.013 242.508 204.781 241.659 204.781 240.665C204.781 239.79 204.954 239.08 205.298 238.537C205.643 237.987 206.104 237.556 206.681 237.244C207.257 236.933 207.894 236.701 208.59 236.548C209.292 236.389 209.998 236.263 210.708 236.17C211.636 236.051 212.388 235.962 212.965 235.902C213.548 235.836 213.972 235.726 214.237 235.574C214.509 235.421 214.645 235.156 214.645 234.778V234.699C214.645 233.718 214.377 232.955 213.84 232.412C213.309 231.868 212.504 231.597 211.423 231.597C210.303 231.597 209.425 231.842 208.789 232.332C208.152 232.823 207.705 233.347 207.446 233.903L205.219 233.108C205.617 232.18 206.147 231.457 206.81 230.94C207.479 230.417 208.209 230.052 208.997 229.847C209.793 229.634 210.575 229.528 211.344 229.528C211.834 229.528 212.398 229.588 213.034 229.707C213.677 229.82 214.297 230.055 214.894 230.413C215.497 230.771 215.997 231.312 216.395 232.034C216.793 232.757 216.992 233.724 216.992 234.938V245H214.645V242.932H214.526C214.367 243.263 214.102 243.618 213.73 243.996C213.359 244.374 212.865 244.695 212.249 244.96C211.632 245.225 210.88 245.358 209.992 245.358ZM210.35 243.25C211.278 243.25 212.06 243.068 212.696 242.703C213.339 242.339 213.823 241.868 214.148 241.291C214.479 240.714 214.645 240.108 214.645 239.472V237.324C214.546 237.443 214.327 237.553 213.989 237.652C213.657 237.745 213.273 237.828 212.835 237.901C212.405 237.967 211.984 238.027 211.573 238.08C211.168 238.126 210.84 238.166 210.588 238.199C209.978 238.278 209.408 238.408 208.878 238.587C208.354 238.759 207.93 239.021 207.605 239.372C207.287 239.717 207.128 240.187 207.128 240.784C207.128 241.599 207.43 242.216 208.033 242.634C208.643 243.045 209.415 243.25 210.35 243.25ZM221.275 245V229.727H223.542V232.034H223.701C223.979 231.278 224.483 230.665 225.212 230.195C225.941 229.724 226.763 229.489 227.678 229.489C227.85 229.489 228.066 229.492 228.324 229.499C228.583 229.505 228.778 229.515 228.911 229.528V231.915C228.831 231.895 228.649 231.865 228.364 231.825C228.086 231.779 227.791 231.756 227.479 231.756C226.737 231.756 226.074 231.911 225.491 232.223C224.914 232.528 224.456 232.952 224.118 233.496C223.787 234.033 223.621 234.646 223.621 235.335V245H221.275Z" fill="white"/>
<defs>
<clipPath id="clip0_91_364">
<rect width="150" height="150" fill="white" transform="translate(114.5 48)"/>
</clipPath>
</defs>
</svg>
