<svg width="379" height="300" viewBox="0 0 379 300" fill="none" xmlns="http://www.w3.org/2000/svg">
<rect x="1" y="1" width="377" height="298" rx="11" stroke="white" stroke-width="2"/>
<path d="M195.52 96.0251C195.945 96.3913 196.411 96.6774 196.899 96.8925V105.228C196.899 106.443 197.882 107.426 199.096 107.426C200.309 107.426 201.293 106.443 201.293 105.228V96.8925C201.781 96.6774 202.246 96.3913 202.671 96.0251C209.438 90.2092 213.317 81.7612 213.317 72.8485C213.317 70.3949 213.026 67.9528 212.45 65.5896C212.163 64.4108 210.974 63.691 209.795 63.9748C208.616 64.2632 207.893 65.4511 208.18 66.6298C208.673 68.6531 208.924 70.7451 208.924 72.8485C208.924 79.8008 206.165 86.4212 201.293 91.3113V68.3327C201.293 67.1185 200.309 66.1354 199.096 66.1354C197.882 66.1354 196.899 67.1185 196.899 68.3327V91.3113C192.027 86.4212 189.268 79.8008 189.268 72.8485C189.268 64.8594 192.85 57.4139 199.096 52.414C201.168 54.0734 202.972 56.0292 204.456 58.2253C205.136 59.2312 206.502 59.4956 207.507 58.8158C208.513 58.1372 208.778 56.7707 208.098 55.7648C206.357 53.1887 204.24 50.8976 201.806 48.9544C200.209 47.6819 197.981 47.6819 196.386 48.9544C189.069 54.7932 184.873 63.5022 184.873 72.8485C184.873 81.7612 188.754 90.2092 195.52 96.0251Z" fill="white"/>
<path d="M215.772 117.204C216.334 117.204 216.896 116.99 217.325 116.562L223.223 110.666C223.72 110.859 224.252 110.986 224.811 111.028C225.582 111.085 226.352 111.115 227.119 111.115C235.203 111.115 242.975 107.921 248.733 102.166C255.345 95.5557 258.538 86.4313 257.494 77.133C257.266 75.104 255.69 73.527 253.66 73.3004C244.358 72.2567 235.231 75.4485 228.619 82.0574C222.315 88.3597 219.084 97.0766 219.754 105.972C219.796 106.531 219.923 107.062 220.114 107.559L214.218 113.454C213.36 114.313 213.36 115.704 214.217 116.561C214.647 116.99 215.209 117.204 215.772 117.204ZM231.726 85.1656C236.682 80.2115 243.287 77.5004 250.202 77.5004C251.173 77.5004 252.152 77.5542 253.131 77.6629C254.013 85.6119 251.277 93.4077 245.626 99.0576C240.709 103.973 234.075 106.702 227.173 106.718L243.424 90.4722C244.283 89.6139 244.283 88.2235 243.426 87.3652C242.567 86.5069 241.177 86.5069 240.317 87.364L224.063 103.613C224.077 96.7127 226.81 90.0809 231.726 85.1656Z" fill="white"/>
<path d="M149.826 102.166C155.584 107.921 163.356 111.115 171.44 111.115C172.207 111.115 172.978 111.086 173.748 111.028C174.307 110.986 174.839 110.859 175.337 110.667L181.234 116.563C181.663 116.991 182.225 117.205 182.787 117.205C183.35 117.205 183.912 116.991 184.341 116.562C185.199 115.703 185.199 114.312 184.341 113.455L178.444 107.56C178.636 107.062 178.763 106.531 178.804 105.972C179.475 97.0758 176.243 88.36 169.939 82.0577C163.327 75.4487 154.201 72.257 144.898 73.2995C142.869 73.5273 141.292 75.1031 141.065 77.1322C140.022 86.4316 143.214 95.556 149.826 102.166ZM145.428 77.6632C153.384 76.7831 161.18 79.516 166.833 85.1659C171.75 90.08 174.482 96.7118 174.497 103.613L158.242 87.3643C157.383 86.506 155.992 86.506 155.135 87.3643C154.276 88.2226 154.276 89.6142 155.135 90.4725L171.387 106.719C164.482 106.703 157.85 103.973 152.934 99.0579C147.282 93.4091 144.548 85.6122 145.428 77.6632Z" fill="white"/>
<path d="M260.771 124.763C258.568 122.469 255.481 121.154 252.303 121.154C249.514 121.154 246.809 122.151 244.689 123.962C244.668 123.98 244.648 123.998 244.627 124.017L216.887 149.558C216.696 149.713 216.457 149.797 216.21 149.797H195.37C194.157 149.797 193.17 148.81 193.17 147.597C193.17 147.009 193.399 146.457 193.81 146.044C194.228 145.628 194.781 145.398 195.37 145.398H210.257C215.324 145.398 219.446 141.279 219.446 136.215C219.446 133.763 218.491 131.457 216.754 129.716C215.017 127.985 212.71 127.03 210.257 127.03H173.297C165.113 127.03 157.366 130.161 151.483 135.848L138.582 148.321L138.528 148.267C136.783 146.523 133.945 146.523 132.199 148.267L117.862 162.6C117.017 163.444 116.551 164.568 116.551 165.764C116.551 166.96 117.017 168.084 117.862 168.928L145.635 196.692C146.508 197.564 147.654 198 148.799 198C149.946 198 151.093 197.564 151.965 196.692L166.302 182.359C167.147 181.514 167.613 180.391 167.613 179.195C167.613 178.347 167.375 177.538 166.937 176.835C169.68 174.366 173.196 173.014 176.908 173.014H219.356C222.826 173.014 226.126 171.516 228.408 168.904L260.937 131.678C262.694 129.665 262.623 126.693 260.771 124.763ZM257.628 128.787L225.099 166.012C223.651 167.668 221.558 168.618 219.356 168.618H176.908C172.063 168.618 167.479 170.401 163.917 173.646L150.334 160.067C149.474 159.209 148.084 159.21 147.226 160.068C146.368 160.927 146.368 162.317 147.227 163.175L162.305 178.248C162.31 178.253 162.313 178.259 162.318 178.263C162.325 178.27 162.333 178.276 162.34 178.283L163.195 179.139C163.203 179.146 163.219 179.162 163.219 179.195C163.219 179.228 163.203 179.244 163.195 179.252L148.859 193.583C148.827 193.615 148.774 193.615 148.742 193.583L120.968 165.82C120.961 165.813 120.945 165.797 120.945 165.764C120.945 165.731 120.961 165.715 120.969 165.708L135.305 151.375C135.337 151.343 135.39 151.343 135.422 151.375L140.532 156.483C141.39 157.341 142.782 157.341 143.639 156.483C144.497 155.625 144.496 154.233 143.639 153.376L141.69 151.428L154.536 139.008C159.597 134.118 166.258 131.425 173.296 131.425H210.257C211.538 131.425 212.743 131.924 213.647 132.824C214.552 133.732 215.051 134.936 215.051 136.215C215.051 138.856 212.901 141.004 210.257 141.004H195.369C193.611 141.004 191.956 141.688 190.703 142.936C189.46 144.183 188.774 145.838 188.774 147.597C188.774 151.232 191.733 154.192 195.369 154.192H216.21C217.512 154.192 218.774 153.725 219.764 152.879C219.784 152.862 219.805 152.844 219.825 152.825L247.572 127.279C248.892 126.163 250.571 125.548 252.303 125.548C254.32 125.548 256.203 126.351 257.601 127.806C257.865 128.08 257.876 128.502 257.628 128.787Z" fill="white"/>
<path d="M142.2 245V224.636H144.666V233.705H155.524V224.636H157.99V245H155.524V235.892H144.666V245H142.2ZM169.012 245.318C167.54 245.318 166.271 244.993 165.204 244.344C164.143 243.688 163.325 242.773 162.748 241.599C162.178 240.42 161.893 239.047 161.893 237.483C161.893 235.919 162.178 234.54 162.748 233.347C163.325 232.147 164.127 231.212 165.154 230.543C166.188 229.866 167.395 229.528 168.773 229.528C169.569 229.528 170.354 229.661 171.13 229.926C171.906 230.191 172.612 230.622 173.248 231.219C173.884 231.809 174.391 232.591 174.769 233.565C175.147 234.54 175.336 235.74 175.336 237.165V238.159H163.563V236.131H172.95C172.95 235.269 172.777 234.5 172.433 233.824C172.094 233.148 171.611 232.614 170.981 232.223C170.358 231.832 169.622 231.636 168.773 231.636C167.839 231.636 167.03 231.868 166.347 232.332C165.671 232.79 165.151 233.386 164.786 234.122C164.422 234.858 164.239 235.647 164.239 236.489V237.841C164.239 238.994 164.438 239.972 164.836 240.774C165.24 241.57 165.8 242.176 166.516 242.594C167.232 243.005 168.064 243.21 169.012 243.21C169.629 243.21 170.185 243.124 170.683 242.952C171.186 242.773 171.621 242.508 171.985 242.156C172.35 241.798 172.631 241.354 172.83 240.824L175.097 241.46C174.859 242.229 174.458 242.905 173.894 243.489C173.331 244.065 172.635 244.516 171.806 244.841C170.978 245.159 170.046 245.318 169.012 245.318ZM183.4 245.358C182.432 245.358 181.554 245.176 180.765 244.811C179.976 244.44 179.35 243.906 178.886 243.21C178.422 242.508 178.19 241.659 178.19 240.665C178.19 239.79 178.362 239.08 178.707 238.537C179.051 237.987 179.512 237.556 180.089 237.244C180.665 236.933 181.302 236.701 181.998 236.548C182.701 236.389 183.406 236.263 184.116 236.17C185.044 236.051 185.796 235.962 186.373 235.902C186.956 235.836 187.38 235.726 187.646 235.574C187.917 235.421 188.053 235.156 188.053 234.778V234.699C188.053 233.718 187.785 232.955 187.248 232.412C186.718 231.868 185.912 231.597 184.832 231.597C183.711 231.597 182.833 231.842 182.197 232.332C181.56 232.823 181.113 233.347 180.854 233.903L178.627 233.108C179.025 232.18 179.555 231.457 180.218 230.94C180.888 230.417 181.617 230.052 182.406 229.847C183.201 229.634 183.983 229.528 184.752 229.528C185.243 229.528 185.806 229.588 186.442 229.707C187.085 229.82 187.705 230.055 188.302 230.413C188.905 230.771 189.406 231.312 189.803 232.034C190.201 232.757 190.4 233.724 190.4 234.938V245H188.053V242.932H187.934C187.775 243.263 187.51 243.618 187.138 243.996C186.767 244.374 186.273 244.695 185.657 244.96C185.04 245.225 184.288 245.358 183.4 245.358ZM183.758 243.25C184.686 243.25 185.468 243.068 186.104 242.703C186.747 242.339 187.231 241.868 187.556 241.291C187.888 240.714 188.053 240.108 188.053 239.472V237.324C187.954 237.443 187.735 237.553 187.397 237.652C187.066 237.745 186.681 237.828 186.244 237.901C185.813 237.967 185.392 238.027 184.981 238.08C184.576 238.126 184.248 238.166 183.996 238.199C183.387 238.278 182.817 238.408 182.286 238.587C181.763 238.759 181.338 239.021 181.013 239.372C180.695 239.717 180.536 240.187 180.536 240.784C180.536 241.599 180.838 242.216 181.441 242.634C182.051 243.045 182.823 243.25 183.758 243.25ZM197.029 224.636V245H194.683V224.636H197.029ZM201.327 245V229.727H203.674V245H201.327ZM202.521 227.182C202.063 227.182 201.669 227.026 201.337 226.714C201.013 226.403 200.85 226.028 200.85 225.591C200.85 225.153 201.013 224.779 201.337 224.467C201.669 224.156 202.063 224 202.521 224C202.978 224 203.369 224.156 203.694 224.467C204.025 224.779 204.191 225.153 204.191 225.591C204.191 226.028 204.025 226.403 203.694 226.714C203.369 227.026 202.978 227.182 202.521 227.182ZM210.319 235.812V245H207.972V229.727H210.239V232.114H210.438C210.796 231.338 211.339 230.715 212.069 230.244C212.798 229.767 213.739 229.528 214.892 229.528C215.926 229.528 216.831 229.741 217.607 230.165C218.382 230.582 218.986 231.219 219.417 232.074C219.847 232.922 220.063 233.996 220.063 235.295V245H217.716V235.455C217.716 234.255 217.405 233.32 216.782 232.651C216.158 231.974 215.303 231.636 214.216 231.636C213.467 231.636 212.798 231.799 212.208 232.124C211.624 232.448 211.164 232.922 210.826 233.545C210.488 234.169 210.319 234.924 210.319 235.812ZM230.516 251.045C229.382 251.045 228.408 250.9 227.592 250.608C226.777 250.323 226.098 249.945 225.554 249.474C225.017 249.01 224.589 248.513 224.271 247.983L226.141 246.67C226.353 246.949 226.621 247.267 226.946 247.625C227.271 247.99 227.715 248.304 228.278 248.57C228.848 248.841 229.594 248.977 230.516 248.977C231.749 248.977 232.766 248.679 233.568 248.082C234.37 247.486 234.771 246.551 234.771 245.278V242.176H234.572C234.4 242.455 234.155 242.799 233.837 243.21C233.525 243.615 233.074 243.976 232.484 244.294C231.901 244.606 231.112 244.761 230.118 244.761C228.885 244.761 227.778 244.47 226.797 243.886C225.822 243.303 225.05 242.455 224.48 241.341C223.917 240.227 223.635 238.875 223.635 237.284C223.635 235.72 223.91 234.357 224.46 233.197C225.01 232.031 225.776 231.129 226.757 230.493C227.738 229.85 228.872 229.528 230.158 229.528C231.152 229.528 231.941 229.694 232.524 230.026C233.114 230.35 233.565 230.722 233.876 231.139C234.195 231.55 234.44 231.888 234.612 232.153H234.851V229.727H237.118V245.438C237.118 246.75 236.82 247.817 236.223 248.639C235.633 249.468 234.838 250.074 233.837 250.459C232.842 250.85 231.735 251.045 230.516 251.045ZM230.436 242.653C231.377 242.653 232.173 242.438 232.822 242.007C233.472 241.576 233.966 240.956 234.304 240.148C234.642 239.339 234.811 238.371 234.811 237.244C234.811 236.144 234.645 235.173 234.314 234.331C233.982 233.489 233.492 232.83 232.842 232.352C232.193 231.875 231.391 231.636 230.436 231.636C229.442 231.636 228.613 231.888 227.95 232.392C227.294 232.896 226.8 233.572 226.469 234.42C226.144 235.269 225.982 236.21 225.982 237.244C225.982 238.305 226.147 239.243 226.479 240.058C226.817 240.867 227.314 241.503 227.97 241.967C228.633 242.425 229.455 242.653 230.436 242.653Z" fill="white"/>
</svg>
