<svg width="379" height="300" viewBox="0 0 379 300" fill="none" xmlns="http://www.w3.org/2000/svg">
<rect x="1" y="1" width="377" height="298" rx="11" stroke="white" stroke-width="2"/>
<g clip-path="url(#clip0_91_445)">
<path d="M169.232 86.0689C169.914 84.8516 170.502 83.8005 170.882 83.2758C177.344 74.3326 184.382 69.8774 188.163 67.4839C190.418 66.0571 191.446 65.4061 191.652 64.0547C191.756 63.3668 191.558 62.6678 191.105 62.1363C179.726 48.7576 151.503 45.1122 133.29 50.2078C122.698 53.1712 116.206 58.8152 114.998 66.1063L114.946 66.3334C113.857 71.1486 114.777 76.052 117.538 80.1404C119.474 83.0068 122.119 85.1801 125.204 86.4885C124.431 87.3299 123.699 88.1827 123.009 89.0461C117.367 96.1049 114.506 103.885 114.506 112.171C114.506 113.385 115.49 114.369 116.703 114.369C117.917 114.369 118.9 113.385 118.9 112.171C118.9 104.922 121.428 98.0774 126.412 91.8278C126.754 91.3995 127.107 90.9738 127.472 90.5508C128.46 97.0538 133.05 102.724 139.541 104.784C139.762 104.854 139.986 104.887 140.206 104.887C141.138 104.887 142.003 104.29 142.3 103.354C142.667 102.198 142.027 100.962 140.87 100.595C134.779 98.6616 130.918 92.4852 131.788 86.1448C135.069 83.1712 138.954 80.3587 143.406 77.7387C146.361 75.9996 149.327 74.4888 152.134 73.1953C154.477 73.7162 159.25 75.0688 161.541 76.9869C161.952 77.3314 162.453 77.4996 162.95 77.4996C163.578 77.4996 164.202 77.2318 164.636 76.7127C165.415 75.7822 165.292 74.3965 164.362 73.6175C162.776 72.2891 160.595 71.2558 158.518 70.488C164.373 68.2084 168.518 67.132 168.59 67.1136C169.766 66.8133 170.475 65.6171 170.175 64.4414C169.875 63.2654 168.678 62.555 167.503 62.8556C166.967 62.9924 154.217 66.2953 141.262 73.9011C140.608 74.2851 139.965 74.6733 139.334 75.0656C139.848 72.1271 140.947 68.24 143.293 65.1211C144.023 64.1514 143.829 62.7738 142.859 62.0443C141.89 61.3145 140.512 61.5091 139.782 62.4788C135.55 68.1023 134.7 75.4594 134.53 78.2865C132.416 79.8196 130.46 81.4063 128.668 83.0423C125.609 82.2223 122.984 80.3528 121.18 77.6804C119.105 74.6083 118.413 70.9227 119.232 67.306L119.298 67.0151C119.309 66.9691 119.317 66.9225 119.325 66.876C120.524 59.4079 129.331 55.8788 134.474 54.4397C150.615 49.9239 175.405 52.9186 186.316 63.4515C186.149 63.5581 185.979 63.6656 185.813 63.7705C182.069 66.1406 174.278 71.0722 167.32 80.7015C166.792 81.4318 166.177 82.5308 165.398 83.9221C162.678 88.7809 157.614 97.8249 150.322 100.537C149.184 100.959 148.605 102.224 149.028 103.362C149.451 104.499 150.716 105.078 151.853 104.656C160.66 101.381 166.237 91.4203 169.232 86.0689Z" fill="white"/>
<path d="M225.247 182.706C213.748 186.008 201.793 184.783 191.508 179.946C196.265 174.309 200.368 168.578 203.865 163.097C206.137 164.073 210.316 165.41 216.152 165.41C222.178 165.41 229.972 163.983 239.253 159.259C240.335 158.709 240.765 157.386 240.215 156.304C239.665 155.223 238.341 154.792 237.26 155.343C226.481 160.828 218.07 161.358 212.911 160.836C209.946 160.536 207.686 159.864 206.217 159.3C208.852 154.922 211.087 150.766 212.949 147.024C220.669 131.508 223.742 119.858 223.869 119.37C224.174 118.196 223.47 116.997 222.296 116.691C221.122 116.385 219.922 117.089 219.616 118.263C219.596 118.34 218.222 123.54 215.078 131.473C213.549 126.658 210.986 123.099 210.821 122.873C210.106 121.894 208.735 121.68 207.755 122.393C206.774 123.107 206.558 124.48 207.27 125.462C207.321 125.532 212.311 132.498 211.769 139.268C210.913 141.159 209.979 143.132 208.964 145.168C205.897 151.321 201.794 158.623 196.535 166.171C194.856 160.906 190.809 152.139 181.167 142.912C180.29 142.073 178.9 142.103 178.06 142.981C177.221 143.857 177.252 145.248 178.129 146.087C189.878 157.33 192.623 167.845 193.186 170.794C191.414 173.146 189.529 175.505 187.528 177.844C179.965 173.39 173.56 166.859 169.289 158.669C161.291 143.331 162.092 124.916 171.322 110.338C173.947 120.837 180.514 130.551 189.91 137.795C190.522 138.268 191.339 138.383 192.059 138.098C192.778 137.814 193.295 137.172 193.42 136.407C194.393 130.43 196.215 124.463 198.836 118.67C199.336 117.565 198.846 116.263 197.74 115.762C196.634 115.262 195.333 115.752 194.832 116.858C192.593 121.807 190.902 126.883 189.788 131.993C182.4 125.429 177.322 117.126 175.353 108.289C175.012 106.757 173.793 105.581 172.248 105.293C170.702 105.005 169.138 105.665 168.268 106.973C157.584 123.026 156.482 143.613 165.393 160.7C169.916 169.375 176.632 176.344 184.569 181.19C180.47 185.674 175.928 190.034 170.916 194.074C169.972 194.835 169.823 196.219 170.585 197.164C171.019 197.702 171.655 197.982 172.297 197.982C172.781 197.982 173.268 197.823 173.674 197.496C179.158 193.075 184.095 188.29 188.518 183.376C195.779 187.001 203.853 188.953 212.091 188.953C216.867 188.953 221.7 188.296 226.459 186.929C227.626 186.594 228.3 185.377 227.964 184.211C227.63 183.045 226.413 182.37 225.247 182.706Z" fill="white"/>
<path d="M262.18 133.539C260.747 132.897 259.078 133.169 257.928 134.232C252.23 139.494 244.768 143.161 236.528 144.815C239.014 141.375 241.092 137.82 242.732 134.198C253.509 110.382 242.484 90.1543 237.244 82.5629C236.783 81.8958 235.994 81.5358 235.188 81.628C222.436 83.0771 209.284 92.6636 200.004 107.272C199.353 108.296 199.656 109.654 200.681 110.304C201.705 110.955 203.063 110.653 203.713 109.628C211.962 96.6424 223.336 87.9729 234.378 86.1752C237.358 90.7306 240.888 97.606 242.287 106.109C243.762 115.068 242.564 123.909 238.728 132.386C236.551 137.198 233.525 141.897 229.736 146.354C229.157 147.034 229.048 147.997 229.459 148.79C229.871 149.582 230.723 150.048 231.61 149.965C242.487 148.966 252.547 144.804 260.073 138.212C259.376 155.28 249.729 170.78 234.696 178.857C233.627 179.431 233.226 180.763 233.8 181.832C234.197 182.571 234.955 182.99 235.738 182.99C236.089 182.99 236.445 182.906 236.776 182.728C253.529 173.727 264.153 156.278 264.499 137.191C264.528 135.618 263.618 134.184 262.18 133.539Z" fill="white"/>
<path d="M138.694 184.231C138.576 182.271 138.454 180.243 138.243 178.224C138.116 177.017 137.035 176.141 135.828 176.268C134.622 176.394 133.746 177.475 133.873 178.682C134.074 180.605 134.193 182.583 134.308 184.495C134.487 187.462 134.657 190.302 135.11 192.958C129.857 190.88 123.542 185.565 120.597 178.926C117.532 172.024 119.18 165.944 121.103 162.059C121.336 161.587 121.737 161.235 122.231 161.068C122.725 160.901 123.257 160.938 123.729 161.171C127.393 162.983 129.964 165.596 131.591 169.157C132.095 170.261 133.399 170.746 134.502 170.243C135.606 169.738 136.092 168.435 135.588 167.331C133.525 162.814 130.283 159.51 125.677 157.233C124.154 156.479 122.431 156.362 120.824 156.905C119.217 157.448 117.917 158.587 117.163 160.11C113.856 166.794 113.649 174.11 116.58 180.709C120.646 189.874 129.761 196.418 136.273 197.921C136.501 197.974 136.731 198 136.958 198C137.754 198 138.52 197.683 139.094 197.096C139.838 196.337 140.125 195.266 139.862 194.228C139.121 191.323 138.913 187.878 138.694 184.231Z" fill="white"/>
<path d="M232.554 61.3037C236.097 64.6614 239.924 65.7553 243.702 65.7553C247.632 65.7553 251.509 64.5714 254.955 63.5191C257.481 62.748 259.867 62.0194 261.989 61.795C261.99 61.795 261.992 61.7947 261.993 61.7947C262.973 61.6892 263.809 61.0954 264.23 60.2062C264.649 59.3203 264.578 58.3019 264.04 57.4807C261.269 53.2573 254.273 48.512 246.766 48.0371C241.316 47.6914 236.187 49.7677 232.33 53.886C230.357 55.991 230.458 59.3191 232.554 61.3037ZM235.536 56.8907C237.495 54.7995 240.787 52.3933 245.562 52.3933C245.865 52.3933 246.173 52.403 246.488 52.4229C251.212 52.722 255.894 55.1935 258.694 57.9102C257.062 58.2811 255.397 58.7894 253.672 59.3159C247.128 61.3145 240.946 63.2021 235.576 58.1132C235.229 57.7854 235.212 57.2372 235.536 56.8907Z" fill="white"/>
<path d="M156.805 169.275C156.687 168.071 155.617 167.189 154.412 167.302C153.204 167.416 152.317 168.488 152.431 169.696C152.456 169.965 153.109 176.34 158.068 181.788C158.502 182.264 159.097 182.506 159.694 182.506C160.222 182.506 160.751 182.317 161.172 181.934C162.07 181.117 162.135 179.727 161.318 178.829C157.38 174.503 156.811 169.327 156.805 169.275Z" fill="white"/>
<path d="M132.522 127.984C131.37 127.603 130.127 128.227 129.746 129.379C129.364 130.531 129.988 131.774 131.14 132.156C136.652 133.982 139.671 138.177 139.734 138.265C140.161 138.879 140.844 139.208 141.54 139.208C141.97 139.208 142.406 139.081 142.787 138.818C143.785 138.128 144.035 136.759 143.345 135.761C143.192 135.539 139.509 130.299 132.522 127.984Z" fill="white"/>
<path d="M262.428 73.8283C262.16 73.8134 255.772 73.5005 249.654 77.6C248.645 78.2756 248.376 79.6405 249.051 80.6486C249.475 81.2815 250.17 81.6233 250.878 81.6233C251.299 81.6233 251.724 81.5026 252.099 81.2513C256.935 78.0113 262.099 78.212 262.185 78.2164C263.393 78.2803 264.427 77.3563 264.496 76.1472C264.565 74.9355 263.639 73.8975 262.428 73.8283Z" fill="white"/>
<path d="M190.485 90.9117C190.896 91.602 191.626 91.9849 192.375 91.9849C192.757 91.9849 193.145 91.885 193.497 91.6749C199.822 87.907 202.295 81.9961 202.397 81.7465C202.855 80.6262 202.319 79.3506 201.201 78.888C200.084 78.4254 198.8 78.9583 198.333 80.0748C198.313 80.1229 196.268 84.9088 191.248 87.8991C190.206 88.5202 189.864 89.869 190.485 90.9117Z" fill="white"/>
</g>
<path d="M145.345 245V224.636H147.811V242.812H157.277V245H145.345ZM167.18 245.318C165.708 245.318 164.439 244.993 163.372 244.344C162.311 243.688 161.493 242.773 160.916 241.599C160.346 240.42 160.061 239.047 160.061 237.483C160.061 235.919 160.346 234.54 160.916 233.347C161.493 232.147 162.295 231.212 163.322 230.543C164.356 229.866 165.563 229.528 166.941 229.528C167.737 229.528 168.522 229.661 169.298 229.926C170.074 230.191 170.779 230.622 171.416 231.219C172.052 231.809 172.559 232.591 172.937 233.565C173.315 234.54 173.504 235.74 173.504 237.165V238.159H161.731V236.131H171.118C171.118 235.269 170.945 234.5 170.6 233.824C170.262 233.148 169.779 232.614 169.149 232.223C168.526 231.832 167.79 231.636 166.941 231.636C166.007 231.636 165.198 231.868 164.515 232.332C163.839 232.79 163.319 233.386 162.954 234.122C162.59 234.858 162.407 235.647 162.407 236.489V237.841C162.407 238.994 162.606 239.972 163.004 240.774C163.408 241.57 163.968 242.176 164.684 242.594C165.4 243.005 166.232 243.21 167.18 243.21C167.797 243.21 168.353 243.124 168.85 242.952C169.354 242.773 169.788 242.508 170.153 242.156C170.518 241.798 170.799 241.354 170.998 240.824L173.265 241.46C173.027 242.229 172.626 242.905 172.062 243.489C171.499 244.065 170.803 244.516 169.974 244.841C169.145 245.159 168.214 245.318 167.18 245.318ZM181.568 245.358C180.6 245.358 179.722 245.176 178.933 244.811C178.144 244.44 177.518 243.906 177.054 243.21C176.59 242.508 176.358 241.659 176.358 240.665C176.358 239.79 176.53 239.08 176.875 238.537C177.219 237.987 177.68 237.556 178.257 237.244C178.833 236.933 179.47 236.701 180.166 236.548C180.868 236.389 181.574 236.263 182.284 236.17C183.212 236.051 183.964 235.962 184.541 235.902C185.124 235.836 185.548 235.726 185.814 235.574C186.085 235.421 186.221 235.156 186.221 234.778V234.699C186.221 233.718 185.953 232.955 185.416 232.412C184.886 231.868 184.08 231.597 183 231.597C181.879 231.597 181.001 231.842 180.365 232.332C179.728 232.823 179.281 233.347 179.022 233.903L176.795 233.108C177.193 232.18 177.723 231.457 178.386 230.94C179.056 230.417 179.785 230.052 180.574 229.847C181.369 229.634 182.151 229.528 182.92 229.528C183.411 229.528 183.974 229.588 184.61 229.707C185.253 229.82 185.873 230.055 186.47 230.413C187.073 230.771 187.574 231.312 187.971 232.034C188.369 232.757 188.568 233.724 188.568 234.938V245H186.221V242.932H186.102C185.943 243.263 185.678 243.618 185.306 243.996C184.935 244.374 184.441 244.695 183.825 244.96C183.208 245.225 182.456 245.358 181.568 245.358ZM181.926 243.25C182.854 243.25 183.636 243.068 184.272 242.703C184.915 242.339 185.399 241.868 185.724 241.291C186.056 240.714 186.221 240.108 186.221 239.472V237.324C186.122 237.443 185.903 237.553 185.565 237.652C185.234 237.745 184.849 237.828 184.412 237.901C183.981 237.967 183.56 238.027 183.149 238.08C182.744 238.126 182.416 238.166 182.164 238.199C181.555 238.278 180.984 238.408 180.454 238.587C179.931 238.759 179.506 239.021 179.181 239.372C178.863 239.717 178.704 240.187 178.704 240.784C178.704 241.599 179.006 242.216 179.609 242.634C180.219 243.045 180.991 243.25 181.926 243.25ZM204.793 229.727L199.145 245H196.759L191.111 229.727H193.656L197.872 241.898H198.031L202.247 229.727H204.793ZM213.746 245.318C212.275 245.318 211.005 244.993 209.938 244.344C208.878 243.688 208.059 242.773 207.482 241.599C206.912 240.42 206.627 239.047 206.627 237.483C206.627 235.919 206.912 234.54 207.482 233.347C208.059 232.147 208.861 231.212 209.888 230.543C210.923 229.866 212.129 229.528 213.508 229.528C214.303 229.528 215.089 229.661 215.864 229.926C216.64 230.191 217.346 230.622 217.982 231.219C218.619 231.809 219.126 232.591 219.504 233.565C219.881 234.54 220.07 235.74 220.07 237.165V238.159H208.298V236.131H217.684C217.684 235.269 217.512 234.5 217.167 233.824C216.829 233.148 216.345 232.614 215.715 232.223C215.092 231.832 214.356 231.636 213.508 231.636C212.573 231.636 211.764 231.868 211.082 232.332C210.406 232.79 209.885 233.386 209.521 234.122C209.156 234.858 208.974 235.647 208.974 236.489V237.841C208.974 238.994 209.173 239.972 209.57 240.774C209.975 241.57 210.535 242.176 211.251 242.594C211.967 243.005 212.799 243.21 213.746 243.21C214.363 243.21 214.92 243.124 215.417 242.952C215.921 242.773 216.355 242.508 216.719 242.156C217.084 241.798 217.366 241.354 217.565 240.824L219.832 241.46C219.593 242.229 219.192 242.905 218.629 243.489C218.065 244.065 217.369 244.516 216.54 244.841C215.712 245.159 214.781 245.318 213.746 245.318ZM234.458 233.148L232.35 233.744C232.218 233.393 232.022 233.052 231.763 232.72C231.512 232.382 231.167 232.104 230.729 231.885C230.292 231.666 229.732 231.557 229.049 231.557C228.114 231.557 227.335 231.772 226.712 232.203C226.096 232.627 225.788 233.168 225.788 233.824C225.788 234.407 226 234.868 226.424 235.206C226.848 235.544 227.511 235.826 228.413 236.051L230.68 236.608C232.045 236.939 233.063 237.446 233.732 238.129C234.402 238.805 234.737 239.677 234.737 240.744C234.737 241.619 234.485 242.402 233.981 243.091C233.484 243.78 232.788 244.324 231.893 244.722C230.998 245.119 229.957 245.318 228.771 245.318C227.213 245.318 225.924 244.98 224.903 244.304C223.882 243.628 223.236 242.64 222.964 241.341L225.191 240.784C225.403 241.606 225.804 242.223 226.394 242.634C226.991 243.045 227.77 243.25 228.731 243.25C229.825 243.25 230.693 243.018 231.336 242.554C231.986 242.083 232.31 241.52 232.31 240.864C232.31 240.333 232.125 239.889 231.754 239.531C231.382 239.167 230.812 238.895 230.043 238.716L227.498 238.119C226.099 237.788 225.072 237.274 224.415 236.578C223.766 235.875 223.441 234.997 223.441 233.943C223.441 233.081 223.683 232.319 224.167 231.656C224.657 230.993 225.324 230.473 226.165 230.095C227.014 229.717 227.975 229.528 229.049 229.528C230.56 229.528 231.747 229.86 232.609 230.523C233.477 231.186 234.094 232.061 234.458 233.148Z" fill="white"/>
<defs>
<clipPath id="clip0_91_445">
<rect width="150" height="150" fill="white" transform="translate(114.5 48)"/>
</clipPath>
</defs>
</svg>
