<svg width="379" height="300" viewBox="0 0 379 300" fill="none" xmlns="http://www.w3.org/2000/svg">
<rect x="1" y="1" width="377" height="298" rx="11" stroke="white" stroke-width="2"/>
<g clip-path="url(#clip0_91_715)">
<path d="M260.838 156.25H220.324C225.419 147.567 228.098 137.706 228.098 127.55C228.098 114.617 223.635 101.961 215.531 91.9141C214.769 90.9699 213.386 90.8216 212.441 91.5833C211.497 92.3453 211.349 93.7284 212.111 94.6733C219.587 103.942 223.704 115.617 223.704 127.55C223.704 137.117 221.127 146.4 216.234 154.531L211.931 149.882C211.912 149.861 211.892 149.841 211.872 149.821L198.36 136.309C197.163 135.112 195.572 134.453 193.879 134.453C192.186 134.453 190.595 135.112 189.398 136.309C185.623 140.084 185.623 146.226 189.398 150.001L190.457 151.06L182.275 148.868C181.102 148.553 179.898 149.249 179.584 150.421C179.27 151.594 179.965 152.798 181.138 153.113L195.84 157.052C196.071 157.114 196.305 157.142 196.536 157.14L197.09 157.693C197.747 158.351 198.001 159.29 197.753 160.144C197.419 161.291 197.242 162.483 197.227 163.686C197.183 167.216 198.53 170.561 201.019 173.107C203.507 175.652 206.819 177.072 210.346 177.108C210.391 177.108 210.436 177.109 210.481 177.109C211.778 177.109 213.059 176.922 214.291 176.552C215.453 176.204 216.113 174.979 215.765 173.817C215.417 172.654 214.193 171.995 213.029 172.343C212.178 172.598 211.29 172.724 210.389 172.714C208.039 172.691 205.827 171.739 204.162 170.035C202.494 168.33 201.592 166.095 201.621 163.741C201.631 162.935 201.749 162.138 201.972 161.372C202.669 158.978 201.989 156.377 200.197 154.586L192.505 146.894C190.443 144.833 190.443 141.478 192.505 139.417C192.872 139.05 193.36 138.848 193.878 138.848C194.397 138.848 194.885 139.05 195.252 139.417L208.734 152.899L213.518 158.066C215.035 159.706 217.187 160.646 219.421 160.646H260.105V184.364L219.051 181.807C217.303 181.696 215.558 182.303 214.254 183.466C211.248 186.146 207.374 187.621 203.343 187.621H188.821C187.554 187.621 186.303 187.956 185.205 188.59L177.098 193.271C175.907 193.959 174.378 193.549 173.691 192.358C173.003 191.167 173.413 189.639 174.604 188.951L184.655 183.148C185.61 182.597 186.008 181.423 185.586 180.405C185.165 179.386 184.053 178.836 182.988 179.123L167.167 183.362C165.838 183.719 164.469 182.927 164.112 181.599C163.757 180.27 164.541 178.902 165.876 178.544L185.91 173.176C186.975 172.891 187.663 171.86 187.52 170.767C187.376 169.674 186.444 168.856 185.341 168.856H162.34C160.964 168.856 159.846 167.738 159.846 166.362C159.846 164.987 160.964 163.868 162.34 163.868H185.313C186.416 163.868 187.347 163.051 187.491 161.958C187.635 160.865 186.947 159.834 185.882 159.549L165.876 154.188C164.548 153.832 163.757 152.462 164.112 151.134C164.468 149.805 165.84 149.015 167.167 149.37L171.058 150.412C172.23 150.727 173.435 150.031 173.749 148.859C174.063 147.687 173.367 146.482 172.195 146.168L168.305 145.125C166.526 144.649 164.671 144.893 163.077 145.813C161.484 146.733 160.344 148.219 159.868 149.996C158.885 153.665 161.07 157.449 164.739 158.432L168.624 159.474H162.34C158.542 159.474 155.451 162.564 155.451 166.362C155.451 170.16 158.542 173.251 162.34 173.251H168.652L164.739 174.299C162.446 174.914 160.726 176.609 159.998 178.734C154.777 177.592 149.879 175.692 145.411 173.163L146.305 170.928C149.26 163.539 148.914 155.219 145.355 148.101C143.031 143.453 142.312 138.086 143.331 132.99L145.8 120.648H150.729C152.007 120.648 153.171 119.999 153.844 118.911C154.516 117.824 154.576 116.492 154.004 115.348L152.549 112.437C152.207 111.754 151.793 111.125 151.318 110.557C164.055 107.041 173.497 94.5734 173.497 79.7741C173.497 78.2143 173.392 76.6807 173.189 75.1804C184.906 75.604 196.189 79.9554 205.147 87.5421C205.56 87.8916 206.064 88.0624 206.566 88.0624C207.19 88.0624 207.81 87.7985 208.244 87.2852C209.029 86.3594 208.914 84.9728 207.987 84.1885C198.007 75.7364 185.365 70.9883 172.288 70.7604C168.672 57.6158 157.358 48 143.998 48C137.253 48 130.659 50.5145 125.431 55.0801C124.517 55.8788 124.423 57.2666 125.221 58.1806C126.02 59.095 127.408 59.1881 128.322 58.3904C132.813 54.4678 138.234 52.3945 143.998 52.3945C157.84 52.3945 169.102 64.6766 169.102 79.7732C169.102 94.8698 157.841 107.152 143.998 107.152C130.156 107.152 118.895 94.8698 118.895 79.7732C118.895 74.9015 120.083 70.1182 122.33 65.9408C122.906 64.8723 122.505 63.5399 121.437 62.9648C120.367 62.3897 119.036 62.7899 118.461 63.8586C115.87 68.6738 114.5 74.1772 114.5 79.7732C114.5 87.5749 117.124 94.7289 121.472 100.265C116.907 108.589 114.5 117.995 114.5 127.55C114.5 140.999 119.287 154.045 127.978 164.285C131.503 168.438 135.584 172.036 140.07 174.992C138.443 180.459 138.525 186.328 140.339 191.774L141.914 196.497C142.221 197.418 143.078 198 143.998 198C144.228 198 144.463 197.964 144.693 197.887C145.845 197.503 146.467 196.259 146.083 195.108L144.508 190.384C143.101 186.162 142.931 181.636 143.982 177.351C148.98 180.098 154.386 182.091 160.02 183.228C161.196 186.597 164.803 188.544 168.305 187.606L170.258 187.083C169.777 187.751 169.417 188.508 169.197 189.328C168.721 191.105 168.965 192.961 169.886 194.555C171.16 196.762 173.48 197.997 175.863 197.997C177.03 197.997 178.213 197.7 179.295 197.076L187.402 192.395C187.833 192.146 188.324 192.015 188.821 192.015H203.343C208.454 192.015 213.367 190.143 217.179 186.745C217.613 186.358 218.195 186.155 218.778 186.192L260.61 188.798C261.611 188.862 262.611 188.501 263.345 187.812C264.078 187.123 264.499 186.15 264.499 185.143V159.913C264.5 157.893 262.857 156.25 260.838 156.25ZM148.618 114.402L149.543 116.252H138.454L139.379 114.402C140.259 112.64 142.03 111.546 143.999 111.546C145.968 111.546 147.737 112.641 148.618 114.402ZM118.895 127.55C118.895 119.239 120.867 111.052 124.62 103.71C128.039 106.925 132.151 109.306 136.679 110.556C136.204 111.124 135.79 111.753 135.448 112.436L133.993 115.347C133.421 116.491 133.481 117.823 134.153 118.91C134.826 119.998 135.99 120.647 137.268 120.647H141.318L139.022 132.127C137.812 138.177 138.665 144.548 141.425 150.066C144.422 156.062 144.714 163.071 142.224 169.295L141.623 170.798C127.752 161.29 118.895 145.348 118.895 127.55Z" fill="white"/>
</g>
<path d="M137.689 245V224.636H140.154V242.812H149.62V245H137.689ZM159.524 245.318C158.052 245.318 156.783 244.993 155.716 244.344C154.655 243.688 153.836 242.773 153.26 241.599C152.69 240.42 152.404 239.047 152.404 237.483C152.404 235.919 152.69 234.54 153.26 233.347C153.836 232.147 154.638 231.212 155.666 230.543C156.7 229.866 157.906 229.528 159.285 229.528C160.081 229.528 160.866 229.661 161.642 229.926C162.417 230.191 163.123 230.622 163.76 231.219C164.396 231.809 164.903 232.591 165.281 233.565C165.659 234.54 165.848 235.74 165.848 237.165V238.159H154.075V236.131H163.461C163.461 235.269 163.289 234.5 162.944 233.824C162.606 233.148 162.122 232.614 161.493 232.223C160.869 231.832 160.134 231.636 159.285 231.636C158.35 231.636 157.542 231.868 156.859 232.332C156.183 232.79 155.663 233.386 155.298 234.122C154.933 234.858 154.751 235.647 154.751 236.489V237.841C154.751 238.994 154.95 239.972 155.348 240.774C155.752 241.57 156.312 242.176 157.028 242.594C157.744 243.005 158.576 243.21 159.524 243.21C160.14 243.21 160.697 243.124 161.194 242.952C161.698 242.773 162.132 242.508 162.497 242.156C162.861 241.798 163.143 241.354 163.342 240.824L165.609 241.46C165.37 242.229 164.969 242.905 164.406 243.489C163.842 244.065 163.146 244.516 162.318 244.841C161.489 245.159 160.558 245.318 159.524 245.318ZM176.059 229.727V231.716H168.145V229.727H176.059ZM170.451 226.068H172.798V240.625C172.798 241.288 172.894 241.785 173.086 242.116C173.285 242.441 173.537 242.66 173.842 242.773C174.154 242.879 174.482 242.932 174.826 242.932C175.085 242.932 175.297 242.919 175.463 242.892C175.628 242.859 175.761 242.832 175.86 242.812L176.338 244.92C176.179 244.98 175.957 245.04 175.672 245.099C175.386 245.166 175.025 245.199 174.588 245.199C173.925 245.199 173.275 245.056 172.639 244.771C172.009 244.486 171.485 244.052 171.068 243.469C170.657 242.885 170.451 242.15 170.451 241.261V226.068ZM187.464 245V229.727H189.811V245H187.464ZM188.657 227.182C188.2 227.182 187.806 227.026 187.474 226.714C187.149 226.403 186.987 226.028 186.987 225.591C186.987 225.153 187.149 224.779 187.474 224.467C187.806 224.156 188.2 224 188.657 224C189.115 224 189.506 224.156 189.831 224.467C190.162 224.779 190.328 225.153 190.328 225.591C190.328 226.028 190.162 226.403 189.831 226.714C189.506 227.026 189.115 227.182 188.657 227.182ZM200.751 229.727V231.716H192.836V229.727H200.751ZM195.143 226.068H197.489V240.625C197.489 241.288 197.585 241.785 197.778 242.116C197.977 242.441 198.228 242.66 198.533 242.773C198.845 242.879 199.173 242.932 199.518 242.932C199.776 242.932 199.988 242.919 200.154 242.892C200.32 242.859 200.452 242.832 200.552 242.812L201.029 244.92C200.87 244.98 200.648 245.04 200.363 245.099C200.078 245.166 199.717 245.199 199.279 245.199C198.616 245.199 197.967 245.056 197.33 244.771C196.701 244.486 196.177 244.052 195.759 243.469C195.348 242.885 195.143 242.15 195.143 241.261V226.068ZM218.32 251.045C217.187 251.045 216.212 250.9 215.397 250.608C214.582 250.323 213.902 249.945 213.359 249.474C212.822 249.01 212.394 248.513 212.076 247.983L213.945 246.67C214.157 246.949 214.426 247.267 214.751 247.625C215.076 247.99 215.52 248.304 216.083 248.57C216.653 248.841 217.399 248.977 218.32 248.977C219.553 248.977 220.571 248.679 221.373 248.082C222.175 247.486 222.576 246.551 222.576 245.278V242.176H222.377C222.205 242.455 221.96 242.799 221.641 243.21C221.33 243.615 220.879 243.976 220.289 244.294C219.706 244.606 218.917 244.761 217.923 244.761C216.69 244.761 215.583 244.47 214.602 243.886C213.627 243.303 212.855 242.455 212.285 241.341C211.721 240.227 211.44 238.875 211.44 237.284C211.44 235.72 211.715 234.357 212.265 233.197C212.815 232.031 213.581 231.129 214.562 230.493C215.543 229.85 216.676 229.528 217.962 229.528C218.957 229.528 219.746 229.694 220.329 230.026C220.919 230.35 221.37 230.722 221.681 231.139C221.999 231.55 222.245 231.888 222.417 232.153H222.656V229.727H224.923V245.438C224.923 246.75 224.624 247.817 224.028 248.639C223.438 249.468 222.642 250.074 221.641 250.459C220.647 250.85 219.54 251.045 218.32 251.045ZM218.241 242.653C219.182 242.653 219.978 242.438 220.627 242.007C221.277 241.576 221.771 240.956 222.109 240.148C222.447 239.339 222.616 238.371 222.616 237.244C222.616 236.144 222.45 235.173 222.119 234.331C221.787 233.489 221.297 232.83 220.647 232.352C219.997 231.875 219.195 231.636 218.241 231.636C217.246 231.636 216.418 231.888 215.755 232.392C215.099 232.896 214.605 233.572 214.273 234.42C213.949 235.269 213.786 236.21 213.786 237.244C213.786 238.305 213.952 239.243 214.283 240.058C214.621 240.867 215.119 241.503 215.775 241.967C216.438 242.425 217.26 242.653 218.241 242.653ZM235.423 245.318C234.044 245.318 232.834 244.99 231.793 244.334C230.759 243.678 229.951 242.759 229.367 241.58C228.79 240.4 228.502 239.021 228.502 237.443C228.502 235.852 228.79 234.464 229.367 233.277C229.951 232.09 230.759 231.169 231.793 230.513C232.834 229.857 234.044 229.528 235.423 229.528C236.801 229.528 238.008 229.857 239.042 230.513C240.083 231.169 240.891 232.09 241.468 233.277C242.051 234.464 242.343 235.852 242.343 237.443C242.343 239.021 242.051 240.4 241.468 241.58C240.891 242.759 240.083 243.678 239.042 244.334C238.008 244.99 236.801 245.318 235.423 245.318ZM235.423 243.21C236.47 243.21 237.332 242.942 238.008 242.405C238.684 241.868 239.184 241.162 239.509 240.287C239.834 239.412 239.996 238.464 239.996 237.443C239.996 236.422 239.834 235.471 239.509 234.589C239.184 233.708 238.684 232.995 238.008 232.452C237.332 231.908 236.47 231.636 235.423 231.636C234.375 231.636 233.513 231.908 232.837 232.452C232.161 232.995 231.661 233.708 231.336 234.589C231.011 235.471 230.849 236.422 230.849 237.443C230.849 238.464 231.011 239.412 231.336 240.287C231.661 241.162 232.161 241.868 232.837 242.405C233.513 242.942 234.375 243.21 235.423 243.21Z" fill="white"/>
<defs>
<clipPath id="clip0_91_715">
<rect width="150" height="150" fill="white" transform="translate(114.5 48)"/>
</clipPath>
</defs>
</svg>
