<svg width="379" height="300" viewBox="0 0 379 300" fill="none" xmlns="http://www.w3.org/2000/svg">
<rect x="1" y="1" width="377" height="298" rx="11" stroke="white" stroke-width="2"/>
<g clip-path="url(#clip0_91_728)">
<path d="M250.479 104.196C242.434 78.1603 218.141 59.1899 189.499 59.1899C160.856 59.1899 136.562 78.1603 128.518 104.196C120.301 106.641 114.5 114.292 114.5 123C114.5 131.706 120.301 139.358 128.517 141.803C136.562 167.839 160.856 186.81 189.499 186.81C218.141 186.81 242.435 167.839 250.48 141.804C258.698 139.361 264.5 131.71 264.5 123C264.5 114.289 258.698 106.638 250.479 104.196ZM126.819 134.969C122.751 132.476 120.097 127.979 120.097 122.999C120.097 118.019 122.751 113.523 126.819 111.03C126.08 114.909 125.688 118.909 125.688 123C125.688 127.09 126.08 131.091 126.819 134.969ZM189.499 181.213C157.4 181.213 131.286 155.099 131.286 123C131.286 100.801 143.777 81.4682 162.098 71.652C164.881 77.5743 173.636 92.3927 194.389 100.694C194.729 100.83 195.081 100.895 195.427 100.895C196.537 100.895 197.589 100.229 198.026 99.1348C198.6 97.6998 197.902 96.0712 196.467 95.497C177.611 87.9545 169.583 74.2872 167.169 69.2423C173.526 66.5918 180.449 65.0382 187.702 64.8173C189.642 68.751 195.211 77.9859 206.717 83.2163C207.093 83.3871 207.486 83.4677 207.873 83.4677C208.937 83.4677 209.954 82.858 210.423 81.8265C211.062 80.4193 210.44 78.7605 209.033 78.121C201.281 74.5972 196.628 68.8345 194.217 64.9796C224.117 67.3901 247.711 92.4905 247.711 123C247.711 155.099 221.598 181.213 189.499 181.213ZM252.177 134.971C252.917 131.092 253.308 127.091 253.308 123C253.308 118.909 252.916 114.907 252.177 111.028C256.247 113.519 258.902 118.016 258.902 123C258.903 127.983 256.248 132.48 252.177 134.971Z" fill="white"/>
<path d="M165.536 119.57C158.845 119.57 153.402 125.014 153.402 131.705C153.402 133.25 154.654 134.503 156.2 134.503C157.746 134.503 158.998 133.25 158.998 131.705C158.998 128.1 161.931 125.167 165.536 125.167C169.14 125.167 172.073 128.1 172.073 131.705C172.073 133.25 173.326 134.503 174.872 134.503C176.417 134.503 177.67 133.25 177.67 131.705C177.671 125.014 172.227 119.57 165.536 119.57Z" fill="white"/>
<path d="M213.461 119.57C206.77 119.57 201.326 125.014 201.326 131.705C201.326 133.25 202.579 134.503 204.125 134.503C205.671 134.503 206.923 133.25 206.923 131.705C206.923 128.1 209.856 125.167 213.461 125.167C217.066 125.167 219.998 128.1 219.998 131.705C219.998 133.25 221.251 134.503 222.797 134.503C224.343 134.503 225.595 133.25 225.595 131.705C225.595 125.014 220.152 119.57 213.461 119.57Z" fill="white"/>
<path d="M206.627 150.54C205.534 149.447 203.762 149.447 202.669 150.54C195.556 157.653 183.982 157.653 176.869 150.54C175.776 149.447 174.004 149.447 172.912 150.54C171.818 151.633 171.818 153.405 172.912 154.497C177.417 159.003 183.405 161.485 189.77 161.485C196.135 161.485 202.121 159.003 206.628 154.497C207.72 153.404 207.72 151.633 206.627 150.54Z" fill="white"/>
<path d="M193.233 135.752H185.764C184.218 135.752 182.966 137.005 182.966 138.551C182.966 140.096 184.219 141.349 185.764 141.349H193.233C194.779 141.349 196.031 140.096 196.031 138.551C196.031 137.005 194.779 135.752 193.233 135.752Z" fill="white"/>
</g>
<path d="M117.358 245V224.636H119.824V242.812H129.29V245H117.358ZM142.415 238.756V229.727H144.762V245H142.415V242.415H142.256C141.898 243.19 141.341 243.85 140.586 244.393C139.83 244.93 138.876 245.199 137.722 245.199C136.768 245.199 135.919 244.99 135.177 244.572C134.434 244.148 133.851 243.512 133.427 242.663C133.002 241.808 132.79 240.731 132.79 239.432V229.727H135.137V239.273C135.137 240.386 135.448 241.275 136.072 241.938C136.701 242.6 137.503 242.932 138.478 242.932C139.061 242.932 139.654 242.783 140.258 242.484C140.867 242.186 141.378 241.729 141.789 241.112C142.206 240.496 142.415 239.71 142.415 238.756ZM151.406 224.636V245H149.06V224.636H151.406ZM158.051 224.636V245H155.704V224.636H158.051ZM166.843 245.358C165.875 245.358 164.997 245.176 164.208 244.811C163.419 244.44 162.793 243.906 162.329 243.21C161.865 242.508 161.633 241.659 161.633 240.665C161.633 239.79 161.805 239.08 162.15 238.537C162.495 237.987 162.955 237.556 163.532 237.244C164.109 236.933 164.745 236.701 165.441 236.548C166.144 236.389 166.85 236.263 167.559 236.17C168.487 236.051 169.24 235.962 169.816 235.902C170.4 235.836 170.824 235.726 171.089 235.574C171.361 235.421 171.497 235.156 171.497 234.778V234.699C171.497 233.718 171.228 232.955 170.691 232.412C170.161 231.868 169.356 231.597 168.275 231.597C167.155 231.597 166.276 231.842 165.64 232.332C165.004 232.823 164.556 233.347 164.298 233.903L162.07 233.108C162.468 232.18 162.999 231.457 163.661 230.94C164.331 230.417 165.06 230.052 165.849 229.847C166.644 229.634 167.427 229.528 168.195 229.528C168.686 229.528 169.249 229.588 169.886 229.707C170.529 229.82 171.149 230.055 171.745 230.413C172.348 230.771 172.849 231.312 173.247 232.034C173.644 232.757 173.843 233.724 173.843 234.938V245H171.497V242.932H171.377C171.218 243.263 170.953 243.618 170.582 243.996C170.211 244.374 169.717 244.695 169.1 244.96C168.484 245.225 167.731 245.358 166.843 245.358ZM167.201 243.25C168.129 243.25 168.911 243.068 169.548 242.703C170.191 242.339 170.675 241.868 170.999 241.291C171.331 240.714 171.497 240.108 171.497 239.472V237.324C171.397 237.443 171.178 237.553 170.84 237.652C170.509 237.745 170.124 237.828 169.687 237.901C169.256 237.967 168.835 238.027 168.424 238.08C168.02 238.126 167.692 238.166 167.44 238.199C166.83 238.278 166.26 238.408 165.73 238.587C165.206 238.759 164.782 239.021 164.457 239.372C164.139 239.717 163.98 240.187 163.98 240.784C163.98 241.599 164.281 242.216 164.884 242.634C165.494 243.045 166.267 243.25 167.201 243.25ZM178.444 245V224.636H180.791V232.153H180.99C181.162 231.888 181.401 231.55 181.706 231.139C182.017 230.722 182.461 230.35 183.038 230.026C183.622 229.694 184.41 229.528 185.405 229.528C186.691 229.528 187.824 229.85 188.805 230.493C189.786 231.136 190.552 232.047 191.102 233.227C191.652 234.407 191.927 235.799 191.927 237.403C191.927 239.021 191.652 240.423 191.102 241.609C190.552 242.789 189.79 243.704 188.815 244.354C187.841 244.997 186.717 245.318 185.444 245.318C184.463 245.318 183.678 245.156 183.088 244.831C182.498 244.5 182.044 244.125 181.726 243.707C181.407 243.283 181.162 242.932 180.99 242.653H180.711V245H178.444ZM180.751 237.364C180.751 238.517 180.92 239.535 181.258 240.416C181.596 241.291 182.09 241.977 182.74 242.474C183.39 242.965 184.185 243.21 185.126 243.21C186.107 243.21 186.926 242.952 187.582 242.435C188.245 241.911 188.742 241.208 189.074 240.327C189.412 239.438 189.581 238.451 189.581 237.364C189.581 236.29 189.415 235.322 189.084 234.46C188.759 233.592 188.265 232.906 187.602 232.402C186.946 231.892 186.121 231.636 185.126 231.636C184.172 231.636 183.37 231.878 182.72 232.362C182.07 232.839 181.58 233.509 181.248 234.371C180.917 235.226 180.751 236.223 180.751 237.364ZM200.011 245.358C199.043 245.358 198.165 245.176 197.376 244.811C196.587 244.44 195.961 243.906 195.497 243.21C195.033 242.508 194.801 241.659 194.801 240.665C194.801 239.79 194.973 239.08 195.318 238.537C195.663 237.987 196.123 237.556 196.7 237.244C197.277 236.933 197.913 236.701 198.609 236.548C199.312 236.389 200.018 236.263 200.727 236.17C201.655 236.051 202.407 235.962 202.984 235.902C203.568 235.836 203.992 235.726 204.257 235.574C204.529 235.421 204.665 235.156 204.665 234.778V234.699C204.665 233.718 204.396 232.955 203.859 232.412C203.329 231.868 202.523 231.597 201.443 231.597C200.323 231.597 199.444 231.842 198.808 232.332C198.172 232.823 197.724 233.347 197.466 233.903L195.238 233.108C195.636 232.18 196.166 231.457 196.829 230.94C197.499 230.417 198.228 230.052 199.017 229.847C199.812 229.634 200.595 229.528 201.363 229.528C201.854 229.528 202.417 229.588 203.054 229.707C203.697 229.82 204.317 230.055 204.913 230.413C205.516 230.771 206.017 231.312 206.415 232.034C206.812 232.757 207.011 233.724 207.011 234.938V245H204.665V242.932H204.545C204.386 243.263 204.121 243.618 203.75 243.996C203.379 244.374 202.885 244.695 202.268 244.96C201.652 245.225 200.899 245.358 200.011 245.358ZM200.369 243.25C201.297 243.25 202.079 243.068 202.716 242.703C203.359 242.339 203.843 241.868 204.167 241.291C204.499 240.714 204.665 240.108 204.665 239.472V237.324C204.565 237.443 204.346 237.553 204.008 237.652C203.677 237.745 203.292 237.828 202.855 237.901C202.424 237.967 202.003 238.027 201.592 238.08C201.188 238.126 200.86 238.166 200.608 238.199C199.998 238.278 199.428 238.408 198.898 238.587C198.374 238.759 197.95 239.021 197.625 239.372C197.307 239.717 197.148 240.187 197.148 240.784C197.148 241.599 197.449 242.216 198.052 242.634C198.662 243.045 199.434 243.25 200.369 243.25ZM211.612 245V224.636H213.959V232.153H214.158C214.33 231.888 214.569 231.55 214.874 231.139C215.185 230.722 215.629 230.35 216.206 230.026C216.789 229.694 217.578 229.528 218.573 229.528C219.859 229.528 220.992 229.85 221.973 230.493C222.954 231.136 223.72 232.047 224.27 233.227C224.82 234.407 225.095 235.799 225.095 237.403C225.095 239.021 224.82 240.423 224.27 241.609C223.72 242.789 222.958 243.704 221.983 244.354C221.009 244.997 219.885 245.318 218.612 245.318C217.631 245.318 216.846 245.156 216.256 244.831C215.666 244.5 215.212 244.125 214.894 243.707C214.575 243.283 214.33 242.932 214.158 242.653H213.879V245H211.612ZM213.919 237.364C213.919 238.517 214.088 239.535 214.426 240.416C214.764 241.291 215.258 241.977 215.908 242.474C216.557 242.965 217.353 243.21 218.294 243.21C219.275 243.21 220.094 242.952 220.75 242.435C221.413 241.911 221.91 241.208 222.242 240.327C222.58 239.438 222.749 238.451 222.749 237.364C222.749 236.29 222.583 235.322 222.252 234.46C221.927 233.592 221.433 232.906 220.77 232.402C220.114 231.892 219.289 231.636 218.294 231.636C217.34 231.636 216.538 231.878 215.888 232.362C215.238 232.839 214.748 233.509 214.416 234.371C214.085 235.226 213.919 236.223 213.919 237.364ZM228.685 245V229.727H231.031V245H228.685ZM229.878 227.182C229.421 227.182 229.026 227.026 228.695 226.714C228.37 226.403 228.208 226.028 228.208 225.591C228.208 225.153 228.37 224.779 228.695 224.467C229.026 224.156 229.421 224 229.878 224C230.335 224 230.727 224.156 231.051 224.467C231.383 224.779 231.548 225.153 231.548 225.591C231.548 226.028 231.383 226.403 231.051 226.714C230.727 227.026 230.335 227.182 229.878 227.182ZM241.733 245.318C240.261 245.318 238.992 244.993 237.925 244.344C236.864 243.688 236.045 242.773 235.469 241.599C234.898 240.42 234.613 239.047 234.613 237.483C234.613 235.919 234.898 234.54 235.469 233.347C236.045 232.147 236.847 231.212 237.875 230.543C238.909 229.866 240.115 229.528 241.494 229.528C242.29 229.528 243.075 229.661 243.851 229.926C244.626 230.191 245.332 230.622 245.969 231.219C246.605 231.809 247.112 232.591 247.49 233.565C247.868 234.54 248.057 235.74 248.057 237.165V238.159H236.284V236.131H245.67C245.67 235.269 245.498 234.5 245.153 233.824C244.815 233.148 244.331 232.614 243.702 232.223C243.078 231.832 242.343 231.636 241.494 231.636C240.559 231.636 239.751 231.868 239.068 232.332C238.392 232.79 237.872 233.386 237.507 234.122C237.142 234.858 236.96 235.647 236.96 236.489V237.841C236.96 238.994 237.159 239.972 237.557 240.774C237.961 241.57 238.521 242.176 239.237 242.594C239.953 243.005 240.785 243.21 241.733 243.21C242.349 243.21 242.906 243.124 243.403 242.952C243.907 242.773 244.341 242.508 244.706 242.156C245.07 241.798 245.352 241.354 245.551 240.824L247.818 241.46C247.579 242.229 247.178 242.905 246.615 243.489C246.051 244.065 245.355 244.516 244.527 244.841C243.698 245.159 242.767 245.318 241.733 245.318ZM262.444 233.148L260.336 233.744C260.204 233.393 260.008 233.052 259.75 232.72C259.498 232.382 259.153 232.104 258.716 231.885C258.278 231.666 257.718 231.557 257.035 231.557C256.101 231.557 255.322 231.772 254.699 232.203C254.082 232.627 253.774 233.168 253.774 233.824C253.774 234.407 253.986 234.868 254.41 235.206C254.835 235.544 255.497 235.826 256.399 236.051L258.666 236.608C260.032 236.939 261.049 237.446 261.719 238.129C262.388 238.805 262.723 239.677 262.723 240.744C262.723 241.619 262.471 242.402 261.967 243.091C261.47 243.78 260.774 244.324 259.879 244.722C258.984 245.119 257.943 245.318 256.757 245.318C255.199 245.318 253.91 244.98 252.889 244.304C251.868 243.628 251.222 242.64 250.95 241.341L253.177 240.784C253.39 241.606 253.791 242.223 254.381 242.634C254.977 243.045 255.756 243.25 256.717 243.25C257.811 243.25 258.679 243.018 259.322 242.554C259.972 242.083 260.297 241.52 260.297 240.864C260.297 240.333 260.111 239.889 259.74 239.531C259.369 239.167 258.799 238.895 258.03 238.716L255.484 238.119C254.086 237.788 253.058 237.274 252.402 236.578C251.752 235.875 251.427 234.997 251.427 233.943C251.427 233.081 251.669 232.319 252.153 231.656C252.644 230.993 253.31 230.473 254.152 230.095C255 229.717 255.961 229.528 257.035 229.528C258.547 229.528 259.733 229.86 260.595 230.523C261.463 231.186 262.08 232.061 262.444 233.148Z" fill="white"/>
<defs>
<clipPath id="clip0_91_728">
<rect width="150" height="150" fill="white" transform="translate(114.5 48)"/>
</clipPath>
</defs>
</svg>
