<svg width="379" height="300" viewBox="0 0 379 300" fill="none" xmlns="http://www.w3.org/2000/svg">
<rect x="1" y="1" width="377" height="298" rx="11" stroke="white" stroke-width="2"/>
<g clip-path="url(#clip0_91_813)">
<path d="M154.624 176.36C153.552 175.785 152.218 176.188 151.644 177.259L148.712 182.723C148.137 183.794 148.539 185.128 149.611 185.703C150.661 186.273 152.014 185.886 152.591 184.804L155.523 179.34C156.098 178.269 155.695 176.934 154.624 176.36Z" fill="white"/>
<path d="M161.66 163.039C160.589 162.464 159.255 162.867 158.68 163.937L155.748 169.402C155.173 170.473 155.576 171.807 156.647 172.382C157.697 172.952 159.05 172.565 159.627 171.483L162.559 166.019C163.134 164.948 162.732 163.614 161.66 163.039Z" fill="white"/>
<path d="M181.482 176.36C180.411 175.785 179.076 176.188 178.502 177.258L175.57 182.722C174.995 183.794 175.398 185.128 176.469 185.703C177.519 186.273 178.872 185.886 179.449 184.804L182.381 179.34C182.956 178.269 182.554 176.935 181.482 176.36Z" fill="white"/>
<path d="M188.519 163.039C187.448 162.464 186.113 162.867 185.539 163.937L182.607 169.402C182.032 170.473 182.434 171.807 183.506 172.382C184.556 172.952 185.909 172.565 186.486 171.483L189.418 166.019C189.993 164.948 189.59 163.614 188.519 163.039Z" fill="white"/>
<path d="M208.341 176.36C207.27 175.785 205.935 176.188 205.361 177.258L202.429 182.722C201.854 183.794 202.256 185.128 203.327 185.703C204.378 186.273 205.73 185.886 206.308 184.804L209.24 179.34C209.815 178.269 209.413 176.935 208.341 176.36Z" fill="white"/>
<path d="M215.378 163.039C214.307 162.464 212.972 162.867 212.397 163.937L209.465 169.402C208.89 170.473 209.293 171.807 210.364 172.382C211.414 172.952 212.767 172.565 213.345 171.483L216.276 166.019C216.851 164.948 216.449 163.614 215.378 163.039Z" fill="white"/>
<path d="M238.542 105.495C238.504 105.495 238.467 105.497 238.43 105.497C236.906 91.4527 223.981 80.895 209.773 82.3884C208.763 79.7339 207.427 77.197 205.768 74.831C205.071 73.8357 203.698 73.5941 202.702 74.2918C201.707 74.9895 201.465 76.3623 202.163 77.3579C206.336 83.2787 208.215 90.5919 207.473 97.8164C207.35 99.026 208.232 100.106 209.441 100.229C210.63 100.355 211.735 99.4736 211.853 98.2602C212.246 94.4108 211.987 90.4295 211.1 86.6993C222.62 85.9863 232.724 94.5669 234.042 105.885C230.21 106.548 226.581 108.057 223.37 110.351C222.382 111.058 222.153 112.433 222.86 113.422C223.567 114.412 224.942 114.64 225.931 113.933C240.041 103.659 260.418 114.17 260.268 131.642C260.268 143.631 250.521 153.385 238.542 153.385H160.62C157.705 153.486 157.707 157.687 160.62 157.787H238.542C273.166 156.469 273.14 106.801 238.542 105.495Z" fill="white"/>
<path d="M152.042 155.586C152.042 154.37 151.057 153.385 149.841 153.385H137.021C126.971 153.385 118.794 145.201 118.794 135.142C118.995 115.433 145.781 109.903 153.758 127.903C154.24 129.019 155.536 129.533 156.652 129.05C157.768 128.567 158.281 127.271 157.798 126.156C153.898 117.007 144.165 111.413 134.304 112.667C133.472 106.4 137.143 100.241 142.888 97.9251C143.098 100.217 143.528 102.478 144.186 104.676C144.531 105.851 145.793 106.502 146.926 106.154C148.091 105.806 148.753 104.579 148.404 103.414C140.14 75.6101 172.306 53.116 195.519 70.4923C196.491 71.2223 197.871 71.0259 198.601 70.0541C199.331 69.082 199.135 67.7019 198.163 66.9719C176.257 50.1676 143.614 65.8184 142.767 93.2937C134.199 95.8772 128.6 104.707 129.993 113.622C105.875 121.932 111.214 157.272 137.021 157.787H149.841C151.057 157.787 152.042 156.802 152.042 155.586Z" fill="white"/>
<path d="M181.432 109.7C176.161 112.704 172.375 117.582 170.771 123.436C170.449 124.609 171.139 125.82 172.312 126.141C173.453 126.464 174.7 125.782 175.017 124.6C176.31 119.88 179.363 115.947 183.612 113.525C187.861 111.103 192.798 110.482 197.514 111.776C200.992 112.731 204.079 114.665 206.442 117.369C207.242 118.285 208.632 118.378 209.548 117.577C210.463 116.777 210.557 115.387 209.757 114.472C206.824 111.115 202.993 108.715 198.679 107.531C192.829 105.925 186.703 106.695 181.432 109.7Z" fill="white"/>
</g>
<path d="M95.087 224.636H98.0302L104.951 241.54H105.189L112.11 224.636H115.053V245H112.746V229.528H112.547L106.184 245H103.956L97.5927 229.528H97.3938V245H95.087V224.636ZM126.082 245.318C124.611 245.318 123.341 244.993 122.274 244.344C121.214 243.688 120.395 242.773 119.818 241.599C119.248 240.42 118.963 239.047 118.963 237.483C118.963 235.919 119.248 234.54 119.818 233.347C120.395 232.147 121.197 231.212 122.224 230.543C123.259 229.866 124.465 229.528 125.844 229.528C126.639 229.528 127.425 229.661 128.2 229.926C128.976 230.191 129.682 230.622 130.318 231.219C130.955 231.809 131.462 232.591 131.839 233.565C132.217 234.54 132.406 235.74 132.406 237.165V238.159H120.634V236.131H130.02C130.02 235.269 129.848 234.5 129.503 233.824C129.165 233.148 128.681 232.614 128.051 232.223C127.428 231.832 126.692 231.636 125.844 231.636C124.909 231.636 124.1 231.868 123.418 232.332C122.741 232.79 122.221 233.386 121.857 234.122C121.492 234.858 121.31 235.647 121.31 236.489V237.841C121.31 238.994 121.509 239.972 121.906 240.774C122.311 241.57 122.871 242.176 123.587 242.594C124.303 243.005 125.134 243.21 126.082 243.21C126.699 243.21 127.256 243.124 127.753 242.952C128.257 242.773 128.691 242.508 129.055 242.156C129.42 241.798 129.702 241.354 129.901 240.824L132.168 241.46C131.929 242.229 131.528 242.905 130.964 243.489C130.401 244.065 129.705 244.516 128.876 244.841C128.048 245.159 127.116 245.318 126.082 245.318ZM141.743 245.318C140.47 245.318 139.347 244.997 138.372 244.354C137.398 243.704 136.635 242.789 136.085 241.609C135.535 240.423 135.26 239.021 135.26 237.403C135.26 235.799 135.535 234.407 136.085 233.227C136.635 232.047 137.401 231.136 138.382 230.493C139.363 229.85 140.497 229.528 141.783 229.528C142.777 229.528 143.563 229.694 144.139 230.026C144.723 230.35 145.167 230.722 145.472 231.139C145.783 231.55 146.025 231.888 146.197 232.153H146.396V224.636H148.743V245H146.476V242.653H146.197C146.025 242.932 145.78 243.283 145.462 243.707C145.143 244.125 144.689 244.5 144.099 244.831C143.509 245.156 142.724 245.318 141.743 245.318ZM142.061 243.21C143.002 243.21 143.798 242.965 144.447 242.474C145.097 241.977 145.591 241.291 145.929 240.416C146.267 239.535 146.436 238.517 146.436 237.364C146.436 236.223 146.27 235.226 145.939 234.371C145.607 233.509 145.117 232.839 144.467 232.362C143.818 231.878 143.016 231.636 142.061 231.636C141.067 231.636 140.238 231.892 139.575 232.402C138.919 232.906 138.425 233.592 138.094 234.46C137.769 235.322 137.607 236.29 137.607 237.364C137.607 238.451 137.772 239.438 138.104 240.327C138.442 241.208 138.939 241.911 139.595 242.435C140.258 242.952 141.08 243.21 142.061 243.21ZM153.366 245V229.727H155.713V245H153.366ZM154.56 227.182C154.102 227.182 153.708 227.026 153.376 226.714C153.052 226.403 152.889 226.028 152.889 225.591C152.889 225.153 153.052 224.779 153.376 224.467C153.708 224.156 154.102 224 154.56 224C155.017 224 155.408 224.156 155.733 224.467C156.064 224.779 156.23 225.153 156.23 225.591C156.23 226.028 156.064 226.403 155.733 226.714C155.408 227.026 155.017 227.182 154.56 227.182ZM164.505 245.358C163.538 245.358 162.659 245.176 161.87 244.811C161.082 244.44 160.455 243.906 159.991 243.21C159.527 242.508 159.295 241.659 159.295 240.665C159.295 239.79 159.467 239.08 159.812 238.537C160.157 237.987 160.618 237.556 161.194 237.244C161.771 236.933 162.407 236.701 163.103 236.548C163.806 236.389 164.512 236.263 165.221 236.17C166.149 236.051 166.902 235.962 167.478 235.902C168.062 235.836 168.486 235.726 168.751 235.574C169.023 235.421 169.159 235.156 169.159 234.778V234.699C169.159 233.718 168.89 232.955 168.353 232.412C167.823 231.868 167.018 231.597 165.937 231.597C164.817 231.597 163.939 231.842 163.302 232.332C162.666 232.823 162.218 233.347 161.96 233.903L159.733 233.108C160.13 232.18 160.661 231.457 161.324 230.94C161.993 230.417 162.722 230.052 163.511 229.847C164.306 229.634 165.089 229.528 165.858 229.528C166.348 229.528 166.912 229.588 167.548 229.707C168.191 229.82 168.811 230.055 169.407 230.413C170.011 230.771 170.511 231.312 170.909 232.034C171.306 232.757 171.505 233.724 171.505 234.938V245H169.159V242.932H169.039C168.88 243.263 168.615 243.618 168.244 243.996C167.873 244.374 167.379 244.695 166.762 244.96C166.146 245.225 165.394 245.358 164.505 245.358ZM164.863 243.25C165.791 243.25 166.574 243.068 167.21 242.703C167.853 242.339 168.337 241.868 168.662 241.291C168.993 240.714 169.159 240.108 169.159 239.472V237.324C169.059 237.443 168.841 237.553 168.502 237.652C168.171 237.745 167.787 237.828 167.349 237.901C166.918 237.967 166.497 238.027 166.086 238.08C165.682 238.126 165.354 238.166 165.102 238.199C164.492 238.278 163.922 238.408 163.392 238.587C162.868 238.759 162.444 239.021 162.119 239.372C161.801 239.717 161.642 240.187 161.642 240.784C161.642 241.599 161.943 242.216 162.547 242.634C163.156 243.045 163.929 243.25 164.863 243.25ZM182.43 229.727V231.716H174.516V229.727H182.43ZM176.822 226.068H179.169V240.625C179.169 241.288 179.265 241.785 179.457 242.116C179.656 242.441 179.908 242.66 180.213 242.773C180.525 242.879 180.853 242.932 181.197 242.932C181.456 242.932 181.668 242.919 181.834 242.892C182 242.859 182.132 242.832 182.232 242.812L182.709 244.92C182.55 244.98 182.328 245.04 182.043 245.099C181.758 245.166 181.396 245.199 180.959 245.199C180.296 245.199 179.646 245.056 179.01 244.771C178.38 244.486 177.857 244.052 177.439 243.469C177.028 242.885 176.822 242.15 176.822 241.261V226.068ZM185.96 245V229.727H188.307V245H185.96ZM187.153 227.182C186.696 227.182 186.302 227.026 185.97 226.714C185.645 226.403 185.483 226.028 185.483 225.591C185.483 225.153 185.645 224.779 185.97 224.467C186.302 224.156 186.696 224 187.153 224C187.611 224 188.002 224.156 188.327 224.467C188.658 224.779 188.824 225.153 188.824 225.591C188.824 226.028 188.658 226.403 188.327 226.714C188.002 227.026 187.611 227.182 187.153 227.182ZM205.093 229.727L199.446 245H197.059L191.412 229.727H193.957L198.173 241.898H198.332L202.548 229.727H205.093ZM214.047 245.318C212.576 245.318 211.306 244.993 210.239 244.344C209.178 243.688 208.36 242.773 207.783 241.599C207.213 240.42 206.928 239.047 206.928 237.483C206.928 235.919 207.213 234.54 207.783 233.347C208.36 232.147 209.162 231.212 210.189 230.543C211.223 229.866 212.43 229.528 213.809 229.528C214.604 229.528 215.39 229.661 216.165 229.926C216.941 230.191 217.647 230.622 218.283 231.219C218.919 231.809 219.426 232.591 219.804 233.565C220.182 234.54 220.371 235.74 220.371 237.165V238.159H208.598V236.131H217.985C217.985 235.269 217.812 234.5 217.468 233.824C217.13 233.148 216.646 232.614 216.016 232.223C215.393 231.832 214.657 231.636 213.809 231.636C212.874 231.636 212.065 231.868 211.382 232.332C210.706 232.79 210.186 233.386 209.821 234.122C209.457 234.858 209.275 235.647 209.275 236.489V237.841C209.275 238.994 209.473 239.972 209.871 240.774C210.275 241.57 210.836 242.176 211.551 242.594C212.267 243.005 213.099 243.21 214.047 243.21C214.664 243.21 215.221 243.124 215.718 242.952C216.221 242.773 216.656 242.508 217.02 242.156C217.385 241.798 217.667 241.354 217.865 240.824L220.132 241.46C219.894 242.229 219.493 242.905 218.929 243.489C218.366 244.065 217.67 244.516 216.841 244.841C216.013 245.159 215.081 245.318 214.047 245.318ZM232.134 245V224.636H239.015C240.605 224.636 241.911 224.908 242.932 225.452C243.953 225.989 244.709 226.728 245.199 227.669C245.69 228.61 245.935 229.681 245.935 230.881C245.935 232.08 245.69 233.144 245.199 234.072C244.709 235 243.956 235.73 242.942 236.26C241.928 236.784 240.632 237.045 239.054 237.045H233.486V234.818H238.975C240.062 234.818 240.937 234.659 241.6 234.341C242.269 234.023 242.753 233.572 243.051 232.989C243.356 232.399 243.509 231.696 243.509 230.881C243.509 230.065 243.356 229.353 243.051 228.743C242.747 228.133 242.259 227.662 241.59 227.331C240.92 226.993 240.035 226.824 238.935 226.824H234.6V245H232.134ZM241.719 235.852L246.73 245H243.867L238.935 235.852H241.719ZM254.22 245.358C253.252 245.358 252.374 245.176 251.585 244.811C250.796 244.44 250.17 243.906 249.706 243.21C249.242 242.508 249.01 241.659 249.01 240.665C249.01 239.79 249.182 239.08 249.527 238.537C249.872 237.987 250.332 237.556 250.909 237.244C251.486 236.933 252.122 236.701 252.818 236.548C253.521 236.389 254.227 236.263 254.936 236.17C255.864 236.051 256.616 235.962 257.193 235.902C257.777 235.836 258.201 235.726 258.466 235.574C258.738 235.421 258.874 235.156 258.874 234.778V234.699C258.874 233.718 258.605 232.955 258.068 232.412C257.538 231.868 256.732 231.597 255.652 231.597C254.532 231.597 253.653 231.842 253.017 232.332C252.381 232.823 251.933 233.347 251.675 233.903L249.447 233.108C249.845 232.18 250.375 231.457 251.038 230.94C251.708 230.417 252.437 230.052 253.226 229.847C254.021 229.634 254.804 229.528 255.572 229.528C256.063 229.528 256.626 229.588 257.263 229.707C257.906 229.82 258.526 230.055 259.122 230.413C259.725 230.771 260.226 231.312 260.624 232.034C261.021 232.757 261.22 233.724 261.22 234.938V245H258.874V242.932H258.754C258.595 243.263 258.33 243.618 257.959 243.996C257.588 244.374 257.094 244.695 256.477 244.96C255.861 245.225 255.108 245.358 254.22 245.358ZM254.578 243.25C255.506 243.25 256.288 243.068 256.925 242.703C257.568 242.339 258.052 241.868 258.376 241.291C258.708 240.714 258.874 240.108 258.874 239.472V237.324C258.774 237.443 258.555 237.553 258.217 237.652C257.886 237.745 257.501 237.828 257.064 237.901C256.633 237.967 256.212 238.027 255.801 238.08C255.397 238.126 255.069 238.166 254.817 238.199C254.207 238.278 253.637 238.408 253.107 238.587C252.583 238.759 252.159 239.021 251.834 239.372C251.516 239.717 251.357 240.187 251.357 240.784C251.357 241.599 251.658 242.216 252.261 242.634C252.871 243.045 253.643 243.25 254.578 243.25ZM265.503 245V229.727H267.85V245H265.503ZM266.696 227.182C266.239 227.182 265.845 227.026 265.513 226.714C265.188 226.403 265.026 226.028 265.026 225.591C265.026 225.153 265.188 224.779 265.513 224.467C265.845 224.156 266.239 224 266.696 224C267.154 224 267.545 224.156 267.87 224.467C268.201 224.779 268.367 225.153 268.367 225.591C268.367 226.028 268.201 226.403 267.87 226.714C267.545 227.026 267.154 227.182 266.696 227.182ZM274.494 235.812V245H272.148V229.727H274.415V232.114H274.614C274.972 231.338 275.515 230.715 276.244 230.244C276.973 229.767 277.915 229.528 279.068 229.528C280.102 229.528 281.007 229.741 281.783 230.165C282.558 230.582 283.161 231.219 283.592 232.074C284.023 232.922 284.239 233.996 284.239 235.295V245H281.892V235.455C281.892 234.255 281.58 233.32 280.957 232.651C280.334 231.974 279.479 231.636 278.392 231.636C277.643 231.636 276.973 231.799 276.384 232.124C275.8 232.448 275.339 232.922 275.001 233.545C274.663 234.169 274.494 234.924 274.494 235.812Z" fill="white"/>
<defs>
<clipPath id="clip0_91_813">
<rect width="150" height="150" fill="white" transform="translate(114.5 48)"/>
</clipPath>
</defs>
</svg>
