<svg width="379" height="300" viewBox="0 0 379 300" fill="none" xmlns="http://www.w3.org/2000/svg">
<rect x="1" y="1" width="377" height="298" rx="11" stroke="white" stroke-width="2"/>
<g clip-path="url(#clip0_91_801)">
<path d="M263.855 158.551C263.449 158.145 257.59 152.377 248.614 147.687C258.762 134.121 264.131 119.471 264.366 118.822C264.586 118.213 264.527 117.537 264.203 116.976C263.879 116.414 263.323 116.025 262.685 115.911C262.186 115.822 250.97 113.865 237.212 114.513C237.503 111.215 237.655 107.765 237.666 104.166C237.701 92.2077 236.122 83.2068 236.055 82.8295C235.941 82.1914 235.552 81.6359 234.99 81.3119C234.429 80.9879 233.754 80.9281 233.144 81.1487C232.587 81.3506 220.007 85.9546 207.02 94.6982C205.61 91.8081 204.153 89.1292 202.759 86.7403C202.148 85.6921 200.802 85.3382 199.754 85.9493C198.706 86.5607 198.352 87.9061 198.963 88.9543C204.444 98.3507 210.978 112.367 210.978 125.775C210.978 134.262 208.062 141.788 202.313 148.153C201.159 148.779 200.06 149.419 199.022 150.06C200.054 147.912 200.992 145.517 201.685 142.914C201.998 141.741 201.301 140.537 200.128 140.225C198.956 139.912 197.751 140.609 197.439 141.782C196.111 146.765 193.738 150.956 191.697 153.902V136.429C191.697 135.216 190.713 134.232 189.5 134.232C188.287 134.232 187.303 135.216 187.303 136.429V153.903C185.262 150.957 182.889 146.765 181.561 141.782C181.249 140.61 180.045 139.913 178.872 140.225C177.7 140.537 177.002 141.741 177.315 142.914C178.008 145.517 178.946 147.911 179.978 150.06C178.939 149.418 177.84 148.778 176.686 148.152C170.938 141.787 168.022 134.262 168.022 125.775C168.022 104.606 184.179 81.7956 189.503 74.8549C190.525 76.1817 191.942 78.0852 193.558 80.4348C194.245 81.4347 195.613 81.6881 196.613 81.0005C197.613 80.3129 197.866 78.945 197.179 77.9448C193.785 73.0092 191.286 70.03 191.181 69.9058C190.764 69.4098 190.149 69.1235 189.5 69.1235C188.852 69.1235 188.237 69.4098 187.82 69.9055C187.573 70.1984 181.705 77.2042 175.757 87.5771C174.377 89.9835 173.116 92.3545 171.97 94.6897C158.986 85.9514 146.415 81.3509 145.858 81.1493C145.248 80.9287 144.572 80.9885 144.011 81.3125C143.45 81.6365 143.06 82.1917 142.946 82.8301C142.817 83.5549 140.303 98.017 141.794 114.513C128.032 113.864 116.815 115.822 116.316 115.911C115.677 116.025 115.122 116.414 114.798 116.976C114.474 117.537 114.414 118.213 114.634 118.822C114.869 119.471 120.238 134.121 130.386 147.686C121.41 152.377 115.551 158.144 115.145 158.55C114.732 158.962 114.5 159.522 114.5 160.105C114.5 160.688 114.732 161.248 115.145 161.66C115.836 162.351 132.324 178.579 153.099 178.579C170.484 178.579 184.865 167.216 189.5 163.102C193.643 166.774 205.58 176.241 220.503 178.218C221.707 178.378 222.811 177.532 222.97 176.329C223.129 175.126 222.284 174.021 221.08 173.862C207.871 172.111 196.86 163.639 192.764 160.104C197.341 156.149 210.556 146.025 225.901 146.025C241.21 146.025 254.45 156.152 259.036 160.106C254.936 163.643 243.927 172.112 230.722 173.862C229.519 174.022 228.673 175.126 228.832 176.329C228.978 177.434 229.922 178.238 231.008 178.238C231.104 178.238 231.201 178.232 231.299 178.219C249.511 175.805 263.278 162.237 263.855 161.66C264.268 161.248 264.5 160.689 264.5 160.106C264.5 159.522 264.268 158.963 263.855 158.551ZM119.765 119.843C123.951 119.293 132.575 118.422 142.288 118.939C142.541 120.825 142.852 122.723 143.23 124.617C143.439 125.662 144.356 126.385 145.382 126.385C145.525 126.385 145.67 126.371 145.815 126.342C147.005 126.105 147.777 124.948 147.54 123.758C144.491 108.48 146.057 92.4793 146.877 86.2757C151.252 88.0815 160.691 92.3185 170.089 98.726C165.798 108.468 163.628 117.531 163.628 125.775C163.628 132.588 165.286 138.851 168.565 144.483C164.129 142.879 159.23 141.765 154.05 141.642C153.943 141.465 153.836 141.287 153.736 141.111C152.381 138.767 151.177 136.146 150.159 133.319C149.748 132.177 148.489 131.585 147.348 131.996C146.206 132.407 145.614 133.666 146.025 134.808C146.924 137.304 147.962 139.658 149.114 141.828C143.802 142.348 138.838 143.848 134.435 145.753C126.798 135.738 121.779 124.692 119.765 119.843ZM153.099 174.184C137.792 174.184 124.552 164.06 119.965 160.105C124.552 156.149 137.792 146.025 153.099 146.025C168.407 146.025 181.646 156.15 186.233 160.105C181.645 164.06 168.406 174.184 153.099 174.184ZM225.263 141.117C225.164 141.29 225.057 141.466 224.952 141.642C219.771 141.765 214.871 142.88 210.435 144.484C213.714 138.851 215.372 132.588 215.372 125.775C215.372 116.445 212.488 106.953 208.892 98.7406C218.282 92.3355 227.741 88.0877 232.123 86.2769C233.263 94.9543 235.847 122.783 225.263 141.117ZM229.889 141.828C233.259 135.484 235.544 127.825 236.724 118.938C246.418 118.423 255.046 119.294 259.235 119.843C257.221 124.694 252.201 135.739 244.565 145.753C240.162 143.848 235.2 142.348 229.889 141.828Z" fill="white"/>
<path d="M162.978 80.3599C164.046 80.9766 165.232 81.2918 166.433 81.2918C167.035 81.2918 167.641 81.2124 168.239 81.0528C170.027 80.5735 171.522 79.4262 172.448 77.8228C173.374 76.2194 173.62 74.3508 173.141 72.5622C172.661 70.7737 171.514 69.2786 169.911 68.3529C168.307 67.4268 166.438 67.1807 164.65 67.6603C160.958 68.6496 158.759 72.4585 159.748 76.1505C160.227 77.9391 161.375 79.4341 162.978 80.3599ZM165.788 71.9051C166.007 71.8465 166.228 71.8175 166.449 71.8175C166.888 71.8175 167.323 71.9329 167.714 72.1585C168.301 72.4975 168.721 73.0448 168.896 73.6995C169.258 75.0513 168.453 76.4455 167.102 76.8077C166.447 76.9834 165.763 76.8932 165.176 76.5542C164.589 76.2153 164.169 75.668 163.993 75.0132C163.631 73.6615 164.436 72.2672 165.788 71.9051Z" fill="white"/>
<path d="M126.511 104.344C128.363 104.344 130.104 103.623 131.413 102.314C134.116 99.611 134.116 95.2132 131.413 92.51C128.71 89.8071 124.312 89.8074 121.609 92.51C120.3 93.8193 119.579 95.5604 119.579 97.4119C119.579 99.2638 120.3 101.005 121.609 102.314C122.918 103.623 124.659 104.344 126.511 104.344ZM124.717 95.6175C125.212 95.123 125.861 94.8754 126.511 94.8754C127.161 94.8754 127.811 95.1227 128.306 95.6175C129.295 96.6069 129.295 98.2173 128.306 99.2067C127.826 99.686 127.189 99.9499 126.511 99.9499C125.833 99.9499 125.196 99.686 124.717 99.2064C124.237 98.7271 123.973 98.0899 123.973 97.4119C123.973 96.734 124.237 96.0968 124.717 95.6175Z" fill="white"/>
<path d="M210.761 81.0526C211.359 81.2126 211.965 81.2917 212.567 81.2917C213.768 81.2917 214.953 80.9764 216.022 80.3597C217.625 79.434 218.772 77.9389 219.252 76.1504C220.241 72.4581 218.042 68.6492 214.35 67.6598C212.561 67.1811 210.693 67.4266 209.089 68.3524C207.485 69.2782 206.338 70.7732 205.859 72.5618C205.38 74.3504 205.626 76.2186 206.552 77.8223C207.477 79.426 208.973 80.573 210.761 81.0526ZM210.104 73.6994C210.28 73.0446 210.699 72.4973 211.287 72.1584C211.678 71.9325 212.112 71.8173 212.552 71.8173C212.772 71.8173 212.994 71.8464 213.212 71.9049C214.564 72.2671 215.369 73.6616 215.007 75.0133C214.831 75.6681 214.411 76.2154 213.824 76.5544C213.237 76.893 212.553 76.9836 211.899 76.8078C210.547 76.4454 209.742 75.0511 210.104 73.6994Z" fill="white"/>
<path d="M252.489 104.344C254.341 104.344 256.082 103.623 257.391 102.314C258.7 101.005 259.421 99.2635 259.421 97.412C259.421 95.5604 258.7 93.8193 257.391 92.51C254.688 89.8074 250.29 89.8071 247.587 92.51C244.884 95.2132 244.884 99.611 247.587 102.314C248.896 103.623 250.637 104.344 252.489 104.344ZM250.694 95.6172C251.684 94.6276 253.294 94.6279 254.284 95.6172C254.763 96.0965 255.027 96.734 255.027 97.4117C255.027 98.0893 254.763 98.7268 254.283 99.2061C253.804 99.6854 253.167 99.9494 252.489 99.9494C251.811 99.9494 251.174 99.6854 250.694 99.2061C249.705 98.2167 249.705 96.6066 250.694 95.6172Z" fill="white"/>
</g>
<path d="M121.419 224.636H124.362L131.283 241.54H131.521L138.442 224.636H141.385V245H139.078V229.528H138.879L132.516 245H130.288L123.925 229.528H123.726V245H121.419V224.636ZM152.414 245.318C150.943 245.318 149.673 244.993 148.606 244.344C147.546 243.688 146.727 242.773 146.15 241.599C145.58 240.42 145.295 239.047 145.295 237.483C145.295 235.919 145.58 234.54 146.15 233.347C146.727 232.147 147.529 231.212 148.556 230.543C149.591 229.866 150.797 229.528 152.176 229.528C152.971 229.528 153.757 229.661 154.532 229.926C155.308 230.191 156.014 230.622 156.65 231.219C157.287 231.809 157.794 232.591 158.172 233.565C158.549 234.54 158.738 235.74 158.738 237.165V238.159H146.966V236.131H156.352C156.352 235.269 156.18 234.5 155.835 233.824C155.497 233.148 155.013 232.614 154.383 232.223C153.76 231.832 153.024 231.636 152.176 231.636C151.241 231.636 150.432 231.868 149.75 232.332C149.074 232.79 148.553 233.386 148.189 234.122C147.824 234.858 147.642 235.647 147.642 236.489V237.841C147.642 238.994 147.841 239.972 148.238 240.774C148.643 241.57 149.203 242.176 149.919 242.594C150.635 243.005 151.467 243.21 152.414 243.21C153.031 243.21 153.588 243.124 154.085 242.952C154.589 242.773 155.023 242.508 155.387 242.156C155.752 241.798 156.034 241.354 156.233 240.824L158.5 241.46C158.261 242.229 157.86 242.905 157.297 243.489C156.733 244.065 156.037 244.516 155.208 244.841C154.38 245.159 153.449 245.318 152.414 245.318ZM168.075 245.318C166.802 245.318 165.679 244.997 164.704 244.354C163.73 243.704 162.967 242.789 162.417 241.609C161.867 240.423 161.592 239.021 161.592 237.403C161.592 235.799 161.867 234.407 162.417 233.227C162.967 232.047 163.733 231.136 164.714 230.493C165.695 229.85 166.829 229.528 168.115 229.528C169.109 229.528 169.895 229.694 170.471 230.026C171.055 230.35 171.499 230.722 171.804 231.139C172.115 231.55 172.357 231.888 172.529 232.153H172.728V224.636H175.075V245H172.808V242.653H172.529C172.357 242.932 172.112 243.283 171.794 243.707C171.475 244.125 171.021 244.5 170.431 244.831C169.842 245.156 169.056 245.318 168.075 245.318ZM168.393 243.21C169.334 243.21 170.13 242.965 170.779 242.474C171.429 241.977 171.923 241.291 172.261 240.416C172.599 239.535 172.768 238.517 172.768 237.364C172.768 236.223 172.602 235.226 172.271 234.371C171.94 233.509 171.449 232.839 170.799 232.362C170.15 231.878 169.348 231.636 168.393 231.636C167.399 231.636 166.57 231.892 165.907 232.402C165.251 232.906 164.757 233.592 164.426 234.46C164.101 235.322 163.939 236.29 163.939 237.364C163.939 238.451 164.104 239.438 164.436 240.327C164.774 241.208 165.271 241.911 165.927 242.435C166.59 242.952 167.412 243.21 168.393 243.21ZM179.699 245V229.727H182.045V245H179.699ZM180.892 227.182C180.434 227.182 180.04 227.026 179.708 226.714C179.384 226.403 179.221 226.028 179.221 225.591C179.221 225.153 179.384 224.779 179.708 224.467C180.04 224.156 180.434 224 180.892 224C181.349 224 181.74 224.156 182.065 224.467C182.396 224.779 182.562 225.153 182.562 225.591C182.562 226.028 182.396 226.403 182.065 226.714C181.74 227.026 181.349 227.182 180.892 227.182ZM192.985 229.727V231.716H185.07V229.727H192.985ZM187.377 226.068H189.724V240.625C189.724 241.288 189.82 241.785 190.012 242.116C190.211 242.441 190.463 242.66 190.768 242.773C191.079 242.879 191.407 242.932 191.752 242.932C192.011 242.932 192.223 242.919 192.388 242.892C192.554 242.859 192.687 242.832 192.786 242.812L193.263 244.92C193.104 244.98 192.882 245.04 192.597 245.099C192.312 245.166 191.951 245.199 191.513 245.199C190.851 245.199 190.201 245.056 189.565 244.771C188.935 244.486 188.411 244.052 187.994 243.469C187.583 242.885 187.377 242.15 187.377 241.261V226.068ZM201.009 245.358C200.041 245.358 199.163 245.176 198.374 244.811C197.585 244.44 196.959 243.906 196.495 243.21C196.031 242.508 195.799 241.659 195.799 240.665C195.799 239.79 195.971 239.08 196.316 238.537C196.661 237.987 197.121 237.556 197.698 237.244C198.275 236.933 198.911 236.701 199.607 236.548C200.31 236.389 201.016 236.263 201.725 236.17C202.653 236.051 203.406 235.962 203.982 235.902C204.566 235.836 204.99 235.726 205.255 235.574C205.527 235.421 205.663 235.156 205.663 234.778V234.699C205.663 233.718 205.394 232.955 204.857 232.412C204.327 231.868 203.522 231.597 202.441 231.597C201.321 231.597 200.442 231.842 199.806 232.332C199.17 232.823 198.722 233.347 198.464 233.903L196.237 233.108C196.634 232.18 197.165 231.457 197.827 230.94C198.497 230.417 199.226 230.052 200.015 229.847C200.81 229.634 201.593 229.528 202.362 229.528C202.852 229.528 203.415 229.588 204.052 229.707C204.695 229.82 205.315 230.055 205.911 230.413C206.514 230.771 207.015 231.312 207.413 232.034C207.81 232.757 208.009 233.724 208.009 234.938V245H205.663V242.932H205.543C205.384 243.263 205.119 243.618 204.748 243.996C204.377 244.374 203.883 244.695 203.266 244.96C202.65 245.225 201.897 245.358 201.009 245.358ZM201.367 243.25C202.295 243.25 203.077 243.068 203.714 242.703C204.357 242.339 204.841 241.868 205.165 241.291C205.497 240.714 205.663 240.108 205.663 239.472V237.324C205.563 237.443 205.344 237.553 205.006 237.652C204.675 237.745 204.29 237.828 203.853 237.901C203.422 237.967 203.001 238.027 202.59 238.08C202.186 238.126 201.858 238.166 201.606 238.199C200.996 238.278 200.426 238.408 199.896 238.587C199.372 238.759 198.948 239.021 198.623 239.372C198.305 239.717 198.146 240.187 198.146 240.784C198.146 241.599 198.447 242.216 199.05 242.634C199.66 243.045 200.433 243.25 201.367 243.25ZM218.934 229.727V231.716H211.02V229.727H218.934ZM213.326 226.068H215.673V240.625C215.673 241.288 215.769 241.785 215.961 242.116C216.16 242.441 216.412 242.66 216.717 242.773C217.029 242.879 217.357 242.932 217.701 242.932C217.96 242.932 218.172 242.919 218.338 242.892C218.503 242.859 218.636 242.832 218.735 242.812L219.213 244.92C219.054 244.98 218.832 245.04 218.547 245.099C218.261 245.166 217.9 245.199 217.463 245.199C216.8 245.199 216.15 245.056 215.514 244.771C214.884 244.486 214.36 244.052 213.943 243.469C213.532 242.885 213.326 242.15 213.326 241.261V226.068ZM222.464 245V229.727H224.811V245H222.464ZM223.657 227.182C223.2 227.182 222.806 227.026 222.474 226.714C222.149 226.403 221.987 226.028 221.987 225.591C221.987 225.153 222.149 224.779 222.474 224.467C222.806 224.156 223.2 224 223.657 224C224.115 224 224.506 224.156 224.831 224.467C225.162 224.779 225.328 225.153 225.328 225.591C225.328 226.028 225.162 226.403 224.831 226.714C224.506 227.026 224.115 227.182 223.657 227.182ZM235.313 245.318C233.934 245.318 232.725 244.99 231.684 244.334C230.65 243.678 229.841 242.759 229.258 241.58C228.681 240.4 228.393 239.021 228.393 237.443C228.393 235.852 228.681 234.464 229.258 233.277C229.841 232.09 230.65 231.169 231.684 230.513C232.725 229.857 233.934 229.528 235.313 229.528C236.692 229.528 237.898 229.857 238.933 230.513C239.973 231.169 240.782 232.09 241.359 233.277C241.942 234.464 242.234 235.852 242.234 237.443C242.234 239.021 241.942 240.4 241.359 241.58C240.782 242.759 239.973 243.678 238.933 244.334C237.898 244.99 236.692 245.318 235.313 245.318ZM235.313 243.21C236.361 243.21 237.222 242.942 237.898 242.405C238.575 241.868 239.075 241.162 239.4 240.287C239.725 239.412 239.887 238.464 239.887 237.443C239.887 236.422 239.725 235.471 239.4 234.589C239.075 233.708 238.575 232.995 237.898 232.452C237.222 231.908 236.361 231.636 235.313 231.636C234.266 231.636 233.404 231.908 232.728 232.452C232.052 232.995 231.551 233.708 231.227 234.589C230.902 235.471 230.739 236.422 230.739 237.443C230.739 238.464 230.902 239.412 231.227 240.287C231.551 241.162 232.052 241.868 232.728 242.405C233.404 242.942 234.266 243.21 235.313 243.21ZM248.162 235.812V245H245.816V229.727H248.083V232.114H248.282C248.64 231.338 249.183 230.715 249.912 230.244C250.641 229.767 251.583 229.528 252.736 229.528C253.77 229.528 254.675 229.741 255.451 230.165C256.226 230.582 256.829 231.219 257.26 232.074C257.691 232.922 257.907 233.996 257.907 235.295V245H255.56V235.455C255.56 234.255 255.248 233.32 254.625 232.651C254.002 231.974 253.147 231.636 252.06 231.636C251.311 231.636 250.641 231.799 250.051 232.124C249.468 232.448 249.007 232.922 248.669 233.545C248.331 234.169 248.162 234.924 248.162 235.812Z" fill="white"/>
<defs>
<clipPath id="clip0_91_801">
<rect width="150" height="150" fill="white" transform="translate(114.5 48)"/>
</clipPath>
</defs>
</svg>
