<svg width="379" height="300" viewBox="0 0 379 300" fill="none" xmlns="http://www.w3.org/2000/svg">
<rect x="1" y="1" width="377" height="298" rx="11" stroke="white" stroke-width="2"/>
<g clip-path="url(#clip0_91_819)">
<path d="M176.428 162.573C177.643 162.573 178.629 161.588 178.629 160.372C178.629 159.157 177.643 158.171 176.428 158.171H171.406C157.68 158.171 146.513 147.004 146.513 133.278C146.513 119.552 157.68 108.385 171.406 108.385C175.99 108.385 180.47 109.642 184.361 112.018C184.365 112.021 184.378 112.028 184.38 112.029C189.062 114.895 192.715 119.287 194.668 124.396C195.003 125.273 195.838 125.812 196.725 125.812C196.986 125.812 197.251 125.765 197.51 125.667C198.645 125.233 199.214 123.961 198.78 122.825C196.687 117.346 192.929 112.574 188.113 109.22C190.476 102.328 194.919 96.1603 200.754 91.7239C207.227 86.8027 214.958 84.2019 223.113 84.2019C226.606 84.2019 230.066 84.6896 233.397 85.6514C234.564 85.988 235.785 85.3153 236.122 84.1476C236.459 82.9798 235.786 81.7595 234.618 81.422C230.891 80.3454 227.02 79.7996 223.113 79.7996C213.988 79.7996 205.335 82.7112 198.09 88.2194C196.975 89.0676 195.907 89.9747 194.886 90.9303C194.612 85.0133 193.055 79.1791 190.332 73.9501C189.771 72.8718 188.441 72.453 187.363 73.0144C186.285 73.5759 185.866 74.9051 186.427 75.9833C189.151 81.2139 190.532 86.8752 190.532 92.8098C190.532 93.8227 190.486 94.8466 190.401 95.863C187.802 99.2208 185.712 102.964 184.248 106.942C180.267 105 175.878 103.983 171.406 103.983C157.228 103.983 145.372 114.107 142.683 127.504C131.217 123.754 122.222 114.462 118.914 102.761C118.901 102.712 118.886 102.662 118.963 102.598C119.045 102.53 119.1 102.557 119.144 102.579C123.701 104.816 128.601 105.903 133.72 105.801C135.769 105.762 137.82 105.521 139.815 105.087C141.003 104.828 141.756 103.655 141.497 102.468C141.238 101.28 140.068 100.527 138.878 100.785C137.162 101.159 135.399 101.366 133.635 101.4C129.229 101.486 125.006 100.552 121.084 98.6267C119.441 97.8199 117.548 98.0459 116.144 99.2164C114.743 100.384 114.181 102.201 114.678 103.958C118.464 117.351 128.899 127.922 142.142 131.944C142.122 132.386 142.11 132.831 142.11 133.278C142.11 149.431 155.252 162.573 171.406 162.573H176.428V162.573Z" fill="white"/>
<path d="M243.742 85.2999C242.689 84.6935 241.342 85.0551 240.736 86.1084C240.129 87.1617 240.491 88.5077 241.545 89.1146C252.989 95.7066 260.098 107.996 260.098 121.187C260.098 141.58 243.506 158.171 223.112 158.171H220.11C218.894 158.171 217.909 159.157 217.909 160.373C217.909 161.588 218.894 162.574 220.11 162.574H223.112C245.934 162.574 264.5 144.008 264.5 121.187C264.5 106.426 256.546 92.6752 243.742 85.2999Z" fill="white"/>
<path d="M147.404 97.3261C146.37 97.9665 146.052 99.3233 146.692 100.357C147.109 101.029 147.829 101.399 148.565 101.399C148.961 101.399 149.362 101.292 149.723 101.068C158.743 95.4769 164.368 85.8617 164.77 75.3472C165.02 68.8186 163.299 62.4801 159.795 57.0163C159.774 56.9837 159.748 56.9432 159.803 56.8593C159.856 56.7786 159.899 56.785 159.938 56.7912C168.21 58.1357 175.837 62.3586 181.415 68.6827C182.219 69.5943 183.61 69.682 184.522 68.8776C185.433 68.0734 185.521 66.6826 184.717 65.771C178.467 58.6854 169.918 53.9532 160.645 52.4461C158.855 52.1553 157.123 52.9207 156.123 54.4439C155.122 55.9688 155.11 57.8657 156.089 59.3932C159.106 64.0955 160.586 69.5544 160.372 75.1793C160.026 84.2281 155.178 92.5074 147.404 97.3261Z" fill="white"/>
<path d="M137.251 85.9463C138.484 86.7795 139.534 87.812 140.369 89.0144C141.104 90.0712 142.311 90.711 143.6 90.7257C143.615 90.7257 143.63 90.726 143.645 90.726C144.927 90.726 146.14 90.1097 146.897 89.0716C147.702 87.9664 148.731 86.9844 150.04 86.0693C151.116 85.3173 151.758 84.0868 151.757 82.7769C151.756 81.4653 151.111 80.2339 150.032 79.4828C148.769 78.6035 147.701 77.5438 146.857 76.332C146.121 75.2766 144.917 74.6309 143.634 74.6042C142.334 74.581 141.155 75.1521 140.374 76.1799C139.503 77.3266 138.402 78.4028 137.101 79.3781C136.053 80.1646 135.446 81.4119 135.479 82.7153C135.51 84.0105 136.173 85.2184 137.251 85.9463ZM143.546 79.2674C144.532 80.5919 145.716 81.7694 147.076 82.7787C145.738 83.7663 144.593 84.8648 143.661 86.0534C142.673 84.731 141.492 83.5708 140.139 82.5953C141.443 81.5739 142.585 80.4578 143.546 79.2674Z" fill="white"/>
<path d="M138.656 62.1003H140.28V63.7235C140.28 64.9392 141.265 65.9247 142.481 65.9247C143.697 65.9247 144.682 64.9392 144.682 63.7235V62.1003H146.305C147.521 62.1003 148.506 61.1147 148.506 59.8991C148.506 58.6835 147.521 57.698 146.305 57.698H144.682V56.0747C144.682 54.8591 143.697 53.8735 142.481 53.8735C141.265 53.8735 140.28 54.8591 140.28 56.0747V57.698H138.656C137.44 57.698 136.455 58.6835 136.455 59.8991C136.455 61.1147 137.44 62.1003 138.656 62.1003Z" fill="white"/>
<path d="M119.869 85.4631H121.492V87.0863C121.492 88.302 122.477 89.2875 123.693 89.2875C124.909 89.2875 125.894 88.302 125.894 87.0863V85.4631H127.517C128.733 85.4631 129.719 84.4775 129.719 83.2619C129.719 82.0463 128.733 81.0608 127.517 81.0608H125.894V79.4375C125.894 78.2219 124.909 77.2363 123.693 77.2363C122.477 77.2363 121.492 78.2219 121.492 79.4375V81.0608H119.869C118.653 81.0608 117.668 82.0463 117.668 83.2619C117.668 84.4775 118.653 85.4631 119.869 85.4631Z" fill="white"/>
<path d="M211.447 150.99L178.004 166.937C176.993 167.419 176.33 168.373 176.232 169.489C176.134 170.606 176.62 171.661 177.532 172.312L183.534 176.599L171.437 188.225C170.404 189.218 170.176 190.782 170.883 192.028C171.45 193.027 172.5 193.615 173.606 193.615C173.88 193.615 174.157 193.579 174.431 193.504L209.453 183.953C210.625 183.633 211.49 182.693 211.709 181.498C211.929 180.303 211.456 179.116 210.474 178.401L203.386 173.232L215.384 155.577C216.19 154.392 216.105 152.865 215.171 151.777C214.238 150.689 212.741 150.372 211.447 150.99ZM199.055 171.773C198.1 173.178 198.426 175.063 199.8 176.065L205.746 180.4L178.08 187.946L187.687 178.713C188.361 178.066 188.708 177.16 188.641 176.228C188.573 175.296 188.098 174.45 187.338 173.906L181.844 169.983L209.107 156.983L199.055 171.773Z" fill="white"/>
</g>
<path d="M92.0755 245V229.727H94.3425V232.114H94.5414C94.8596 231.298 95.3733 230.665 96.0826 230.214C96.7918 229.757 97.6436 229.528 98.638 229.528C99.6455 229.528 100.484 229.757 101.154 230.214C101.83 230.665 102.357 231.298 102.735 232.114H102.894C103.285 231.325 103.871 230.698 104.654 230.234C105.436 229.764 106.374 229.528 107.468 229.528C108.833 229.528 109.95 229.956 110.818 230.811C111.687 231.66 112.121 232.982 112.121 234.778V245H109.774V234.778C109.774 233.652 109.466 232.846 108.85 232.362C108.233 231.878 107.507 231.636 106.672 231.636C105.598 231.636 104.766 231.961 104.176 232.611C103.586 233.254 103.291 234.069 103.291 235.057V245H100.905V234.54C100.905 233.671 100.623 232.972 100.06 232.442C99.4964 231.905 98.7705 231.636 97.8823 231.636C97.2724 231.636 96.7024 231.799 96.1721 232.124C95.6484 232.448 95.2241 232.899 94.8993 233.476C94.5811 234.046 94.4221 234.705 94.4221 235.455V245H92.0755ZM116.411 245V229.727H118.758V245H116.411ZM117.605 227.182C117.147 227.182 116.753 227.026 116.421 226.714C116.097 226.403 115.934 226.028 115.934 225.591C115.934 225.153 116.097 224.779 116.421 224.467C116.753 224.156 117.147 224 117.605 224C118.062 224 118.453 224.156 118.778 224.467C119.109 224.779 119.275 225.153 119.275 225.591C119.275 226.028 119.109 226.403 118.778 226.714C118.453 227.026 118.062 227.182 117.605 227.182ZM128.823 245.318C127.55 245.318 126.427 244.997 125.452 244.354C124.478 243.704 123.715 242.789 123.165 241.609C122.615 240.423 122.34 239.021 122.34 237.403C122.34 235.799 122.615 234.407 123.165 233.227C123.715 232.047 124.481 231.136 125.462 230.493C126.443 229.85 127.577 229.528 128.863 229.528C129.857 229.528 130.643 229.694 131.219 230.026C131.803 230.35 132.247 230.722 132.552 231.139C132.863 231.55 133.105 231.888 133.278 232.153H133.476V224.636H135.823V245H133.556V242.653H133.278C133.105 242.932 132.86 243.283 132.542 243.707C132.224 244.125 131.769 244.5 131.18 244.831C130.59 245.156 129.804 245.318 128.823 245.318ZM129.141 243.21C130.082 243.21 130.878 242.965 131.528 242.474C132.177 241.977 132.671 241.291 133.009 240.416C133.347 239.535 133.516 238.517 133.516 237.364C133.516 236.223 133.35 235.226 133.019 234.371C132.688 233.509 132.197 232.839 131.547 232.362C130.898 231.878 130.096 231.636 129.141 231.636C128.147 231.636 127.318 231.892 126.655 232.402C125.999 232.906 125.505 233.592 125.174 234.46C124.849 235.322 124.687 236.29 124.687 237.364C124.687 238.451 124.852 239.438 125.184 240.327C125.522 241.208 126.019 241.911 126.675 242.435C127.338 242.952 128.16 243.21 129.141 243.21ZM142.793 235.812V245H140.447V229.727H142.714V232.114H142.912C143.27 231.338 143.814 230.715 144.543 230.244C145.272 229.767 146.214 229.528 147.367 229.528C148.401 229.528 149.306 229.741 150.081 230.165C150.857 230.582 151.46 231.219 151.891 232.074C152.322 232.922 152.537 233.996 152.537 235.295V245H150.191V235.455C150.191 234.255 149.879 233.32 149.256 232.651C148.633 231.974 147.778 231.636 146.691 231.636C145.942 231.636 145.272 231.799 144.682 232.124C144.099 232.448 143.638 232.922 143.3 233.545C142.962 234.169 142.793 234.924 142.793 235.812ZM156.825 245V229.727H159.172V245H156.825ZM158.019 227.182C157.561 227.182 157.167 227.026 156.835 226.714C156.511 226.403 156.348 226.028 156.348 225.591C156.348 225.153 156.511 224.779 156.835 224.467C157.167 224.156 157.561 224 158.019 224C158.476 224 158.867 224.156 159.192 224.467C159.523 224.779 159.689 225.153 159.689 225.591C159.689 226.028 159.523 226.403 159.192 226.714C158.867 227.026 158.476 227.182 158.019 227.182ZM169.635 251.045C168.501 251.045 167.527 250.9 166.711 250.608C165.896 250.323 165.217 249.945 164.673 249.474C164.136 249.01 163.709 248.513 163.39 247.983L165.26 246.67C165.472 246.949 165.74 247.267 166.065 247.625C166.39 247.99 166.834 248.304 167.398 248.57C167.968 248.841 168.713 248.977 169.635 248.977C170.868 248.977 171.885 248.679 172.687 248.082C173.489 247.486 173.89 246.551 173.89 245.278V242.176H173.692C173.519 242.455 173.274 242.799 172.956 243.21C172.644 243.615 172.193 243.976 171.604 244.294C171.02 244.606 170.231 244.761 169.237 244.761C168.004 244.761 166.897 244.47 165.916 243.886C164.942 243.303 164.169 242.455 163.599 241.341C163.036 240.227 162.754 238.875 162.754 237.284C162.754 235.72 163.029 234.357 163.579 233.197C164.13 232.031 164.895 231.129 165.876 230.493C166.857 229.85 167.991 229.528 169.277 229.528C170.271 229.528 171.06 229.694 171.643 230.026C172.233 230.35 172.684 230.722 172.996 231.139C173.314 231.55 173.559 231.888 173.731 232.153H173.97V229.727H176.237V245.438C176.237 246.75 175.939 247.817 175.342 248.639C174.752 249.468 173.957 250.074 172.956 250.459C171.961 250.85 170.854 251.045 169.635 251.045ZM169.555 242.653C170.497 242.653 171.292 242.438 171.942 242.007C172.591 241.576 173.085 240.956 173.423 240.148C173.761 239.339 173.93 238.371 173.93 237.244C173.93 236.144 173.765 235.173 173.433 234.331C173.102 233.489 172.611 232.83 171.961 232.352C171.312 231.875 170.51 231.636 169.555 231.636C168.561 231.636 167.732 231.888 167.069 232.392C166.413 232.896 165.919 233.572 165.588 234.42C165.263 235.269 165.101 236.21 165.101 237.244C165.101 238.305 165.266 239.243 165.598 240.058C165.936 240.867 166.433 241.503 167.089 241.967C167.752 242.425 168.574 242.653 169.555 242.653ZM182.879 235.812V245H180.532V224.636H182.879V232.114H183.078C183.436 231.325 183.973 230.698 184.689 230.234C185.411 229.764 186.372 229.528 187.572 229.528C188.613 229.528 189.524 229.737 190.307 230.155C191.089 230.566 191.695 231.199 192.126 232.054C192.564 232.902 192.782 233.983 192.782 235.295V245H190.436V235.455C190.436 234.241 190.121 233.304 189.491 232.641C188.868 231.971 188.003 231.636 186.896 231.636C186.127 231.636 185.438 231.799 184.828 232.124C184.225 232.448 183.747 232.922 183.396 233.545C183.051 234.169 182.879 234.924 182.879 235.812ZM203.718 229.727V231.716H195.803V229.727H203.718ZM198.11 226.068H200.456V240.625C200.456 241.288 200.552 241.785 200.744 242.116C200.943 242.441 201.195 242.66 201.5 242.773C201.812 242.879 202.14 242.932 202.485 242.932C202.743 242.932 202.955 242.919 203.121 242.892C203.287 242.859 203.419 242.832 203.519 242.812L203.996 244.92C203.837 244.98 203.615 245.04 203.33 245.099C203.045 245.166 202.683 245.199 202.246 245.199C201.583 245.199 200.933 245.056 200.297 244.771C199.667 244.486 199.144 244.052 198.726 243.469C198.315 242.885 198.11 242.15 198.11 241.261V226.068ZM225.941 233.148L223.833 233.744C223.7 233.393 223.504 233.052 223.246 232.72C222.994 232.382 222.649 232.104 222.212 231.885C221.774 231.666 221.214 231.557 220.531 231.557C219.597 231.557 218.818 231.772 218.195 232.203C217.578 232.627 217.27 233.168 217.27 233.824C217.27 234.407 217.482 234.868 217.906 235.206C218.331 235.544 218.994 235.826 219.895 236.051L222.162 236.608C223.528 236.939 224.545 237.446 225.215 238.129C225.884 238.805 226.219 239.677 226.219 240.744C226.219 241.619 225.967 242.402 225.463 243.091C224.966 243.78 224.27 244.324 223.375 244.722C222.48 245.119 221.44 245.318 220.253 245.318C218.695 245.318 217.406 244.98 216.385 244.304C215.364 243.628 214.718 242.64 214.446 241.341L216.673 240.784C216.886 241.606 217.287 242.223 217.877 242.634C218.473 243.045 219.252 243.25 220.213 243.25C221.307 243.25 222.175 243.018 222.818 242.554C223.468 242.083 223.793 241.52 223.793 240.864C223.793 240.333 223.607 239.889 223.236 239.531C222.865 239.167 222.295 238.895 221.526 238.716L218.98 238.119C217.582 237.788 216.554 237.274 215.898 236.578C215.248 235.875 214.923 234.997 214.923 233.943C214.923 233.081 215.165 232.319 215.649 231.656C216.14 230.993 216.806 230.473 217.648 230.095C218.496 229.717 219.458 229.528 220.531 229.528C222.043 229.528 223.229 229.86 224.091 230.523C224.959 231.186 225.576 232.061 225.941 233.148ZM236.393 229.727V231.716H228.479V229.727H236.393ZM230.785 226.068H233.132V240.625C233.132 241.288 233.228 241.785 233.42 242.116C233.619 242.441 233.871 242.66 234.176 242.773C234.488 242.879 234.816 242.932 235.16 242.932C235.419 242.932 235.631 242.919 235.797 242.892C235.962 242.859 236.095 242.832 236.194 242.812L236.672 244.92C236.513 244.98 236.291 245.04 236.006 245.099C235.72 245.166 235.359 245.199 234.922 245.199C234.259 245.199 233.609 245.056 232.973 244.771C232.343 244.486 231.819 244.052 231.402 243.469C230.991 242.885 230.785 242.15 230.785 241.261V226.068ZM245.964 245.318C244.585 245.318 243.375 244.99 242.334 244.334C241.3 243.678 240.492 242.759 239.908 241.58C239.331 240.4 239.043 239.021 239.043 237.443C239.043 235.852 239.331 234.464 239.908 233.277C240.492 232.09 241.3 231.169 242.334 230.513C243.375 229.857 244.585 229.528 245.964 229.528C247.342 229.528 248.549 229.857 249.583 230.513C250.624 231.169 251.432 232.09 252.009 233.277C252.592 234.464 252.884 235.852 252.884 237.443C252.884 239.021 252.592 240.4 252.009 241.58C251.432 242.759 250.624 243.678 249.583 244.334C248.549 244.99 247.342 245.318 245.964 245.318ZM245.964 243.21C247.011 243.21 247.873 242.942 248.549 242.405C249.225 241.868 249.725 241.162 250.05 240.287C250.375 239.412 250.537 238.464 250.537 237.443C250.537 236.422 250.375 235.471 250.05 234.589C249.725 233.708 249.225 232.995 248.549 232.452C247.873 231.908 247.011 231.636 245.964 231.636C244.916 231.636 244.055 231.908 243.378 232.452C242.702 232.995 242.202 233.708 241.877 234.589C241.552 235.471 241.39 236.422 241.39 237.443C241.39 238.464 241.552 239.412 241.877 240.287C242.202 241.162 242.702 241.868 243.378 242.405C244.055 242.942 244.916 243.21 245.964 243.21ZM256.466 245V229.727H258.733V232.034H258.892C259.171 231.278 259.674 230.665 260.404 230.195C261.133 229.724 261.955 229.489 262.869 229.489C263.042 229.489 263.257 229.492 263.516 229.499C263.774 229.505 263.97 229.515 264.102 229.528V231.915C264.023 231.895 263.841 231.865 263.556 231.825C263.277 231.779 262.982 231.756 262.671 231.756C261.928 231.756 261.265 231.911 260.682 232.223C260.105 232.528 259.648 232.952 259.31 233.496C258.978 234.033 258.813 234.646 258.813 235.335V245H256.466ZM266.884 245V229.727H269.151V232.114H269.35C269.668 231.298 270.182 230.665 270.891 230.214C271.6 229.757 272.452 229.528 273.447 229.528C274.454 229.528 275.293 229.757 275.962 230.214C276.638 230.665 277.165 231.298 277.543 232.114H277.702C278.093 231.325 278.68 230.698 279.462 230.234C280.244 229.764 281.182 229.528 282.276 229.528C283.642 229.528 284.759 229.956 285.627 230.811C286.495 231.66 286.93 232.982 286.93 234.778V245H284.583V234.778C284.583 233.652 284.275 232.846 283.658 232.362C283.042 231.878 282.316 231.636 281.481 231.636C280.407 231.636 279.575 231.961 278.985 232.611C278.395 233.254 278.1 234.069 278.1 235.057V245H275.714V234.54C275.714 233.671 275.432 232.972 274.868 232.442C274.305 231.905 273.579 231.636 272.691 231.636C272.081 231.636 271.511 231.799 270.981 232.124C270.457 232.448 270.033 232.899 269.708 233.476C269.39 234.046 269.231 234.705 269.231 235.455V245H266.884Z" fill="white"/>
<defs>
<clipPath id="clip0_91_819">
<rect width="150" height="150" fill="white" transform="translate(114.5 48)"/>
</clipPath>
</defs>
</svg>
