<svg width="379" height="300" viewBox="0 0 379 300" fill="none" xmlns="http://www.w3.org/2000/svg">
<rect x="1" y="1" width="377" height="298" rx="11" stroke="white" stroke-width="2"/>
<g clip-path="url(#clip0_91_893)">
<path d="M261.138 98.0527C256.985 97.7214 253.177 95.5988 250.691 92.2288C249.99 91.2793 248.916 90.7349 247.742 90.7349C246.569 90.7349 245.494 91.2793 244.793 92.2288C243.072 94.5626 240.718 96.3066 237.986 97.2728C236.842 97.6774 236.243 98.9331 236.647 100.077C237.052 101.221 238.307 101.82 239.451 101.416C242.713 100.262 245.561 98.2587 247.742 95.5935C250.836 99.3717 255.266 101.801 260.106 102.366V115.452L250.065 111.012C240.583 106.818 230.109 105.094 219.777 106.026C216.036 106.363 212.583 104.414 210.789 101.238C213.836 100.072 216.542 98.1303 218.622 95.5927C221.004 98.4954 224.245 100.655 227.842 101.719C229.006 102.063 230.228 101.398 230.572 100.235C230.916 99.0711 230.252 97.8485 229.088 97.5046C226.098 96.6201 223.428 94.7466 221.57 92.2288C220.87 91.2793 219.795 90.7349 218.621 90.7349C217.448 90.7349 216.373 91.2793 215.673 92.2288C214.074 94.3962 211.904 96.0591 209.431 97.0508C207.666 89.568 203.106 83.689 195.86 79.5664C190.016 76.2409 183.624 75.5908 176.862 77.6328C171.225 79.3355 166.472 82.615 163.477 85.0663C162.377 85.9666 162.037 87.4903 162.652 88.7718C163.267 90.0535 164.669 90.7437 166.059 90.4496C171.44 89.3132 177.809 91.429 180.875 95.3718C183.457 98.6911 183.529 103.074 181.084 108.045C180.039 110.17 178.637 112.176 176.919 114.007C176.089 114.892 176.133 116.282 177.017 117.113C177.903 117.943 179.293 117.899 180.124 117.014C182.14 114.866 183.79 112.501 185.027 109.985C188.219 103.493 187.977 97.3455 184.344 92.6741C180.835 88.1615 175.101 86.0143 169.907 85.787C175.92 81.8507 184.83 78.3462 193.687 83.3855C200.143 87.0588 204.074 92.3331 205.371 99.062C206.659 105.747 212.371 110.458 218.931 110.458C219.342 110.458 219.756 110.439 220.172 110.402C229.763 109.536 239.485 111.137 248.288 115.03L260.105 120.258V127.078L248.974 122.155C239.904 118.143 229.886 116.472 220.007 117.322C210.126 118.172 200.541 121.529 192.29 127.03C177.632 136.802 159.052 138.89 142.591 132.615L142.575 132.609C144.68 132.341 146.968 131.989 149.36 131.528C158.106 129.84 165.548 127.228 171.48 123.765C172.452 123.198 172.91 121.995 172.462 120.963C171.927 119.727 170.456 119.272 169.33 119.932C167.191 121.186 161.226 124.304 151.602 126.56C150.633 124.751 150.215 122.683 150.416 120.606C150.893 115.688 154.809 111.77 159.728 111.289C161.047 111.161 162.348 111.273 163.596 111.622C165.338 112.111 167.147 111.41 168.1 109.88C169.054 108.345 168.882 106.407 167.671 105.057C162.636 99.4405 155.416 96.3049 147.878 96.461C141.285 96.5952 135.069 99.1765 130.376 103.729C125.681 108.284 122.916 114.419 122.59 121.003C122.502 122.774 122.596 124.538 122.866 126.276C121.363 126.46 119.904 127.002 118.62 127.887C116.04 129.663 114.5 132.594 114.5 135.726V183.571C114.5 186.398 116.8 188.698 119.627 188.698H259.373C262.2 188.698 264.5 186.398 264.5 183.571V101.7C264.5 99.8052 263.023 98.203 261.138 98.0527ZM126.978 121.22C127.249 115.752 129.542 110.66 133.435 106.883C137.328 103.107 142.489 100.966 147.967 100.854C153.816 100.737 159.435 103 163.558 107.103C162.166 106.839 160.739 106.775 159.3 106.916C152.297 107.6 146.721 113.179 146.042 120.182C145.798 122.695 146.196 125.202 147.173 127.48C143.04 128.233 138.362 128.797 133.148 129.016L127.439 126.84C127.042 124.999 126.884 123.114 126.978 121.22ZM260.105 167.649C256.377 167.068 252.962 165.034 250.691 161.955C250.006 161.027 248.907 160.473 247.749 160.473H247.748C246.584 160.473 245.477 161.03 244.787 161.964C243.008 164.372 240.569 166.143 237.732 167.086C236.581 167.469 235.958 168.713 236.341 169.865C236.724 171.016 237.968 171.639 239.119 171.256C242.52 170.125 245.484 168.081 247.743 165.32C250.834 169.088 255.296 171.517 260.105 172.089V183.571C260.105 183.975 259.777 184.303 259.373 184.303H119.627C119.223 184.303 118.895 183.975 118.895 183.571V172.089C123.704 171.517 128.166 169.088 131.258 165.319C134.816 169.657 140.189 172.22 145.818 172.22C151.448 172.22 156.821 169.657 160.379 165.319C163.937 169.657 169.31 172.22 174.939 172.22C180.569 172.22 185.942 169.657 189.5 165.319C193.058 169.657 198.431 172.22 204.061 172.22C209.69 172.22 215.064 169.657 218.621 165.319C220.929 168.13 224.053 170.254 227.51 171.346C228.666 171.712 229.902 171.07 230.267 169.913C230.633 168.756 229.991 167.521 228.834 167.156C225.955 166.246 223.377 164.402 221.575 161.962C220.886 161.029 219.78 160.472 218.617 160.472C217.458 160.473 216.357 161.027 215.672 161.955C212.961 165.631 208.62 167.826 204.061 167.826C199.501 167.826 195.161 165.631 192.449 161.956C191.763 161.026 190.661 160.471 189.5 160.471C188.339 160.471 187.237 161.026 186.551 161.956C183.84 165.631 179.499 167.826 174.939 167.826C170.38 167.826 166.04 165.631 163.328 161.956C162.627 161.006 161.553 160.462 160.379 160.462C159.206 160.462 158.131 161.006 157.43 161.956C154.719 165.631 150.378 167.826 145.819 167.826C141.259 167.826 136.919 165.631 134.207 161.956C133.507 161.006 132.432 160.461 131.258 160.461C130.084 160.461 129.01 161.006 128.309 161.956C126.038 165.034 122.623 167.068 118.895 167.649V144.076L141.026 152.512C147.804 155.096 154.913 156.367 161.995 156.367C173.489 156.367 184.91 153.016 194.708 146.49C195.779 145.808 196.901 145.153 198.053 144.528C199.259 146.089 201.148 147.097 203.27 147.097C206.905 147.097 209.862 144.14 209.862 140.505C209.862 140.243 209.845 139.985 209.815 139.731C222.559 136.13 236.137 137.072 248.288 142.446L260.105 147.673V167.649ZM201.072 140.505C201.072 139.293 202.058 138.307 203.27 138.307C204.481 138.307 205.467 139.293 205.467 140.505C205.467 141.716 204.481 142.702 203.27 142.702C202.058 142.702 201.072 141.716 201.072 140.505ZM260.105 142.868L250.065 138.427C236.718 132.524 221.773 131.582 207.811 135.733C206.628 134.607 205.029 133.913 203.27 133.913C199.713 133.913 196.807 136.745 196.684 140.273C195.177 141.066 193.716 141.91 192.327 142.795C192.315 142.803 192.302 142.812 192.29 142.82C177.631 152.592 159.052 154.68 142.591 148.405L118.895 139.372V135.726C118.895 134.015 119.703 132.476 121.113 131.504C122.522 130.533 124.248 130.326 125.848 130.936L141.025 136.721C147.804 139.305 154.912 140.577 161.995 140.577C173.496 140.576 184.925 137.221 194.727 130.686C202.365 125.594 211.237 122.487 220.383 121.7C229.529 120.913 238.801 122.461 247.196 126.174L260.105 131.883V142.868Z" fill="white"/>
<path d="M233.152 144.167C228.71 144.167 225.096 147.781 225.096 152.224C225.096 156.666 228.71 160.28 233.152 160.28C237.595 160.28 241.209 156.666 241.209 152.224C241.209 147.781 237.595 144.167 233.152 144.167ZM233.152 155.886C231.133 155.886 229.49 154.243 229.49 152.224C229.49 150.204 231.133 148.562 233.152 148.562C235.172 148.562 236.814 150.204 236.814 152.224C236.814 154.243 235.172 155.886 233.152 155.886Z" fill="white"/>
<path d="M137.205 87.0381C141.244 87.0381 144.529 83.7524 144.529 79.7139C144.529 75.6753 141.244 72.3896 137.205 72.3896C133.167 72.3896 129.881 75.6753 129.881 79.7139C129.881 83.7524 133.167 87.0381 137.205 87.0381ZM137.205 76.7842C138.821 76.7842 140.135 78.0984 140.135 79.7139C140.135 81.3293 138.821 82.6436 137.205 82.6436C135.59 82.6436 134.275 81.3293 134.275 79.7139C134.275 78.0984 135.59 76.7842 137.205 76.7842Z" fill="white"/>
<path d="M202.244 71.9502C206.283 71.9502 209.568 68.6646 209.568 64.626C209.568 60.5874 206.283 57.3018 202.244 57.3018C198.206 57.3018 194.92 60.5874 194.92 64.626C194.92 68.6646 198.206 71.9502 202.244 71.9502ZM202.244 61.6963C203.86 61.6963 205.174 63.0105 205.174 64.626C205.174 66.2414 203.86 67.5557 202.244 67.5557C200.629 67.5557 199.314 66.2414 199.314 64.626C199.314 63.0105 200.629 61.6963 202.244 61.6963Z" fill="white"/>
<path d="M233.445 90.5537C237.08 90.5537 240.037 87.5968 240.037 83.9619C240.037 80.3271 237.08 77.3701 233.445 77.3701C229.81 77.3701 226.854 80.3271 226.854 83.9619C226.854 87.5968 229.81 90.5537 233.445 90.5537ZM233.445 81.7646C234.657 81.7646 235.643 82.7502 235.643 83.9619C235.643 85.1736 234.657 86.1592 233.445 86.1592C232.234 86.1592 231.248 85.1736 231.248 83.9619C231.248 82.7502 232.234 81.7646 233.445 81.7646Z" fill="white"/>
</g>
<path d="M166.437 234.818C166.437 236.966 166.049 238.822 165.273 240.386C164.498 241.951 163.434 243.157 162.082 244.006C160.729 244.854 159.185 245.278 157.448 245.278C155.711 245.278 154.167 244.854 152.815 244.006C151.462 243.157 150.398 241.951 149.623 240.386C148.847 238.822 148.46 236.966 148.46 234.818C148.46 232.67 148.847 230.814 149.623 229.25C150.398 227.686 151.462 226.479 152.815 225.631C154.167 224.782 155.711 224.358 157.448 224.358C159.185 224.358 160.729 224.782 162.082 225.631C163.434 226.479 164.498 227.686 165.273 229.25C166.049 230.814 166.437 232.67 166.437 234.818ZM164.05 234.818C164.05 233.055 163.755 231.567 163.165 230.354C162.582 229.141 161.79 228.223 160.789 227.599C159.795 226.976 158.681 226.665 157.448 226.665C156.215 226.665 155.098 226.976 154.097 227.599C153.103 228.223 152.311 229.141 151.721 230.354C151.138 231.567 150.846 233.055 150.846 234.818C150.846 236.581 151.138 238.07 151.721 239.283C152.311 240.496 153.103 241.414 154.097 242.037C155.098 242.66 156.215 242.972 157.448 242.972C158.681 242.972 159.795 242.66 160.789 242.037C161.79 241.414 162.582 240.496 163.165 239.283C163.755 238.07 164.05 236.581 164.05 234.818ZM176.469 245.318C175.038 245.318 173.805 244.98 172.771 244.304C171.737 243.628 170.941 242.696 170.384 241.51C169.827 240.323 169.549 238.968 169.549 237.443C169.549 235.892 169.834 234.523 170.404 233.337C170.981 232.143 171.783 231.212 172.81 230.543C173.844 229.866 175.051 229.528 176.43 229.528C177.504 229.528 178.471 229.727 179.333 230.125C180.195 230.523 180.901 231.08 181.451 231.795C182.001 232.511 182.343 233.347 182.475 234.301H180.129C179.95 233.605 179.552 232.989 178.935 232.452C178.326 231.908 177.504 231.636 176.469 231.636C175.555 231.636 174.753 231.875 174.063 232.352C173.38 232.823 172.847 233.489 172.462 234.351C172.085 235.206 171.896 236.21 171.896 237.364C171.896 238.544 172.081 239.571 172.452 240.446C172.83 241.321 173.361 242 174.043 242.484C174.733 242.968 175.541 243.21 176.469 243.21C177.079 243.21 177.633 243.104 178.13 242.892C178.627 242.68 179.048 242.375 179.393 241.977C179.737 241.58 179.983 241.102 180.129 240.545H182.475C182.343 241.447 182.014 242.259 181.491 242.982C180.974 243.697 180.288 244.268 179.433 244.692C178.584 245.109 177.596 245.318 176.469 245.318ZM192.309 245.318C190.837 245.318 189.568 244.993 188.501 244.344C187.44 243.688 186.621 242.773 186.045 241.599C185.475 240.42 185.19 239.047 185.19 237.483C185.19 235.919 185.475 234.54 186.045 233.347C186.621 232.147 187.424 231.212 188.451 230.543C189.485 229.866 190.692 229.528 192.07 229.528C192.866 229.528 193.651 229.661 194.427 229.926C195.202 230.191 195.908 230.622 196.545 231.219C197.181 231.809 197.688 232.591 198.066 233.565C198.444 234.54 198.633 235.74 198.633 237.165V238.159H186.86V236.131H196.246C196.246 235.269 196.074 234.5 195.729 233.824C195.391 233.148 194.907 232.614 194.278 232.223C193.655 231.832 192.919 231.636 192.07 231.636C191.136 231.636 190.327 231.868 189.644 232.332C188.968 232.79 188.448 233.386 188.083 234.122C187.719 234.858 187.536 235.647 187.536 236.489V237.841C187.536 238.994 187.735 239.972 188.133 240.774C188.537 241.57 189.097 242.176 189.813 242.594C190.529 243.005 191.361 243.21 192.309 243.21C192.925 243.21 193.482 243.124 193.979 242.952C194.483 242.773 194.917 242.508 195.282 242.156C195.647 241.798 195.928 241.354 196.127 240.824L198.394 241.46C198.156 242.229 197.754 242.905 197.191 243.489C196.628 244.065 195.932 244.516 195.103 244.841C194.274 245.159 193.343 245.318 192.309 245.318ZM206.697 245.358C205.729 245.358 204.851 245.176 204.062 244.811C203.273 244.44 202.647 243.906 202.183 243.21C201.719 242.508 201.487 241.659 201.487 240.665C201.487 239.79 201.659 239.08 202.004 238.537C202.348 237.987 202.809 237.556 203.386 237.244C203.962 236.933 204.599 236.701 205.295 236.548C205.997 236.389 206.703 236.263 207.413 236.17C208.341 236.051 209.093 235.962 209.67 235.902C210.253 235.836 210.677 235.726 210.942 235.574C211.214 235.421 211.35 235.156 211.35 234.778V234.699C211.35 233.718 211.082 232.955 210.545 232.412C210.014 231.868 209.209 231.597 208.129 231.597C207.008 231.597 206.13 231.842 205.494 232.332C204.857 232.823 204.41 233.347 204.151 233.903L201.924 233.108C202.322 232.18 202.852 231.457 203.515 230.94C204.184 230.417 204.914 230.052 205.702 229.847C206.498 229.634 207.28 229.528 208.049 229.528C208.54 229.528 209.103 229.588 209.739 229.707C210.382 229.82 211.002 230.055 211.599 230.413C212.202 230.771 212.702 231.312 213.1 232.034C213.498 232.757 213.697 233.724 213.697 234.938V245H211.35V242.932H211.231C211.072 243.263 210.807 243.618 210.435 243.996C210.064 244.374 209.57 244.695 208.954 244.96C208.337 245.225 207.585 245.358 206.697 245.358ZM207.055 243.25C207.983 243.25 208.765 243.068 209.401 242.703C210.044 242.339 210.528 241.868 210.853 241.291C211.184 240.714 211.35 240.108 211.35 239.472V237.324C211.251 237.443 211.032 237.553 210.694 237.652C210.362 237.745 209.978 237.828 209.54 237.901C209.11 237.967 208.689 238.027 208.278 238.08C207.873 238.126 207.545 238.166 207.293 238.199C206.683 238.278 206.113 238.408 205.583 238.587C205.059 238.759 204.635 239.021 204.31 239.372C203.992 239.717 203.833 240.187 203.833 240.784C203.833 241.599 204.135 242.216 204.738 242.634C205.348 243.045 206.12 243.25 207.055 243.25ZM220.326 235.812V245H217.98V229.727H220.247V232.114H220.446C220.804 231.338 221.347 230.715 222.076 230.244C222.806 229.767 223.747 229.528 224.9 229.528C225.934 229.528 226.839 229.741 227.615 230.165C228.39 230.582 228.993 231.219 229.424 232.074C229.855 232.922 230.071 233.996 230.071 235.295V245H227.724V235.455C227.724 234.255 227.413 233.32 226.789 232.651C226.166 231.974 225.311 231.636 224.224 231.636C223.475 231.636 222.806 231.799 222.216 232.124C221.632 232.448 221.172 232.922 220.833 233.545C220.495 234.169 220.326 234.924 220.326 235.812Z" fill="white"/>
<defs>
<clipPath id="clip0_91_893">
<rect width="150" height="150" fill="white" transform="translate(114.5 48)"/>
</clipPath>
</defs>
</svg>
