<svg width="379" height="300" viewBox="0 0 379 300" fill="none" xmlns="http://www.w3.org/2000/svg">
<rect x="1" y="1" width="377" height="298" rx="11" stroke="white" stroke-width="2"/>
<g clip-path="url(#clip0_91_903)">
<path d="M260.252 142.239V134.968C260.252 133.754 259.268 132.77 258.055 132.77C256.841 132.77 255.857 133.754 255.857 134.968V141.559H248.094V137.897C248.094 135.07 245.794 132.77 242.967 132.77H136.033C133.206 132.77 130.906 135.07 130.906 137.897V141.559H123.436V121.051H253.66C254.872 121.051 255.857 122.037 255.857 123.249V124.714C255.857 125.927 256.841 126.911 258.055 126.911C259.268 126.911 260.252 125.927 260.252 124.714V123.249C260.252 119.614 257.295 116.657 253.66 116.657H252.239L229.954 75.2389L244.608 69.038C246.362 68.2956 247.248 66.3675 246.67 64.5532L245.729 61.6004C245.127 59.7125 243.749 58.1556 241.948 57.3289C240.148 56.5024 238.068 56.4719 236.245 57.2463L124.842 104.537C121.318 106.033 119.041 109.473 119.041 113.301V142.11C116.379 143.208 114.5 145.83 114.5 148.883C114.5 152.922 117.786 156.208 121.824 156.208H132.85L135.305 183.953C135.576 187.009 138.093 189.313 141.16 189.313C144.228 189.313 146.745 187.009 147.015 183.953L149.47 156.208H155.125C156.339 156.208 157.322 155.224 157.322 154.01C157.322 152.797 156.339 151.813 155.125 151.813H121.824C120.209 151.813 118.895 150.499 118.895 148.883C118.895 147.268 120.209 145.954 121.824 145.954H257.176C258.791 145.954 260.105 147.268 260.105 148.883C260.105 150.499 258.791 151.813 257.176 151.813H165.379C164.166 151.813 163.182 152.797 163.182 154.01C163.182 155.224 164.166 156.208 165.379 156.208H229.53L231.985 183.953C232.256 187.009 234.772 189.313 237.84 189.313C240.907 189.313 243.424 187.009 243.695 183.953L246.15 156.208H257.176C261.214 156.208 264.5 152.922 264.5 148.883C264.5 145.943 262.758 143.404 260.252 142.239ZM142.638 183.566C142.569 184.337 141.934 184.919 141.16 184.919C140.386 184.919 139.751 184.337 139.683 183.566L137.262 156.208H145.059L142.638 183.566ZM239.317 183.566C239.249 184.337 238.614 184.919 237.84 184.919C237.066 184.919 236.431 184.337 236.362 183.566L233.941 156.208H241.738L239.317 183.566ZM243.699 137.897V141.559H231.98V137.165H242.967C243.371 137.165 243.699 137.493 243.699 137.897ZM227.586 141.559H215.867V137.165H227.586V141.559ZM211.473 141.559H199.754V137.165H211.473V141.559ZM195.359 141.559H183.641V137.165H195.359V141.559ZM179.246 141.559H167.527V137.165H179.246V141.559ZM163.133 141.559H151.414V137.165H163.133V141.559ZM135.301 137.897C135.301 137.493 135.629 137.165 136.033 137.165H147.02V141.559H135.301V137.897ZM168.379 116.657L169.677 112.763C169.776 112.464 170.056 112.262 170.371 112.262H208.629C208.945 112.262 209.224 112.464 209.324 112.763L210.622 116.657H168.379ZM247.249 116.657H215.254L213.493 111.373C212.794 109.277 210.839 107.868 208.629 107.868H170.371C168.161 107.868 166.207 109.277 165.508 111.373L163.747 116.657H132.07L225.889 76.9587L247.249 116.657ZM123.436 113.301C123.436 111.24 124.662 109.388 126.559 108.582L237.962 61.2916C238.299 61.1483 238.652 61.0768 239.004 61.0768C239.381 61.0768 239.758 61.1589 240.115 61.3226C240.804 61.6393 241.311 62.2118 241.542 62.9348L242.28 65.251L226.038 72.1235C226.038 72.1238 226.037 72.1241 226.036 72.1247L123.436 115.539V113.301Z" fill="white"/>
</g>
<path d="M155.325 245V224.636H162.206C163.804 224.636 165.109 224.925 166.124 225.501C167.144 226.071 167.9 226.844 168.391 227.818C168.881 228.793 169.126 229.88 169.126 231.08C169.126 232.279 168.881 233.37 168.391 234.351C167.907 235.332 167.158 236.114 166.143 236.697C165.129 237.274 163.83 237.562 162.246 237.562H157.314V235.375H162.166C163.26 235.375 164.138 235.186 164.801 234.808C165.464 234.43 165.945 233.92 166.243 233.277C166.548 232.627 166.7 231.895 166.7 231.08C166.7 230.264 166.548 229.535 166.243 228.892C165.945 228.249 165.461 227.745 164.791 227.381C164.122 227.009 163.233 226.824 162.126 226.824H157.791V245H155.325ZM172.781 245V229.727H175.127V245H172.781ZM173.974 227.182C173.516 227.182 173.122 227.026 172.79 226.714C172.466 226.403 172.303 226.028 172.303 225.591C172.303 225.153 172.466 224.779 172.79 224.467C173.122 224.156 173.516 224 173.974 224C174.431 224 174.822 224.156 175.147 224.467C175.478 224.779 175.644 225.153 175.644 225.591C175.644 226.028 175.478 226.403 175.147 226.714C174.822 227.026 174.431 227.182 173.974 227.182ZM183.919 245.358C182.952 245.358 182.073 245.176 181.284 244.811C180.496 244.44 179.869 243.906 179.405 243.21C178.941 242.508 178.709 241.659 178.709 240.665C178.709 239.79 178.882 239.08 179.226 238.537C179.571 237.987 180.032 237.556 180.608 237.244C181.185 236.933 181.821 236.701 182.517 236.548C183.22 236.389 183.926 236.263 184.635 236.17C185.563 236.051 186.316 235.962 186.892 235.902C187.476 235.836 187.9 235.726 188.165 235.574C188.437 235.421 188.573 235.156 188.573 234.778V234.699C188.573 233.718 188.304 232.955 187.767 232.412C187.237 231.868 186.432 231.597 185.351 231.597C184.231 231.597 183.353 231.842 182.716 232.332C182.08 232.823 181.632 233.347 181.374 233.903L179.147 233.108C179.544 232.18 180.075 231.457 180.738 230.94C181.407 230.417 182.136 230.052 182.925 229.847C183.721 229.634 184.503 229.528 185.272 229.528C185.762 229.528 186.326 229.588 186.962 229.707C187.605 229.82 188.225 230.055 188.821 230.413C189.425 230.771 189.925 231.312 190.323 232.034C190.721 232.757 190.919 233.724 190.919 234.938V245H188.573V242.932H188.453C188.294 243.263 188.029 243.618 187.658 243.996C187.287 244.374 186.793 244.695 186.176 244.96C185.56 245.225 184.808 245.358 183.919 245.358ZM184.277 243.25C185.205 243.25 185.988 243.068 186.624 242.703C187.267 242.339 187.751 241.868 188.076 241.291C188.407 240.714 188.573 240.108 188.573 239.472V237.324C188.473 237.443 188.255 237.553 187.917 237.652C187.585 237.745 187.201 237.828 186.763 237.901C186.332 237.967 185.911 238.027 185.5 238.08C185.096 238.126 184.768 238.166 184.516 238.199C183.906 238.278 183.336 238.408 182.806 238.587C182.282 238.759 181.858 239.021 181.533 239.372C181.215 239.717 181.056 240.187 181.056 240.784C181.056 241.599 181.357 242.216 181.961 242.634C182.57 243.045 183.343 243.25 184.277 243.25ZM197.549 235.812V245H195.202V229.727H197.469V232.114H197.668C198.026 231.338 198.57 230.715 199.299 230.244C200.028 229.767 200.969 229.528 202.123 229.528C203.157 229.528 204.062 229.741 204.837 230.165C205.613 230.582 206.216 231.219 206.647 232.074C207.078 232.922 207.293 233.996 207.293 235.295V245H204.947V235.455C204.947 234.255 204.635 233.32 204.012 232.651C203.389 231.974 202.534 231.636 201.447 231.636C200.698 231.636 200.028 231.799 199.438 232.124C198.855 232.448 198.394 232.922 198.056 233.545C197.718 234.169 197.549 234.924 197.549 235.812ZM217.786 245.318C216.407 245.318 215.197 244.99 214.157 244.334C213.123 243.678 212.314 242.759 211.73 241.58C211.154 240.4 210.865 239.021 210.865 237.443C210.865 235.852 211.154 234.464 211.73 233.277C212.314 232.09 213.123 231.169 214.157 230.513C215.197 229.857 216.407 229.528 217.786 229.528C219.165 229.528 220.371 229.857 221.405 230.513C222.446 231.169 223.255 232.09 223.831 233.277C224.415 234.464 224.706 235.852 224.706 237.443C224.706 239.021 224.415 240.4 223.831 241.58C223.255 242.759 222.446 243.678 221.405 244.334C220.371 244.99 219.165 245.318 217.786 245.318ZM217.786 243.21C218.833 243.21 219.695 242.942 220.371 242.405C221.047 241.868 221.548 241.162 221.873 240.287C222.197 239.412 222.36 238.464 222.36 237.443C222.36 236.422 222.197 235.471 221.873 234.589C221.548 233.708 221.047 232.995 220.371 232.452C219.695 231.908 218.833 231.636 217.786 231.636C216.739 231.636 215.877 231.908 215.201 232.452C214.525 232.995 214.024 233.708 213.699 234.589C213.374 235.471 213.212 236.422 213.212 237.443C213.212 238.464 213.374 239.412 213.699 240.287C214.024 241.162 214.525 241.868 215.201 242.405C215.877 242.942 216.739 243.21 217.786 243.21Z" fill="white"/>
<defs>
<clipPath id="clip0_91_903">
<rect width="150" height="150" fill="white" transform="translate(114.5 48)"/>
</clipPath>
</defs>
</svg>
