<svg width="379" height="300" viewBox="0 0 379 300" fill="none" xmlns="http://www.w3.org/2000/svg">
<rect x="1" y="1" width="377" height="298" rx="11" stroke="white" stroke-width="2"/>
<g clip-path="url(#clip0_91_1066)">
<path d="M263.355 124.875C267.654 107.925 259.346 93.207 242.151 82.1811C227.334 72.7505 206.336 67.7824 185.803 68.4947V59.9368C185.202 44.112 162.512 44.1175 161.914 59.9371C161.914 59.9368 161.914 71.7596 161.914 71.7596C159.537 72.3573 157.209 73.0323 154.939 73.7838V68.4331C154.339 52.6083 131.648 52.6136 131.05 68.4334C131.05 68.4331 131.05 86.2713 131.05 86.2713C117.82 96.8481 111.82 110.221 115.645 124.875C114.122 130.38 114.122 136.201 115.623 141.688C111.667 157.115 118.546 170.956 133.158 181.759C134.248 182.45 135.271 182.287 136.227 181.272C136.94 180.29 136.721 178.916 135.739 178.203C126.54 171.526 118.722 161.495 118.9 149.627C144.525 191.91 234.463 191.923 260.1 149.627C260.301 163.034 250.537 173.79 239.812 180.533C215.098 196.699 171.687 197.749 145.03 183.82C142.428 182.604 140.476 186.319 143.055 187.746C171.043 202.43 216.144 201.206 242.151 184.253C259.301 173.246 267.619 158.603 263.377 141.688C264.878 136.202 264.878 130.378 263.355 124.875ZM166.309 59.9368C166.69 49.9323 181.032 49.9399 181.409 59.9368V68.7141C176.239 69.0648 171.184 69.7489 166.309 70.7535V59.9368ZM181.409 73.1184V79.021C171.793 79.7719 162.736 81.8562 154.939 85.1135V78.4219C163.067 75.5821 172.029 73.7782 181.409 73.1184ZM154.939 98.3985L181.409 91.1119V96.0213L154.939 103.308V98.3985ZM181.409 86.5538L154.939 93.8404V89.9048C162.577 86.4413 171.669 84.2193 181.409 83.4268V86.5538ZM135.445 68.4331C135.826 58.4295 150.167 58.435 150.545 68.4331V75.3629C145.268 77.4117 140.167 79.9606 135.445 83.0884V68.4331ZM134.479 89.1677C139.654 85.6596 144.735 82.4869 150.545 80.0927V87.1426C138.874 92.8627 130.657 102.662 130.946 112.329C132.414 136.755 165.952 145.959 189.5 145.952C204.922 145.952 219.455 142.584 230.421 136.469C255.758 122.712 252.922 98.0607 226.596 86.2356C223.909 85.0933 222.153 88.9102 224.737 90.2174C247.798 100.69 250.518 120.485 228.28 132.631C217.958 138.387 204.185 141.557 189.5 141.557C174.815 141.557 161.042 138.387 150.72 132.631C130.427 121.672 130.299 103.162 150.545 92.1265V111.223C150.545 112.436 151.528 113.42 152.742 113.42C153.956 113.42 154.939 112.436 154.939 111.223V107.866L181.409 100.579V103.312C181.409 104.526 182.392 105.509 183.606 105.509C184.82 105.509 185.803 104.526 185.803 103.312V83.1693C195.524 82.794 205.565 83.8912 214.324 86.3885C215.493 86.7187 216.706 86.039 217.036 84.8709C217.366 83.7031 216.686 82.489 215.518 82.1594C206.367 79.5525 195.936 78.3964 185.803 78.7729V72.8923C215.828 71.6984 258.412 84.7402 260.108 116.406C260.107 127.849 252.899 138.683 239.811 146.911C213.502 164.211 165.498 164.212 139.189 146.91C114.623 132.017 111.742 106.153 134.479 89.1677ZM239.811 163.799C213.501 181.099 165.498 181.099 139.189 163.798C128.427 157.033 118.626 146.205 118.903 132.745C144.532 175.022 234.455 175.034 260.098 132.745C260.371 146.205 250.575 157.032 239.811 163.799Z" fill="white"/>
<path d="M211.796 128.91C210.211 128.91 209.541 128.49 208.528 127.855C204.996 125.638 200.856 125.634 197.318 127.855C196.305 128.49 195.635 128.91 194.049 128.91C192.463 128.91 191.793 128.49 190.78 127.854C187.247 125.638 183.108 125.634 179.569 127.854C178.555 128.49 177.886 128.91 176.299 128.91C173.4 129.007 173.382 133.202 176.299 133.305C179.15 133.305 180.677 132.347 181.905 131.577C183.326 130.685 187.023 130.685 188.444 131.577C189.671 132.347 191.198 133.305 194.049 133.305C196.9 133.305 198.427 132.347 199.654 131.577C201.075 130.685 204.771 130.685 206.192 131.577C207.419 132.347 208.945 133.305 211.796 133.305C214.694 133.21 214.714 129.014 211.796 128.91Z" fill="white"/>
<path d="M215.067 117.681C214.054 118.317 213.384 118.737 211.798 118.737C210.211 118.737 209.542 118.317 208.528 117.681C204.996 115.464 200.856 115.461 197.317 117.681C196.304 118.317 195.634 118.737 194.048 118.737C191.139 118.837 191.139 123.031 194.048 123.131C196.899 123.131 198.426 122.173 199.653 121.403C201.075 120.511 204.771 120.511 206.192 121.403C209.347 123.707 214.257 123.702 217.403 121.403C218.824 120.511 222.519 120.511 223.941 121.403C225.168 122.173 226.694 123.132 229.545 123.132C232.454 123.031 232.454 118.837 229.545 118.737C227.959 118.737 227.29 118.317 226.276 117.681C222.744 115.464 218.605 115.461 215.067 117.681Z" fill="white"/>
</g>
<path d="M163.132 245V224.636H170.013C171.61 224.636 172.916 224.925 173.93 225.501C174.951 226.071 175.707 226.844 176.197 227.818C176.688 228.793 176.933 229.88 176.933 231.08C176.933 232.279 176.688 233.37 176.197 234.351C175.713 235.332 174.964 236.114 173.95 236.697C172.936 237.274 171.637 237.562 170.052 237.562H165.121V235.375H169.973C171.067 235.375 171.945 235.186 172.608 234.808C173.271 234.43 173.751 233.92 174.05 233.277C174.354 232.627 174.507 231.895 174.507 231.08C174.507 230.264 174.354 229.535 174.05 228.892C173.751 228.249 173.267 227.745 172.598 227.381C171.928 227.009 171.04 226.824 169.933 226.824H165.598V245H163.132ZM186.628 245.318C185.249 245.318 184.039 244.99 182.998 244.334C181.964 243.678 181.156 242.759 180.572 241.58C179.996 240.4 179.707 239.021 179.707 237.443C179.707 235.852 179.996 234.464 180.572 233.277C181.156 232.09 181.964 231.169 182.998 230.513C184.039 229.857 185.249 229.528 186.628 229.528C188.006 229.528 189.213 229.857 190.247 230.513C191.288 231.169 192.096 232.09 192.673 233.277C193.256 234.464 193.548 235.852 193.548 237.443C193.548 239.021 193.256 240.4 192.673 241.58C192.096 242.759 191.288 243.678 190.247 244.334C189.213 244.99 188.006 245.318 186.628 245.318ZM186.628 243.21C187.675 243.21 188.537 242.942 189.213 242.405C189.889 241.868 190.39 241.162 190.714 240.287C191.039 239.412 191.202 238.464 191.202 237.443C191.202 236.422 191.039 235.471 190.714 234.589C190.39 233.708 189.889 232.995 189.213 232.452C188.537 231.908 187.675 231.636 186.628 231.636C185.58 231.636 184.719 231.908 184.042 232.452C183.366 232.995 182.866 233.708 182.541 234.589C182.216 235.471 182.054 236.422 182.054 237.443C182.054 238.464 182.216 239.412 182.541 240.287C182.866 241.162 183.366 241.868 184.042 242.405C184.719 242.942 185.58 243.21 186.628 243.21ZM203.335 245.318C201.956 245.318 200.746 244.99 199.705 244.334C198.671 243.678 197.863 242.759 197.279 241.58C196.703 240.4 196.414 239.021 196.414 237.443C196.414 235.852 196.703 234.464 197.279 233.277C197.863 232.09 198.671 231.169 199.705 230.513C200.746 229.857 201.956 229.528 203.335 229.528C204.713 229.528 205.92 229.857 206.954 230.513C207.995 231.169 208.803 232.09 209.38 233.277C209.963 234.464 210.255 235.852 210.255 237.443C210.255 239.021 209.963 240.4 209.38 241.58C208.803 242.759 207.995 243.678 206.954 244.334C205.92 244.99 204.713 245.318 203.335 245.318ZM203.335 243.21C204.382 243.21 205.244 242.942 205.92 242.405C206.596 241.868 207.097 241.162 207.421 240.287C207.746 239.412 207.909 238.464 207.909 237.443C207.909 236.422 207.746 235.471 207.421 234.589C207.097 233.708 206.596 232.995 205.92 232.452C205.244 231.908 204.382 231.636 203.335 231.636C202.287 231.636 201.426 231.908 200.749 232.452C200.073 232.995 199.573 233.708 199.248 234.589C198.923 235.471 198.761 236.422 198.761 237.443C198.761 238.464 198.923 239.412 199.248 240.287C199.573 241.162 200.073 241.868 200.749 242.405C201.426 242.942 202.287 243.21 203.335 243.21ZM216.184 224.636V245H213.837V224.636H216.184Z" fill="white"/>
<defs>
<clipPath id="clip0_91_1066">
<rect width="150" height="150" fill="white" transform="translate(114.5 48)"/>
</clipPath>
</defs>
</svg>
