<svg width="379" height="300" viewBox="0 0 379 300" fill="none" xmlns="http://www.w3.org/2000/svg">
<rect x="1" y="1" width="377" height="298" rx="11" stroke="white" stroke-width="2"/>
<g clip-path="url(#clip0_91_913)">
<path d="M262.303 185.181H236.145V170.692C239.829 170.085 243.077 167.977 245.123 164.867C246.968 165.796 249.002 166.279 251.114 166.279C258.495 166.279 264.5 160.274 264.5 152.893C264.5 147.673 261.464 142.999 256.88 140.811C257.255 139.562 257.449 138.259 257.449 136.953C257.449 130.993 253.525 125.853 248.003 124.159C248.068 123.626 248.1 123.087 248.1 122.546C248.1 121.087 247.863 119.647 247.396 118.264C247.008 117.114 245.76 116.498 244.612 116.885C243.462 117.274 242.845 118.52 243.233 119.67C243.546 120.599 243.705 121.567 243.705 122.546C243.705 123.451 243.571 124.344 243.308 125.2C243.116 125.823 243.21 126.499 243.565 127.045C243.92 127.591 244.499 127.952 245.146 128.03C249.655 128.57 253.055 132.406 253.055 136.953C253.055 138.403 252.718 139.79 252.054 141.075C251.748 141.666 251.727 142.364 251.996 142.973C252.265 143.582 252.796 144.036 253.439 144.207C257.364 145.254 260.105 148.826 260.105 152.893C260.105 157.851 256.072 161.884 251.114 161.884C249.113 161.884 247.218 161.239 245.633 160.018C245.091 159.6 244.385 159.459 243.724 159.636C243.063 159.813 242.522 160.287 242.261 160.92C241.153 163.602 238.868 165.525 236.145 166.207V150.891L243.012 144.025C243.87 143.166 243.87 141.775 243.012 140.917C242.154 140.059 240.762 140.059 239.904 140.917L236.145 144.676V133.122C236.145 131.908 235.162 130.924 233.948 130.924C232.734 130.924 231.751 131.908 231.751 133.122V149.734L227.992 145.975C227.133 145.117 225.742 145.117 224.884 145.975C224.026 146.833 224.026 148.225 224.884 149.083L231.751 155.949V166.208C229.26 165.584 227.129 163.92 225.927 161.553C225.653 161.012 225.167 160.609 224.586 160.438C224.005 160.268 223.379 160.345 222.856 160.652C221.482 161.458 219.912 161.884 218.315 161.884C213.808 161.884 210.065 158.551 209.422 154.22C216.859 153.464 222.682 147.166 222.682 139.533C222.682 136.06 221.463 132.807 219.387 130.242C220.75 129.032 222.463 128.247 224.283 128.029C224.93 127.952 225.51 127.591 225.864 127.045C226.219 126.498 226.313 125.822 226.121 125.2C225.857 124.343 225.723 123.45 225.723 122.546C225.723 117.588 229.757 113.554 234.714 113.554C235.596 113.554 236.47 113.683 237.312 113.937C238.474 114.288 239.7 113.63 240.051 112.468C240.401 111.306 239.743 110.08 238.581 109.73C237.327 109.351 236.026 109.16 234.714 109.16C227.333 109.16 221.328 115.165 221.328 122.546C221.328 123.088 221.361 123.628 221.426 124.163C219.452 124.774 217.635 125.841 216.133 127.268C215.481 126.83 214.791 126.44 214.067 126.108C214.525 124.664 214.764 123.148 214.764 121.63C214.764 114.978 210.331 109.253 204.128 107.455C204.218 106.792 204.263 106.122 204.263 105.449C204.263 97.3089 197.641 90.686 189.5 90.686C181.359 90.686 174.737 97.3086 174.737 105.449C174.737 106.124 174.782 106.795 174.873 107.458C173.432 107.879 172.052 108.521 170.801 109.357C169.793 110.032 169.522 111.397 170.196 112.405C170.871 113.414 172.235 113.685 173.244 113.01C174.592 112.108 176.151 111.53 177.752 111.339C178.399 111.261 178.979 110.901 179.333 110.354C179.688 109.808 179.783 109.133 179.591 108.51C179.286 107.521 179.132 106.491 179.132 105.449C179.132 99.7314 183.783 95.0803 189.5 95.0803C195.218 95.0803 199.869 99.7314 199.869 105.449C199.869 106.491 199.715 107.521 199.41 108.51C199.218 109.133 199.312 109.808 199.667 110.354C200.023 110.901 200.601 111.262 201.248 111.339C206.448 111.961 210.369 116.385 210.369 121.629C210.369 123.302 209.981 124.901 209.215 126.383C208.909 126.974 208.888 127.672 209.157 128.281C209.426 128.89 209.957 129.343 210.6 129.515C215.127 130.723 218.288 134.842 218.288 139.532C218.288 145.249 213.637 149.901 207.919 149.901C205.611 149.901 203.425 149.156 201.598 147.748C201.056 147.33 200.35 147.189 199.689 147.366C199.028 147.543 198.487 148.017 198.226 148.65C196.904 151.853 194.125 154.121 190.837 154.828V137.171L198.628 129.38C199.486 128.522 199.486 127.13 198.628 126.273C197.77 125.415 196.379 125.415 195.521 126.273L190.837 130.957V117.326C190.837 116.112 189.854 115.129 188.64 115.129C187.426 115.129 186.443 116.112 186.443 117.326V136.637L181.759 131.953C180.901 131.096 179.51 131.095 178.652 131.954C177.794 132.812 177.794 134.203 178.652 135.061L186.443 142.852V154.831C183.426 154.183 180.831 152.217 179.391 149.38C179.116 148.839 178.631 148.436 178.05 148.266C177.469 148.095 176.842 148.173 176.32 148.479C174.736 149.409 172.924 149.901 171.083 149.901C165.365 149.901 160.714 145.249 160.714 139.532C160.714 134.842 163.875 130.723 168.402 129.515C169.045 129.343 169.575 128.889 169.845 128.281C170.114 127.672 170.093 126.974 169.787 126.383C169.021 124.901 168.632 123.302 168.632 121.629C168.632 121.141 168.667 120.649 168.735 120.166C168.904 118.965 168.067 117.853 166.865 117.685C165.662 117.516 164.552 118.353 164.383 119.555C164.287 120.239 164.238 120.937 164.238 121.629C164.238 123.148 164.476 124.663 164.935 126.107C164.21 126.439 163.52 126.829 162.868 127.267C161.367 125.84 159.55 124.773 157.576 124.162C157.641 123.627 157.673 123.087 157.673 122.545C157.673 115.164 151.668 109.159 144.287 109.159C136.906 109.159 130.901 115.164 130.901 122.545C130.901 123.086 130.933 123.625 130.998 124.158C125.476 125.852 121.552 130.992 121.552 136.952C121.552 138.258 121.746 139.561 122.121 140.81C117.536 142.999 114.5 147.672 114.5 152.893C114.5 155.935 115.497 158.804 117.385 161.19C117.818 161.738 118.461 162.024 119.11 162.024C119.587 162.024 120.068 161.87 120.471 161.55C121.423 160.798 121.584 159.416 120.831 158.464C119.564 156.862 118.895 154.936 118.895 152.893C118.895 148.826 121.636 145.254 125.561 144.207C126.204 144.036 126.735 143.582 127.004 142.973C127.273 142.364 127.252 141.666 126.946 141.075C126.282 139.79 125.945 138.403 125.945 136.953C125.945 132.406 129.345 128.57 133.854 128.03C134.501 127.952 135.08 127.591 135.435 127.045C135.79 126.499 135.884 125.823 135.692 125.2C135.428 124.343 135.294 123.45 135.294 122.546C135.294 117.588 139.328 113.555 144.286 113.555C149.243 113.555 153.277 117.588 153.277 122.546C153.277 123.45 153.143 124.343 152.879 125.2C152.687 125.823 152.781 126.499 153.136 127.045C153.491 127.591 154.07 127.952 154.717 128.03C156.537 128.248 158.25 129.032 159.613 130.242C157.537 132.807 156.318 136.06 156.318 139.533C156.318 147.166 162.141 153.465 169.578 154.22C168.935 158.551 165.192 161.885 160.685 161.885C158.684 161.885 156.789 161.239 155.204 160.019C154.663 159.6 153.956 159.459 153.296 159.636C152.635 159.813 152.093 160.287 151.832 160.92C150.724 163.602 148.439 165.526 145.716 166.208V150.891L152.583 144.025C153.441 143.166 153.441 141.775 152.583 140.917C151.725 140.059 150.334 140.059 149.475 140.917L145.716 144.676V133.122C145.716 131.908 144.733 130.925 143.519 130.925C142.305 130.925 141.322 131.908 141.322 133.122V149.734L137.563 145.975C136.704 145.118 135.313 145.118 134.455 145.975C133.597 146.834 133.597 148.225 134.455 149.083L141.322 155.95V166.208C138.831 165.585 136.7 163.92 135.498 161.553C135.224 161.012 134.739 160.609 134.157 160.439C133.577 160.268 132.95 160.346 132.427 160.652C131.193 161.376 129.779 161.797 128.338 161.868C127.126 161.928 126.192 162.96 126.252 164.171C126.312 165.384 127.345 166.316 128.555 166.257C129.977 166.187 131.381 165.888 132.703 165.38C134.771 168.225 137.857 170.124 141.322 170.694V185.181H116.697C115.483 185.181 114.5 186.165 114.5 187.379C114.5 188.592 115.483 189.576 116.697 189.576H262.303C263.517 189.576 264.5 188.592 264.5 187.379C264.5 186.165 263.517 185.181 262.303 185.181ZM201.095 152.628C202.32 153.27 203.624 153.726 204.978 153.999C205.542 160.864 211.306 166.279 218.314 166.279C219.968 166.279 221.603 165.972 223.133 165.381C225.2 168.225 228.286 170.124 231.75 170.694V185.181H190.837V159.291C195.072 158.66 198.807 156.233 201.095 152.628ZM145.717 170.691C149.4 170.084 152.648 167.976 154.694 164.867C156.54 165.796 158.573 166.279 160.686 166.279C167.694 166.279 173.458 160.863 174.022 153.997C174.899 153.818 175.76 153.563 176.591 153.229C178.914 156.522 182.461 158.7 186.442 159.291V185.181H145.717V170.691Z" fill="white"/>
<path d="M251.817 107.956C255.124 107.956 258.086 106.246 259.739 103.383C261.392 100.519 261.392 97.0995 259.739 94.2357L254.315 84.8411C253.801 83.952 252.844 83.3994 251.817 83.3994C251.817 83.3994 251.817 83.3994 251.817 83.3994C250.79 83.3997 249.833 83.9525 249.32 84.8417L243.896 94.2357C242.242 97.0995 242.242 100.519 243.896 103.383C245.549 106.246 248.511 107.956 251.817 107.956ZM247.701 96.433L251.817 89.3042L255.933 96.433C256.793 97.921 256.793 99.6976 255.933 101.185C255.074 102.673 253.536 103.562 251.817 103.562C250.099 103.562 248.561 102.673 247.702 101.186C246.842 99.6973 246.842 97.9207 247.701 96.433Z" fill="white"/>
<path d="M127.183 107.956C130.489 107.956 133.451 106.246 135.104 103.383C136.758 100.519 136.758 97.0998 135.104 94.2357L129.68 84.842C129.167 83.9525 128.21 83.3997 127.183 83.3994C127.183 83.3994 127.183 83.3994 127.183 83.3994C126.156 83.3994 125.199 83.952 124.685 84.8411C124.685 84.8414 124.685 84.8414 124.685 84.8417L119.261 94.2357C117.608 97.0992 117.608 100.519 119.261 103.383C120.914 106.246 123.876 107.956 127.183 107.956ZM123.067 96.433L127.183 89.3042L131.299 96.433C132.158 97.9207 132.158 99.6976 131.298 101.186C130.439 102.673 128.901 103.562 127.183 103.562C125.464 103.562 123.926 102.673 123.067 101.185C122.208 99.6973 122.208 97.921 123.067 96.433Z" fill="white"/>
<path d="M157.07 92.3226C160.377 92.3226 163.338 90.6128 164.991 87.7493C166.645 84.8855 166.645 81.466 164.992 78.602L159.568 69.2082C159.054 68.3187 158.098 67.7659 157.071 67.7656C157.07 67.7656 157.07 67.7656 157.07 67.7656C156.043 67.7656 155.086 68.3182 154.573 69.2073C154.573 69.2076 154.572 69.2076 154.572 69.2079L149.149 78.602C147.495 81.4657 147.495 84.8853 149.149 87.7493C150.802 90.6128 153.763 92.3226 157.07 92.3226ZM152.954 80.7992L157.07 73.6704L161.186 80.7992C162.045 82.2872 162.045 84.0641 161.186 85.552C160.327 87.0397 158.788 87.928 157.07 87.928C155.352 87.928 153.813 87.0397 152.955 85.552C152.095 84.0638 152.095 82.2872 152.954 80.7992Z" fill="white"/>
<path d="M221.93 92.3229C225.237 92.3229 228.198 90.6131 229.851 87.7496C231.505 84.8858 231.505 81.4663 229.851 78.6022L224.428 69.2073C223.914 68.3182 222.957 67.7656 221.93 67.7656C221.93 67.7656 221.93 67.7656 221.93 67.7656C220.903 67.7659 219.946 68.3187 219.433 69.2079L214.009 78.602C212.355 81.4657 212.355 84.8853 214.009 87.7493C215.662 90.6131 218.623 92.3229 221.93 92.3229ZM217.814 80.7995L221.93 73.6707L226.046 80.7995C226.905 82.2875 226.905 84.0644 226.046 85.5523C225.187 87.04 223.648 87.9283 221.93 87.9283C220.212 87.9283 218.674 87.04 217.815 85.5523C216.955 84.0641 216.955 82.2875 217.814 80.7995Z" fill="white"/>
<path d="M189.5 80.9808C192.807 80.9808 195.768 79.271 197.421 76.4075C199.075 73.5437 199.075 70.1242 197.422 67.2602L191.998 57.8655C191.484 56.9764 190.527 56.4238 189.5 56.4238C188.473 56.4238 187.516 56.9764 187.002 57.8655C187.002 57.8658 187.002 57.8658 187.002 57.8661L181.578 67.2602C179.925 70.1239 179.925 73.5435 181.579 76.4075C183.232 79.271 186.193 80.9808 189.5 80.9808ZM185.384 69.4574L189.5 62.3283L193.616 69.4574C194.475 70.9454 194.475 72.7223 193.616 74.2103C192.757 75.6979 191.218 76.5862 189.5 76.5862C187.782 76.5862 186.243 75.6979 185.384 74.2103C184.525 72.722 184.525 70.9454 185.384 69.4574Z" fill="white"/>
</g>
<path d="M122.075 245V224.636H128.956C130.547 224.636 131.853 224.908 132.874 225.452C133.894 225.989 134.65 226.728 135.141 227.669C135.631 228.61 135.876 229.681 135.876 230.881C135.876 232.08 135.631 233.144 135.141 234.072C134.65 235 133.898 235.73 132.884 236.26C131.869 236.784 130.573 237.045 128.996 237.045H123.428V234.818H128.916C130.003 234.818 130.878 234.659 131.541 234.341C132.211 234.023 132.695 233.572 132.993 232.989C133.298 232.399 133.45 231.696 133.45 230.881C133.45 230.065 133.298 229.353 132.993 228.743C132.688 228.133 132.201 227.662 131.531 227.331C130.862 226.993 129.977 226.824 128.876 226.824H124.541V245H122.075ZM131.661 235.852L136.672 245H133.808L128.876 235.852H131.661ZM144.162 245.358C143.194 245.358 142.315 245.176 141.527 244.811C140.738 244.44 140.111 243.906 139.647 243.21C139.183 242.508 138.951 241.659 138.951 240.665C138.951 239.79 139.124 239.08 139.468 238.537C139.813 237.987 140.274 237.556 140.85 237.244C141.427 236.933 142.064 236.701 142.76 236.548C143.462 236.389 144.168 236.263 144.877 236.17C145.806 236.051 146.558 235.962 147.135 235.902C147.718 235.836 148.142 235.726 148.407 235.574C148.679 235.421 148.815 235.156 148.815 234.778V234.699C148.815 233.718 148.547 232.955 148.01 232.412C147.479 231.868 146.674 231.597 145.593 231.597C144.473 231.597 143.595 231.842 142.958 232.332C142.322 232.823 141.875 233.347 141.616 233.903L139.389 233.108C139.787 232.18 140.317 231.457 140.98 230.94C141.649 230.417 142.378 230.052 143.167 229.847C143.963 229.634 144.745 229.528 145.514 229.528C146.004 229.528 146.568 229.588 147.204 229.707C147.847 229.82 148.467 230.055 149.064 230.413C149.667 230.771 150.167 231.312 150.565 232.034C150.963 232.757 151.162 233.724 151.162 234.938V245H148.815V242.932H148.696C148.537 243.263 148.271 243.618 147.9 243.996C147.529 244.374 147.035 244.695 146.419 244.96C145.802 245.225 145.05 245.358 144.162 245.358ZM144.52 243.25C145.448 243.25 146.23 243.068 146.866 242.703C147.509 242.339 147.993 241.868 148.318 241.291C148.649 240.714 148.815 240.108 148.815 239.472V237.324C148.716 237.443 148.497 237.553 148.159 237.652C147.827 237.745 147.443 237.828 147.005 237.901C146.574 237.967 146.154 238.027 145.743 238.08C145.338 238.126 145.01 238.166 144.758 238.199C144.148 238.278 143.578 238.408 143.048 238.587C142.524 238.759 142.1 239.021 141.775 239.372C141.457 239.717 141.298 240.187 141.298 240.784C141.298 241.599 141.6 242.216 142.203 242.634C142.813 243.045 143.585 243.25 144.52 243.25ZM155.445 245V229.727H157.791V245H155.445ZM156.638 227.182C156.18 227.182 155.786 227.026 155.455 226.714C155.13 226.403 154.967 226.028 154.967 225.591C154.967 225.153 155.13 224.779 155.455 224.467C155.786 224.156 156.18 224 156.638 224C157.095 224 157.486 224.156 157.811 224.467C158.143 224.779 158.308 225.153 158.308 225.591C158.308 226.028 158.143 226.403 157.811 226.714C157.486 227.026 157.095 227.182 156.638 227.182ZM164.436 235.812V245H162.089V229.727H164.356V232.114H164.555C164.913 231.338 165.457 230.715 166.186 230.244C166.915 229.767 167.856 229.528 169.01 229.528C170.044 229.528 170.949 229.741 171.724 230.165C172.5 230.582 173.103 231.219 173.534 232.074C173.965 232.922 174.18 233.996 174.18 235.295V245H171.833V235.455C171.833 234.255 171.522 233.32 170.899 232.651C170.276 231.974 169.421 231.636 168.333 231.636C167.584 231.636 166.915 231.799 166.325 232.124C165.742 232.448 165.281 232.922 164.943 233.545C164.605 234.169 164.436 234.924 164.436 235.812ZM178.786 245V224.636H190.996V226.824H181.252V233.705H190.082V235.892H181.252V245H178.786ZM199.985 245.318C198.606 245.318 197.397 244.99 196.356 244.334C195.322 243.678 194.513 242.759 193.93 241.58C193.353 240.4 193.065 239.021 193.065 237.443C193.065 235.852 193.353 234.464 193.93 233.277C194.513 232.09 195.322 231.169 196.356 230.513C197.397 229.857 198.606 229.528 199.985 229.528C201.364 229.528 202.57 229.857 203.604 230.513C204.645 231.169 205.454 232.09 206.031 233.277C206.614 234.464 206.906 235.852 206.906 237.443C206.906 239.021 206.614 240.4 206.031 241.58C205.454 242.759 204.645 243.678 203.604 244.334C202.57 244.99 201.364 245.318 199.985 245.318ZM199.985 243.21C201.032 243.21 201.894 242.942 202.57 242.405C203.246 241.868 203.747 241.162 204.072 240.287C204.397 239.412 204.559 238.464 204.559 237.443C204.559 236.422 204.397 235.471 204.072 234.589C203.747 233.708 203.246 232.995 202.57 232.452C201.894 231.908 201.032 231.636 199.985 231.636C198.938 231.636 198.076 231.908 197.4 232.452C196.724 232.995 196.223 233.708 195.898 234.589C195.574 235.471 195.411 236.422 195.411 237.443C195.411 238.464 195.574 239.412 195.898 240.287C196.223 241.162 196.724 241.868 197.4 242.405C198.076 242.942 198.938 243.21 199.985 243.21ZM210.488 245V229.727H212.755V232.034H212.914C213.192 231.278 213.696 230.665 214.425 230.195C215.154 229.724 215.976 229.489 216.891 229.489C217.063 229.489 217.279 229.492 217.537 229.499C217.796 229.505 217.991 229.515 218.124 229.528V231.915C218.044 231.895 217.862 231.865 217.577 231.825C217.299 231.779 217.004 231.756 216.692 231.756C215.95 231.756 215.287 231.911 214.703 232.223C214.127 232.528 213.669 232.952 213.331 233.496C213 234.033 212.834 234.646 212.834 235.335V245H210.488ZM226.844 245.318C225.373 245.318 224.103 244.993 223.036 244.344C221.975 243.688 221.157 242.773 220.58 241.599C220.01 240.42 219.725 239.047 219.725 237.483C219.725 235.919 220.01 234.54 220.58 233.347C221.157 232.147 221.959 231.212 222.986 230.543C224.02 229.866 225.227 229.528 226.605 229.528C227.401 229.528 228.186 229.661 228.962 229.926C229.738 230.191 230.444 230.622 231.08 231.219C231.716 231.809 232.223 232.591 232.601 233.565C232.979 234.54 233.168 235.74 233.168 237.165V238.159H221.395V236.131H230.782C230.782 235.269 230.609 234.5 230.265 233.824C229.926 233.148 229.443 232.614 228.813 232.223C228.19 231.832 227.454 231.636 226.605 231.636C225.671 231.636 224.862 231.868 224.179 232.332C223.503 232.79 222.983 233.386 222.618 234.122C222.254 234.858 222.071 235.647 222.071 236.489V237.841C222.071 238.994 222.27 239.972 222.668 240.774C223.072 241.57 223.632 242.176 224.348 242.594C225.064 243.005 225.896 243.21 226.844 243.21C227.461 243.21 228.017 243.124 228.515 242.952C229.018 242.773 229.453 242.508 229.817 242.156C230.182 241.798 230.463 241.354 230.662 240.824L232.929 241.46C232.691 242.229 232.29 242.905 231.726 243.489C231.163 244.065 230.467 244.516 229.638 244.841C228.81 245.159 227.878 245.318 226.844 245.318ZM247.556 233.148L245.448 233.744C245.315 233.393 245.12 233.052 244.861 232.72C244.609 232.382 244.265 232.104 243.827 231.885C243.39 231.666 242.829 231.557 242.147 231.557C241.212 231.557 240.433 231.772 239.81 232.203C239.194 232.627 238.885 233.168 238.885 233.824C238.885 234.407 239.097 234.868 239.522 235.206C239.946 235.544 240.609 235.826 241.51 236.051L243.777 236.608C245.143 236.939 246.16 237.446 246.83 238.129C247.499 238.805 247.834 239.677 247.834 240.744C247.834 241.619 247.582 242.402 247.078 243.091C246.581 243.78 245.885 244.324 244.99 244.722C244.096 245.119 243.055 245.318 241.868 245.318C240.31 245.318 239.021 244.98 238 244.304C236.98 243.628 236.333 242.64 236.061 241.341L238.289 240.784C238.501 241.606 238.902 242.223 239.492 242.634C240.088 243.045 240.867 243.25 241.828 243.25C242.922 243.25 243.791 243.018 244.434 242.554C245.083 242.083 245.408 241.52 245.408 240.864C245.408 240.333 245.222 239.889 244.851 239.531C244.48 239.167 243.91 238.895 243.141 238.716L240.596 238.119C239.197 237.788 238.169 237.274 237.513 236.578C236.864 235.875 236.539 234.997 236.539 233.943C236.539 233.081 236.781 232.319 237.265 231.656C237.755 230.993 238.421 230.473 239.263 230.095C240.112 229.717 241.073 229.528 242.147 229.528C243.658 229.528 244.845 229.86 245.706 230.523C246.575 231.186 247.191 232.061 247.556 233.148ZM258.009 229.727V231.716H250.094V229.727H258.009ZM252.401 226.068H254.747V240.625C254.747 241.288 254.843 241.785 255.036 242.116C255.234 242.441 255.486 242.66 255.791 242.773C256.103 242.879 256.431 242.932 256.776 242.932C257.034 242.932 257.246 242.919 257.412 242.892C257.578 242.859 257.71 242.832 257.81 242.812L258.287 244.92C258.128 244.98 257.906 245.04 257.621 245.099C257.336 245.166 256.974 245.199 256.537 245.199C255.874 245.199 255.224 245.056 254.588 244.771C253.958 244.486 253.435 244.052 253.017 243.469C252.606 242.885 252.401 242.15 252.401 241.261V226.068Z" fill="white"/>
<defs>
<clipPath id="clip0_91_913">
<rect width="150" height="150" fill="white" transform="translate(114.5 48)"/>
</clipPath>
</defs>
</svg>
