<svg width="379" height="300" viewBox="0 0 379 300" fill="none" xmlns="http://www.w3.org/2000/svg">
<rect x="1" y="1" width="377" height="298" rx="11" stroke="white" stroke-width="2"/>
<g clip-path="url(#clip0_91_986)">
<path d="M241.97 114.151L236.745 102.848C236.236 101.747 234.931 101.267 233.829 101.776C232.727 102.285 232.247 103.591 232.757 104.692L237.12 114.132H180.249C179.035 114.132 178.052 115.115 178.052 116.329C178.052 117.542 179.035 118.526 180.249 118.526H241.492C242.56 118.526 243.43 119.395 243.43 120.463V125.008C243.43 126.077 242.56 126.946 241.492 126.946H162.405C161.337 126.946 160.468 126.077 160.468 125.008V120.463C160.468 119.395 161.337 118.526 162.405 118.526H170.887C172.1 118.526 173.083 117.542 173.083 116.329C173.083 115.115 172.1 114.132 170.887 114.132H166.777L177.463 91.0163C177.915 90.0374 178.904 89.405 179.983 89.405H223.915C224.993 89.405 225.982 90.0374 226.435 91.0163L228.827 96.1914C229.336 97.2922 230.641 97.7726 231.743 97.2635C232.845 96.7544 233.325 95.4488 232.815 94.3474L230.423 89.1724C229.255 86.6445 226.7 85.0111 223.915 85.0111H209.215C208.152 64.423 191.071 48 170.224 48C148.693 48 131.176 65.5168 131.176 87.0478V158.789C131.176 160.003 132.159 160.986 133.373 160.986C134.587 160.986 135.57 160.003 135.57 158.789V87.0478C135.57 67.9396 151.116 52.3938 170.224 52.3938C188.648 52.3938 203.758 66.8472 204.816 85.0108H198.946C197.898 70.0797 185.417 58.2523 170.224 58.2523C154.346 58.2523 141.428 71.1699 141.428 87.0478V195.803C141.428 197.017 142.412 198 143.625 198C144.839 198 145.822 197.017 145.822 195.803V87.0478C145.822 73.5927 156.769 62.6461 170.224 62.6461C182.992 62.6461 193.495 72.5059 194.534 85.0108H179.983C177.198 85.0108 174.643 86.6442 173.474 89.1721L161.927 114.151C158.658 114.397 156.073 117.133 156.073 120.463V125.008C156.073 128.499 158.913 131.34 162.405 131.34H241.492C244.983 131.34 247.823 128.499 247.823 125.008V120.463C247.824 117.133 245.239 114.397 241.97 114.151Z" fill="white"/>
<path d="M133.373 165.955C132.159 165.955 131.176 166.938 131.176 168.152V195.803C131.176 197.016 132.159 198 133.373 198C134.587 198 135.57 197.016 135.57 195.803V168.152C135.57 166.938 134.587 165.955 133.373 165.955Z" fill="white"/>
<path d="M170.224 140.378C169.01 140.378 168.027 141.361 168.027 142.575V153.38C168.027 154.593 169.01 155.577 170.224 155.577C171.438 155.577 172.421 154.593 172.421 153.38V142.575C172.421 141.362 171.437 140.378 170.224 140.378Z" fill="white"/>
<path d="M170.224 163.096C169.01 163.096 168.027 164.08 168.027 165.293V195.803C168.027 197.017 169.01 198 170.224 198C171.438 198 172.421 197.017 172.421 195.803V165.293C172.421 164.08 171.437 163.096 170.224 163.096Z" fill="white"/>
<path d="M187.69 151.183C186.477 151.183 185.493 152.166 185.493 153.38V178.4C185.493 179.613 186.477 180.597 187.69 180.597C188.904 180.597 189.887 179.613 189.887 178.4V153.38C189.887 152.166 188.904 151.183 187.69 151.183Z" fill="white"/>
<path d="M233.673 140.378C232.46 140.378 231.476 141.361 231.476 142.575V153.38C231.476 154.593 232.46 155.577 233.673 155.577C234.887 155.577 235.87 154.593 235.87 153.38V142.575C235.87 141.362 234.887 140.378 233.673 140.378Z" fill="white"/>
<path d="M233.673 163.096C232.46 163.096 231.476 164.08 231.476 165.293V195.803C231.476 197.017 232.46 198 233.673 198C234.887 198 235.87 197.017 235.87 195.803V165.293C235.87 164.08 234.887 163.096 233.673 163.096Z" fill="white"/>
<path d="M216.207 151.183C214.993 151.183 214.01 152.166 214.01 153.38V178.4C214.01 179.613 214.993 180.597 216.207 180.597C217.42 180.597 218.404 179.613 218.404 178.4V153.38C218.404 152.166 217.42 151.183 216.207 151.183Z" fill="white"/>
<path d="M201.949 138.993C200.735 138.993 199.752 139.977 199.752 141.19V165.89C199.752 167.104 200.735 168.087 201.949 168.087C203.162 168.087 204.146 167.104 204.146 165.89V141.19C204.146 139.977 203.162 138.993 201.949 138.993Z" fill="white"/>
<path d="M201.949 174.732C200.735 174.732 199.752 175.716 199.752 176.929V195.803C199.752 197.017 200.735 198 201.949 198C203.162 198 204.146 197.017 204.146 195.803V176.929C204.146 175.716 203.162 174.732 201.949 174.732Z" fill="white"/>
</g>
<path d="M153.337 229.727C153.217 228.72 152.733 227.938 151.885 227.381C151.036 226.824 149.996 226.545 148.763 226.545C147.861 226.545 147.072 226.691 146.396 226.983C145.727 227.275 145.203 227.676 144.825 228.186C144.454 228.696 144.268 229.277 144.268 229.926C144.268 230.47 144.398 230.937 144.656 231.328C144.921 231.713 145.259 232.034 145.67 232.293C146.081 232.545 146.512 232.753 146.963 232.919C147.414 233.078 147.828 233.207 148.206 233.307L150.274 233.864C150.804 234.003 151.394 234.195 152.044 234.44C152.7 234.686 153.327 235.02 153.923 235.445C154.527 235.862 155.024 236.399 155.415 237.055C155.806 237.712 156.001 238.517 156.001 239.472C156.001 240.572 155.713 241.566 155.136 242.455C154.566 243.343 153.731 244.049 152.631 244.572C151.537 245.096 150.208 245.358 148.643 245.358C147.185 245.358 145.922 245.123 144.855 244.652C143.795 244.181 142.959 243.525 142.349 242.683C141.746 241.841 141.405 240.864 141.325 239.75H143.871C143.937 240.519 144.196 241.155 144.646 241.659C145.104 242.156 145.68 242.527 146.376 242.773C147.079 243.011 147.835 243.131 148.643 243.131C149.585 243.131 150.43 242.978 151.179 242.673C151.928 242.362 152.521 241.931 152.959 241.381C153.396 240.824 153.615 240.174 153.615 239.432C153.615 238.756 153.426 238.205 153.048 237.781C152.67 237.357 152.173 237.012 151.557 236.747C150.94 236.482 150.274 236.25 149.558 236.051L147.053 235.335C145.462 234.878 144.202 234.225 143.274 233.376C142.346 232.528 141.882 231.418 141.882 230.045C141.882 228.905 142.19 227.911 142.807 227.062C143.43 226.207 144.265 225.545 145.312 225.074C146.366 224.597 147.543 224.358 148.842 224.358C150.155 224.358 151.321 224.593 152.342 225.064C153.363 225.528 154.172 226.164 154.768 226.973C155.372 227.782 155.69 228.7 155.723 229.727H153.337ZM162.084 235.812V245H159.738V224.636H162.084V232.114H162.283C162.641 231.325 163.178 230.698 163.894 230.234C164.616 229.764 165.578 229.528 166.777 229.528C167.818 229.528 168.73 229.737 169.512 230.155C170.294 230.566 170.9 231.199 171.331 232.054C171.769 232.902 171.988 233.983 171.988 235.295V245H169.641V235.455C169.641 234.241 169.326 233.304 168.696 232.641C168.073 231.971 167.208 231.636 166.101 231.636C165.332 231.636 164.643 231.799 164.033 232.124C163.43 232.448 162.953 232.922 162.601 233.545C162.257 234.169 162.084 234.924 162.084 235.812ZM182.485 245.318C181.106 245.318 179.897 244.99 178.856 244.334C177.822 243.678 177.013 242.759 176.43 241.58C175.853 240.4 175.565 239.021 175.565 237.443C175.565 235.852 175.853 234.464 176.43 233.277C177.013 232.09 177.822 231.169 178.856 230.513C179.897 229.857 181.106 229.528 182.485 229.528C183.864 229.528 185.07 229.857 186.104 230.513C187.145 231.169 187.954 232.09 188.531 233.277C189.114 234.464 189.406 235.852 189.406 237.443C189.406 239.021 189.114 240.4 188.531 241.58C187.954 242.759 187.145 243.678 186.104 244.334C185.07 244.99 183.864 245.318 182.485 245.318ZM182.485 243.21C183.532 243.21 184.394 242.942 185.07 242.405C185.746 241.868 186.247 241.162 186.572 240.287C186.897 239.412 187.059 238.464 187.059 237.443C187.059 236.422 186.897 235.471 186.572 234.589C186.247 233.708 185.746 232.995 185.07 232.452C184.394 231.908 183.532 231.636 182.485 231.636C181.438 231.636 180.576 231.908 179.9 232.452C179.224 232.995 178.723 233.708 178.398 234.589C178.074 235.471 177.911 236.422 177.911 237.443C177.911 238.464 178.074 239.412 178.398 240.287C178.723 241.162 179.224 241.868 179.9 242.405C180.576 242.942 181.438 243.21 182.485 243.21ZM195.928 245L191.275 229.727H193.741L197.042 241.42H197.201L200.462 229.727H202.968L206.19 241.381H206.349L209.65 229.727H212.116L207.462 245H205.156L201.815 233.267H201.576L198.235 245H195.928ZM221.102 245.318C219.63 245.318 218.361 244.993 217.294 244.344C216.233 243.688 215.414 242.773 214.838 241.599C214.268 240.42 213.983 239.047 213.983 237.483C213.983 235.919 214.268 234.54 214.838 233.347C215.414 232.147 216.217 231.212 217.244 230.543C218.278 229.866 219.484 229.528 220.863 229.528C221.659 229.528 222.444 229.661 223.22 229.926C223.995 230.191 224.701 230.622 225.338 231.219C225.974 231.809 226.481 232.591 226.859 233.565C227.237 234.54 227.426 235.74 227.426 237.165V238.159H215.653V236.131H225.039C225.039 235.269 224.867 234.5 224.522 233.824C224.184 233.148 223.7 232.614 223.071 232.223C222.448 231.832 221.712 231.636 220.863 231.636C219.929 231.636 219.12 231.868 218.437 232.332C217.761 232.79 217.241 233.386 216.876 234.122C216.511 234.858 216.329 235.647 216.329 236.489V237.841C216.329 238.994 216.528 239.972 216.926 240.774C217.33 241.57 217.89 242.176 218.606 242.594C219.322 243.005 220.154 243.21 221.102 243.21C221.718 243.21 222.275 243.124 222.772 242.952C223.276 242.773 223.71 242.508 224.075 242.156C224.44 241.798 224.721 241.354 224.92 240.824L227.187 241.46C226.949 242.229 226.547 242.905 225.984 243.489C225.421 244.065 224.725 244.516 223.896 244.841C223.067 245.159 222.136 245.318 221.102 245.318ZM230.995 245V229.727H233.262V232.034H233.422C233.7 231.278 234.204 230.665 234.933 230.195C235.662 229.724 236.484 229.489 237.399 229.489C237.571 229.489 237.787 229.492 238.045 229.499C238.304 229.505 238.499 229.515 238.632 229.528V231.915C238.552 231.895 238.37 231.865 238.085 231.825C237.806 231.779 237.511 231.756 237.2 231.756C236.458 231.756 235.795 231.911 235.211 232.223C234.635 232.528 234.177 232.952 233.839 233.496C233.508 234.033 233.342 234.646 233.342 235.335V245H230.995Z" fill="white"/>
<defs>
<clipPath id="clip0_91_986">
<rect width="150" height="150" fill="white" transform="translate(114.5 48)"/>
</clipPath>
</defs>
</svg>
