<svg width="379" height="300" viewBox="0 0 379 300" fill="none" xmlns="http://www.w3.org/2000/svg">
<rect x="1" y="1" width="377" height="298" rx="11" stroke="white" stroke-width="2"/>
<g clip-path="url(#clip0_91_992)">
<path d="M262.303 141.603H173.139L168.564 113.779C172.076 114.109 175.07 116.767 175.668 120.406C176.16 123.397 180.439 122.302 180.003 119.691C178.249 109.025 194.059 107.142 195.698 117.113C196.129 119.734 200.525 119.402 200.033 116.4C198.421 106.598 213.305 103.655 215.609 113.24C215.786 116.77 220.696 115.846 219.927 112.407C217.49 98.7018 209.939 86.7103 198.606 78.5782C187.168 70.3699 173.236 67.0738 159.343 69.2744C159.33 69.2762 159.317 69.2782 159.31 69.2794L159.24 69.29C159.238 69.2902 159.236 69.2908 159.234 69.2911C159.184 69.299 159.135 69.3055 159.085 69.3137C159.083 69.314 159.08 69.3143 159.078 69.3148C159.063 69.3169 159.046 69.3195 159.033 69.3216C159.032 69.3216 159.032 69.3216 159.032 69.3219C159.03 69.3222 159.03 69.3222 159.028 69.3225C130.133 74.0729 110.49 101.446 115.241 130.342C115.703 133.154 120.398 132.502 119.916 129.573C119.212 125.291 122.191 121.139 126.473 120.436C130.649 119.748 134.93 122.856 135.61 126.992C136.064 129.754 140.437 129.269 139.945 126.279C138.354 116.597 152.873 113.363 155.465 122.897C156.321 126.049 160.348 126.366 159.919 122.587C159.565 119.477 161.512 115.971 164.245 114.593L168.686 141.603H116.726C115.513 141.603 114.53 142.587 114.53 143.8C114.53 145.013 115.513 145.997 116.726 145.997H169.408L171.681 159.821C167.27 156.774 162.649 154.011 157.579 152.289C150.261 149.803 141.931 149.787 134.124 152.244C126.316 154.7 119.498 159.483 114.926 165.71C114.208 166.688 114.419 168.063 115.397 168.781C116.375 169.498 117.75 169.288 118.468 168.31C122.49 162.83 128.519 158.613 135.442 156.435C142.365 154.256 149.725 154.261 156.165 156.449C162.988 158.767 169.205 163.354 175.217 167.791C183.692 174.044 192.455 180.511 203.299 181.046C203.78 181.069 204.258 181.081 204.735 181.081C210.757 181.081 216.434 179.263 221.335 177.53C222.479 177.125 223.078 175.87 222.674 174.726C222.269 173.582 221.014 172.983 219.87 173.388C214.976 175.119 209.274 176.941 203.515 176.658C193.996 176.188 186.142 170.392 177.826 164.256C177.446 163.975 177.064 163.693 176.682 163.412C176.686 163.273 176.678 163.131 176.654 162.988L173.861 145.997H262.303C263.516 145.997 264.5 145.013 264.5 143.8C264.5 142.587 263.516 141.603 262.303 141.603ZM173.871 110.942C168.908 108.143 162.503 109.148 158.647 113.421C157.456 103.897 156.926 95.012 157.14 87.8014C157.458 77.0867 159.336 73.9062 159.967 73.625C159.968 73.625 159.968 73.625 159.969 73.6248C160.68 73.6945 163.477 76.1171 167.207 86.1649C169.726 92.9522 172.075 101.573 173.999 111.012C173.956 110.988 173.913 110.966 173.871 110.942ZM178.377 110.501C176.331 100.38 173.803 91.1646 171.08 83.9821C169.451 79.6866 167.816 76.2897 166.214 73.872C171.244 74.9956 176.301 78.3055 180.911 83.5858C186.282 89.7369 190.561 97.9833 193.298 107.324C191.006 106.191 188.361 105.807 185.847 106.22C182.807 106.721 180.21 108.301 178.377 110.501ZM212.986 103.873C207.774 101.496 201.42 103.123 197.981 107.749C193.815 92.3761 185.857 80.1499 176.556 73.8099C183.501 75.0969 190.136 77.9077 196.045 82.1479C203.78 87.6991 209.595 95.2112 212.986 103.873ZM127.77 115.935C124.621 115.935 121.166 117.376 118.971 119.61C119.703 102.66 129.305 87.3737 143.855 79.2132C141.456 82.3866 139.426 86.232 137.864 90.6558C136.918 93.3342 141.061 94.797 142.007 92.1186C144.762 84.3163 149.046 78.5963 154.177 75.6649C153.41 78.4625 152.948 82.1989 152.773 86.942C152.488 94.6479 153.047 104.238 154.361 114.537C149.376 111.396 142.766 112.251 138.755 116.581C138.536 111.686 138.781 106.916 139.489 102.326C139.922 99.5193 135.581 98.8482 135.147 101.656C134.34 106.883 134.1 112.322 134.424 117.898C132.479 116.649 130.182 115.935 127.77 115.935Z" fill="white"/>
<path d="M240.153 84.528C246.861 84.528 252.319 79.0704 252.319 72.3619C252.319 65.6533 246.861 60.1958 240.153 60.1958C233.444 60.1958 227.987 65.6533 227.987 72.3619C227.987 79.0704 233.444 84.528 240.153 84.528ZM240.153 64.5898C244.438 64.5898 247.925 68.0763 247.925 72.3622C247.925 76.6481 244.438 80.1346 240.153 80.1346C235.867 80.1346 232.38 76.6481 232.38 72.3622C232.38 68.0763 235.867 64.5898 240.153 64.5898Z" fill="white"/>
<path d="M240.153 57.6098C241.366 57.6098 242.349 56.6262 242.349 55.413V50.2115C242.349 48.9982 241.366 48.0146 240.153 48.0146C238.939 48.0146 237.956 48.9982 237.956 50.2115V55.413C237.956 56.6262 238.939 57.6098 240.153 57.6098Z" fill="white"/>
<path d="M237.956 89.3111V94.5126C237.956 95.7259 238.939 96.7095 240.153 96.7095C241.366 96.7095 242.349 95.7259 242.349 94.5126V89.3111C242.349 88.0979 241.366 87.1143 240.153 87.1143C238.939 87.1143 237.956 88.0979 237.956 89.3111Z" fill="white"/>
<path d="M252.137 62.5741C252.699 62.5741 253.262 62.3597 253.691 61.9306L257.369 58.2525C258.227 57.3946 258.227 56.0035 257.369 55.1459C256.511 54.288 255.12 54.288 254.262 55.1459L250.584 58.824C249.726 59.6819 249.726 61.073 250.584 61.9306C251.013 62.3597 251.575 62.5741 252.137 62.5741Z" fill="white"/>
<path d="M226.615 82.7934L222.936 86.4714C222.078 87.3294 222.078 88.7204 222.936 89.5781C223.365 90.0069 223.928 90.2216 224.49 90.2216C225.052 90.2216 225.614 90.0072 226.043 89.5781L229.721 85.9C230.579 85.042 230.579 83.651 229.721 82.7934C228.863 81.9354 227.472 81.9354 226.615 82.7934Z" fill="white"/>
<path d="M254.905 72.3619C254.905 73.5751 255.888 74.5587 257.102 74.5587H262.303C263.516 74.5587 264.5 73.5751 264.5 72.3619C264.5 71.1486 263.516 70.165 262.303 70.165H257.102C255.888 70.165 254.905 71.1486 254.905 72.3619Z" fill="white"/>
<path d="M218.002 74.5587H223.204C224.417 74.5587 225.4 73.5751 225.4 72.3619C225.4 71.1486 224.417 70.165 223.204 70.165H218.002C216.789 70.165 215.805 71.1486 215.805 72.3619C215.805 73.5751 216.789 74.5587 218.002 74.5587Z" fill="white"/>
<path d="M250.584 82.7934C249.726 83.6513 249.726 85.042 250.584 85.9L254.262 89.5781C254.691 90.0072 255.253 90.2216 255.815 90.2216C256.378 90.2216 256.94 90.0072 257.369 89.5781C258.227 88.7201 258.227 87.3294 257.369 86.4714L253.691 82.7934C252.833 81.9354 251.442 81.9354 250.584 82.7934Z" fill="white"/>
<path d="M226.615 61.9307C227.043 62.3598 227.606 62.5742 228.168 62.5742C228.73 62.5742 229.292 62.3598 229.721 61.9307C230.579 61.0728 230.579 59.6817 229.721 58.8241L226.043 55.146C225.185 54.2878 223.794 54.2881 222.936 55.146C222.078 56.0039 222.078 57.395 222.936 58.2526L226.615 61.9307Z" fill="white"/>
<path d="M124.564 172.69C121.737 172.69 121.733 177.084 124.564 177.084C127.392 177.084 127.396 172.69 124.564 172.69Z" fill="white"/>
<path d="M154.897 184.953C152.07 184.953 152.066 189.347 154.897 189.347C157.725 189.347 157.729 184.953 154.897 184.953Z" fill="white"/>
<path d="M162.54 168.335C159.713 168.335 159.708 172.729 162.54 172.729C165.367 172.729 165.372 168.335 162.54 168.335Z" fill="white"/>
<path d="M220.761 193.592C217.934 193.592 217.929 197.985 220.761 197.985C223.588 197.985 223.593 193.592 220.761 193.592Z" fill="white"/>
<path d="M246.815 181.375C243.987 181.375 243.983 185.769 246.815 185.769C249.642 185.769 249.646 181.375 246.815 181.375Z" fill="white"/>
<path d="M199.717 161.147C198.504 161.147 197.521 162.131 197.521 163.344C197.521 164.558 198.504 165.541 199.717 165.541H216.623C217.837 165.541 218.82 164.558 218.82 163.344C218.82 162.131 217.837 161.147 216.623 161.147H199.717Z" fill="white"/>
<path d="M252.319 154.361C252.319 153.148 251.335 152.165 250.122 152.165H212.337C211.124 152.165 210.14 153.148 210.14 154.361C210.14 155.575 211.124 156.558 212.337 156.558H250.122C251.335 156.558 252.319 155.575 252.319 154.361Z" fill="white"/>
<path d="M263.669 174.971C255.289 167.938 245.458 165.928 233.614 168.827C232.435 169.115 231.714 170.304 232.002 171.483C232.291 172.662 233.48 173.383 234.658 173.095C245.047 170.552 253.613 172.267 260.845 178.336C261.257 178.682 261.758 178.85 262.256 178.85C262.883 178.85 263.506 178.583 263.94 178.066C264.72 177.136 264.599 175.751 263.669 174.971Z" fill="white"/>
</g>
<path d="M148.346 229.727C148.227 228.72 147.743 227.938 146.895 227.381C146.046 226.824 145.006 226.545 143.773 226.545C142.871 226.545 142.082 226.691 141.406 226.983C140.737 227.275 140.213 227.676 139.835 228.186C139.464 228.696 139.278 229.277 139.278 229.926C139.278 230.47 139.407 230.937 139.666 231.328C139.931 231.713 140.269 232.034 140.68 232.293C141.091 232.545 141.522 232.753 141.973 232.919C142.424 233.078 142.838 233.207 143.216 233.307L145.284 233.864C145.814 234.003 146.404 234.195 147.054 234.44C147.71 234.686 148.336 235.02 148.933 235.445C149.536 235.862 150.033 236.399 150.425 237.055C150.816 237.712 151.011 238.517 151.011 239.472C151.011 240.572 150.723 241.566 150.146 242.455C149.576 243.343 148.741 244.049 147.64 244.572C146.547 245.096 145.218 245.358 143.653 245.358C142.195 245.358 140.932 245.123 139.865 244.652C138.804 244.181 137.969 243.525 137.359 242.683C136.756 241.841 136.415 240.864 136.335 239.75H138.881C138.947 240.519 139.205 241.155 139.656 241.659C140.113 242.156 140.69 242.527 141.386 242.773C142.089 243.011 142.845 243.131 143.653 243.131C144.595 243.131 145.44 242.978 146.189 242.673C146.938 242.362 147.531 241.931 147.969 241.381C148.406 240.824 148.625 240.174 148.625 239.432C148.625 238.756 148.436 238.205 148.058 237.781C147.68 237.357 147.183 237.012 146.567 236.747C145.95 236.482 145.284 236.25 144.568 236.051L142.062 235.335C140.471 234.878 139.212 234.225 138.284 233.376C137.356 232.528 136.892 231.418 136.892 230.045C136.892 228.905 137.2 227.911 137.817 227.062C138.44 226.207 139.275 225.545 140.322 225.074C141.376 224.597 142.553 224.358 143.852 224.358C145.165 224.358 146.331 224.593 147.352 225.064C148.373 225.528 149.182 226.164 149.778 226.973C150.381 227.782 150.7 228.7 150.733 229.727H148.346ZM164.372 238.756V229.727H166.719V245H164.372V242.415H164.213C163.855 243.19 163.298 243.85 162.543 244.393C161.787 244.93 160.833 245.199 159.679 245.199C158.725 245.199 157.876 244.99 157.134 244.572C156.391 244.148 155.808 243.512 155.384 242.663C154.959 241.808 154.747 240.731 154.747 239.432V229.727H157.094V239.273C157.094 240.386 157.405 241.275 158.029 241.938C158.658 242.6 159.46 242.932 160.435 242.932C161.018 242.932 161.611 242.783 162.215 242.484C162.825 242.186 163.335 241.729 163.746 241.112C164.164 240.496 164.372 239.71 164.372 238.756ZM171.017 245V229.727H173.284V232.114H173.483C173.801 231.298 174.315 230.665 175.024 230.214C175.733 229.757 176.585 229.528 177.579 229.528C178.587 229.528 179.425 229.757 180.095 230.214C180.771 230.665 181.298 231.298 181.676 232.114H181.835C182.226 231.325 182.813 230.698 183.595 230.234C184.377 229.764 185.315 229.528 186.409 229.528C187.774 229.528 188.891 229.956 189.76 230.811C190.628 231.66 191.062 232.982 191.062 234.778V245H188.716V234.778C188.716 233.652 188.407 232.846 187.791 232.362C187.175 231.878 186.449 231.636 185.613 231.636C184.54 231.636 183.708 231.961 183.118 232.611C182.528 233.254 182.233 234.069 182.233 235.057V245H179.846V234.54C179.846 233.671 179.565 232.972 179.001 232.442C178.438 231.905 177.712 231.636 176.824 231.636C176.214 231.636 175.644 231.799 175.113 232.124C174.59 232.448 174.166 232.899 173.841 233.476C173.523 234.046 173.363 234.705 173.363 235.455V245H171.017ZM195.353 245V229.727H197.62V232.114H197.819C198.137 231.298 198.651 230.665 199.36 230.214C200.069 229.757 200.921 229.528 201.915 229.528C202.923 229.528 203.761 229.757 204.431 230.214C205.107 230.665 205.634 231.298 206.012 232.114H206.171C206.562 231.325 207.149 230.698 207.931 230.234C208.713 229.764 209.651 229.528 210.745 229.528C212.11 229.528 213.227 229.956 214.096 230.811C214.964 231.66 215.398 232.982 215.398 234.778V245H213.052V234.778C213.052 233.652 212.743 232.846 212.127 232.362C211.51 231.878 210.785 231.636 209.949 231.636C208.876 231.636 208.044 231.961 207.454 232.611C206.864 233.254 206.569 234.069 206.569 235.057V245H204.182V234.54C204.182 233.671 203.901 232.972 203.337 232.442C202.774 231.905 202.048 231.636 201.16 231.636C200.55 231.636 199.98 231.799 199.449 232.124C198.926 232.448 198.501 232.899 198.177 233.476C197.858 234.046 197.699 234.705 197.699 235.455V245H195.353ZM226.092 245.318C224.621 245.318 223.351 244.993 222.284 244.344C221.223 243.688 220.405 242.773 219.828 241.599C219.258 240.42 218.973 239.047 218.973 237.483C218.973 235.919 219.258 234.54 219.828 233.347C220.405 232.147 221.207 231.212 222.234 230.543C223.268 229.866 224.475 229.528 225.854 229.528C226.649 229.528 227.434 229.661 228.21 229.926C228.986 230.191 229.692 230.622 230.328 231.219C230.964 231.809 231.471 232.591 231.849 233.565C232.227 234.54 232.416 235.74 232.416 237.165V238.159H220.643V236.131H230.03C230.03 235.269 229.857 234.5 229.513 233.824C229.175 233.148 228.691 232.614 228.061 232.223C227.438 231.832 226.702 231.636 225.854 231.636C224.919 231.636 224.11 231.868 223.427 232.332C222.751 232.79 222.231 233.386 221.866 234.122C221.502 234.858 221.319 235.647 221.319 236.489V237.841C221.319 238.994 221.518 239.972 221.916 240.774C222.32 241.57 222.881 242.176 223.596 242.594C224.312 243.005 225.144 243.21 226.092 243.21C226.709 243.21 227.265 243.124 227.763 242.952C228.266 242.773 228.701 242.508 229.065 242.156C229.43 241.798 229.711 241.354 229.91 240.824L232.177 241.46C231.939 242.229 231.538 242.905 230.974 243.489C230.411 244.065 229.715 244.516 228.886 244.841C228.058 245.159 227.126 245.318 226.092 245.318ZM235.986 245V229.727H238.253V232.034H238.412C238.69 231.278 239.194 230.665 239.923 230.195C240.652 229.724 241.474 229.489 242.389 229.489C242.561 229.489 242.777 229.492 243.035 229.499C243.294 229.505 243.489 229.515 243.622 229.528V231.915C243.542 231.895 243.36 231.865 243.075 231.825C242.797 231.779 242.502 231.756 242.19 231.756C241.448 231.756 240.785 231.911 240.202 232.223C239.625 232.528 239.167 232.952 238.829 233.496C238.498 234.033 238.332 234.646 238.332 235.335V245H235.986Z" fill="white"/>
<defs>
<clipPath id="clip0_91_992">
<rect width="150" height="150" fill="white" transform="translate(114.5 48)"/>
</clipPath>
</defs>
</svg>
