<svg width="379" height="300" viewBox="0 0 379 300" fill="none" xmlns="http://www.w3.org/2000/svg">
<rect x="1" y="1" width="377" height="298" rx="11" stroke="white" stroke-width="2"/>
<g clip-path="url(#clip0_91_356)">
<path d="M170.377 62.6978C171.59 62.6978 172.574 61.714 172.574 60.5005V50.1997C172.574 48.9862 171.59 48.0024 170.377 48.0024C169.163 48.0024 168.18 48.9862 168.18 50.1997V60.5008C168.18 61.714 169.163 62.6978 170.377 62.6978Z" fill="white"/>
<path d="M151.215 66.224C151.813 67.2605 153.181 67.6259 154.216 67.0282C155.267 66.4215 155.627 65.0776 155.02 64.0267L153.001 60.5302C152.395 59.479 151.051 59.1192 150 59.726C148.949 60.3327 148.589 61.6765 149.196 62.7274C149.196 62.7274 151.213 66.2208 151.215 66.224Z" fill="white"/>
<path d="M131.82 92.8223C130.607 92.8223 129.623 93.8061 129.623 95.0195C129.623 96.233 130.607 97.2168 131.82 97.2168H135.858C137.071 97.2168 138.055 96.233 138.055 95.0195C138.055 93.8061 137.071 92.8223 135.858 92.8223H131.82Z" fill="white"/>
<path d="M186.538 67.0283C187.569 67.6236 188.945 67.2544 189.539 66.2241L191.558 62.7275C192.165 61.6766 191.805 60.3328 190.754 59.726C189.702 59.119 188.359 59.4793 187.752 60.5302L185.734 64.0268C185.127 65.0777 185.487 66.4215 186.538 67.0283Z" fill="white"/>
<path d="M130.463 74.5121C130.463 74.5121 139.38 79.6601 139.384 79.6628C140.397 80.2478 141.784 79.9007 142.385 78.8586C142.992 77.8077 142.632 76.4638 141.581 75.8571L132.66 70.7064C131.609 70.0997 130.266 70.4595 129.659 71.5106C129.052 72.5618 129.412 73.9056 130.463 74.5121Z" fill="white"/>
<path d="M260.695 106.333C260.073 105.291 258.724 104.952 257.682 105.575C256.64 106.198 256.301 107.547 256.924 108.588C259.011 112.078 260.111 116.086 260.105 120.178C260.088 132.605 249.828 142.716 237.235 142.716H195.484C195.765 141.343 195.905 139.934 195.898 138.507C195.846 128.661 188.858 120.15 179.246 118.171C178.539 114.644 177.124 111.315 175.115 108.372C175.257 108.332 175.399 108.293 175.542 108.256C177.35 107.787 178.523 106.026 178.27 104.158C176.744 92.9061 181.931 81.4396 191.201 75.0248C196.172 71.5847 202.06 69.7279 208.128 69.6793C215.381 69.621 222.419 72.1683 227.947 76.84C233.41 81.4578 237.082 87.8609 238.285 94.8693C238.551 96.4203 239.772 97.6381 241.322 97.8998C244.69 98.4687 247.939 99.8284 250.719 101.831C251.703 102.541 253.076 102.318 253.786 101.334C254.496 100.349 254.273 98.9758 253.288 98.2663C250.098 95.9668 246.388 94.3768 242.531 93.6517C241.072 85.8107 236.913 78.664 230.783 73.4835C224.454 68.1347 216.392 65.2276 208.095 65.285C200.286 65.3436 192.873 67.9874 186.821 72.8067C182.084 69.3007 176.297 67.3836 170.377 67.3836C155.138 67.3836 142.741 79.7811 142.741 95.0196C142.741 96.2325 142.82 97.4471 142.977 98.6454C133.494 102.507 126.672 111.672 126.26 122.405C126.212 123.663 126.252 124.931 126.377 126.176C123.477 127.101 120.874 128.789 118.834 131.072C118.025 131.977 118.104 133.366 119.009 134.175C119.913 134.983 121.302 134.906 122.111 134C123.676 132.249 125.685 130.969 127.92 130.299C129.795 129.737 130.997 127.93 130.779 126.003C130.651 124.874 130.608 123.72 130.652 122.573C131.098 110.934 140.566 101.5 152.207 101.097C157.609 100.908 162.885 102.671 167.066 106.055C171.187 109.391 173.998 114.079 174.98 119.255C175.286 120.873 176.535 122.121 178.161 122.435C190.798 124.876 195.757 140.989 186.693 150.1C183.482 153.328 179.237 155.106 174.74 155.106H171.176L171.261 154.965C172.559 152.815 172.596 150.226 171.362 148.039C170.128 145.853 167.892 144.547 165.38 144.547H159.32L169.286 123.075C169.992 121.554 169.874 119.802 168.972 118.388C168.07 116.975 166.53 116.131 164.853 116.131H151.833C149.939 116.131 148.199 117.241 147.401 118.958L132.391 151.253C131.818 152.487 131.503 153.792 131.442 155.102C124.593 154.919 118.998 149.395 118.896 142.631C118.893 142.445 118.895 142.259 118.9 142.075C118.933 140.862 117.977 139.851 116.764 139.817C115.544 139.78 114.54 140.74 114.507 141.953C114.368 146.924 116.503 151.754 120.206 155.067C123.375 157.902 127.54 159.501 131.793 159.501H132.22C132.446 160.043 132.721 160.57 133.044 161.077C134.935 164.041 138.163 165.81 141.678 165.81H148.327L140.92 194.325C140.557 195.722 141.259 197.143 142.59 197.703C143.91 198.258 145.428 197.77 146.173 196.536L168.525 159.501H174.741C180.334 159.501 185.826 157.204 189.81 153.2C191.604 151.396 193.03 149.336 194.049 147.111H237.235C252.249 147.111 264.48 135.032 264.5 120.184C264.506 115.296 263.191 110.506 260.695 106.333ZM173.601 100.356C173.612 101.628 173.693 102.907 173.842 104.166C173.266 104.333 172.696 104.524 172.136 104.738C171.412 103.998 170.643 103.297 169.832 102.64C164.828 98.5891 158.513 96.4821 152.056 96.7053C150.412 96.7622 148.805 96.9696 147.247 97.3141C147.173 96.553 147.136 95.786 147.136 95.0196C147.136 82.2043 157.562 71.7781 170.377 71.7781C175.06 71.7781 179.644 73.2043 183.486 75.8266C177.029 82.4568 173.52 91.1606 173.601 100.356ZM167.499 152.695L147.791 185.35L153.294 164.165C153.465 163.507 153.321 162.807 152.905 162.269C152.489 161.731 151.847 161.416 151.167 161.416H141.677C139.641 161.416 137.844 160.431 136.749 158.714C136.398 158.164 136.146 157.581 135.993 156.981C135.977 156.872 135.953 156.765 135.921 156.661C135.692 155.484 135.841 154.256 136.376 153.106L151.387 120.811C151.467 120.638 151.643 120.526 151.833 120.526H164.853C165.076 120.526 165.202 120.65 165.268 120.754C165.334 120.857 165.394 121.023 165.3 121.226L153.885 145.82C153.569 146.5 153.623 147.295 154.026 147.927C154.43 148.56 155.128 148.942 155.878 148.942H165.381C166.685 148.942 167.322 149.822 167.536 150.2C167.749 150.578 168.173 151.579 167.499 152.695Z" fill="white"/>
<path d="M198.197 169.951C197.097 169.44 195.79 169.917 195.278 171.018L185.367 192.342C184.855 193.442 185.333 194.749 186.433 195.26C187.521 195.766 188.845 195.284 189.352 194.194L199.263 172.87C199.775 171.77 199.298 170.463 198.197 169.951Z" fill="white"/>
<path d="M171.902 179.058C170.802 178.546 169.495 179.024 168.984 180.124L162.125 194.879C161.614 195.979 162.091 197.286 163.192 197.798C164.276 198.302 165.607 197.814 166.11 196.731L172.969 181.976C173.48 180.876 173.003 179.569 171.902 179.058Z" fill="white"/>
<path d="M204.912 155.285C203.812 154.773 202.505 155.251 201.994 156.351L199.25 162.254C198.738 163.354 199.216 164.661 200.317 165.173C201.399 165.676 202.723 165.207 203.235 164.106C203.236 164.104 205.978 158.204 205.978 158.204C206.49 157.103 206.012 155.797 204.912 155.285Z" fill="white"/>
<path d="M182.725 166.296C181.624 165.784 180.317 166.262 179.806 167.363L177.062 173.265C176.551 174.366 177.028 175.672 178.129 176.184C179.216 176.689 180.523 176.246 181.048 175.117C181.049 175.116 183.791 169.215 183.791 169.215C184.303 168.114 183.825 166.808 182.725 166.296Z" fill="white"/>
<path d="M237.376 150.57C236.275 150.058 234.969 150.536 234.457 151.637L224.545 172.96C224.034 174.061 224.511 175.367 225.612 175.879C226.693 176.382 228.029 175.892 228.53 174.813L238.442 153.489C238.954 152.389 238.476 151.082 237.376 150.57Z" fill="white"/>
<path d="M223.037 180.658C221.936 180.146 220.63 180.624 220.118 181.724L217.374 187.626C216.863 188.727 217.34 190.033 218.441 190.545C219.527 191.05 220.861 190.551 221.36 189.479L224.103 183.576C224.615 182.476 224.137 181.169 223.037 180.658Z" fill="white"/>
<path d="M130.399 163.965C129.298 163.453 127.992 163.931 127.48 165.031L124.736 170.934C124.225 172.034 124.702 173.341 125.802 173.852C126.847 174.338 128.213 173.879 128.721 172.786L131.465 166.884C131.977 165.783 131.499 164.477 130.399 163.965Z" fill="white"/>
<path d="M123.712 178.515C122.611 178.004 121.305 178.481 120.793 179.582L119.154 183.11C118.642 184.21 119.12 185.517 120.22 186.028C121.316 186.538 122.628 186.061 123.139 184.962L124.778 181.434C125.29 180.334 124.812 179.027 123.712 178.515Z" fill="white"/>
<path d="M219.72 162.919L221.36 159.391C221.871 158.291 221.394 156.984 220.293 156.473C219.193 155.961 217.886 156.438 217.375 157.539L215.735 161.067C215.223 162.167 215.701 163.474 216.801 163.986C217.884 164.489 219.219 163.997 219.72 162.919Z" fill="white"/>
</g>
<path d="M97.1726 226.824V224.636H112.445V226.824H106.042V245H103.576V226.824H97.1726ZM118.279 235.812V245H115.933V224.636H118.279V232.114H118.478C118.836 231.325 119.373 230.698 120.089 230.234C120.812 229.764 121.773 229.528 122.973 229.528C124.013 229.528 124.925 229.737 125.707 230.155C126.489 230.566 127.096 231.199 127.527 232.054C127.964 232.902 128.183 233.983 128.183 235.295V245H125.836V235.455C125.836 234.241 125.521 233.304 124.892 232.641C124.269 231.971 123.404 231.636 122.297 231.636C121.528 231.636 120.838 231.799 120.228 232.124C119.625 232.448 119.148 232.922 118.797 233.545C118.452 234.169 118.279 234.924 118.279 235.812ZM142.101 238.756V229.727H144.447V245H142.101V242.415H141.942C141.584 243.19 141.027 243.85 140.271 244.393C139.516 244.93 138.561 245.199 137.408 245.199C136.453 245.199 135.605 244.99 134.862 244.572C134.12 244.148 133.536 243.512 133.112 242.663C132.688 241.808 132.476 240.731 132.476 239.432V229.727H134.822V239.273C134.822 240.386 135.134 241.275 135.757 241.938C136.387 242.6 137.189 242.932 138.163 242.932C138.747 242.932 139.34 242.783 139.943 242.484C140.553 242.186 141.063 241.729 141.474 241.112C141.892 240.496 142.101 239.71 142.101 238.756ZM151.092 235.812V245H148.745V229.727H151.012V232.114H151.211C151.569 231.338 152.113 230.715 152.842 230.244C153.571 229.767 154.512 229.528 155.666 229.528C156.7 229.528 157.605 229.741 158.38 230.165C159.156 230.582 159.759 231.219 160.19 232.074C160.621 232.922 160.836 233.996 160.836 235.295V245H158.49V235.455C158.49 234.255 158.178 233.32 157.555 232.651C156.932 231.974 156.077 231.636 154.99 231.636C154.241 231.636 153.571 231.799 152.981 232.124C152.398 232.448 151.937 232.922 151.599 233.545C151.261 234.169 151.092 234.924 151.092 235.812ZM170.891 245.318C169.619 245.318 168.495 244.997 167.521 244.354C166.546 243.704 165.784 242.789 165.234 241.609C164.683 240.423 164.408 239.021 164.408 237.403C164.408 235.799 164.683 234.407 165.234 233.227C165.784 232.047 166.549 231.136 167.531 230.493C168.512 229.85 169.645 229.528 170.931 229.528C171.925 229.528 172.711 229.694 173.288 230.026C173.871 230.35 174.315 230.722 174.62 231.139C174.932 231.55 175.174 231.888 175.346 232.153H175.545V224.636H177.891V245H175.624V242.653H175.346C175.174 242.932 174.928 243.283 174.61 243.707C174.292 244.125 173.838 244.5 173.248 244.831C172.658 245.156 171.872 245.318 170.891 245.318ZM171.21 243.21C172.151 243.21 172.946 242.965 173.596 242.474C174.246 241.977 174.739 241.291 175.077 240.416C175.415 239.535 175.585 238.517 175.585 237.364C175.585 236.223 175.419 235.226 175.087 234.371C174.756 233.509 174.265 232.839 173.616 232.362C172.966 231.878 172.164 231.636 171.21 231.636C170.215 231.636 169.387 231.892 168.724 232.402C168.067 232.906 167.574 233.592 167.242 234.46C166.917 235.322 166.755 236.29 166.755 237.364C166.755 238.451 166.921 239.438 167.252 240.327C167.59 241.208 168.087 241.911 168.744 242.435C169.406 242.952 170.228 243.21 171.21 243.21ZM188.918 245.318C187.447 245.318 186.177 244.993 185.11 244.344C184.049 243.688 183.231 242.773 182.654 241.599C182.084 240.42 181.799 239.047 181.799 237.483C181.799 235.919 182.084 234.54 182.654 233.347C183.231 232.147 184.033 231.212 185.06 230.543C186.094 229.866 187.301 229.528 188.68 229.528C189.475 229.528 190.261 229.661 191.036 229.926C191.812 230.191 192.518 230.622 193.154 231.219C193.79 231.809 194.298 232.591 194.675 233.565C195.053 234.54 195.242 235.74 195.242 237.165V238.159H183.469V236.131H192.856C192.856 235.269 192.683 234.5 192.339 233.824C192.001 233.148 191.517 232.614 190.887 232.223C190.264 231.832 189.528 231.636 188.68 231.636C187.745 231.636 186.936 231.868 186.254 232.332C185.577 232.79 185.057 233.386 184.692 234.122C184.328 234.858 184.146 235.647 184.146 236.489V237.841C184.146 238.994 184.344 239.972 184.742 240.774C185.147 241.57 185.707 242.176 186.423 242.594C187.138 243.005 187.97 243.21 188.918 243.21C189.535 243.21 190.092 243.124 190.589 242.952C191.093 242.773 191.527 242.508 191.891 242.156C192.256 241.798 192.538 241.354 192.737 240.824L195.004 241.46C194.765 242.229 194.364 242.905 193.8 243.489C193.237 244.065 192.541 244.516 191.712 244.841C190.884 245.159 189.952 245.318 188.918 245.318ZM198.812 245V229.727H201.079V232.034H201.238C201.516 231.278 202.02 230.665 202.749 230.195C203.478 229.724 204.3 229.489 205.215 229.489C205.388 229.489 205.603 229.492 205.862 229.499C206.12 229.505 206.316 229.515 206.448 229.528V231.915C206.369 231.895 206.186 231.865 205.901 231.825C205.623 231.779 205.328 231.756 205.016 231.756C204.274 231.756 203.611 231.911 203.028 232.223C202.451 232.528 201.994 232.952 201.656 233.496C201.324 234.033 201.158 234.646 201.158 235.335V245H198.812ZM220.048 233.148L217.94 233.744C217.807 233.393 217.612 233.052 217.353 232.72C217.101 232.382 216.757 232.104 216.319 231.885C215.882 231.666 215.322 231.557 214.639 231.557C213.704 231.557 212.925 231.772 212.302 232.203C211.686 232.627 211.377 233.168 211.377 233.824C211.377 234.407 211.59 234.868 212.014 235.206C212.438 235.544 213.101 235.826 214.002 236.051L216.27 236.608C217.635 236.939 218.653 237.446 219.322 238.129C219.992 238.805 220.326 239.677 220.326 240.744C220.326 241.619 220.074 242.402 219.571 243.091C219.074 243.78 218.377 244.324 217.483 244.722C216.588 245.119 215.547 245.318 214.36 245.318C212.803 245.318 211.513 244.98 210.493 244.304C209.472 243.628 208.825 242.64 208.554 241.341L210.781 240.784C210.993 241.606 211.394 242.223 211.984 242.634C212.581 243.045 213.359 243.25 214.321 243.25C215.414 243.25 216.283 243.018 216.926 242.554C217.575 242.083 217.9 241.52 217.9 240.864C217.9 240.333 217.715 239.889 217.343 239.531C216.972 239.167 216.402 238.895 215.633 238.716L213.088 238.119C211.689 237.788 210.662 237.274 210.005 236.578C209.356 235.875 209.031 234.997 209.031 233.943C209.031 233.081 209.273 232.319 209.757 231.656C210.247 230.993 210.913 230.473 211.755 230.095C212.604 229.717 213.565 229.528 214.639 229.528C216.15 229.528 217.337 229.86 218.199 230.523C219.067 231.186 219.683 232.061 220.048 233.148ZM230.501 229.727V231.716H222.586V229.727H230.501ZM224.893 226.068H227.239V240.625C227.239 241.288 227.335 241.785 227.528 242.116C227.727 242.441 227.978 242.66 228.283 242.773C228.595 242.879 228.923 242.932 229.268 242.932C229.526 242.932 229.738 242.919 229.904 242.892C230.07 242.859 230.202 242.832 230.302 242.812L230.779 244.92C230.62 244.98 230.398 245.04 230.113 245.099C229.828 245.166 229.467 245.199 229.029 245.199C228.366 245.199 227.717 245.056 227.08 244.771C226.451 244.486 225.927 244.052 225.509 243.469C225.098 242.885 224.893 242.15 224.893 241.261V226.068ZM240.071 245.318C238.692 245.318 237.482 244.99 236.442 244.334C235.408 243.678 234.599 242.759 234.016 241.58C233.439 240.4 233.151 239.021 233.151 237.443C233.151 235.852 233.439 234.464 234.016 233.277C234.599 232.09 235.408 231.169 236.442 230.513C237.482 229.857 238.692 229.528 240.071 229.528C241.45 229.528 242.656 229.857 243.69 230.513C244.731 231.169 245.54 232.09 246.116 233.277C246.7 234.464 246.991 235.852 246.991 237.443C246.991 239.021 246.7 240.4 246.116 241.58C245.54 242.759 244.731 243.678 243.69 244.334C242.656 244.99 241.45 245.318 240.071 245.318ZM240.071 243.21C241.118 243.21 241.98 242.942 242.656 242.405C243.332 241.868 243.833 241.162 244.158 240.287C244.482 239.412 244.645 238.464 244.645 237.443C244.645 236.422 244.482 235.471 244.158 234.589C243.833 233.708 243.332 232.995 242.656 232.452C241.98 231.908 241.118 231.636 240.071 231.636C239.024 231.636 238.162 231.908 237.486 232.452C236.81 232.995 236.309 233.708 235.984 234.589C235.66 235.471 235.497 236.422 235.497 237.443C235.497 238.464 235.66 239.412 235.984 240.287C236.309 241.162 236.81 241.868 237.486 242.405C238.162 242.942 239.024 243.21 240.071 243.21ZM250.574 245V229.727H252.841V232.034H253C253.278 231.278 253.782 230.665 254.511 230.195C255.24 229.724 256.062 229.489 256.977 229.489C257.149 229.489 257.365 229.492 257.623 229.499C257.882 229.505 258.077 229.515 258.21 229.528V231.915C258.13 231.895 257.948 231.865 257.663 231.825C257.385 231.779 257.09 231.756 256.778 231.756C256.036 231.756 255.373 231.911 254.789 232.223C254.213 232.528 253.755 232.952 253.417 233.496C253.086 234.033 252.92 234.646 252.92 235.335V245H250.574ZM260.991 245V229.727H263.259V232.114H263.457C263.776 231.298 264.289 230.665 264.999 230.214C265.708 229.757 266.56 229.528 267.554 229.528C268.562 229.528 269.4 229.757 270.07 230.214C270.746 230.665 271.273 231.298 271.651 232.114H271.81C272.201 231.325 272.787 230.698 273.57 230.234C274.352 229.764 275.29 229.528 276.384 229.528C277.749 229.528 278.866 229.956 279.734 230.811C280.603 231.66 281.037 232.982 281.037 234.778V245H278.69V234.778C278.69 233.652 278.382 232.846 277.766 232.362C277.149 231.878 276.423 231.636 275.588 231.636C274.514 231.636 273.682 231.961 273.092 232.611C272.502 233.254 272.207 234.069 272.207 235.057V245H269.821V234.54C269.821 233.671 269.539 232.972 268.976 232.442C268.412 231.905 267.687 231.636 266.798 231.636C266.188 231.636 265.618 231.799 265.088 232.124C264.564 232.448 264.14 232.899 263.815 233.476C263.497 234.046 263.338 234.705 263.338 235.455V245H260.991Z" fill="white"/>
<defs>
<clipPath id="clip0_91_356">
<rect width="150" height="150" fill="white" transform="translate(114.5 48)"/>
</clipPath>
</defs>
</svg>
