<svg width="379" height="300" viewBox="0 0 379 300" fill="none" xmlns="http://www.w3.org/2000/svg">
<rect x="1" y="1" width="377" height="298" rx="11" stroke="white" stroke-width="2"/>
<g clip-path="url(#clip0_91_1088)">
<path d="M153.896 162.265C149.275 162.265 145.515 166.024 145.515 170.645C145.515 175.266 149.275 179.025 153.896 179.025C158.517 179.025 162.276 175.266 162.276 170.645C162.276 166.024 158.517 162.265 153.896 162.265ZM153.896 174.631C151.698 174.631 149.91 172.843 149.91 170.645C149.91 168.448 151.698 166.659 153.896 166.659C156.094 166.659 157.882 168.448 157.882 170.645C157.882 172.843 156.094 174.631 153.896 174.631Z" fill="white"/>
<path d="M132.422 166.508C131.744 165.502 130.378 165.237 129.372 165.915C128.365 166.593 128.1 167.959 128.779 168.965L133.173 175.481C133.598 176.111 134.291 176.45 134.997 176.45C135.42 176.45 135.847 176.329 136.224 176.075C137.23 175.396 137.496 174.03 136.817 173.025L132.422 166.508Z" fill="white"/>
<path d="M178.42 165.915C177.413 165.235 176.047 165.501 175.37 166.507L170.975 173.024C170.296 174.03 170.562 175.396 171.568 176.074C171.945 176.328 172.372 176.45 172.795 176.45C173.5 176.45 174.194 176.11 174.618 175.481L179.013 168.964C179.691 167.959 179.426 166.593 178.42 165.915Z" fill="white"/>
<path d="M145.382 112.527H162.41C163.623 112.527 164.607 111.544 164.607 110.33C164.607 109.116 163.623 108.133 162.41 108.133H145.382C144.168 108.133 143.184 109.116 143.184 110.33C143.184 111.544 144.168 112.527 145.382 112.527Z" fill="white"/>
<path d="M145.382 125.141H162.41C163.623 125.141 164.607 124.157 164.607 122.943C164.607 121.73 163.623 120.746 162.41 120.746H145.382C144.168 120.746 143.184 121.73 143.184 122.943C143.184 124.157 144.168 125.141 145.382 125.141Z" fill="white"/>
<path d="M145.382 137.754H162.41C163.623 137.754 164.607 136.771 164.607 135.557C164.607 134.343 163.623 133.36 162.41 133.36H145.382C144.168 133.36 143.184 134.343 143.184 135.557C143.184 136.771 144.168 137.754 145.382 137.754Z" fill="white"/>
<path d="M249.992 129.243V150.423C249.992 151.637 250.975 152.62 252.189 152.62C253.403 152.62 254.387 151.637 254.387 150.423V129.243C254.387 128.029 253.403 127.046 252.189 127.046C250.975 127.046 249.992 128.03 249.992 129.243Z" fill="white"/>
<path d="M262.303 152.226C263.516 152.226 264.5 151.242 264.5 150.028V102.237C264.5 100.828 263.735 99.5269 262.504 98.8413C261.272 98.1554 259.763 98.1906 258.566 98.933L242.376 108.965C240.812 109.934 239.879 111.612 239.879 113.452V124.556L234.949 126.697C232.954 127.563 231.664 129.529 231.664 131.704V133.178H225.834C219.782 133.178 214.858 128.254 214.858 122.202V86.3706C214.858 69.459 201.101 55.7007 184.192 55.7007H177.882C161.42 55.7007 147.948 68.7374 147.243 85.0285H146.957C145.203 85.0285 143.616 86.0668 142.915 87.6702L140.592 92.9613H137.234C132.47 92.9613 128.383 96.3616 127.518 101.047L123.278 124.006C123.057 125.199 123.846 126.345 125.04 126.566C126.233 126.785 127.379 125.997 127.599 124.804L131.84 101.845C132.32 99.2438 134.589 97.3559 137.234 97.3559C170.947 97.3577 166.235 97.3559 170.558 97.3559C173.203 97.3559 175.471 99.2438 175.952 101.845L183.196 141.073L177.299 149.22C175.711 151.412 173.147 152.722 170.441 152.722H136.676C133.969 152.722 131.405 151.412 129.818 149.22L124.458 141.815L125.975 133.601C126.195 132.408 125.407 131.262 124.213 131.042C123.02 130.82 121.874 131.61 121.653 132.803L114.788 169.977C113.858 175.016 115.204 180.164 118.481 184.102C121.758 188.04 126.577 190.299 131.7 190.299H176.091C181.214 190.299 186.033 188.04 189.31 184.102C192.587 180.164 193.933 175.016 193.003 169.977L180.273 101.047C179.408 96.3619 175.322 92.961 170.558 92.961H167.199L164.88 87.6737C164.177 86.0668 162.59 85.0285 160.835 85.0285H160.635C161.293 76.5657 168.112 69.691 176.705 69.1121C177.916 69.0304 178.832 67.983 178.75 66.7721C178.668 65.561 177.617 64.6504 176.41 64.7275C165.517 65.4617 156.891 74.2594 156.225 85.0288H151.64C152.342 71.1618 163.843 60.0956 177.882 60.0956H184.191C198.678 60.0956 210.463 71.8825 210.463 86.3709V122.203C210.463 130.678 217.359 137.574 225.834 137.574H231.664V142.15H225.834C214.835 142.15 205.887 133.202 205.887 122.203V86.3706C205.887 74.8969 196.92 65.3835 185.472 64.7128C184.255 64.6396 183.22 65.5666 183.15 66.778C183.079 67.9895 184.003 69.0292 185.215 69.1001C194.342 69.6348 201.492 77.221 201.492 86.3706V122.203C201.492 135.625 212.412 146.545 225.834 146.545H231.664V147.961C231.664 150.137 232.953 152.102 234.949 152.969L239.878 155.109V166.214C239.878 168.054 240.812 169.732 242.376 170.701L258.565 180.733C261.152 182.335 264.5 180.471 264.5 177.428V158.814C264.5 157.601 263.516 156.617 262.303 156.617C261.089 156.617 260.105 157.601 260.105 158.814V176.518L244.691 166.965C244.429 166.803 244.273 166.522 244.273 166.214V113.452C244.273 113.144 244.429 112.863 244.691 112.701L260.105 103.149V150.029C260.105 151.242 261.089 152.226 262.303 152.226ZM185.932 181.291C183.492 184.223 179.905 185.904 176.091 185.904H131.7C127.886 185.904 124.299 184.223 121.859 181.291C119.419 178.359 118.417 174.526 119.11 170.775L123.355 147.786L126.258 151.796C128.669 155.127 132.564 157.116 136.676 157.116H170.44C174.552 157.116 178.447 155.127 180.858 151.796L184.299 147.043L188.681 170.775C189.374 174.527 188.372 178.359 185.932 181.291ZM160.854 89.4363L162.4 92.961H145.396L146.957 89.4231L160.854 89.4363ZM236.699 148.938C236.31 148.769 236.058 148.385 236.058 147.961V131.705C236.058 131.281 236.31 130.898 236.699 130.729L239.878 129.348V150.318L236.699 148.938Z" fill="white"/>
</g>
<path d="M132.071 224.636L138.116 241.778H138.355L144.4 224.636H146.985L139.508 245H136.963L129.485 224.636H132.071ZM152.912 245.358C151.944 245.358 151.065 245.176 150.277 244.811C149.488 244.44 148.861 243.906 148.397 243.21C147.933 242.508 147.701 241.659 147.701 240.665C147.701 239.79 147.874 239.08 148.218 238.537C148.563 237.987 149.024 237.556 149.6 237.244C150.177 236.933 150.814 236.701 151.51 236.548C152.212 236.389 152.918 236.263 153.627 236.17C154.556 236.051 155.308 235.962 155.885 235.902C156.468 235.836 156.892 235.726 157.157 235.574C157.429 235.421 157.565 235.156 157.565 234.778V234.699C157.565 233.718 157.297 232.955 156.76 232.412C156.229 231.868 155.424 231.597 154.343 231.597C153.223 231.597 152.345 231.842 151.708 232.332C151.072 232.823 150.625 233.347 150.366 233.903L148.139 233.108C148.537 232.18 149.067 231.457 149.73 230.94C150.399 230.417 151.128 230.052 151.917 229.847C152.713 229.634 153.495 229.528 154.264 229.528C154.754 229.528 155.318 229.588 155.954 229.707C156.597 229.82 157.217 230.055 157.814 230.413C158.417 230.771 158.917 231.312 159.315 232.034C159.713 232.757 159.912 233.724 159.912 234.938V245H157.565V242.932H157.446C157.287 243.263 157.021 243.618 156.65 243.996C156.279 244.374 155.785 244.695 155.169 244.96C154.552 245.225 153.8 245.358 152.912 245.358ZM153.27 243.25C154.198 243.25 154.98 243.068 155.616 242.703C156.259 242.339 156.743 241.868 157.068 241.291C157.399 240.714 157.565 240.108 157.565 239.472V237.324C157.466 237.443 157.247 237.553 156.909 237.652C156.577 237.745 156.193 237.828 155.755 237.901C155.324 237.967 154.904 238.027 154.493 238.08C154.088 238.126 153.76 238.166 153.508 238.199C152.898 238.278 152.328 238.408 151.798 238.587C151.274 238.759 150.85 239.021 150.525 239.372C150.207 239.717 150.048 240.187 150.048 240.784C150.048 241.599 150.35 242.216 150.953 242.634C151.563 243.045 152.335 243.25 153.27 243.25ZM170.399 245.318C168.967 245.318 167.734 244.98 166.7 244.304C165.666 243.628 164.871 242.696 164.314 241.51C163.757 240.323 163.479 238.968 163.479 237.443C163.479 235.892 163.764 234.523 164.334 233.337C164.911 232.143 165.713 231.212 166.74 230.543C167.774 229.866 168.981 229.528 170.359 229.528C171.433 229.528 172.401 229.727 173.263 230.125C174.125 230.523 174.83 231.08 175.381 231.795C175.931 232.511 176.272 233.347 176.405 234.301H174.058C173.879 233.605 173.482 232.989 172.865 232.452C172.255 231.908 171.433 231.636 170.399 231.636C169.484 231.636 168.682 231.875 167.993 232.352C167.31 232.823 166.777 233.489 166.392 234.351C166.014 235.206 165.825 236.21 165.825 237.364C165.825 238.544 166.011 239.571 166.382 240.446C166.76 241.321 167.29 242 167.973 242.484C168.662 242.968 169.471 243.21 170.399 243.21C171.009 243.21 171.562 243.104 172.06 242.892C172.557 242.68 172.978 242.375 173.322 241.977C173.667 241.58 173.912 241.102 174.058 240.545H176.405C176.272 241.447 175.944 242.259 175.42 242.982C174.903 243.697 174.217 244.268 173.362 244.692C172.514 245.109 171.526 245.318 170.399 245.318ZM186.04 245.318C184.608 245.318 183.375 244.98 182.341 244.304C181.307 243.628 180.511 242.696 179.955 241.51C179.398 240.323 179.119 238.968 179.119 237.443C179.119 235.892 179.404 234.523 179.974 233.337C180.551 232.143 181.353 231.212 182.381 230.543C183.415 229.866 184.621 229.528 186 229.528C187.074 229.528 188.042 229.727 188.903 230.125C189.765 230.523 190.471 231.08 191.021 231.795C191.571 232.511 191.913 233.347 192.045 234.301H189.699C189.52 233.605 189.122 232.989 188.506 232.452C187.896 231.908 187.074 231.636 186.04 231.636C185.125 231.636 184.323 231.875 183.634 232.352C182.951 232.823 182.417 233.489 182.033 234.351C181.655 235.206 181.466 236.21 181.466 237.364C181.466 238.544 181.652 239.571 182.023 240.446C182.401 241.321 182.931 242 183.614 242.484C184.303 242.968 185.112 243.21 186.04 243.21C186.65 243.21 187.203 243.104 187.7 242.892C188.197 242.68 188.618 242.375 188.963 241.977C189.308 241.58 189.553 241.102 189.699 240.545H192.045C191.913 241.447 191.585 242.259 191.061 242.982C190.544 243.697 189.858 244.268 189.003 244.692C188.154 245.109 187.167 245.318 186.04 245.318ZM205.101 238.756V229.727H207.447V245H205.101V242.415H204.942C204.584 243.19 204.027 243.85 203.271 244.393C202.516 244.93 201.561 245.199 200.408 245.199C199.453 245.199 198.605 244.99 197.862 244.572C197.12 244.148 196.536 243.512 196.112 242.663C195.688 241.808 195.476 240.731 195.476 239.432V229.727H197.822V239.273C197.822 240.386 198.134 241.275 198.757 241.938C199.387 242.6 200.189 242.932 201.163 242.932C201.747 242.932 202.34 242.783 202.943 242.484C203.553 242.186 204.063 241.729 204.474 241.112C204.892 240.496 205.101 239.71 205.101 238.756ZM211.745 245V229.727H214.012V232.114H214.211C214.529 231.298 215.043 230.665 215.752 230.214C216.462 229.757 217.314 229.528 218.308 229.528C219.315 229.528 220.154 229.757 220.824 230.214C221.5 230.665 222.027 231.298 222.404 232.114H222.564C222.955 231.325 223.541 230.698 224.324 230.234C225.106 229.764 226.044 229.528 227.137 229.528C228.503 229.528 229.62 229.956 230.488 230.811C231.357 231.66 231.791 232.982 231.791 234.778V245H229.444V234.778C229.444 233.652 229.136 232.846 228.52 232.362C227.903 231.878 227.177 231.636 226.342 231.636C225.268 231.636 224.436 231.961 223.846 232.611C223.256 233.254 222.961 234.069 222.961 235.057V245H220.575V234.54C220.575 233.671 220.293 232.972 219.73 232.442C219.166 231.905 218.44 231.636 217.552 231.636C216.942 231.636 216.372 231.799 215.842 232.124C215.318 232.448 214.894 232.899 214.569 233.476C214.251 234.046 214.092 234.705 214.092 235.455V245H211.745ZM242.485 245.318C241.013 245.318 239.744 244.993 238.676 244.344C237.616 243.688 236.797 242.773 236.221 241.599C235.65 240.42 235.365 239.047 235.365 237.483C235.365 235.919 235.65 234.54 236.221 233.347C236.797 232.147 237.599 231.212 238.627 230.543C239.661 229.866 240.867 229.528 242.246 229.528C243.042 229.528 243.827 229.661 244.603 229.926C245.378 230.191 246.084 230.622 246.721 231.219C247.357 231.809 247.864 232.591 248.242 233.565C248.62 234.54 248.809 235.74 248.809 237.165V238.159H237.036V236.131H246.422C246.422 235.269 246.25 234.5 245.905 233.824C245.567 233.148 245.083 232.614 244.453 232.223C243.83 231.832 243.095 231.636 242.246 231.636C241.311 231.636 240.503 231.868 239.82 232.332C239.144 232.79 238.623 233.386 238.259 234.122C237.894 234.858 237.712 235.647 237.712 236.489V237.841C237.712 238.994 237.911 239.972 238.309 240.774C238.713 241.57 239.273 242.176 239.989 242.594C240.705 243.005 241.537 243.21 242.485 243.21C243.101 243.21 243.658 243.124 244.155 242.952C244.659 242.773 245.093 242.508 245.458 242.156C245.822 241.798 246.104 241.354 246.303 240.824L248.57 241.46C248.331 242.229 247.93 242.905 247.367 243.489C246.803 244.065 246.107 244.516 245.279 244.841C244.45 245.159 243.519 245.318 242.485 245.318Z" fill="white"/>
<defs>
<clipPath id="clip0_91_1088">
<rect width="150" height="150" fill="white" transform="translate(114.5 48)"/>
</clipPath>
</defs>
</svg>
