<svg width="379" height="300" viewBox="0 0 379 300" fill="none" xmlns="http://www.w3.org/2000/svg">
<rect x="1" y="1" width="377" height="298" rx="11" stroke="white" stroke-width="2"/>
<g clip-path="url(#clip0_91_1210)">
<path d="M118.235 130.698C120.437 128.542 122.719 126.716 125.018 125.27C126.045 124.624 126.354 123.267 125.708 122.24C125.062 121.212 123.705 120.903 122.678 121.549C120.115 123.162 117.586 125.183 115.16 127.557C114.293 128.406 114.279 129.797 115.128 130.665C115.558 131.104 116.128 131.325 116.698 131.325C117.252 131.325 117.807 131.117 118.235 130.698Z" fill="white"/>
<path d="M226.95 120.941C218.397 129.554 209.129 134.179 199.405 134.689C191.14 135.122 182.461 132.735 172.881 127.389C160.837 120.669 146.807 113.789 132.712 117.238C131.533 117.527 130.811 118.716 131.1 119.895C131.388 121.074 132.578 121.795 133.757 121.507C146.302 118.436 159.425 124.914 170.739 131.227C192.644 143.449 212.394 141.836 230.069 124.038C230.924 123.177 230.919 121.785 230.058 120.93C229.197 120.075 227.806 120.079 226.95 120.941Z" fill="white"/>
<path d="M118.15 107.881C131.666 95.9785 145.197 101.936 159.522 108.242C166.837 111.463 174.401 114.793 182.022 115.632C191.196 116.642 198.833 113.812 205.57 107.881C206.481 107.078 206.569 105.69 205.767 104.779C204.965 103.868 203.576 103.78 202.665 104.582C189.148 116.484 175.618 110.527 161.293 104.22C153.978 101 146.414 97.6695 138.793 96.8307C129.971 95.8595 122.271 98.3955 115.245 104.582C114.334 105.384 114.246 106.773 115.048 107.684C115.85 108.594 117.239 108.683 118.15 107.881Z" fill="white"/>
<path d="M167.293 91.2475C172.218 93.6272 178.527 96.2247 185.131 96.2247C193.979 96.2247 203.301 90.5297 207.473 83.7363C210.253 79.2091 210.804 74.2948 209.066 69.525C207.527 65.3016 203.341 61.9781 198.648 61.2545C194.562 60.6249 190.418 62.0124 187.833 64.8756C184.962 68.0552 184.36 72.9252 186.402 76.4555C187.572 78.4778 189.719 80.0279 192.146 80.6024C194.427 81.1421 196.677 80.787 198.48 79.602C199.494 78.9352 199.775 77.5726 199.109 76.5586C198.442 75.5443 197.08 75.2631 196.065 75.9296C195.01 76.6236 193.791 76.476 193.158 76.326C191.904 76.0292 190.774 75.2358 190.207 74.2556C189.111 72.3615 189.494 69.5953 191.095 67.8208C192.676 66.0697 195.377 65.1973 197.979 65.5983C204.752 66.6425 208.062 74.3774 203.728 81.4365C200.154 87.2555 192.681 91.0638 187.464 91.6925C184.054 92.1035 178.898 91.9743 169.206 87.2906C168.112 86.7615 166.798 87.2206 166.271 88.3131C165.743 89.4056 166.2 90.7195 167.293 91.2475Z" fill="white"/>
<path d="M158.959 134.409C153.327 131.688 145.885 128.681 138.262 129.601C131.867 130.372 123.121 134.851 118.78 141.921C116 146.448 115.449 151.362 117.187 156.132C118.725 160.355 122.912 163.679 127.604 164.403C128.257 164.503 128.909 164.552 129.558 164.552C132.972 164.552 136.246 163.188 138.419 160.782C141.29 157.601 141.892 152.732 139.85 149.202C138.681 147.18 136.534 145.63 134.107 145.055C131.825 144.515 129.575 144.87 127.773 146.056C126.759 146.722 126.477 148.085 127.144 149.099C127.81 150.113 129.173 150.394 130.187 149.728C132.007 148.531 134.96 149.524 136.046 151.402C137.141 153.296 136.759 156.062 135.157 157.836C133.576 159.588 130.874 160.461 128.274 160.059C125.167 159.58 122.306 157.347 121.316 154.628C120.035 151.113 120.442 147.612 122.524 144.221C126.098 138.402 133.571 134.593 138.788 133.965C142.196 133.553 147.353 133.683 157.047 138.367C158.14 138.895 159.453 138.436 159.981 137.344C160.51 136.252 160.052 134.938 158.959 134.409Z" fill="white"/>
<path d="M263.008 61.0092C262.44 59.3944 261.14 58.0898 259.518 57.5191C254.795 55.8568 249.713 55.5606 244.821 56.663C243.637 56.9299 242.893 58.1059 243.16 59.2898C243.427 60.474 244.604 61.2169 245.787 60.9506C249.269 60.166 252.866 60.2328 256.294 61.1279L229.26 88.1618C227.302 80.6223 229.468 72.4458 235.022 66.8914C235.78 66.1332 236.596 65.4266 237.448 64.7903C238.42 64.0637 238.619 62.6867 237.893 61.7144C237.166 60.7423 235.79 60.5431 234.817 61.2694C233.797 62.0311 232.821 62.8769 231.914 63.7833C224.734 70.9634 222.275 81.7986 225.65 91.3865C225.683 91.48 225.726 91.5673 225.763 91.6584L219.85 97.5711C218.992 98.4292 218.992 99.8205 219.85 100.679C220.708 101.537 222.1 101.537 222.958 100.679L228.871 94.7654C228.961 94.802 229.047 94.8445 229.139 94.8767C231.994 95.8816 234.958 96.3691 237.905 96.3688C244.855 96.3685 251.701 93.6544 256.743 88.6121C263.923 81.4326 266.382 70.5975 263.008 61.0092ZM253.635 85.5049C248.082 91.0584 239.908 93.224 232.369 91.2682L259.399 64.2383C261.354 71.777 259.189 79.9514 253.635 85.5049Z" fill="white"/>
<path d="M188.347 151.14C188.254 151.173 188.167 151.216 188.076 151.253L182.164 145.34C181.305 144.482 179.914 144.482 179.056 145.34C178.198 146.198 178.198 147.59 179.056 148.448L184.97 154.362C184.933 154.451 184.89 154.538 184.858 154.63C181.484 164.218 183.943 175.054 191.122 182.233C196.166 187.276 203.011 189.99 209.961 189.99C212.907 189.99 215.872 189.502 218.726 188.498C220.358 187.924 221.653 186.608 222.216 185.008C225.591 175.419 223.131 164.584 215.951 157.405C208.771 150.224 197.935 147.766 188.347 151.14ZM209.95 185.598C204.15 185.598 198.437 183.333 194.23 179.126C188.676 173.572 186.511 165.398 188.467 157.859L215.499 184.891C213.671 185.365 211.807 185.598 209.95 185.598ZM218.606 181.783L191.571 154.748C199.124 152.786 207.297 154.966 212.843 160.512C218.398 166.067 220.563 174.243 218.606 181.783Z" fill="white"/>
</g>
<path d="M162.169 245L156.6 224.636H159.106L163.362 241.222H163.561L167.896 224.636H170.68L175.015 241.222H175.214L179.47 224.636H181.975L176.407 245H173.862L169.368 228.773H169.208L164.714 245H162.169ZM184.73 245V229.727H187.076V245H184.73ZM185.923 227.182C185.466 227.182 185.071 227.026 184.74 226.714C184.415 226.403 184.252 226.028 184.252 225.591C184.252 225.153 184.415 224.779 184.74 224.467C185.071 224.156 185.466 224 185.923 224C186.38 224 186.771 224.156 187.096 224.467C187.428 224.779 187.593 225.153 187.593 225.591C187.593 226.028 187.428 226.403 187.096 226.714C186.771 227.026 186.38 227.182 185.923 227.182ZM193.721 235.812V245H191.374V229.727H193.641V232.114H193.84C194.198 231.338 194.742 230.715 195.471 230.244C196.2 229.767 197.141 229.528 198.295 229.528C199.329 229.528 200.234 229.741 201.009 230.165C201.785 230.582 202.388 231.219 202.819 232.074C203.25 232.922 203.465 233.996 203.465 235.295V245H201.119V235.455C201.119 234.255 200.807 233.32 200.184 232.651C199.561 231.974 198.706 231.636 197.619 231.636C196.87 231.636 196.2 231.799 195.61 232.124C195.027 232.448 194.566 232.922 194.228 233.545C193.89 234.169 193.721 234.924 193.721 235.812ZM213.52 245.318C212.248 245.318 211.124 244.997 210.15 244.354C209.175 243.704 208.413 242.789 207.863 241.609C207.312 240.423 207.037 239.021 207.037 237.403C207.037 235.799 207.312 234.407 207.863 233.227C208.413 232.047 209.178 231.136 210.159 230.493C211.141 229.85 212.274 229.528 213.56 229.528C214.554 229.528 215.34 229.694 215.917 230.026C216.5 230.35 216.944 230.722 217.249 231.139C217.56 231.55 217.802 231.888 217.975 232.153H218.174V224.636H220.52V245H218.253V242.653H217.975C217.802 242.932 217.557 243.283 217.239 243.707C216.921 244.125 216.467 244.5 215.877 244.831C215.287 245.156 214.501 245.318 213.52 245.318ZM213.838 243.21C214.78 243.21 215.575 242.965 216.225 242.474C216.874 241.977 217.368 241.291 217.706 240.416C218.044 239.535 218.213 238.517 218.213 237.364C218.213 236.223 218.048 235.226 217.716 234.371C217.385 233.509 216.894 232.839 216.245 232.362C215.595 231.878 214.793 231.636 213.838 231.636C212.844 231.636 212.016 231.892 211.353 232.402C210.696 232.906 210.203 233.592 209.871 234.46C209.546 235.322 209.384 236.29 209.384 237.364C209.384 238.451 209.55 239.438 209.881 240.327C210.219 241.208 210.716 241.911 211.373 242.435C212.035 242.952 212.857 243.21 213.838 243.21Z" fill="white"/>
<defs>
<clipPath id="clip0_91_1210">
<rect width="150" height="150" fill="white" transform="translate(114.5 48)"/>
</clipPath>
</defs>
</svg>
