<svg width="379" height="300" viewBox="0 0 379 300" fill="none" xmlns="http://www.w3.org/2000/svg">
<rect x="1" y="1" width="377" height="298" rx="11" stroke="white" stroke-width="2"/>
<path d="M249.713 155.719H245.456C243.886 155.719 242.347 156.258 241.126 157.237L240.901 157.416L227.216 145.379V139.157C227.216 137.944 226.233 136.96 225.019 136.96C223.805 136.96 222.822 137.944 222.822 139.157V145.029L221.462 145.723C220.381 146.275 219.953 147.599 220.504 148.679C220.893 149.44 221.664 149.878 222.463 149.878C222.799 149.878 223.141 149.8 223.461 149.637L224.689 149.009L239.382 161.933C240.182 162.637 241.372 162.665 242.204 162L243.871 160.668C244.318 160.311 244.88 160.114 245.456 160.114H249.713C250.134 160.114 250.477 160.455 250.477 160.875V169.163C250.477 169.585 250.134 169.928 249.713 169.928H241.449L213.488 152.917L212.43 146.905L215.127 112.129L217.109 113.013C220.58 114.562 222.822 118.017 222.822 121.817V128.904C222.822 130.117 223.805 131.101 225.019 131.101C226.233 131.101 227.216 130.117 227.216 128.904V121.817C227.216 116.286 223.952 111.255 218.9 108.999L214.072 106.846C214.023 106.824 200.468 101.922 200.468 101.922C206.555 98.1445 210.64 91.3392 210.64 83.6355V77.9994C210.64 69.6196 205.739 62.3631 198.653 58.9453C198.75 58.4077 198.801 57.8593 198.801 57.3012C198.8 52.1725 194.628 48 189.499 48C184.371 48 180.198 52.1725 180.198 57.3012C180.198 57.8593 180.249 58.4077 180.346 58.9453C173.26 62.3631 168.359 69.6196 168.359 77.9994V83.918C168.359 89.6168 170.593 94.96 174.649 98.9637C175.816 100.116 177.095 101.111 178.457 101.948C178.457 101.948 164.998 106.813 164.925 106.845L160.098 109C155.047 111.255 151.783 116.286 151.783 121.817V145.38L138.098 157.417L137.874 157.238C136.65 156.259 135.112 155.719 133.544 155.719H129.285C126.441 155.719 124.128 158.032 124.128 160.876V169.164C124.128 172.008 126.441 174.321 129.285 174.321H132.672C132.567 174.463 132.462 174.605 132.363 174.751C132.247 174.922 132.137 175.097 132.029 175.272C132.013 175.298 131.995 175.323 131.98 175.349C130.757 177.379 130.091 179.724 130.091 182.154V184.811C130.091 189.868 132.954 194.267 137.144 196.479C138.978 197.448 141.067 198 143.282 198H143.284H155.58H156.537H172.542H172.542H172.542H192.23C193.444 198 194.427 197.016 194.427 195.803C194.427 194.589 193.444 193.605 192.23 193.605H174.74V183.456L234.262 173.478C236.819 173.05 239.421 173.765 241.4 175.441C243.378 177.115 244.513 179.562 244.513 182.153V184.811C244.513 189.66 240.566 193.605 235.715 193.605H202.484C201.27 193.605 200.286 194.589 200.286 195.803C200.286 197.016 201.27 198 202.484 198H235.715C242.99 198 248.908 192.083 248.908 184.811V182.153C248.908 179.302 247.988 176.568 246.328 174.322H249.713C252.558 174.322 254.872 172.008 254.872 169.163V160.875C254.872 158.032 252.558 155.719 249.713 155.719ZM232.1 169.384L216.916 171.93L215.339 163.435C215.337 163.429 215.335 163.422 215.334 163.416L214.501 158.677L232.1 169.384ZM189.496 176.526L166.417 172.657L167.647 166.034H211.352L212.581 172.656L189.496 176.526ZM146.896 169.384L164.498 158.676L163.666 163.41C163.664 163.419 163.662 163.426 163.66 163.434L162.083 171.93L146.896 169.384ZM184.593 104.486C186.181 104.861 187.823 105.058 189.496 105.058C189.591 105.058 189.685 105.058 189.779 105.057C191.369 105.036 192.916 104.828 194.406 104.466V109.965C194.406 112.67 192.205 114.871 189.499 114.871C186.794 114.871 184.593 112.67 184.593 109.965V104.486ZM184.593 57.3012C184.593 54.5956 186.794 52.3945 189.499 52.3945C192.205 52.3945 194.406 54.5956 194.406 57.3012C194.406 57.3475 194.4 57.3923 194.399 57.4383C192.825 57.0633 191.186 56.8591 189.499 56.8591C187.812 56.8591 186.174 57.0633 184.6 57.4383C184.599 57.3923 184.593 57.3472 184.593 57.3012ZM189.499 61.2533C191.812 61.2533 194.016 61.7247 196.022 62.5761C193.879 64.7391 189.919 68.0769 184.886 69.3574C183.71 69.6565 182.999 70.8527 183.298 72.0287C183.552 73.023 184.445 73.6846 185.426 73.6846C185.606 73.6846 185.788 73.6623 185.97 73.6163C192.68 71.9089 197.62 67.3559 199.9 64.8888C201.269 65.9774 202.466 67.2735 203.439 68.7322C202.184 70.4162 199.752 73.113 195.637 75.6217C189.493 79.3685 181.801 81.4014 172.754 81.6829V77.9991C172.753 68.7656 180.266 61.2533 189.499 61.2533ZM172.895 86.0789C191.543 85.4988 201.177 78.0378 205.522 73.1338C205.991 74.6745 206.245 76.3075 206.245 77.9994V83.6355C206.245 92.9062 198.833 100.544 189.722 100.663C185.205 100.723 180.948 99.0073 177.736 95.8362C175.042 93.177 173.368 89.7706 172.895 86.0789ZM128.522 169.164V160.876C128.522 160.455 128.864 160.113 129.285 160.113H133.544C134.118 160.113 134.681 160.311 135.129 160.67L136.792 162C137.624 162.666 138.815 162.638 139.616 161.934L154.311 149.01L155.538 149.636C155.858 149.8 156.199 149.877 156.535 149.877C157.335 149.877 158.105 149.44 158.494 148.679C159.046 147.598 158.617 146.275 157.537 145.723L156.178 145.029V121.817C156.178 118.017 158.42 114.561 161.889 113.012L163.872 112.127L164.545 120.799C164.634 121.951 165.597 122.827 166.733 122.827C166.79 122.827 166.848 122.824 166.905 122.82C168.115 122.726 169.02 121.669 168.926 120.459L168.141 110.349L180.198 105.991V109.964C180.198 115.092 184.37 119.265 189.499 119.265C194.628 119.265 198.8 115.092 198.8 109.964V105.991L210.857 110.349L208.027 146.842C208.013 147.026 208.022 147.211 208.054 147.392L210.56 161.64H168.439L170.945 147.392C170.976 147.211 170.986 147.026 170.971 146.842L169.717 130.682C169.624 129.472 168.565 128.568 167.357 128.661C166.147 128.755 165.242 129.812 165.336 131.022L166.568 146.905L165.511 152.917L137.548 169.927H129.285C128.864 169.926 128.522 169.584 128.522 169.164ZM170.344 193.605H156.537H155.58C153.704 193.605 152.178 192.079 152.178 190.204C152.178 188.543 153.366 187.133 155.002 186.851L170.344 184.204V193.605ZM172.192 179.427C172.184 179.428 172.176 179.429 172.168 179.43L154.255 182.521C150.506 183.168 147.784 186.398 147.784 190.204C147.784 191.423 148.066 192.577 148.567 193.605H143.284C141.941 193.605 140.669 193.302 139.529 192.762C139.51 192.754 139.491 192.746 139.473 192.737C139.469 192.735 139.465 192.733 139.461 192.731C136.52 191.306 134.487 188.291 134.487 184.81V182.152C134.487 180.371 135.023 178.658 136.001 177.217C136.445 176.562 136.981 175.964 137.599 175.441C138.576 174.614 139.704 174.022 140.903 173.684C140.92 173.68 140.935 173.674 140.952 173.67C140.964 173.667 140.976 173.664 140.987 173.661C142.194 173.335 143.471 173.266 144.737 173.478C144.74 173.479 144.743 173.479 144.746 173.479L176.208 178.754L172.192 179.427Z" fill="white"/>
<path d="M152.299 88.1494H153.062V90.688C153.062 91.9015 154.045 92.8853 155.259 92.8853C156.472 92.8853 157.456 91.9015 157.456 90.688V88.1494H158.219C159.432 88.1494 160.416 87.1656 160.416 85.9522C160.416 84.7387 159.432 83.7549 158.219 83.7549H157.456V81.2163C157.456 80.0028 156.472 79.019 155.259 79.019C154.045 79.019 153.062 80.0028 153.062 81.2163V83.7549H152.299C151.086 83.7549 150.102 84.7387 150.102 85.9522C150.102 87.1656 151.086 88.1494 152.299 88.1494Z" fill="white"/>
<path d="M218.506 62.3931H219.269V64.9316C219.269 66.1451 220.253 67.1289 221.466 67.1289C222.68 67.1289 223.664 66.1451 223.664 64.9316V62.3931H224.426C225.64 62.3931 226.624 61.4093 226.624 60.1958C226.624 58.9823 225.64 57.9985 224.426 57.9985H223.664V55.46C223.664 54.2465 222.68 53.2627 221.466 53.2627C220.253 53.2627 219.269 54.2465 219.269 55.46V57.9985H218.506C217.292 57.9985 216.309 58.9823 216.309 60.1958C216.309 61.4093 217.292 62.3931 218.506 62.3931Z" fill="white"/>
<path d="M229.125 98.6001H229.888V101.139C229.888 102.352 230.872 103.336 232.085 103.336C233.299 103.336 234.283 102.352 234.283 101.139V98.6001H235.046C236.259 98.6001 237.243 97.6163 237.243 96.4028C237.243 95.1894 236.259 94.2056 235.046 94.2056H234.283V91.667C234.283 90.4535 233.299 89.4697 232.085 89.4697C230.872 89.4697 229.888 90.4535 229.888 91.667V94.2056H229.125C227.912 94.2056 226.928 95.1894 226.928 96.4028C226.928 97.6163 227.912 98.6001 229.125 98.6001Z" fill="white"/>
<path d="M175.315 137.893C177.262 139.16 179.451 139.766 181.617 139.766C184.494 139.766 187.33 138.696 189.499 136.691C193.301 140.206 199.151 140.843 203.683 137.893C204.701 137.23 204.988 135.869 204.326 134.852C203.664 133.835 202.302 133.548 201.286 134.21C197.964 136.372 193.503 135.43 191.341 132.109C190.935 131.486 190.242 131.11 189.499 131.11C188.756 131.11 188.064 131.486 187.658 132.109C186.61 133.718 184.999 134.822 183.121 135.219C181.243 135.616 179.322 135.258 177.713 134.21C176.697 133.548 175.335 133.836 174.673 134.853C174.011 135.87 174.298 137.23 175.315 137.893Z" fill="white"/>
<path d="M157.212 224.636H160.036L165.684 234.142H165.922L171.57 224.636H174.394L167.036 236.608V245H164.57V236.608L157.212 224.636ZM181.309 245.318C179.931 245.318 178.721 244.99 177.68 244.334C176.646 243.678 175.837 242.759 175.254 241.58C174.677 240.4 174.389 239.021 174.389 237.443C174.389 235.852 174.677 234.464 175.254 233.277C175.837 232.09 176.646 231.169 177.68 230.513C178.721 229.857 179.931 229.528 181.309 229.528C182.688 229.528 183.895 229.857 184.929 230.513C185.969 231.169 186.778 232.09 187.355 233.277C187.938 234.464 188.23 235.852 188.23 237.443C188.23 239.021 187.938 240.4 187.355 241.58C186.778 242.759 185.969 243.678 184.929 244.334C183.895 244.99 182.688 245.318 181.309 245.318ZM181.309 243.21C182.357 243.21 183.218 242.942 183.895 242.405C184.571 241.868 185.071 241.162 185.396 240.287C185.721 239.412 185.883 238.464 185.883 237.443C185.883 236.422 185.721 235.471 185.396 234.589C185.071 233.708 184.571 232.995 183.895 232.452C183.218 231.908 182.357 231.636 181.309 231.636C180.262 231.636 179.4 231.908 178.724 232.452C178.048 232.995 177.547 233.708 177.223 234.589C176.898 235.471 176.735 236.422 176.735 237.443C176.735 238.464 176.898 239.412 177.223 240.287C177.547 241.162 178.048 241.868 178.724 242.405C179.4 242.942 180.262 243.21 181.309 243.21ZM197.977 251.045C196.843 251.045 195.869 250.9 195.053 250.608C194.238 250.323 193.558 249.945 193.015 249.474C192.478 249.01 192.05 248.513 191.732 247.983L193.602 246.67C193.814 246.949 194.082 247.267 194.407 247.625C194.732 247.99 195.176 248.304 195.739 248.57C196.309 248.841 197.055 248.977 197.977 248.977C199.21 248.977 200.227 248.679 201.029 248.082C201.831 247.486 202.232 246.551 202.232 245.278V242.176H202.033C201.861 242.455 201.616 242.799 201.298 243.21C200.986 243.615 200.535 243.976 199.945 244.294C199.362 244.606 198.573 244.761 197.579 244.761C196.346 244.761 195.239 244.47 194.258 243.886C193.283 243.303 192.511 242.455 191.941 241.341C191.378 240.227 191.096 238.875 191.096 237.284C191.096 235.72 191.371 234.357 191.921 233.197C192.471 232.031 193.237 231.129 194.218 230.493C195.199 229.85 196.333 229.528 197.619 229.528C198.613 229.528 199.402 229.694 199.985 230.026C200.575 230.35 201.026 230.722 201.337 231.139C201.656 231.55 201.901 231.888 202.073 232.153H202.312V229.727H204.579V245.438C204.579 246.75 204.281 247.817 203.684 248.639C203.094 249.468 202.299 250.074 201.298 250.459C200.303 250.85 199.196 251.045 197.977 251.045ZM197.897 242.653C198.838 242.653 199.634 242.438 200.283 242.007C200.933 241.576 201.427 240.956 201.765 240.148C202.103 239.339 202.272 238.371 202.272 237.244C202.272 236.144 202.106 235.173 201.775 234.331C201.443 233.489 200.953 232.83 200.303 232.352C199.654 231.875 198.852 231.636 197.897 231.636C196.903 231.636 196.074 231.888 195.411 232.392C194.755 232.896 194.261 233.572 193.93 234.42C193.605 235.269 193.442 236.21 193.442 237.244C193.442 238.305 193.608 239.243 193.94 240.058C194.278 240.867 194.775 241.503 195.431 241.967C196.094 242.425 196.916 242.653 197.897 242.653ZM213.369 245.358C212.401 245.358 211.522 245.176 210.734 244.811C209.945 244.44 209.318 243.906 208.854 243.21C208.39 242.508 208.158 241.659 208.158 240.665C208.158 239.79 208.331 239.08 208.675 238.537C209.02 237.987 209.481 237.556 210.058 237.244C210.634 236.933 211.271 236.701 211.967 236.548C212.669 236.389 213.375 236.263 214.085 236.17C215.013 236.051 215.765 235.962 216.342 235.902C216.925 235.836 217.349 235.726 217.614 235.574C217.886 235.421 218.022 235.156 218.022 234.778V234.699C218.022 233.718 217.754 232.955 217.217 232.412C216.686 231.868 215.881 231.597 214.8 231.597C213.68 231.597 212.802 231.842 212.165 232.332C211.529 232.823 211.082 233.347 210.823 233.903L208.596 233.108C208.994 232.18 209.524 231.457 210.187 230.94C210.856 230.417 211.585 230.052 212.374 229.847C213.17 229.634 213.952 229.528 214.721 229.528C215.211 229.528 215.775 229.588 216.411 229.707C217.054 229.82 217.674 230.055 218.271 230.413C218.874 230.771 219.374 231.312 219.772 232.034C220.17 232.757 220.369 233.724 220.369 234.938V245H218.022V242.932H217.903C217.744 243.263 217.478 243.618 217.107 243.996C216.736 244.374 216.242 244.695 215.626 244.96C215.009 245.225 214.257 245.358 213.369 245.358ZM213.727 243.25C214.655 243.25 215.437 243.068 216.073 242.703C216.716 242.339 217.2 241.868 217.525 241.291C217.856 240.714 218.022 240.108 218.022 239.472V237.324C217.923 237.443 217.704 237.553 217.366 237.652C217.034 237.745 216.65 237.828 216.212 237.901C215.781 237.967 215.361 238.027 214.95 238.08C214.545 238.126 214.217 238.166 213.965 238.199C213.355 238.278 212.785 238.408 212.255 238.587C211.731 238.759 211.307 239.021 210.982 239.372C210.664 239.717 210.505 240.187 210.505 240.784C210.505 241.599 210.807 242.216 211.41 242.634C212.02 243.045 212.792 243.25 213.727 243.25Z" fill="white"/>
</svg>
