<svg width="379" height="300" viewBox="0 0 379 300" fill="none" xmlns="http://www.w3.org/2000/svg">
<rect x="1" y="1" width="377" height="298" rx="11" stroke="white" stroke-width="2"/>
<g clip-path="url(#clip0_91_807)">
<path d="M242.533 69.9668C228.367 55.8015 209.533 48 189.5 48C169.467 48 150.633 55.8015 136.467 69.9668C122.301 84.1324 114.5 102.967 114.5 123C114.5 135.742 117.758 148.334 123.923 159.412C124.513 160.473 125.851 160.854 126.911 160.264C127.972 159.674 128.353 158.336 127.763 157.276C121.961 146.849 118.895 134.996 118.895 123C118.895 104.14 126.239 86.41 139.574 73.0743C152.91 59.7387 170.64 52.3945 189.5 52.3945C208.359 52.3945 226.09 59.7387 239.425 73.0743C252.761 86.41 260.105 104.141 260.105 123C260.105 141.859 252.761 159.59 239.425 172.926C226.09 186.261 208.359 193.605 189.5 193.605C167.735 193.605 147.513 183.79 134.021 166.674C133.27 165.722 131.888 165.558 130.935 166.309C129.982 167.06 129.818 168.442 130.57 169.395C144.901 187.574 166.38 198 189.5 198C209.533 198 228.367 190.199 242.533 176.033C256.699 161.868 264.5 143.033 264.5 123C264.5 102.967 256.699 84.1324 242.533 69.9668Z" fill="white"/>
<path d="M233.473 83.8875C222.472 79.7294 211.055 78.9185 201.324 81.6056C192.954 83.9163 185.858 89.3986 181.855 96.6466C178.07 103.501 177.449 111.075 180.194 116.908C181.898 120.53 184.721 123.507 188.135 125.549C188.103 126.316 188.085 127.1 188.085 127.91V145.756C186.93 143.967 185.599 142.255 184.136 140.656C185.472 137.309 185.669 133.591 184.602 130.068C183.296 125.757 180.427 122.36 176.307 120.246C170.783 117.41 163.143 117.082 156.368 119.39C145.553 123.074 140.712 130.195 140.511 130.496C140.092 131.126 140.026 131.927 140.336 132.616C140.647 133.306 141.291 133.788 142.04 133.891C146.846 134.553 149.36 137.605 152.272 141.138C155.642 145.228 159.462 149.863 167.305 150.803C167.937 150.879 168.568 150.916 169.196 150.916C173.88 150.916 178.358 148.837 181.452 145.149C181.58 144.995 181.699 144.836 181.822 144.679C184.588 147.954 186.714 151.679 187.747 155.435C187.818 155.695 187.936 155.929 188.086 156.135V169.584C188.086 170.798 189.069 171.782 190.283 171.782C191.497 171.782 192.48 170.798 192.48 169.584V127.911C192.48 127.784 192.482 127.66 192.483 127.534C194.565 128.215 196.761 128.579 198.986 128.579C199.58 128.579 200.176 128.553 200.773 128.5C209.112 127.761 216.148 121.871 219.595 112.745C219.896 111.947 220.191 111.087 220.496 110.115C220.859 108.957 220.215 107.724 219.057 107.36C217.899 106.997 216.666 107.642 216.303 108.799C216.023 109.691 215.755 110.474 215.484 111.192C212.647 118.702 207.003 123.536 200.385 124.123C197.771 124.355 195.131 123.901 192.721 122.912C194.178 108.361 201.778 104.238 202.164 104.038C203.241 103.497 203.682 102.187 203.148 101.103C202.612 100.015 201.296 99.5661 200.206 100.103C199.773 100.317 190.828 104.915 188.59 120.504C186.715 119.026 185.173 117.167 184.171 115.037C182.024 110.476 182.597 104.395 185.703 98.7709C189.137 92.5518 195.257 87.8394 202.494 85.8416C210.253 83.6998 219.252 84.0285 228.191 86.7311C225.13 89.4214 222.709 92.4106 220.971 95.6538C220.398 96.7231 220.8 98.0549 221.87 98.6283C222.2 98.8052 222.555 98.8893 222.905 98.8893C223.689 98.8893 224.448 98.4689 224.844 97.7297C226.834 94.0166 229.909 90.6569 233.982 87.7439C234.758 87.2224 235.133 86.2925 234.926 85.4286C234.656 84.2974 233.539 83.9092 233.473 83.8875ZM167.828 146.44C161.733 145.71 158.785 142.131 155.664 138.343C153.24 135.403 150.561 132.151 146.31 130.485C148.429 128.405 152.173 125.462 157.785 123.55C163.471 121.613 169.799 121.846 174.301 124.155C177.379 125.735 179.43 128.153 180.396 131.342C180.985 133.284 181.04 135.309 180.608 137.239C176.02 133.311 170.635 130.498 165.352 129.64C164.153 129.447 163.026 130.259 162.831 131.457C162.637 132.655 163.45 133.783 164.648 133.978C169.496 134.765 174.545 137.588 178.74 141.461C178.534 141.755 178.319 142.045 178.084 142.324C175.495 145.411 171.755 146.911 167.828 146.44Z" fill="white"/>
</g>
<path d="M97.0707 245H94.4854L101.963 224.636H104.508L111.985 245H109.4L103.315 227.858H103.156L97.0707 245ZM98.0252 237.045H108.446V239.233H98.0252V237.045ZM114.839 245V229.727H117.106V232.114H117.305C117.623 231.298 118.137 230.665 118.846 230.214C119.556 229.757 120.407 229.528 121.402 229.528C122.409 229.528 123.248 229.757 123.917 230.214C124.593 230.665 125.12 231.298 125.498 232.114H125.657C126.048 231.325 126.635 230.698 127.417 230.234C128.199 229.764 129.137 229.528 130.231 229.528C131.597 229.528 132.714 229.956 133.582 230.811C134.45 231.66 134.885 232.982 134.885 234.778V245H132.538V234.778C132.538 233.652 132.23 232.846 131.613 232.362C130.997 231.878 130.271 231.636 129.436 231.636C128.362 231.636 127.53 231.961 126.94 232.611C126.35 233.254 126.055 234.069 126.055 235.057V245H123.669V234.54C123.669 233.671 123.387 232.972 122.824 232.442C122.26 231.905 121.534 231.636 120.646 231.636C120.036 231.636 119.466 231.799 118.936 232.124C118.412 232.448 117.988 232.899 117.663 233.476C117.345 234.046 117.186 234.705 117.186 235.455V245H114.839ZM139.493 245V224.636H141.84V232.153H142.039C142.211 231.888 142.45 231.55 142.755 231.139C143.066 230.722 143.51 230.35 144.087 230.026C144.67 229.694 145.459 229.528 146.453 229.528C147.739 229.528 148.873 229.85 149.854 230.493C150.835 231.136 151.601 232.047 152.151 233.227C152.701 234.407 152.976 235.799 152.976 237.403C152.976 239.021 152.701 240.423 152.151 241.609C151.601 242.789 150.838 243.704 149.864 244.354C148.89 244.997 147.766 245.318 146.493 245.318C145.512 245.318 144.727 245.156 144.137 244.831C143.547 244.5 143.093 244.125 142.775 243.707C142.456 243.283 142.211 242.932 142.039 242.653H141.76V245H139.493ZM141.8 237.364C141.8 238.517 141.969 239.535 142.307 240.416C142.645 241.291 143.139 241.977 143.789 242.474C144.438 242.965 145.234 243.21 146.175 243.21C147.156 243.21 147.975 242.952 148.631 242.435C149.294 241.911 149.791 241.208 150.123 240.327C150.461 239.438 150.63 238.451 150.63 237.364C150.63 236.29 150.464 235.322 150.132 234.46C149.808 233.592 149.314 232.906 148.651 232.402C147.995 231.892 147.169 231.636 146.175 231.636C145.221 231.636 144.418 231.878 143.769 232.362C143.119 232.839 142.629 233.509 142.297 234.371C141.966 235.226 141.8 236.223 141.8 237.364ZM156.566 245V229.727H158.912V245H156.566ZM157.759 227.182C157.301 227.182 156.907 227.026 156.576 226.714C156.251 226.403 156.088 226.028 156.088 225.591C156.088 225.153 156.251 224.779 156.576 224.467C156.907 224.156 157.301 224 157.759 224C158.216 224 158.607 224.156 158.932 224.467C159.264 224.779 159.429 225.153 159.429 225.591C159.429 226.028 159.264 226.403 158.932 226.714C158.607 227.026 158.216 227.182 157.759 227.182ZM169.614 245.318C168.142 245.318 166.873 244.993 165.805 244.344C164.745 243.688 163.926 242.773 163.349 241.599C162.779 240.42 162.494 239.047 162.494 237.483C162.494 235.919 162.779 234.54 163.349 233.347C163.926 232.147 164.728 231.212 165.756 230.543C166.79 229.866 167.996 229.528 169.375 229.528C170.17 229.528 170.956 229.661 171.732 229.926C172.507 230.191 173.213 230.622 173.849 231.219C174.486 231.809 174.993 232.591 175.371 233.565C175.749 234.54 175.938 235.74 175.938 237.165V238.159H164.165V236.131H173.551C173.551 235.269 173.379 234.5 173.034 233.824C172.696 233.148 172.212 232.614 171.582 232.223C170.959 231.832 170.223 231.636 169.375 231.636C168.44 231.636 167.632 231.868 166.949 232.332C166.273 232.79 165.752 233.386 165.388 234.122C165.023 234.858 164.841 235.647 164.841 236.489V237.841C164.841 238.994 165.04 239.972 165.438 240.774C165.842 241.57 166.402 242.176 167.118 242.594C167.834 243.005 168.666 243.21 169.614 243.21C170.23 243.21 170.787 243.124 171.284 242.952C171.788 242.773 172.222 242.508 172.587 242.156C172.951 241.798 173.233 241.354 173.432 240.824L175.699 241.46C175.46 242.229 175.059 242.905 174.496 243.489C173.932 244.065 173.236 244.516 172.408 244.841C171.579 245.159 170.648 245.318 169.614 245.318ZM181.854 235.812V245H179.507V229.727H181.774V232.114H181.973C182.331 231.338 182.875 230.715 183.604 230.244C184.333 229.767 185.274 229.528 186.428 229.528C187.462 229.528 188.366 229.741 189.142 230.165C189.918 230.582 190.521 231.219 190.952 232.074C191.383 232.922 191.598 233.996 191.598 235.295V245H189.251V235.455C189.251 234.255 188.94 233.32 188.317 232.651C187.694 231.974 186.839 231.636 185.751 231.636C185.002 231.636 184.333 231.799 183.743 232.124C183.16 232.448 182.699 232.922 182.361 233.545C182.023 234.169 181.854 234.924 181.854 235.812ZM202.528 229.727V231.716H194.613V229.727H202.528ZM196.92 226.068H199.267V240.625C199.267 241.288 199.363 241.785 199.555 242.116C199.754 242.441 200.006 242.66 200.311 242.773C200.622 242.879 200.95 242.932 201.295 242.932C201.554 242.932 201.766 242.919 201.931 242.892C202.097 242.859 202.23 242.832 202.329 242.812L202.806 244.92C202.647 244.98 202.425 245.04 202.14 245.099C201.855 245.166 201.494 245.199 201.056 245.199C200.394 245.199 199.744 245.056 199.108 244.771C198.478 244.486 197.954 244.052 197.537 243.469C197.126 242.885 196.92 242.15 196.92 241.261V226.068ZM213.137 226.824V224.636H228.41V226.824H222.007V245H219.541V226.824H213.137ZM230.312 245V229.727H232.579V232.034H232.738C233.016 231.278 233.52 230.665 234.249 230.195C234.978 229.724 235.8 229.489 236.715 229.489C236.888 229.489 237.103 229.492 237.362 229.499C237.62 229.505 237.816 229.515 237.948 229.528V231.915C237.869 231.895 237.686 231.865 237.401 231.825C237.123 231.779 236.828 231.756 236.516 231.756C235.774 231.756 235.111 231.911 234.528 232.223C233.951 232.528 233.494 232.952 233.156 233.496C232.824 234.033 232.658 234.646 232.658 235.335V245H230.312ZM245.224 245.358C244.256 245.358 243.378 245.176 242.589 244.811C241.8 244.44 241.174 243.906 240.71 243.21C240.246 242.508 240.014 241.659 240.014 240.665C240.014 239.79 240.186 239.08 240.531 238.537C240.876 237.987 241.336 237.556 241.913 237.244C242.49 236.933 243.126 236.701 243.822 236.548C244.525 236.389 245.231 236.263 245.94 236.17C246.868 236.051 247.62 235.962 248.197 235.902C248.78 235.836 249.205 235.726 249.47 235.574C249.742 235.421 249.877 235.156 249.877 234.778V234.699C249.877 233.718 249.609 232.955 249.072 232.412C248.542 231.868 247.736 231.597 246.656 231.597C245.536 231.597 244.657 231.842 244.021 232.332C243.385 232.823 242.937 233.347 242.679 233.903L240.451 233.108C240.849 232.18 241.379 231.457 242.042 230.94C242.712 230.417 243.441 230.052 244.23 229.847C245.025 229.634 245.807 229.528 246.576 229.528C247.067 229.528 247.63 229.588 248.267 229.707C248.91 229.82 249.529 230.055 250.126 230.413C250.729 230.771 251.23 231.312 251.627 232.034C252.025 232.757 252.224 233.724 252.224 234.938V245H249.877V242.932H249.758C249.599 243.263 249.334 243.618 248.963 243.996C248.592 244.374 248.098 244.695 247.481 244.96C246.865 245.225 246.112 245.358 245.224 245.358ZM245.582 243.25C246.51 243.25 247.292 243.068 247.929 242.703C248.572 242.339 249.056 241.868 249.38 241.291C249.712 240.714 249.877 240.108 249.877 239.472V237.324C249.778 237.443 249.559 237.553 249.221 237.652C248.89 237.745 248.505 237.828 248.068 237.901C247.637 237.967 247.216 238.027 246.805 238.08C246.401 238.126 246.073 238.166 245.821 238.199C245.211 238.278 244.641 238.408 244.11 238.587C243.587 238.759 243.163 239.021 242.838 239.372C242.52 239.717 242.36 240.187 242.36 240.784C242.36 241.599 242.662 242.216 243.265 242.634C243.875 243.045 244.647 243.25 245.582 243.25ZM262.712 245.318C261.28 245.318 260.047 244.98 259.013 244.304C257.979 243.628 257.183 242.696 256.626 241.51C256.07 240.323 255.791 238.968 255.791 237.443C255.791 235.892 256.076 234.523 256.646 233.337C257.223 232.143 258.025 231.212 259.053 230.543C260.087 229.866 261.293 229.528 262.672 229.528C263.746 229.528 264.714 229.727 265.575 230.125C266.437 230.523 267.143 231.08 267.693 231.795C268.243 232.511 268.585 233.347 268.717 234.301H266.371C266.192 233.605 265.794 232.989 265.178 232.452C264.568 231.908 263.746 231.636 262.712 231.636C261.797 231.636 260.995 231.875 260.305 232.352C259.623 232.823 259.089 233.489 258.705 234.351C258.327 235.206 258.138 236.21 258.138 237.364C258.138 238.544 258.323 239.571 258.695 240.446C259.072 241.321 259.603 242 260.286 242.484C260.975 242.968 261.784 243.21 262.712 243.21C263.321 243.21 263.875 243.104 264.372 242.892C264.869 242.68 265.29 242.375 265.635 241.977C265.98 241.58 266.225 241.102 266.371 240.545H268.717C268.585 241.447 268.257 242.259 267.733 242.982C267.216 243.697 266.53 244.268 265.675 244.692C264.826 245.109 263.839 245.318 262.712 245.318ZM274.335 239.432L274.295 236.528H274.773L281.455 229.727H284.358L277.239 236.926H277.04L274.335 239.432ZM272.148 245V224.636H274.494V245H272.148ZM281.852 245L275.886 237.443L277.557 235.812L284.835 245H281.852Z" fill="white"/>
<defs>
<clipPath id="clip0_91_807">
<rect width="150" height="150" fill="white" transform="translate(114.5 48)"/>
</clipPath>
</defs>
</svg>
