<svg width="379" height="300" viewBox="0 0 379 300" fill="none" xmlns="http://www.w3.org/2000/svg">
<path d="M12 1H367C373.075 1 378 5.92487 378 12V288C378 294.075 373.075 299 367 299H12C5.92487 299 1 294.075 1 288V12C1 5.92487 5.92487 1 12 1Z" stroke="white" stroke-width="2"/>
<g clip-path="url(#clip0_91_156)">
<path d="M127.464 186.128H251.536C253.895 186.128 256.038 185.165 257.59 183.611C259.143 182.058 260.107 179.916 260.107 177.558C260.107 175.207 259.143 173.065 257.59 171.512C256.037 169.959 253.895 168.996 251.536 168.996H235.832H192.349H146.789H127.464C125.113 168.996 122.971 169.959 121.418 171.512C119.857 173.065 118.893 175.207 118.893 177.558C118.893 179.916 119.857 182.059 121.418 183.611C122.971 185.165 125.113 186.128 127.464 186.128ZM233.64 137.571C233.64 136.358 234.62 135.378 235.832 135.378C237.045 135.378 238.033 136.358 238.033 137.571V148.848C240.325 148.408 242.368 147.279 243.954 145.693C246.039 143.617 247.317 140.743 247.317 137.571C247.317 136.682 247.226 135.827 247.027 134.963C246.761 133.784 247.492 132.605 248.679 132.339C249.859 132.065 251.03 132.804 251.304 133.983C251.57 135.154 251.711 136.375 251.711 137.571C251.711 141.956 249.934 145.925 247.06 148.807C244.677 151.19 241.537 152.818 238.033 153.308V164.602H251.536C255.107 164.602 258.346 166.056 260.697 168.406C263.047 170.756 264.5 173.994 264.5 177.557C264.5 181.128 263.047 184.367 260.697 186.717C258.346 189.067 255.107 190.521 251.536 190.521H127.464C123.893 190.521 120.654 189.067 118.303 186.717C115.962 184.367 114.5 181.128 114.5 177.557C114.5 173.994 115.962 170.756 118.303 168.406C120.654 166.055 123.893 164.602 127.464 164.602H144.596V153.324C140.352 152.826 136.549 150.891 133.676 148.026C130.32 144.671 128.244 140.029 128.244 134.913C128.244 129.789 130.321 125.155 133.676 121.8C137.031 118.445 141.673 116.369 146.789 116.369C148.815 116.369 150.758 116.692 152.586 117.299C154.471 117.914 156.231 118.835 157.801 120.006C158.773 120.72 158.98 122.099 158.258 123.071C157.535 124.042 156.165 124.242 155.193 123.519C154.006 122.647 152.669 121.949 151.215 121.468C149.828 121.011 148.342 120.762 146.789 120.762C142.886 120.762 139.348 122.348 136.782 124.906C134.224 127.464 132.638 131.002 132.638 134.913C132.638 138.816 134.224 142.354 136.782 144.92C138.858 146.988 141.565 148.416 144.597 148.89V145.286L138.925 139.613C138.061 138.758 138.061 137.363 138.925 136.507C139.78 135.652 141.175 135.652 142.031 136.507L144.597 139.065V134.913C144.597 133.7 145.577 132.712 146.789 132.712C148.002 132.712 148.99 133.7 148.99 134.913V148.89C152.013 148.416 154.72 146.988 156.796 144.92C159.354 142.354 160.94 138.816 160.94 134.913C160.94 133.369 160.708 131.873 160.218 130.412C159.828 129.266 160.45 128.02 161.596 127.638C162.743 127.256 163.988 127.87 164.37 129.017C165.001 130.91 165.334 132.92 165.334 134.913C165.334 140.029 163.258 144.671 159.902 148.026C157.037 150.891 153.234 152.826 148.99 153.324V164.602H190.148V153.274C185.755 152.535 181.868 149.62 178.978 145.285C175.798 140.51 173.829 133.949 173.829 126.741C173.829 119.533 175.798 112.972 178.978 108.197C182.342 103.148 187.059 100.025 192.349 100.025C194.417 100.025 196.418 100.515 198.287 101.42C200.164 102.326 201.9 103.646 203.444 105.307C204.275 106.195 204.225 107.582 203.336 108.404C202.447 109.235 201.061 109.185 200.238 108.296C199.059 107.026 197.764 106.029 196.385 105.365C195.115 104.75 193.752 104.418 192.349 104.418C188.62 104.418 185.182 106.785 182.641 110.613C179.909 114.708 178.222 120.404 178.222 126.741C178.222 133.077 179.908 138.774 182.632 142.869C184.675 145.925 187.283 148.051 190.148 148.782V126.741C190.148 125.529 191.137 124.54 192.349 124.54C193.561 124.54 194.541 125.529 194.541 126.741V135.428L198.752 131.217C199.615 130.362 201.002 130.362 201.866 131.217C202.721 132.073 202.721 133.468 201.866 134.323L194.541 141.64V148.782C197.415 148.051 200.022 145.925 202.057 142.869C204.781 138.774 206.467 133.078 206.467 126.741C206.467 124.814 206.317 122.971 206.027 121.235C205.736 119.416 205.296 117.697 204.739 116.095C204.341 114.949 204.938 113.703 206.085 113.305C207.222 112.906 208.476 113.512 208.875 114.65C209.514 116.494 210.021 118.47 210.353 120.529C210.685 122.539 210.86 124.624 210.86 126.741C210.86 133.95 208.892 140.51 205.711 145.286C202.829 149.621 198.934 152.536 194.541 153.275V164.602H233.64V153.308C230.127 152.818 226.987 151.19 224.604 148.807C221.73 145.925 219.953 141.955 219.953 137.571C219.953 133.186 221.73 129.216 224.604 126.343C227.478 123.469 231.447 121.692 235.832 121.692C237.484 121.692 239.087 121.949 240.599 122.423C242.168 122.921 243.63 123.644 244.942 124.565C245.93 125.263 246.171 126.633 245.473 127.622C244.776 128.618 243.414 128.851 242.417 128.153C241.47 127.489 240.424 126.966 239.295 126.617C238.207 126.268 237.044 126.085 235.832 126.085C232.659 126.085 229.786 127.372 227.71 129.449C225.633 131.525 224.346 134.398 224.346 137.571C224.346 140.743 225.633 143.616 227.71 145.693C229.296 147.279 231.347 148.408 233.639 148.848V146.108L229.761 142.229C228.897 141.374 228.897 139.979 229.761 139.123C230.616 138.268 232.003 138.268 232.867 139.123L233.639 139.896V137.571H233.64ZM233.282 99.5022C234.495 99.5022 235.483 100.49 235.483 101.703C235.483 102.916 234.495 103.895 233.282 103.895H221.971C219.231 103.895 216.74 102.783 214.937 100.972C213.8 99.8426 212.936 98.4308 212.454 96.8529C208.028 95.8231 204.141 93.39 201.284 90.0431C198.162 86.3807 196.277 81.6305 196.277 76.4485C196.277 70.6603 198.619 65.4118 202.414 61.6246C206.209 57.8294 211.449 55.4792 217.238 55.4792C222.129 55.4792 226.622 57.1568 230.193 59.9637C233.507 62.5714 236.023 66.1755 237.286 70.3278C238.398 70.7596 239.445 71.3409 240.392 72.0384C241.853 73.118 243.099 74.4882 244.029 76.058C244.154 75.9915 244.278 75.9252 244.411 75.8587C245.532 75.3024 246.778 74.9951 248.098 74.9951C250.399 74.9951 252.492 75.9252 253.995 77.4364C255.506 78.9478 256.445 81.0323 256.445 83.3412C256.445 83.6151 256.428 83.8808 256.403 84.155C258.405 84.5371 260.19 85.517 261.577 86.9037C263.379 88.7057 264.501 91.1971 264.501 93.9378C264.501 96.6783 263.379 99.1697 261.577 100.972C259.775 102.782 257.284 103.895 254.543 103.895H243.232C242.02 103.895 241.04 102.915 241.04 101.703C241.04 100.49 242.02 99.5019 243.232 99.5019H254.543C256.071 99.5019 257.466 98.8791 258.471 97.866C259.484 96.8611 260.108 95.466 260.108 93.9378C260.108 92.4097 259.485 91.0228 258.471 90.0097C257.466 89.0048 256.071 88.3738 254.543 88.3738C253.862 88.3738 253.165 88.4485 252.542 88.1163C251.471 87.5599 251.055 86.2395 251.612 85.1681C251.911 84.5869 252.052 83.9889 252.052 83.3412C252.052 82.2449 251.604 81.2567 250.889 80.5424C250.175 79.8282 249.187 79.3881 248.099 79.3881C247.459 79.3881 246.87 79.5293 246.346 79.7866C245.798 80.0608 245.325 80.451 244.96 80.9327C244.677 81.298 244.295 81.5637 243.864 81.6967C242.701 82.0539 241.48 81.3976 241.123 80.2436C240.542 78.3583 239.362 76.7224 237.801 75.5763C236.282 74.4551 234.404 73.7992 232.37 73.7992C229.837 73.7992 227.545 74.8205 225.892 76.4734C224.231 78.1342 223.21 80.4264 223.21 82.9509C223.21 84.1884 223.609 85.0269 223.675 86.057C223.75 87.2696 222.828 88.3076 221.623 88.3823C220.162 88.4734 218.858 89.1381 217.919 90.1345C216.981 91.1312 216.408 92.4765 216.408 93.9381C216.408 95.4663 217.039 96.8614 218.044 97.8663C219.057 98.8793 220.444 99.5022 221.972 99.5022H233.282ZM212.163 92.2357C212.504 90.2924 213.417 88.5235 214.721 87.1366C215.859 85.924 217.287 85.0023 218.907 84.4708C218.849 83.9643 218.816 83.4575 218.816 82.9509C218.816 79.2056 220.336 75.8256 222.785 73.3673C225.21 70.9424 228.557 69.431 232.253 69.3979C231.148 67.0559 229.504 65.0045 227.478 63.4102C224.662 61.193 221.108 59.8723 217.238 59.8723C212.662 59.8723 208.518 61.7327 205.52 64.7306C202.522 67.7286 200.67 71.8726 200.67 76.4485C200.67 80.5509 202.156 84.3047 204.614 87.1946C206.599 89.5117 209.199 91.2806 212.163 92.2357ZM126.517 96.1055C125.304 96.1055 124.325 95.1255 124.325 93.9132C124.325 92.6924 125.305 91.7125 126.517 91.7125C129.673 91.7125 132.596 92.734 134.98 94.4696C136.184 95.35 137.247 96.4128 138.127 97.6172C139.007 96.4131 140.07 95.35 141.283 94.4696C143.667 92.734 146.589 91.7125 149.737 91.7125C150.949 91.7125 151.938 92.6924 151.938 93.9132C151.938 95.1255 150.949 96.1055 149.737 96.1055C147.528 96.1055 145.493 96.8113 143.858 98.0072C142.163 99.2362 140.876 100.988 140.22 103.023C140.012 103.679 139.505 104.227 138.8 104.452C137.645 104.825 136.416 104.186 136.043 103.04C135.387 100.997 134.099 99.2447 132.405 98.0072C130.761 96.8113 128.726 96.1055 126.517 96.1055ZM167.459 86.3227C166.247 86.3227 165.267 85.3427 165.267 84.1301C165.267 82.9093 166.247 81.9293 167.459 81.9293C170.025 81.9293 172.401 82.7599 174.344 84.1799C175.15 84.7697 175.88 85.4587 176.52 86.231C177.151 85.4587 177.882 84.7694 178.687 84.1799C180.63 82.7599 183.005 81.9293 185.572 81.9293C186.784 81.9293 187.764 82.9093 187.764 84.1301C187.764 85.3427 186.784 86.3227 185.572 86.3227C183.952 86.3227 182.466 86.8375 181.262 87.7096C180.033 88.6149 179.086 89.8937 178.604 91.3802C178.397 92.0365 177.89 92.5843 177.184 92.8087C176.03 93.1826 174.801 92.543 174.427 91.3969C173.954 89.9022 173.007 88.6149 171.77 87.7099C170.565 86.8375 169.079 86.3227 167.459 86.3227ZM137.761 66.4747C136.549 66.4747 135.569 65.4862 135.569 64.2739C135.569 63.0616 136.549 62.0731 137.761 62.0731C141.499 62.0731 144.962 63.2857 147.785 65.3453C149.388 66.5163 150.783 67.9612 151.896 69.6138C153.009 67.9612 154.404 66.5163 156.015 65.3453C158.839 63.2857 162.302 62.0731 166.031 62.0731C167.243 62.0731 168.231 63.0616 168.231 64.2739C168.231 65.4865 167.243 66.4747 166.031 66.4747C163.24 66.4747 160.666 67.3632 158.589 68.8829C156.455 70.4359 154.819 72.6531 153.989 75.2277C153.781 75.8836 153.274 76.4318 152.569 76.6562C151.414 77.0218 150.185 76.3905 149.811 75.2362C148.981 72.6616 147.353 70.4362 145.21 68.8832C143.126 67.3632 140.56 66.4747 137.761 66.4747Z" fill="white"/>
</g>
<path d="M158.552 245V224.636H165.671C167.09 224.636 168.26 224.882 169.181 225.372C170.103 225.856 170.789 226.509 171.239 227.331C171.69 228.146 171.915 229.051 171.915 230.045C171.915 230.92 171.76 231.643 171.448 232.213C171.143 232.783 170.739 233.234 170.235 233.565C169.738 233.897 169.198 234.142 168.614 234.301V234.5C169.237 234.54 169.864 234.759 170.494 235.156C171.123 235.554 171.65 236.124 172.075 236.866C172.499 237.609 172.711 238.517 172.711 239.591C172.711 240.612 172.479 241.53 172.015 242.345C171.551 243.161 170.818 243.807 169.817 244.284C168.817 244.761 167.514 245 165.91 245H158.552ZM161.018 242.812H165.91C167.521 242.812 168.664 242.501 169.34 241.878C170.023 241.248 170.364 240.486 170.364 239.591C170.364 238.902 170.189 238.265 169.837 237.682C169.486 237.092 168.986 236.621 168.336 236.27C167.686 235.912 166.917 235.733 166.029 235.733H161.018V242.812ZM161.018 233.585H165.592C166.334 233.585 167.004 233.439 167.6 233.148C168.203 232.856 168.681 232.445 169.032 231.915C169.39 231.384 169.569 230.761 169.569 230.045C169.569 229.151 169.257 228.392 168.634 227.768C168.011 227.139 167.023 226.824 165.671 226.824H161.018V233.585ZM176.445 245V229.727H178.791V245H176.445ZM177.638 227.182C177.18 227.182 176.786 227.026 176.455 226.714C176.13 226.403 175.967 226.028 175.967 225.591C175.967 225.153 176.13 224.779 176.455 224.467C176.786 224.156 177.18 224 177.638 224C178.095 224 178.486 224.156 178.811 224.467C179.143 224.779 179.308 225.153 179.308 225.591C179.308 226.028 179.143 226.403 178.811 226.714C178.486 227.026 178.095 227.182 177.638 227.182ZM183.089 245V229.727H185.356V232.034H185.515C185.794 231.278 186.297 230.665 187.027 230.195C187.756 229.724 188.578 229.489 189.493 229.489C189.665 229.489 189.88 229.492 190.139 229.499C190.397 229.505 190.593 229.515 190.725 229.528V231.915C190.646 231.895 190.464 231.865 190.179 231.825C189.9 231.779 189.605 231.756 189.294 231.756C188.551 231.756 187.888 231.911 187.305 232.223C186.728 232.528 186.271 232.952 185.933 233.496C185.601 234.033 185.436 234.646 185.436 235.335V245H183.089ZM198.809 245.318C197.537 245.318 196.413 244.997 195.439 244.354C194.464 243.704 193.702 242.789 193.152 241.609C192.601 240.423 192.326 239.021 192.326 237.403C192.326 235.799 192.601 234.407 193.152 233.227C193.702 232.047 194.467 231.136 195.449 230.493C196.43 229.85 197.563 229.528 198.849 229.528C199.843 229.528 200.629 229.694 201.206 230.026C201.789 230.35 202.233 230.722 202.538 231.139C202.85 231.55 203.092 231.888 203.264 232.153H203.463V224.636H205.809V245H203.542V242.653H203.264C203.092 242.932 202.846 243.283 202.528 243.707C202.21 244.125 201.756 244.5 201.166 244.831C200.576 245.156 199.79 245.318 198.809 245.318ZM199.127 243.21C200.069 243.21 200.864 242.965 201.514 242.474C202.163 241.977 202.657 241.291 202.995 240.416C203.333 239.535 203.502 238.517 203.502 237.364C203.502 236.223 203.337 235.226 203.005 234.371C202.674 233.509 202.183 232.839 201.534 232.362C200.884 231.878 200.082 231.636 199.127 231.636C198.133 231.636 197.305 231.892 196.642 232.402C195.985 232.906 195.492 233.592 195.16 234.46C194.835 235.322 194.673 236.29 194.673 237.364C194.673 238.451 194.839 239.438 195.17 240.327C195.508 241.208 196.005 241.911 196.662 242.435C197.324 242.952 198.146 243.21 199.127 243.21ZM221.251 233.148L219.143 233.744C219.011 233.393 218.815 233.052 218.556 232.72C218.305 232.382 217.96 232.104 217.522 231.885C217.085 231.666 216.525 231.557 215.842 231.557C214.907 231.557 214.128 231.772 213.505 232.203C212.889 232.627 212.581 233.168 212.581 233.824C212.581 234.407 212.793 234.868 213.217 235.206C213.641 235.544 214.304 235.826 215.206 236.051L217.473 236.608C218.838 236.939 219.856 237.446 220.525 238.129C221.195 238.805 221.529 239.677 221.529 240.744C221.529 241.619 221.278 242.402 220.774 243.091C220.277 243.78 219.581 244.324 218.686 244.722C217.791 245.119 216.75 245.318 215.564 245.318C214.006 245.318 212.717 244.98 211.696 244.304C210.675 243.628 210.029 242.64 209.757 241.341L211.984 240.784C212.196 241.606 212.597 242.223 213.187 242.634C213.784 243.045 214.563 243.25 215.524 243.25C216.618 243.25 217.486 243.018 218.129 242.554C218.779 242.083 219.103 241.52 219.103 240.864C219.103 240.333 218.918 239.889 218.547 239.531C218.175 239.167 217.605 238.895 216.836 238.716L214.291 238.119C212.892 237.788 211.865 237.274 211.208 236.578C210.559 235.875 210.234 234.997 210.234 233.943C210.234 233.081 210.476 232.319 210.96 231.656C211.45 230.993 212.117 230.473 212.958 230.095C213.807 229.717 214.768 229.528 215.842 229.528C217.353 229.528 218.54 229.86 219.402 230.523C220.27 231.186 220.886 232.061 221.251 233.148Z" fill="white"/>
<defs>
<clipPath id="clip0_91_156">
<rect width="150" height="150" fill="white" transform="translate(114.5 48)"/>
</clipPath>
</defs>
</svg>
