<svg width="379" height="300" viewBox="0 0 379 300" fill="none" xmlns="http://www.w3.org/2000/svg">
<rect x="1" y="1" width="377" height="298" rx="11" stroke="white" stroke-width="2"/>
<g clip-path="url(#clip0_91_216)">
<path d="M245.086 103.586C245.086 95.5516 242.507 87.9442 237.629 81.5856C236.89 80.6232 235.511 80.441 234.548 81.1798C233.585 81.9184 233.404 83.2977 234.142 84.2607C238.426 89.8452 240.691 96.5275 240.691 103.586C240.691 113.422 236.189 122.579 228.528 128.587C225.052 121.147 217.411 115.949 208.625 115.949H198.902C194.929 115.949 191.697 112.717 191.697 108.744C191.697 101.807 189.069 95.2183 184.296 90.1918C183.402 89.2502 182.451 88.3833 181.45 87.5938C187.141 77.8119 197.498 71.8084 208.914 71.8084C216.007 71.8084 222.715 74.0935 228.315 78.4166C229.274 79.1578 230.655 78.9811 231.397 78.0199C232.139 77.0595 231.961 75.6797 231 74.9379C224.625 70.0154 216.987 67.4136 208.914 67.4136C196.001 67.4136 184.277 74.1603 177.775 85.17C174.227 83.23 170.266 82.127 166.136 81.989C158.896 81.7494 152.036 84.3843 146.835 89.4143C142.143 93.9523 139.352 99.8934 138.849 106.324C132.543 106.819 126.689 109.523 122.182 114.063C117.176 119.106 114.448 125.799 114.501 132.907C114.608 147.389 126.617 159.171 141.27 159.171H192.157C193.371 159.171 194.354 158.188 194.354 156.974C194.354 155.76 193.371 154.777 192.157 154.777H141.27C129.022 154.777 118.985 144.951 118.895 132.874C118.851 126.945 121.126 121.364 125.301 117.159C129.476 112.953 135.039 110.637 140.965 110.637C142.179 110.637 143.162 109.653 143.162 108.439C143.162 102.404 145.552 96.7701 149.891 92.5733C154.227 88.3792 159.94 86.1743 165.99 86.3818C177.742 86.7743 187.303 96.8058 187.303 108.744C187.303 115.14 192.506 120.344 198.903 120.344H208.625C218.155 120.344 226.008 127.964 226.129 137.331C226.19 141.976 224.427 146.352 221.168 149.654C217.907 152.957 213.556 154.777 208.914 154.777H200.946C199.732 154.777 198.749 155.76 198.749 156.974C198.749 158.188 199.732 159.171 200.946 159.171H208.914C214.74 159.171 220.202 156.888 224.295 152.742C228.387 148.596 230.6 143.103 230.524 137.274C230.505 135.796 230.332 134.353 230.022 132.959C239.482 126.158 245.086 115.295 245.086 103.586Z" fill="white"/>
<path d="M208.914 62.1018C210.128 62.1018 211.111 61.1183 211.111 59.9045V50.1973C211.111 48.9835 210.128 48 208.914 48C207.7 48 206.717 48.9835 206.717 50.1973V59.9045C206.717 61.118 207.7 62.1018 208.914 62.1018Z" fill="white"/>
<path d="M176.473 74.2521C176.902 74.681 177.464 74.8954 178.027 74.8954C178.589 74.8954 179.151 74.681 179.58 74.2521C180.439 73.3937 180.439 72.0026 179.58 71.1445L172.716 64.2806C171.858 63.4228 170.467 63.4228 169.609 64.2806C168.751 65.139 168.751 66.53 169.609 67.3881L176.473 74.2521Z" fill="white"/>
<path d="M241.355 132.919C240.497 132.061 239.106 132.061 238.248 132.919C237.39 133.778 237.39 135.169 238.248 136.027L245.112 142.891C245.541 143.32 246.103 143.534 246.666 143.534C247.228 143.534 247.79 143.32 248.22 142.891C249.078 142.032 249.078 140.641 248.22 139.783L241.355 132.919Z" fill="white"/>
<path d="M262.303 101.388H252.595C251.382 101.388 250.398 102.372 250.398 103.586C250.398 104.799 251.382 105.783 252.595 105.783H262.303C263.516 105.783 264.5 104.799 264.5 103.586C264.5 102.372 263.516 101.388 262.303 101.388Z" fill="white"/>
<path d="M245.112 64.2806L238.248 71.1446C237.39 72.003 237.39 73.394 238.248 74.2521C238.677 74.681 239.239 74.8954 239.802 74.8954C240.364 74.8954 240.926 74.681 241.356 74.2521L248.22 67.3881C249.078 66.5297 249.078 65.1387 248.22 64.2806C247.361 63.4231 245.97 63.4231 245.112 64.2806Z" fill="white"/>
<path d="M161.362 164.716C160.276 164.173 158.956 164.613 158.414 165.698L153.56 175.406C153.018 176.491 153.457 177.811 154.543 178.354C154.858 178.512 155.194 178.586 155.524 178.586C156.33 178.586 157.106 178.141 157.491 177.371L162.344 167.664C162.887 166.578 162.447 165.259 161.362 164.716Z" fill="white"/>
<path d="M185.629 164.716C184.544 164.173 183.224 164.613 182.681 165.698L177.828 175.406C177.285 176.491 177.725 177.811 178.81 178.354C179.126 178.511 179.461 178.586 179.791 178.586C180.597 178.586 181.373 178.141 181.758 177.371L186.612 167.664C187.155 166.578 186.715 165.259 185.629 164.716Z" fill="white"/>
<path d="M195.336 184.13C194.25 183.587 192.931 184.027 192.388 185.112L187.535 194.819C186.992 195.905 187.432 197.225 188.517 197.767C188.833 197.925 189.168 198 189.499 198C190.305 198 191.081 197.555 191.466 196.785L196.319 187.078C196.861 185.992 196.421 184.673 195.336 184.13Z" fill="white"/>
<path d="M171.069 184.13C169.983 183.587 168.663 184.027 168.121 185.112L163.267 194.819C162.725 195.905 163.165 197.225 164.25 197.767C164.566 197.925 164.901 198 165.231 198C166.037 198 166.813 197.555 167.198 196.785L172.051 187.078C172.594 185.992 172.154 184.673 171.069 184.13Z" fill="white"/>
<path d="M209.897 164.716C208.811 164.173 207.491 164.613 206.949 165.698L202.095 175.406C201.552 176.491 201.992 177.811 203.078 178.354C203.393 178.512 203.729 178.586 204.059 178.586C204.865 178.586 205.641 178.141 206.026 177.371L210.879 167.664C211.422 166.578 210.982 165.259 209.897 164.716Z" fill="white"/>
</g>
<path d="M122.452 231H119.986C119.84 230.291 119.585 229.668 119.22 229.131C118.862 228.594 118.425 228.143 117.908 227.778C117.397 227.407 116.831 227.129 116.208 226.943C115.584 226.758 114.935 226.665 114.259 226.665C113.026 226.665 111.909 226.976 110.908 227.599C109.914 228.223 109.121 229.141 108.531 230.354C107.948 231.567 107.656 233.055 107.656 234.818C107.656 236.581 107.948 238.07 108.531 239.283C109.121 240.496 109.914 241.414 110.908 242.037C111.909 242.66 113.026 242.972 114.259 242.972C114.935 242.972 115.584 242.879 116.208 242.693C116.831 242.508 117.397 242.232 117.908 241.868C118.425 241.497 118.862 241.043 119.22 240.506C119.585 239.962 119.84 239.339 119.986 238.636H122.452C122.266 239.677 121.928 240.608 121.438 241.43C120.947 242.252 120.337 242.952 119.608 243.528C118.879 244.098 118.06 244.533 117.152 244.831C116.251 245.129 115.286 245.278 114.259 245.278C112.522 245.278 110.977 244.854 109.625 244.006C108.273 243.157 107.209 241.951 106.433 240.386C105.658 238.822 105.27 236.966 105.27 234.818C105.27 232.67 105.658 230.814 106.433 229.25C107.209 227.686 108.273 226.479 109.625 225.631C110.977 224.782 112.522 224.358 114.259 224.358C115.286 224.358 116.251 224.507 117.152 224.805C118.06 225.104 118.879 225.541 119.608 226.118C120.337 226.688 120.947 227.384 121.438 228.206C121.928 229.021 122.266 229.953 122.452 231ZM130.613 245.358C129.645 245.358 128.767 245.176 127.978 244.811C127.189 244.44 126.563 243.906 126.099 243.21C125.635 242.508 125.403 241.659 125.403 240.665C125.403 239.79 125.575 239.08 125.92 238.537C126.264 237.987 126.725 237.556 127.302 237.244C127.878 236.933 128.515 236.701 129.211 236.548C129.913 236.389 130.619 236.263 131.329 236.17C132.257 236.051 133.009 235.962 133.586 235.902C134.169 235.836 134.593 235.726 134.858 235.574C135.13 235.421 135.266 235.156 135.266 234.778V234.699C135.266 233.718 134.998 232.955 134.461 232.412C133.93 231.868 133.125 231.597 132.045 231.597C130.924 231.597 130.046 231.842 129.41 232.332C128.773 232.823 128.326 233.347 128.067 233.903L125.84 233.108C126.238 232.18 126.768 231.457 127.431 230.94C128.1 230.417 128.83 230.052 129.618 229.847C130.414 229.634 131.196 229.528 131.965 229.528C132.456 229.528 133.019 229.588 133.655 229.707C134.298 229.82 134.918 230.055 135.515 230.413C136.118 230.771 136.618 231.312 137.016 232.034C137.414 232.757 137.613 233.724 137.613 234.938V245H135.266V242.932H135.147C134.988 243.263 134.723 243.618 134.351 243.996C133.98 244.374 133.486 244.695 132.87 244.96C132.253 245.225 131.501 245.358 130.613 245.358ZM130.971 243.25C131.899 243.25 132.681 243.068 133.317 242.703C133.96 242.339 134.444 241.868 134.769 241.291C135.1 240.714 135.266 240.108 135.266 239.472V237.324C135.167 237.443 134.948 237.553 134.61 237.652C134.278 237.745 133.894 237.828 133.456 237.901C133.026 237.967 132.605 238.027 132.194 238.08C131.789 238.126 131.461 238.166 131.209 238.199C130.599 238.278 130.029 238.408 129.499 238.587C128.975 238.759 128.551 239.021 128.226 239.372C127.908 239.717 127.749 240.187 127.749 240.784C127.749 241.599 128.051 242.216 128.654 242.634C129.264 243.045 130.036 243.25 130.971 243.25ZM144.242 224.636V245H141.896V224.636H144.242ZM148.54 245V229.727H150.807V232.114H151.006C151.324 231.298 151.838 230.665 152.547 230.214C153.257 229.757 154.108 229.528 155.103 229.528C156.11 229.528 156.949 229.757 157.618 230.214C158.295 230.665 158.822 231.298 159.199 232.114H159.358C159.75 231.325 160.336 230.698 161.118 230.234C161.901 229.764 162.839 229.528 163.932 229.528C165.298 229.528 166.415 229.956 167.283 230.811C168.152 231.66 168.586 232.982 168.586 234.778V245H166.239V234.778C166.239 233.652 165.931 232.846 165.314 232.362C164.698 231.878 163.972 231.636 163.137 231.636C162.063 231.636 161.231 231.961 160.641 232.611C160.051 233.254 159.756 234.069 159.756 235.057V245H157.37V234.54C157.37 233.671 157.088 232.972 156.525 232.442C155.961 231.905 155.235 231.636 154.347 231.636C153.737 231.636 153.167 231.799 152.637 232.124C152.113 232.448 151.689 232.899 151.364 233.476C151.046 234.046 150.887 234.705 150.887 235.455V245H148.54ZM172.876 245V229.727H175.223V245H172.876ZM174.069 227.182C173.612 227.182 173.218 227.026 172.886 226.714C172.561 226.403 172.399 226.028 172.399 225.591C172.399 225.153 172.561 224.779 172.886 224.467C173.218 224.156 173.612 224 174.069 224C174.527 224 174.918 224.156 175.243 224.467C175.574 224.779 175.74 225.153 175.74 225.591C175.74 226.028 175.574 226.403 175.243 226.714C174.918 227.026 174.527 227.182 174.069 227.182ZM181.867 235.812V245H179.521V229.727H181.788V232.114H181.987C182.345 231.338 182.888 230.715 183.617 230.244C184.347 229.767 185.288 229.528 186.441 229.528C187.475 229.528 188.38 229.741 189.156 230.165C189.931 230.582 190.535 231.219 190.965 232.074C191.396 232.922 191.612 233.996 191.612 235.295V245H189.265V235.455C189.265 234.255 188.954 233.32 188.33 232.651C187.707 231.974 186.852 231.636 185.765 231.636C185.016 231.636 184.347 231.799 183.757 232.124C183.173 232.448 182.713 232.922 182.374 233.545C182.036 234.169 181.867 234.924 181.867 235.812ZM202.064 251.045C200.931 251.045 199.956 250.9 199.141 250.608C198.326 250.323 197.646 249.945 197.103 249.474C196.566 249.01 196.138 248.513 195.82 247.983L197.689 246.67C197.902 246.949 198.17 247.267 198.495 247.625C198.82 247.99 199.264 248.304 199.827 248.57C200.397 248.841 201.143 248.977 202.064 248.977C203.297 248.977 204.315 248.679 205.117 248.082C205.919 247.486 206.32 246.551 206.32 245.278V242.176H206.121C205.949 242.455 205.704 242.799 205.385 243.21C205.074 243.615 204.623 243.976 204.033 244.294C203.45 244.606 202.661 244.761 201.667 244.761C200.434 244.761 199.327 244.47 198.346 243.886C197.371 243.303 196.599 242.455 196.029 241.341C195.465 240.227 195.184 238.875 195.184 237.284C195.184 235.72 195.459 234.357 196.009 233.197C196.559 232.031 197.325 231.129 198.306 230.493C199.287 229.85 200.421 229.528 201.706 229.528C202.701 229.528 203.49 229.694 204.073 230.026C204.663 230.35 205.114 230.722 205.425 231.139C205.743 231.55 205.989 231.888 206.161 232.153H206.4V229.727H208.667V245.438C208.667 246.75 208.368 247.817 207.772 248.639C207.182 249.468 206.386 250.074 205.385 250.459C204.391 250.85 203.284 251.045 202.064 251.045ZM201.985 242.653C202.926 242.653 203.722 242.438 204.371 242.007C205.021 241.576 205.515 240.956 205.853 240.148C206.191 239.339 206.36 238.371 206.36 237.244C206.36 236.144 206.194 235.173 205.863 234.331C205.531 233.489 205.041 232.83 204.391 232.352C203.742 231.875 202.939 231.636 201.985 231.636C200.991 231.636 200.162 231.888 199.499 232.392C198.843 232.896 198.349 233.572 198.018 234.42C197.693 235.269 197.53 236.21 197.53 237.244C197.53 238.305 197.696 239.243 198.028 240.058C198.366 240.867 198.863 241.503 199.519 241.967C200.182 242.425 201.004 242.653 201.985 242.653ZM221.155 245V224.636H228.036C229.627 224.636 230.933 224.908 231.954 225.452C232.974 225.989 233.73 226.728 234.221 227.669C234.711 228.61 234.956 229.681 234.956 230.881C234.956 232.08 234.711 233.144 234.221 234.072C233.73 235 232.978 235.73 231.964 236.26C230.949 236.784 229.653 237.045 228.076 237.045H222.508V234.818H227.996C229.083 234.818 229.958 234.659 230.621 234.341C231.291 234.023 231.775 233.572 232.073 232.989C232.378 232.399 232.53 231.696 232.53 230.881C232.53 230.065 232.378 229.353 232.073 228.743C231.768 228.133 231.281 227.662 230.611 227.331C229.942 226.993 229.057 226.824 227.956 226.824H223.621V245H221.155ZM230.741 235.852L235.752 245H232.888L227.956 235.852H230.741ZM243.242 245.358C242.274 245.358 241.396 245.176 240.607 244.811C239.818 244.44 239.191 243.906 238.727 243.21C238.263 242.508 238.031 241.659 238.031 240.665C238.031 239.79 238.204 239.08 238.548 238.537C238.893 237.987 239.354 237.556 239.931 237.244C240.507 236.933 241.144 236.701 241.84 236.548C242.542 236.389 243.248 236.263 243.958 236.17C244.886 236.051 245.638 235.962 246.215 235.902C246.798 235.836 247.222 235.726 247.487 235.574C247.759 235.421 247.895 235.156 247.895 234.778V234.699C247.895 233.718 247.627 232.955 247.09 232.412C246.559 231.868 245.754 231.597 244.673 231.597C243.553 231.597 242.675 231.842 242.039 232.332C241.402 232.823 240.955 233.347 240.696 233.903L238.469 233.108C238.867 232.18 239.397 231.457 240.06 230.94C240.729 230.417 241.459 230.052 242.247 229.847C243.043 229.634 243.825 229.528 244.594 229.528C245.084 229.528 245.648 229.588 246.284 229.707C246.927 229.82 247.547 230.055 248.144 230.413C248.747 230.771 249.247 231.312 249.645 232.034C250.043 232.757 250.242 233.724 250.242 234.938V245H247.895V242.932H247.776C247.617 243.263 247.352 243.618 246.98 243.996C246.609 244.374 246.115 244.695 245.499 244.96C244.882 245.225 244.13 245.358 243.242 245.358ZM243.6 243.25C244.528 243.25 245.31 243.068 245.946 242.703C246.589 242.339 247.073 241.868 247.398 241.291C247.729 240.714 247.895 240.108 247.895 239.472V237.324C247.796 237.443 247.577 237.553 247.239 237.652C246.907 237.745 246.523 237.828 246.085 237.901C245.655 237.967 245.234 238.027 244.823 238.08C244.418 238.126 244.09 238.166 243.838 238.199C243.228 238.278 242.658 238.408 242.128 238.587C241.604 238.759 241.18 239.021 240.855 239.372C240.537 239.717 240.378 240.187 240.378 240.784C240.378 241.599 240.68 242.216 241.283 242.634C241.893 243.045 242.665 243.25 243.6 243.25ZM254.525 245V229.727H256.871V245H254.525ZM255.718 227.182C255.26 227.182 254.866 227.026 254.535 226.714C254.21 226.403 254.047 226.028 254.047 225.591C254.047 225.153 254.21 224.779 254.535 224.467C254.866 224.156 255.26 224 255.718 224C256.175 224 256.566 224.156 256.891 224.467C257.223 224.779 257.388 225.153 257.388 225.591C257.388 226.028 257.223 226.403 256.891 226.714C256.566 227.026 256.175 227.182 255.718 227.182ZM263.516 235.812V245H261.169V229.727H263.436V232.114H263.635C263.993 231.338 264.537 230.715 265.266 230.244C265.995 229.767 266.936 229.528 268.09 229.528C269.124 229.528 270.029 229.741 270.804 230.165C271.58 230.582 272.183 231.219 272.614 232.074C273.045 232.922 273.26 233.996 273.26 235.295V245H270.914V235.455C270.914 234.255 270.602 233.32 269.979 232.651C269.356 231.974 268.501 231.636 267.414 231.636C266.664 231.636 265.995 231.799 265.405 232.124C264.822 232.448 264.361 232.922 264.023 233.545C263.685 234.169 263.516 234.924 263.516 235.812Z" fill="white"/>
<defs>
<clipPath id="clip0_91_216">
<rect width="150" height="150" fill="white" transform="translate(114.5 48)"/>
</clipPath>
</defs>
</svg>
