<svg width="379" height="300" viewBox="0 0 379 300" fill="none" xmlns="http://www.w3.org/2000/svg">
<rect x="1" y="1" width="377" height="298" rx="11" stroke="white" stroke-width="2"/>
<g clip-path="url(#clip0_91_1198)">
<path d="M227.82 113.402H143.044C138.673 113.402 134.522 114.784 131.04 117.399C130.07 118.128 129.874 119.505 130.602 120.476C131.331 121.446 132.709 121.642 133.679 120.913C136.394 118.875 139.632 117.797 143.044 117.797H227.82C231.996 117.797 235.921 119.422 238.873 122.374C241.825 125.326 243.45 129.251 243.45 133.427C243.45 136.435 241.004 138.882 237.998 138.882H220.42C219.206 138.882 218.223 139.866 218.223 141.079V144.519C218.223 146.255 217.545 147.889 216.315 149.12C215.084 150.351 213.449 151.028 211.71 151.028C208.121 151.028 205.2 148.108 205.2 144.519V141.079C205.2 139.866 204.217 138.882 203.003 138.882H132.869C131.414 138.882 130.043 138.314 129.012 137.284C127.981 136.254 127.414 134.884 127.414 133.426C127.414 131.595 127.725 129.807 128.34 128.111C128.754 126.969 128.164 125.71 127.023 125.296C125.883 124.883 124.622 125.473 124.209 126.613C123.42 128.791 123.02 131.083 123.02 133.426C123.02 136.058 124.044 138.531 125.906 140.393C126.592 141.077 127.361 141.648 128.19 142.096C127.299 143.346 126.773 144.872 126.773 146.52V156.774C126.773 160.985 130.2 164.411 134.411 164.411H138.714V195.803C138.714 197.016 139.697 198 140.911 198H202.112C203.326 198 204.31 197.016 204.31 195.803C204.31 194.589 203.326 193.605 202.112 193.605H187.63V181.207H216.598V193.605H212.366C211.152 193.605 210.169 194.589 210.169 195.803C210.169 197.016 211.152 198 212.366 198H229.953C231.167 198 232.15 197.016 232.15 195.803V164.411H236.454C240.665 164.411 244.091 160.985 244.091 156.774V146.52C244.091 144.871 243.564 143.343 242.673 142.093C245.75 140.425 247.845 137.166 247.845 133.426C247.845 128.077 245.762 123.048 241.98 119.266C238.199 115.485 233.17 113.402 227.82 113.402ZM227.756 176.813H204.311V164.414H227.756V176.813ZM199.917 176.813H170.948V164.414H199.917V176.813ZM143.108 176.813V164.414H166.553V176.813H143.108ZM143.108 181.207H149.872V193.605H143.108V181.207ZM183.235 193.605H154.266V181.207H183.235V193.605ZM220.993 193.605V181.207H227.756V193.605H220.993ZM239.697 156.774C239.697 158.562 238.242 160.017 236.454 160.017H134.411C132.623 160.017 131.168 158.562 131.168 156.774V146.52C131.168 144.746 132.597 143.302 134.363 143.276H200.806V144.518C200.806 150.531 205.697 155.423 211.71 155.423C214.622 155.423 217.361 154.288 219.422 152.227C221.483 150.167 222.617 147.429 222.617 144.518V143.276H236.502C238.268 143.302 239.697 144.746 239.697 146.52V156.774Z" fill="white"/>
<path d="M231.866 48C222.109 48 213.304 53.9889 209.604 62.8503C207.226 61.8006 204.648 61.2539 202.021 61.2539C191.664 61.2539 183.236 69.6809 183.236 80.0391C183.236 80.4938 183.253 80.9481 183.285 81.4011C176.688 82.4358 171.626 88.1587 171.626 95.0417C171.626 102.654 177.82 108.846 185.434 108.846C191.78 108.846 197.22 104.49 198.783 98.5471C199.849 98.7331 200.932 98.8271 202.021 98.8271C208.043 98.8271 213.622 95.9628 217.135 91.205C221.34 94.4625 226.481 96.2314 231.866 96.2314C238.462 96.2314 244.621 93.6182 249.208 88.8729C250.051 88.0005 250.027 86.6095 249.155 85.766C248.282 84.9226 246.891 84.946 246.048 85.8187C242.296 89.6997 237.26 91.8369 231.866 91.8369C226.731 91.8369 221.868 89.8702 218.173 86.2989C217.679 85.8208 216.989 85.6017 216.308 85.7077C215.628 85.8138 215.037 86.2327 214.711 86.8392C212.195 91.5229 207.333 94.4326 202.022 94.4326C200.542 94.4326 199.078 94.2067 197.672 93.7617C197.03 93.5581 196.33 93.6606 195.773 94.0397C195.216 94.4188 194.864 95.0323 194.817 95.7044C194.476 100.61 190.355 104.452 185.434 104.452C180.243 104.452 176.021 100.231 176.021 95.042C176.021 89.8515 180.243 85.6289 185.434 85.6289C185.487 85.6289 185.538 85.631 185.591 85.6327L185.727 85.6368C186.394 85.6567 187.04 85.3632 187.469 84.8481C187.899 84.3331 188.07 83.6499 187.933 82.9931C187.733 82.0271 187.631 81.0331 187.631 80.0388C187.631 72.1037 194.087 65.6481 202.022 65.6481C204.729 65.6481 207.37 66.4063 209.658 67.841C210.242 68.2069 210.963 68.2778 211.607 68.0329C212.251 67.788 212.742 67.2551 212.935 66.5936C215.369 58.2334 223.154 52.3945 231.866 52.3945C242.739 52.3945 251.586 61.2407 251.586 72.1143C251.586 74.1035 251.291 76.0646 250.711 77.9432C250.353 79.1027 251.002 80.3329 252.162 80.6912C253.322 81.0495 254.551 80.4 254.91 79.2407C255.62 76.9418 255.98 74.5441 255.98 72.1145C255.98 58.8176 245.163 48 231.866 48Z" fill="white"/>
</g>
<path d="M154.089 231H151.623C151.477 230.291 151.222 229.668 150.857 229.131C150.499 228.594 150.062 228.143 149.545 227.778C149.034 227.407 148.467 227.129 147.844 226.943C147.221 226.758 146.572 226.665 145.895 226.665C144.662 226.665 143.546 226.976 142.545 227.599C141.55 228.223 140.758 229.141 140.168 230.354C139.585 231.567 139.293 233.055 139.293 234.818C139.293 236.581 139.585 238.07 140.168 239.283C140.758 240.496 141.55 241.414 142.545 242.037C143.546 242.66 144.662 242.972 145.895 242.972C146.572 242.972 147.221 242.879 147.844 242.693C148.467 242.508 149.034 242.232 149.545 241.868C150.062 241.497 150.499 241.043 150.857 240.506C151.222 239.962 151.477 239.339 151.623 238.636H154.089C153.903 239.677 153.565 240.608 153.074 241.43C152.584 242.252 151.974 242.952 151.245 243.528C150.516 244.098 149.697 244.533 148.789 244.831C147.887 245.129 146.923 245.278 145.895 245.278C144.159 245.278 142.614 244.854 141.262 244.006C139.91 243.157 138.846 241.951 138.07 240.386C137.295 238.822 136.907 236.966 136.907 234.818C136.907 232.67 137.295 230.814 138.07 229.25C138.846 227.686 139.91 226.479 141.262 225.631C142.614 224.782 144.159 224.358 145.895 224.358C146.923 224.358 147.887 224.507 148.789 224.805C149.697 225.104 150.516 225.541 151.245 226.118C151.974 226.688 152.584 227.384 153.074 228.206C153.565 229.021 153.903 229.953 154.089 231ZM160.102 235.812V245H157.755V224.636H160.102V232.114H160.301C160.659 231.325 161.195 230.698 161.911 230.234C162.634 229.764 163.595 229.528 164.795 229.528C165.836 229.528 166.747 229.737 167.529 230.155C168.311 230.566 168.918 231.199 169.349 232.054C169.786 232.902 170.005 233.983 170.005 235.295V245H167.659V235.455C167.659 234.241 167.344 233.304 166.714 232.641C166.091 231.971 165.226 231.636 164.119 231.636C163.35 231.636 162.66 231.799 162.051 232.124C161.447 232.448 160.97 232.922 160.619 233.545C160.274 234.169 160.102 234.924 160.102 235.812ZM174.298 245V229.727H176.645V245H174.298ZM175.491 227.182C175.034 227.182 174.64 227.026 174.308 226.714C173.983 226.403 173.821 226.028 173.821 225.591C173.821 225.153 173.983 224.779 174.308 224.467C174.64 224.156 175.034 224 175.491 224C175.949 224 176.34 224.156 176.665 224.467C176.996 224.779 177.162 225.153 177.162 225.591C177.162 226.028 176.996 226.403 176.665 226.714C176.34 227.026 175.949 227.182 175.491 227.182ZM180.943 245V229.727H183.21V232.114H183.409C183.727 231.298 184.24 230.665 184.95 230.214C185.659 229.757 186.511 229.528 187.505 229.528C188.513 229.528 189.351 229.757 190.021 230.214C190.697 230.665 191.224 231.298 191.602 232.114H191.761C192.152 231.325 192.739 230.698 193.521 230.234C194.303 229.764 195.241 229.528 196.335 229.528C197.7 229.528 198.817 229.956 199.686 230.811C200.554 231.66 200.988 232.982 200.988 234.778V245H198.642V234.778C198.642 233.652 198.333 232.846 197.717 232.362C197.1 231.878 196.374 231.636 195.539 231.636C194.465 231.636 193.633 231.961 193.044 232.611C192.454 233.254 192.159 234.069 192.159 235.057V245H189.772V234.54C189.772 233.671 189.49 232.972 188.927 232.442C188.364 231.905 187.638 231.636 186.749 231.636C186.14 231.636 185.57 231.799 185.039 232.124C184.516 232.448 184.091 232.899 183.767 233.476C183.448 234.046 183.289 234.705 183.289 235.455V245H180.943ZM205.279 245V229.727H207.546V232.114H207.744C208.063 231.298 208.576 230.665 209.286 230.214C209.995 229.757 210.847 229.528 211.841 229.528C212.849 229.528 213.687 229.757 214.357 230.214C215.033 230.665 215.56 231.298 215.938 232.114H216.097C216.488 231.325 217.075 230.698 217.857 230.234C218.639 229.764 219.577 229.528 220.671 229.528C222.036 229.528 223.153 229.956 224.021 230.811C224.89 231.66 225.324 232.982 225.324 234.778V245H222.977V234.778C222.977 233.652 222.669 232.846 222.053 232.362C221.436 231.878 220.71 231.636 219.875 231.636C218.801 231.636 217.969 231.961 217.379 232.611C216.789 233.254 216.494 234.069 216.494 235.057V245H214.108V234.54C214.108 233.671 213.826 232.972 213.263 232.442C212.7 231.905 211.974 231.636 211.085 231.636C210.476 231.636 209.905 231.799 209.375 232.124C208.852 232.448 208.427 232.899 208.102 233.476C207.784 234.046 207.625 234.705 207.625 235.455V245H205.279ZM236.018 245.318C234.546 245.318 233.277 244.993 232.21 244.344C231.149 243.688 230.33 242.773 229.754 241.599C229.184 240.42 228.899 239.047 228.899 237.483C228.899 235.919 229.184 234.54 229.754 233.347C230.33 232.147 231.133 231.212 232.16 230.543C233.194 229.866 234.401 229.528 235.779 229.528C236.575 229.528 237.36 229.661 238.136 229.926C238.911 230.191 239.617 230.622 240.254 231.219C240.89 231.809 241.397 232.591 241.775 233.565C242.153 234.54 242.342 235.74 242.342 237.165V238.159H230.569V236.131H239.955C239.955 235.269 239.783 234.5 239.438 233.824C239.1 233.148 238.616 232.614 237.987 232.223C237.364 231.832 236.628 231.636 235.779 231.636C234.845 231.636 234.036 231.868 233.353 232.332C232.677 232.79 232.157 233.386 231.792 234.122C231.427 234.858 231.245 235.647 231.245 236.489V237.841C231.245 238.994 231.444 239.972 231.842 240.774C232.246 241.57 232.806 242.176 233.522 242.594C234.238 243.005 235.07 243.21 236.018 243.21C236.634 243.21 237.191 243.124 237.688 242.952C238.192 242.773 238.626 242.508 238.991 242.156C239.356 241.798 239.637 241.354 239.836 240.824L242.103 241.46C241.865 242.229 241.463 242.905 240.9 243.489C240.337 244.065 239.641 244.516 238.812 244.841C237.983 245.159 237.052 245.318 236.018 245.318Z" fill="white"/>
<defs>
<clipPath id="clip0_91_1198">
<rect width="150" height="150" fill="white" transform="translate(114.5 48)"/>
</clipPath>
</defs>
</svg>
