<svg width="379" height="300" viewBox="0 0 379 300" fill="none" xmlns="http://www.w3.org/2000/svg">
<rect x="1" y="1" width="377" height="298" rx="11" stroke="white" stroke-width="2"/>
<g clip-path="url(#clip0_91_248)">
<path d="M242.533 69.9668C228.367 55.8015 209.533 48 189.5 48C169.467 48 150.632 55.8015 136.467 69.9668C122.301 84.1324 114.5 102.967 114.5 123C114.5 143.033 122.301 161.868 136.467 176.033C150.632 190.199 169.467 198 189.5 198C209.533 198 228.367 190.199 242.533 176.033C256.699 161.868 264.5 143.033 264.5 123C264.5 102.967 256.699 84.1324 242.533 69.9668ZM239.426 172.926C226.09 186.261 208.36 193.605 189.5 193.605C170.64 193.605 152.91 186.261 139.574 172.926C126.239 159.59 118.895 141.86 118.895 123C118.895 104.14 126.239 86.41 139.574 73.0743C152.91 59.7387 170.64 52.3945 189.5 52.3945C208.36 52.3945 226.09 59.7387 239.426 73.0743C252.761 86.41 260.105 104.14 260.105 123C260.105 141.86 252.761 159.59 239.426 172.926Z" fill="white"/>
<path d="M212.972 178.565C206.21 181.425 199.062 182.998 191.697 183.259V175.557C191.697 174.344 190.713 173.36 189.5 173.36C188.287 173.36 187.303 174.344 187.303 175.557V183.258C172.331 182.719 158.735 176.697 148.464 167.143L153.89 161.717C154.748 160.859 154.748 159.468 153.89 158.61C153.032 157.752 151.641 157.752 150.782 158.61L145.357 164.036C135.802 153.765 129.781 140.169 129.242 125.197H136.943C138.156 125.197 139.14 124.214 139.14 123C139.14 121.787 138.156 120.803 136.943 120.803H129.241C129.769 106.175 135.55 92.4475 145.332 81.9393L150.783 87.39C151.212 87.8192 151.774 88.0337 152.336 88.0337C152.899 88.0337 153.461 87.8192 153.89 87.3903C154.748 86.5322 154.748 85.1409 153.89 84.2828L148.441 78.8339C150.861 76.5868 153.478 74.5167 156.288 72.6592C157.3 71.9901 157.578 70.6269 156.909 69.6144C156.24 68.6022 154.877 68.3239 153.865 68.9933C135.667 81.0238 124.803 101.213 124.803 123C124.803 140.281 131.533 156.528 143.752 168.748C155.972 180.968 172.219 187.698 189.5 187.698C198.233 187.698 206.706 185.987 214.684 182.612C215.802 182.14 216.325 180.851 215.852 179.733C215.379 178.615 214.089 178.092 212.972 178.565Z" fill="white"/>
<path d="M235.248 77.252C223.028 65.0322 206.781 58.3027 189.5 58.3027C179.845 58.3027 170.557 60.3787 161.892 64.4727C160.795 64.9912 160.326 66.3008 160.844 67.3979C161.362 68.4954 162.672 68.9642 163.769 68.4459C171.183 64.9429 179.09 63.0304 187.303 62.7406V70.4425C187.303 71.656 188.287 72.6397 189.5 72.6397C190.713 72.6397 191.697 71.656 191.697 70.4425V62.7415C206.669 63.2806 220.265 69.3025 230.536 78.8568L225.11 84.2826C224.252 85.1407 224.252 86.532 225.11 87.3901C225.539 87.819 226.101 88.0335 226.664 88.0335C227.226 88.0335 227.788 87.819 228.217 87.3898L233.643 81.9641C243.198 92.235 249.219 105.831 249.758 120.803H242.057C240.844 120.803 239.86 121.786 239.86 123C239.86 124.213 240.844 125.197 242.057 125.197H249.76C249.403 134.984 246.677 144.558 241.815 153.014C239.524 156.998 236.779 160.7 233.66 164.053L228.217 158.61C227.359 157.752 225.968 157.752 225.11 158.61C224.252 159.468 224.252 160.859 225.11 161.717L230.551 167.159C227.554 169.947 224.279 172.44 220.767 174.574C219.73 175.204 219.4 176.555 220.031 177.593C220.444 178.273 221.168 178.649 221.911 178.649C222.299 178.649 222.693 178.546 223.049 178.329C232.378 172.661 240.185 164.664 245.624 155.205C251.233 145.451 254.197 134.315 254.197 123C254.197 105.719 247.468 89.4717 235.248 77.252Z" fill="white"/>
<path d="M214.565 93.98L192.34 116.205C191.48 115.792 190.516 115.561 189.5 115.561C188.484 115.561 187.52 115.792 186.66 116.205L174.632 104.177C173.773 103.319 172.382 103.319 171.524 104.177C170.666 105.035 170.666 106.427 171.524 107.284L183.552 119.312C183.14 120.173 182.908 121.136 182.908 122.152C182.908 125.787 185.865 128.744 189.5 128.744C193.135 128.744 196.092 125.787 196.092 122.152C196.092 121.136 195.86 120.173 195.448 119.312L217.672 97.0873C218.531 96.2292 218.531 94.8379 217.672 93.9797C216.814 93.1219 215.423 93.1219 214.565 93.98ZM189.5 124.35C188.288 124.35 187.303 123.364 187.303 122.152C187.303 120.941 188.288 119.955 189.5 119.955C190.712 119.955 191.697 120.941 191.697 122.152C191.697 123.364 190.712 124.35 189.5 124.35Z" fill="white"/>
<path d="M197.264 148.342C198.477 148.342 199.461 147.358 199.461 146.145C199.461 144.931 198.477 143.947 197.264 143.947H181.736C180.523 143.947 179.539 144.931 179.539 146.145C179.539 147.358 180.523 148.342 181.736 148.342H197.264Z" fill="white"/>
</g>
<path d="M163.741 231H161.275C161.129 230.291 160.874 229.668 160.509 229.131C160.151 228.594 159.714 228.143 159.197 227.778C158.686 227.407 158.12 227.129 157.497 226.943C156.874 226.758 156.224 226.665 155.548 226.665C154.315 226.665 153.198 226.976 152.197 227.599C151.203 228.223 150.41 229.141 149.82 230.354C149.237 231.567 148.945 233.055 148.945 234.818C148.945 236.581 149.237 238.07 149.82 239.283C150.41 240.496 151.203 241.414 152.197 242.037C153.198 242.66 154.315 242.972 155.548 242.972C156.224 242.972 156.874 242.879 157.497 242.693C158.12 242.508 158.686 242.232 159.197 241.868C159.714 241.497 160.151 241.043 160.509 240.506C160.874 239.962 161.129 239.339 161.275 238.636H163.741C163.555 239.677 163.217 240.608 162.727 241.43C162.236 242.252 161.626 242.952 160.897 243.528C160.168 244.098 159.349 244.533 158.441 244.831C157.54 245.129 156.575 245.278 155.548 245.278C153.811 245.278 152.267 244.854 150.914 244.006C149.562 243.157 148.498 241.951 147.722 240.386C146.947 238.822 146.559 236.966 146.559 234.818C146.559 232.67 146.947 230.814 147.722 229.25C148.498 227.686 149.562 226.479 150.914 225.631C152.267 224.782 153.811 224.358 155.548 224.358C156.575 224.358 157.54 224.507 158.441 224.805C159.349 225.104 160.168 225.541 160.897 226.118C161.626 226.688 162.236 227.384 162.727 228.206C163.217 229.021 163.555 229.953 163.741 231ZM169.754 224.636V245H167.407V224.636H169.754ZM180.257 245.318C178.878 245.318 177.668 244.99 176.627 244.334C175.593 243.678 174.785 242.759 174.201 241.58C173.624 240.4 173.336 239.021 173.336 237.443C173.336 235.852 173.624 234.464 174.201 233.277C174.785 232.09 175.593 231.169 176.627 230.513C177.668 229.857 178.878 229.528 180.257 229.528C181.635 229.528 182.842 229.857 183.876 230.513C184.917 231.169 185.725 232.09 186.302 233.277C186.885 234.464 187.177 235.852 187.177 237.443C187.177 239.021 186.885 240.4 186.302 241.58C185.725 242.759 184.917 243.678 183.876 244.334C182.842 244.99 181.635 245.318 180.257 245.318ZM180.257 243.21C181.304 243.21 182.166 242.942 182.842 242.405C183.518 241.868 184.018 241.162 184.343 240.287C184.668 239.412 184.83 238.464 184.83 237.443C184.83 236.422 184.668 235.471 184.343 234.589C184.018 233.708 183.518 232.995 182.842 232.452C182.166 231.908 181.304 231.636 180.257 231.636C179.209 231.636 178.347 231.908 177.671 232.452C176.995 232.995 176.495 233.708 176.17 234.589C175.845 235.471 175.683 236.422 175.683 237.443C175.683 238.464 175.845 239.412 176.17 240.287C176.495 241.162 176.995 241.868 177.671 242.405C178.347 242.942 179.209 243.21 180.257 243.21ZM196.964 245.318C195.532 245.318 194.299 244.98 193.265 244.304C192.231 243.628 191.435 242.696 190.878 241.51C190.322 240.323 190.043 238.968 190.043 237.443C190.043 235.892 190.328 234.523 190.898 233.337C191.475 232.143 192.277 231.212 193.305 230.543C194.339 229.866 195.545 229.528 196.924 229.528C197.998 229.528 198.965 229.727 199.827 230.125C200.689 230.523 201.395 231.08 201.945 231.795C202.495 232.511 202.837 233.347 202.969 234.301H200.623C200.444 233.605 200.046 232.989 199.43 232.452C198.82 231.908 197.998 231.636 196.964 231.636C196.049 231.636 195.247 231.875 194.557 232.352C193.875 232.823 193.341 233.489 192.956 234.351C192.579 235.206 192.39 236.21 192.39 237.364C192.39 238.544 192.575 239.571 192.947 240.446C193.324 241.321 193.855 242 194.537 242.484C195.227 242.968 196.036 243.21 196.964 243.21C197.573 243.21 198.127 243.104 198.624 242.892C199.121 242.68 199.542 242.375 199.887 241.977C200.232 241.58 200.477 241.102 200.623 240.545H202.969C202.837 241.447 202.509 242.259 201.985 242.982C201.468 243.697 200.782 244.268 199.927 244.692C199.078 245.109 198.09 245.318 196.964 245.318ZM208.587 239.432L208.547 236.528H209.025L215.706 229.727H218.61L211.491 236.926H211.292L208.587 239.432ZM206.4 245V224.636H208.746V245H206.4ZM216.104 245L210.138 237.443L211.809 235.812L219.087 245H216.104ZM232.448 233.148L230.34 233.744C230.208 233.393 230.012 233.052 229.754 232.72C229.502 232.382 229.157 232.104 228.72 231.885C228.282 231.666 227.722 231.557 227.039 231.557C226.105 231.557 225.326 231.772 224.703 232.203C224.086 232.627 223.778 233.168 223.778 233.824C223.778 234.407 223.99 234.868 224.414 235.206C224.838 235.544 225.501 235.826 226.403 236.051L228.67 236.608C230.035 236.939 231.053 237.446 231.722 238.129C232.392 238.805 232.727 239.677 232.727 240.744C232.727 241.619 232.475 242.402 231.971 243.091C231.474 243.78 230.778 244.324 229.883 244.722C228.988 245.119 227.947 245.318 226.761 245.318C225.203 245.318 223.914 244.98 222.893 244.304C221.872 243.628 221.226 242.64 220.954 241.341L223.181 240.784C223.393 241.606 223.794 242.223 224.384 242.634C224.981 243.045 225.76 243.25 226.721 243.25C227.815 243.25 228.683 243.018 229.326 242.554C229.976 242.083 230.301 241.52 230.301 240.864C230.301 240.333 230.115 239.889 229.744 239.531C229.373 239.167 228.802 238.895 228.034 238.716L225.488 238.119C224.089 237.788 223.062 237.274 222.406 236.578C221.756 235.875 221.431 234.997 221.431 233.943C221.431 233.081 221.673 232.319 222.157 231.656C222.648 230.993 223.314 230.473 224.156 230.095C225.004 229.717 225.965 229.528 227.039 229.528C228.551 229.528 229.737 229.86 230.599 230.523C231.467 231.186 232.084 232.061 232.448 233.148Z" fill="white"/>
<defs>
<clipPath id="clip0_91_248">
<rect width="150" height="150" fill="white" transform="translate(114.5 48)"/>
</clipPath>
</defs>
</svg>
