<svg width="379" height="300" viewBox="0 0 379 300" fill="none" xmlns="http://www.w3.org/2000/svg">
<rect x="1" y="1" width="377" height="298" rx="11" stroke="white" stroke-width="2"/>
<g clip-path="url(#clip0_91_347)">
<path d="M262.96 82.3178C262.428 81.2271 261.112 80.7747 260.022 81.3062C258.931 81.8382 258.479 83.1536 259.011 84.2443C260.339 86.9678 260.465 90.179 259.355 93.0545C258.248 95.9247 256.053 98.139 253.174 99.29C251.312 100.034 249.467 100.822 247.637 101.647L210.856 64.8665C211.677 63.0407 212.464 61.1947 213.211 59.3268C214.894 55.1156 218.925 52.3945 223.481 52.3945C226.4 52.3945 229.156 53.5424 231.24 55.6269L253.766 78.1523C254.624 79.0104 256.015 79.0104 256.873 78.1523C257.731 77.2942 257.731 75.9032 256.873 75.0451L234.348 52.5193C231.433 49.6049 227.574 48 223.481 48C217.117 48 211.484 51.806 209.131 57.6952C202.239 74.9224 192.092 90.3085 178.974 103.427L125.688 156.712L120.823 157.921C117.874 158.654 115.627 160.84 114.813 163.768C114 166.696 114.797 169.727 116.946 171.876L140.626 195.555C142.22 197.15 144.301 198 146.465 198C147.216 198 147.978 197.897 148.733 197.688C151.662 196.874 153.847 194.628 154.58 191.678L155.789 186.813L209.074 133.527C215.562 127.04 222.74 121.185 230.409 116.125C238.074 111.071 246.282 106.78 254.806 103.37C258.831 101.761 261.903 98.659 263.455 94.6365C265.003 90.6252 264.823 86.1352 262.96 82.3178ZM147.557 193.454C146.176 193.838 144.746 193.462 143.733 192.448L120.053 168.768C119.04 167.755 118.663 166.325 119.047 164.944C119.431 163.563 120.491 162.532 121.883 162.186L126.134 161.129L151.372 186.367L150.315 190.618C149.969 192.01 148.938 193.07 147.557 193.454ZM153.803 182.584L129.917 158.698L139.143 149.472H147.35C148.563 149.472 149.547 148.488 149.547 147.275C149.547 146.061 148.563 145.078 147.35 145.078H143.538L165.844 122.771L189.73 146.657L167.424 168.963L167.427 154.212C167.427 149.175 163.328 145.077 158.289 145.077H156.115C154.902 145.077 153.918 146.061 153.918 147.275C153.918 148.488 154.902 149.472 156.115 149.472H158.289C160.904 149.472 163.032 151.598 163.032 154.211L163.029 173.358L153.803 182.584ZM205.967 130.42L192.837 143.55L168.951 119.664L182.081 106.534C183.677 104.938 185.229 103.309 186.738 101.649H206.112H206.115C207.38 101.649 208.571 102.142 209.465 103.037C210.361 103.932 210.854 105.123 210.853 106.391V125.767C209.186 127.28 207.556 128.831 205.967 130.42ZM227.99 112.457C223.572 115.371 219.313 118.542 215.247 121.938V106.392C215.249 103.951 214.299 101.655 212.572 99.9293C210.847 98.2043 208.554 97.2545 206.116 97.2545C206.114 97.2545 206.112 97.2545 206.11 97.2545H190.575C197.795 88.6269 203.914 79.2103 208.871 69.0964L243.409 103.635C238.089 106.248 232.93 109.199 227.99 112.457Z" fill="white"/>
</g>
<path d="M125.557 245H119.273V224.636H125.835C127.81 224.636 129.501 225.044 130.906 225.859C132.311 226.668 133.389 227.831 134.138 229.349C134.887 230.861 135.261 232.67 135.261 234.778C135.261 236.9 134.883 238.726 134.128 240.257C133.372 241.782 132.272 242.955 130.827 243.777C129.381 244.592 127.625 245 125.557 245ZM121.738 242.812H125.398C127.081 242.812 128.477 242.488 129.584 241.838C130.691 241.188 131.516 240.264 132.059 239.064C132.603 237.864 132.875 236.436 132.875 234.778C132.875 233.134 132.606 231.719 132.069 230.533C131.532 229.339 130.73 228.425 129.663 227.788C128.596 227.145 127.267 226.824 125.676 226.824H121.738V242.812ZM139.079 245V229.727H141.426V245H139.079ZM140.273 227.182C139.815 227.182 139.421 227.026 139.089 226.714C138.765 226.403 138.602 226.028 138.602 225.591C138.602 225.153 138.765 224.779 139.089 224.467C139.421 224.156 139.815 224 140.273 224C140.73 224 141.121 224.156 141.446 224.467C141.777 224.779 141.943 225.153 141.943 225.591C141.943 226.028 141.777 226.403 141.446 226.714C141.121 227.026 140.73 227.182 140.273 227.182ZM151.491 245.318C150.218 245.318 149.095 244.997 148.12 244.354C147.146 243.704 146.383 242.789 145.833 241.609C145.283 240.423 145.008 239.021 145.008 237.403C145.008 235.799 145.283 234.407 145.833 233.227C146.383 232.047 147.149 231.136 148.13 230.493C149.111 229.85 150.245 229.528 151.531 229.528C152.525 229.528 153.311 229.694 153.887 230.026C154.471 230.35 154.915 230.722 155.22 231.139C155.531 231.55 155.773 231.888 155.945 232.153H156.144V224.636H158.491V245H156.224V242.653H155.945C155.773 242.932 155.528 243.283 155.21 243.707C154.892 244.125 154.437 244.5 153.847 244.831C153.258 245.156 152.472 245.318 151.491 245.318ZM151.809 243.21C152.75 243.21 153.546 242.965 154.195 242.474C154.845 241.977 155.339 241.291 155.677 240.416C156.015 239.535 156.184 238.517 156.184 237.364C156.184 236.223 156.018 235.226 155.687 234.371C155.356 233.509 154.865 232.839 154.215 232.362C153.566 231.878 152.764 231.636 151.809 231.636C150.815 231.636 149.986 231.892 149.323 232.402C148.667 232.906 148.173 233.592 147.842 234.46C147.517 235.322 147.355 236.29 147.355 237.364C147.355 238.451 147.52 239.438 147.852 240.327C148.19 241.208 148.687 241.911 149.343 242.435C150.006 242.952 150.828 243.21 151.809 243.21ZM169.279 251.045C168.146 251.045 167.171 250.9 166.356 250.608C165.541 250.323 164.861 249.945 164.318 249.474C163.781 249.01 163.353 248.513 163.035 247.983L164.904 246.67C165.116 246.949 165.385 247.267 165.71 247.625C166.035 247.99 166.479 248.304 167.042 248.57C167.612 248.841 168.358 248.977 169.279 248.977C170.512 248.977 171.53 248.679 172.332 248.082C173.134 247.486 173.535 246.551 173.535 245.278V242.176H173.336C173.164 242.455 172.919 242.799 172.6 243.21C172.289 243.615 171.838 243.976 171.248 244.294C170.665 244.606 169.876 244.761 168.882 244.761C167.649 244.761 166.542 244.47 165.561 243.886C164.586 243.303 163.814 242.455 163.244 241.341C162.68 240.227 162.399 238.875 162.399 237.284C162.399 235.72 162.674 234.357 163.224 233.197C163.774 232.031 164.54 231.129 165.521 230.493C166.502 229.85 167.635 229.528 168.921 229.528C169.916 229.528 170.704 229.694 171.288 230.026C171.878 230.35 172.329 230.722 172.64 231.139C172.958 231.55 173.204 231.888 173.376 232.153H173.615V229.727H175.882V245.438C175.882 246.75 175.583 247.817 174.987 248.639C174.397 249.468 173.601 250.074 172.6 250.459C171.606 250.85 170.499 251.045 169.279 251.045ZM169.2 242.653C170.141 242.653 170.936 242.438 171.586 242.007C172.236 241.576 172.73 240.956 173.068 240.148C173.406 239.339 173.575 238.371 173.575 237.244C173.575 236.144 173.409 235.173 173.078 234.331C172.746 233.489 172.256 232.83 171.606 232.352C170.956 231.875 170.154 231.636 169.2 231.636C168.205 231.636 167.377 231.888 166.714 232.392C166.058 232.896 165.564 233.572 165.232 234.42C164.908 235.269 164.745 236.21 164.745 237.244C164.745 238.305 164.911 239.243 165.242 240.058C165.58 240.867 166.078 241.503 166.734 241.967C167.397 242.425 168.219 242.653 169.2 242.653ZM186.58 245.318C185.109 245.318 183.839 244.993 182.772 244.344C181.712 243.688 180.893 242.773 180.316 241.599C179.746 240.42 179.461 239.047 179.461 237.483C179.461 235.919 179.746 234.54 180.316 233.347C180.893 232.147 181.695 231.212 182.722 230.543C183.757 229.866 184.963 229.528 186.342 229.528C187.137 229.528 187.923 229.661 188.698 229.926C189.474 230.191 190.18 230.622 190.816 231.219C191.453 231.809 191.96 232.591 192.338 233.565C192.715 234.54 192.904 235.74 192.904 237.165V238.159H181.132V236.131H190.518C190.518 235.269 190.346 234.5 190.001 233.824C189.663 233.148 189.179 232.614 188.549 232.223C187.926 231.832 187.19 231.636 186.342 231.636C185.407 231.636 184.598 231.868 183.916 232.332C183.24 232.79 182.719 233.386 182.355 234.122C181.99 234.858 181.808 235.647 181.808 236.489V237.841C181.808 238.994 182.007 239.972 182.404 240.774C182.809 241.57 183.369 242.176 184.085 242.594C184.801 243.005 185.633 243.21 186.58 243.21C187.197 243.21 187.754 243.124 188.251 242.952C188.755 242.773 189.189 242.508 189.553 242.156C189.918 241.798 190.2 241.354 190.399 240.824L192.666 241.46C192.427 242.229 192.026 242.905 191.463 243.489C190.899 244.065 190.203 244.516 189.374 244.841C188.546 245.159 187.615 245.318 186.58 245.318ZM196.474 245V229.727H198.741V232.034H198.9C199.178 231.278 199.682 230.665 200.411 230.195C201.141 229.724 201.963 229.489 202.877 229.489C203.05 229.489 203.265 229.492 203.524 229.499C203.782 229.505 203.978 229.515 204.11 229.528V231.915C204.031 231.895 203.848 231.865 203.563 231.825C203.285 231.779 202.99 231.756 202.678 231.756C201.936 231.756 201.273 231.911 200.69 232.223C200.113 232.528 199.656 232.952 199.318 233.496C198.986 234.033 198.82 234.646 198.82 235.335V245H196.474ZM206.892 245V229.727H209.238V245H206.892ZM208.085 227.182C207.628 227.182 207.233 227.026 206.902 226.714C206.577 226.403 206.415 226.028 206.415 225.591C206.415 225.153 206.577 224.779 206.902 224.467C207.233 224.156 207.628 224 208.085 224C208.542 224 208.934 224.156 209.258 224.467C209.59 224.779 209.756 225.153 209.756 225.591C209.756 226.028 209.59 226.403 209.258 226.714C208.934 227.026 208.542 227.182 208.085 227.182ZM219.303 245.318C218.031 245.318 216.907 244.997 215.933 244.354C214.958 243.704 214.196 242.789 213.646 241.609C213.096 240.423 212.82 239.021 212.82 237.403C212.82 235.799 213.096 234.407 213.646 233.227C214.196 232.047 214.962 231.136 215.943 230.493C216.924 229.85 218.057 229.528 219.343 229.528C220.338 229.528 221.123 229.694 221.7 230.026C222.283 230.35 222.727 230.722 223.032 231.139C223.344 231.55 223.586 231.888 223.758 232.153H223.957V224.636H226.303V245H224.036V242.653H223.758C223.586 242.932 223.34 243.283 223.022 243.707C222.704 244.125 222.25 244.5 221.66 244.831C221.07 245.156 220.285 245.318 219.303 245.318ZM219.622 243.21C220.563 243.21 221.358 242.965 222.008 242.474C222.658 241.977 223.151 241.291 223.49 240.416C223.828 239.535 223.997 238.517 223.997 237.364C223.997 236.223 223.831 235.226 223.499 234.371C223.168 233.509 222.677 232.839 222.028 232.362C221.378 231.878 220.576 231.636 219.622 231.636C218.627 231.636 217.799 231.892 217.136 232.402C216.48 232.906 215.986 233.592 215.654 234.46C215.329 235.322 215.167 236.29 215.167 237.364C215.167 238.451 215.333 239.438 215.664 240.327C216.002 241.208 216.499 241.911 217.156 242.435C217.819 242.952 218.641 243.21 219.622 243.21ZM237.132 245.318C235.753 245.318 234.543 244.99 233.502 244.334C232.468 243.678 231.66 242.759 231.076 241.58C230.499 240.4 230.211 239.021 230.211 237.443C230.211 235.852 230.499 234.464 231.076 233.277C231.66 232.09 232.468 231.169 233.502 230.513C234.543 229.857 235.753 229.528 237.132 229.528C238.51 229.528 239.717 229.857 240.751 230.513C241.792 231.169 242.6 232.09 243.177 233.277C243.76 234.464 244.052 235.852 244.052 237.443C244.052 239.021 243.76 240.4 243.177 241.58C242.6 242.759 241.792 243.678 240.751 244.334C239.717 244.99 238.51 245.318 237.132 245.318ZM237.132 243.21C238.179 243.21 239.041 242.942 239.717 242.405C240.393 241.868 240.893 241.162 241.218 240.287C241.543 239.412 241.705 238.464 241.705 237.443C241.705 236.422 241.543 235.471 241.218 234.589C240.893 233.708 240.393 232.995 239.717 232.452C239.041 231.908 238.179 231.636 237.132 231.636C236.084 231.636 235.222 231.908 234.546 232.452C233.87 232.995 233.37 233.708 233.045 234.589C232.72 235.471 232.558 236.422 232.558 237.443C232.558 238.464 232.72 239.412 233.045 240.287C233.37 241.162 233.87 241.868 234.546 242.405C235.222 242.942 236.084 243.21 237.132 243.21ZM253.839 245.318C252.46 245.318 251.25 244.99 250.209 244.334C249.175 243.678 248.367 242.759 247.783 241.58C247.206 240.4 246.918 239.021 246.918 237.443C246.918 235.852 247.206 234.464 247.783 233.277C248.367 232.09 249.175 231.169 250.209 230.513C251.25 229.857 252.46 229.528 253.839 229.528C255.217 229.528 256.424 229.857 257.458 230.513C258.499 231.169 259.307 232.09 259.884 233.277C260.467 234.464 260.759 235.852 260.759 237.443C260.759 239.021 260.467 240.4 259.884 241.58C259.307 242.759 258.499 243.678 257.458 244.334C256.424 244.99 255.217 245.318 253.839 245.318ZM253.839 243.21C254.886 243.21 255.748 242.942 256.424 242.405C257.1 241.868 257.6 241.162 257.925 240.287C258.25 239.412 258.412 238.464 258.412 237.443C258.412 236.422 258.25 235.471 257.925 234.589C257.6 233.708 257.1 232.995 256.424 232.452C255.748 231.908 254.886 231.636 253.839 231.636C252.791 231.636 251.93 231.908 251.253 232.452C250.577 232.995 250.077 233.708 249.752 234.589C249.427 235.471 249.265 236.422 249.265 237.443C249.265 238.464 249.427 239.412 249.752 240.287C250.077 241.162 250.577 241.868 251.253 242.405C251.93 242.942 252.791 243.21 253.839 243.21Z" fill="white"/>
<defs>
<clipPath id="clip0_91_347">
<rect width="150" height="150" fill="white" transform="translate(114.5 48)"/>
</clipPath>
</defs>
</svg>
