<svg width="379" height="300" viewBox="0 0 379 300" fill="none" xmlns="http://www.w3.org/2000/svg">
<rect x="1" y="1" width="377" height="298" rx="11" stroke="white" stroke-width="2"/>
<g clip-path="url(#clip0_91_389)">
<path d="M243.131 56.2329C246.006 55.6089 248.854 57.4405 249.478 60.3163C249.702 61.3452 250.612 62.0481 251.623 62.0481C251.778 62.0481 251.935 62.0316 252.092 61.9977C253.12 61.7744 253.822 60.865 253.823 59.854C253.823 59.6993 253.807 59.542 253.773 59.3844C253.471 57.9913 253.729 56.5643 254.5 55.3654C255.271 54.1666 256.463 53.3401 257.856 53.0378C259.042 52.7806 259.795 51.6105 259.537 50.4245C259.28 49.2389 258.112 48.4862 256.924 48.7432C254.384 49.2942 252.211 50.8019 250.804 52.9877C250.627 53.2637 250.464 53.5461 250.316 53.8344C248.109 52.0821 245.162 51.2952 242.2 51.938C241.013 52.1952 240.261 53.3653 240.518 54.5513C240.776 55.7372 241.946 56.4904 243.131 56.2329Z" fill="white"/>
<path d="M227.846 63.8973C230.019 64.5747 231.235 66.8938 230.558 69.0665C230.49 69.2839 230.458 69.5036 230.458 69.7195C230.457 70.6561 231.06 71.5245 232.002 71.818C232.219 71.8857 232.44 71.9182 232.656 71.9182C233.592 71.9182 234.46 71.315 234.753 70.3743C235.081 69.3217 235.8 68.46 236.776 67.9476C237.752 67.4355 238.869 67.3336 239.922 67.6623C241.081 68.0229 242.313 67.3769 242.674 66.2185C243.035 65.0598 242.389 63.8279 241.23 63.4667C239.058 62.7893 236.75 62.9985 234.734 64.0561C234.606 64.1235 234.48 64.1938 234.356 64.2671C234.295 64.1364 234.231 64.0066 234.164 63.8783C233.106 61.8624 231.327 60.3791 229.154 59.7017C227.995 59.3405 226.763 59.9871 226.402 61.1455C226.041 62.3042 226.687 63.5361 227.846 63.8973Z" fill="white"/>
<path d="M262.512 186.027C261.231 184.75 259.53 184.047 257.724 184.047H255.015L255.429 183.633C256.288 182.775 256.288 181.384 255.429 180.526C254.571 179.668 253.18 179.668 252.322 180.526L249.712 183.136L247.102 180.526C246.243 179.668 244.852 179.668 243.994 180.526C243.136 181.384 243.136 182.775 243.994 183.633L244.408 184.047H238.629L239.043 183.633C239.901 182.775 239.901 181.384 239.043 180.526C238.185 179.668 236.794 179.668 235.936 180.526L233.325 183.136L230.715 180.526C229.857 179.668 228.466 179.668 227.608 180.526C226.75 181.384 226.75 182.775 227.608 183.633L228.022 184.047H222.243L222.657 183.633C223.515 182.775 223.515 181.384 222.657 180.526C221.799 179.668 220.408 179.668 219.55 180.526L216.939 183.136L214.329 180.526C213.471 179.668 212.08 179.668 211.222 180.526C210.363 181.384 210.363 182.775 211.222 183.633L211.636 184.048H201.712L201.008 176.305C207.118 173.144 214.082 173.998 214.152 174.007C215.176 174.145 216.15 173.555 216.505 172.59C221.309 159.569 233.05 158.189 233.54 158.137C234.386 158.055 235.106 157.49 235.393 156.69C235.606 156.097 235.549 155.451 235.261 154.912C235.148 154.692 234.165 152.735 233.532 150.034C232.999 147.761 232.626 144.511 233.642 141.426C234.596 141.049 235.48 140.48 236.233 139.732L247.381 128.633L252.85 129.321L255.061 137.356C255.33 138.331 256.215 138.971 257.179 138.971C257.372 138.971 257.568 138.945 257.763 138.891C258.933 138.569 259.621 137.36 259.299 136.19L257.572 129.915L262.029 130.477C262.122 130.488 262.215 130.494 262.306 130.494C263.398 130.494 264.344 129.682 264.484 128.571C264.635 127.367 263.782 126.268 262.578 126.117L251.331 124.701L257.883 118.179C258.845 117.221 259.376 115.946 259.378 114.588C259.38 113.23 258.852 111.954 257.884 110.986L257.643 110.748C256.893 109.996 255.966 109.526 254.993 109.341L256.746 97.9054C256.93 96.706 256.107 95.5845 254.907 95.4005C253.708 95.2168 252.586 96.0398 252.402 97.2395L251.82 101.037L247.815 98.3481C246.808 97.6719 245.442 97.9403 244.766 98.9478C244.089 99.9553 244.358 101.321 245.366 101.997L251.085 105.835L250.328 110.768L228.917 126.348L211.832 118.835C209.824 117.95 207.581 117.876 205.516 118.629L196.271 121.995L195.53 92.1468C195.461 89.4403 194.241 86.881 192.179 85.1237L183.411 77.6621L183.925 68.4049C184.086 65.5552 182.986 62.8183 180.949 60.8782V53.8485C180.949 52.635 179.965 51.6512 178.751 51.6512C177.538 51.6512 176.554 52.635 176.554 53.8485V57.5021L167.099 50.4269C165.093 48.9236 162.244 49.1264 160.472 50.898L159.303 52.0669C158.345 53.0246 157.818 54.2985 157.818 55.6537C157.818 57.009 158.345 58.2831 159.303 59.2405L164.746 64.6836L157.777 63.5891C156.578 63.4007 155.454 64.2198 155.265 65.419C155.077 66.6178 155.896 67.7422 157.095 67.9306L159.153 68.2537L156.085 70.6444C155.128 71.3903 154.957 72.771 155.703 73.7281C156.136 74.2839 156.784 74.5748 157.438 74.5748C157.91 74.5748 158.386 74.4231 158.787 74.1108L165.104 69.1883L168.322 69.6937L166.242 77.5092C165.6 79.918 166.186 82.4829 167.808 84.3694L175.263 93.0512L175.034 95.5657L170.573 93.9427C168.508 93.1909 166.265 93.2642 164.257 94.1484L160.282 95.8974C159.171 96.386 158.667 97.6827 159.155 98.7934C159.644 99.904 160.94 100.409 162.051 99.9198L166.028 98.1702C166.994 97.7443 168.074 97.7094 169.069 98.0721L176.212 100.671C176.853 100.904 177.565 100.826 178.14 100.461C178.716 100.096 179.089 99.4839 179.151 98.8048L179.722 92.5236C179.776 91.932 179.588 91.3438 179.201 90.8932L171.141 81.5053C170.463 80.7178 170.219 79.647 170.488 78.6398L173.195 68.4679C173.396 67.7106 173.179 66.9034 172.625 66.3491L162.409 56.133C162.237 55.9611 162.211 55.7589 162.211 55.6537C162.211 55.5486 162.237 55.3464 162.409 55.1744L163.578 54.0052C163.818 53.765 164.19 53.7392 164.464 53.9443L177.434 63.6503C178.849 64.7094 179.635 66.394 179.536 68.1588L178.961 78.5065C178.923 79.1923 179.208 79.8565 179.731 80.3015L189.327 88.4686C190.439 89.4157 191.098 90.7968 191.134 92.2561L191.952 125.159C191.969 125.867 192.326 126.522 192.91 126.92C193.495 127.319 194.235 127.411 194.9 127.17L207.017 122.758C208.012 122.395 209.092 122.43 210.06 122.857L228.303 130.878C229.018 131.193 229.847 131.103 230.48 130.643L253.653 113.782C253.924 113.584 254.293 113.613 254.54 113.862L254.783 114.102C254.947 114.267 254.982 114.454 254.981 114.582C254.981 114.688 254.955 114.89 254.781 115.064L233.13 136.617C232.349 137.395 231.236 137.724 230.158 137.498L209.088 133.065C208.387 132.918 207.658 133.121 207.134 133.611L196.851 143.232C194.941 145.019 193.98 147.539 194.216 150.148L197.297 184.047H177.79C181.698 180.18 184.149 174.129 184.149 167.392C184.149 158.996 180.344 151.665 174.655 148.298L177.481 117.203C177.542 116.528 177.288 115.863 176.793 115.4L168.951 108.064C168.427 107.574 167.699 107.371 166.997 107.518L147.202 111.682C146.165 111.901 145.096 111.584 144.344 110.836L132.105 98.6504C131.861 98.4078 131.839 98.0202 132.054 97.7475L133.147 96.3585C133.375 96.0702 133.786 96.0137 134.082 96.2284L146.756 105.451C147.388 105.911 148.217 106.001 148.933 105.686L152.672 104.042C153.783 103.554 154.287 102.257 153.799 101.146C153.31 100.036 152.014 99.5314 150.903 100.019L148.321 101.155L137.451 93.2448L136.272 82.5735C136.139 81.3673 135.054 80.4995 133.847 80.6308C132.641 80.7641 131.771 81.8498 131.904 83.056L132.173 85.4905L129.07 84.2375C127.944 83.7831 126.664 84.3272 126.209 85.4522C125.755 86.5775 126.299 87.858 127.424 88.3124L132.721 90.4511L132.867 91.77C131.658 91.9669 130.518 92.598 129.697 93.6374L128.602 95.0281C127.006 97.0531 127.18 99.95 129.005 101.766L138.193 110.913L126.017 112.893C124.819 113.088 124.006 114.216 124.201 115.414C124.376 116.493 125.308 117.259 126.367 117.259C126.484 117.259 126.603 117.25 126.722 117.23L131.157 116.509L129.118 121.807C128.682 122.94 129.247 124.211 130.38 124.647C130.639 124.747 130.906 124.794 131.168 124.794C132.051 124.794 132.883 124.258 133.22 123.385L136.18 115.693L142.157 114.721C143.863 115.953 146.013 116.425 148.111 115.982L166.785 112.054L173.008 117.875L170.396 146.627C169.499 146.439 168.586 146.343 167.682 146.343C165.639 146.343 163.663 146.812 161.789 147.728C160.262 147.073 158.642 146.634 156.955 146.448C156.889 144.82 157.434 142.143 161.121 140.212C162.196 139.648 162.611 138.321 162.048 137.246C161.485 136.17 160.157 135.755 159.082 136.319C153.789 139.091 152.469 143.368 152.558 146.542C151.118 146.761 149.73 147.163 148.412 147.727C146.536 146.812 144.56 146.342 142.52 146.342C133.439 146.342 126.051 155.785 126.051 167.391C126.051 174.163 128.569 180.194 132.468 184.046H121.276C117.54 184.046 114.5 187.085 114.5 190.82C114.5 192.629 115.205 194.331 116.485 195.611C117.766 196.891 119.467 197.596 121.276 197.596H223.531C224.745 197.596 225.729 196.612 225.729 195.399C225.729 194.185 224.745 193.202 223.531 193.202H121.276C120.641 193.202 120.043 192.954 119.593 192.503C119.142 192.053 118.895 191.455 118.895 190.82C118.895 189.508 119.963 188.441 121.276 188.441H257.724C258.359 188.441 258.958 188.689 259.407 189.136C259.857 189.587 260.105 190.184 260.105 190.82C260.105 192.133 259.037 193.202 257.724 193.202H233.469C232.255 193.202 231.271 194.185 231.271 195.399C231.271 196.612 232.255 197.596 233.469 197.596H257.724C261.46 197.596 264.5 194.556 264.5 190.82C264.5 189.011 263.795 187.31 262.512 186.027ZM198.594 149.751C198.516 148.887 198.717 148.046 199.148 147.325L203.283 155.231C201.733 155.328 200.358 155.628 199.164 156.022L198.594 149.751ZM229.295 151.267L219.571 145.999C219.489 144.689 219.518 142.277 220.491 139.955L229 141.745C228.255 145.18 228.634 148.56 229.295 151.267ZM202.4 144.06L204.004 142.559L212.844 147.349C210.193 149.102 208.323 151.207 207.072 152.994L202.4 144.06ZM199.576 160.562C201.066 159.919 203.083 159.426 205.593 159.648L210.751 169.511C208.05 169.6 204.31 170.07 200.584 171.652L199.576 160.562ZM214.315 166.844L209.447 157.535C210.298 155.85 212.663 152.021 217.401 149.821L227.46 155.27C223.403 156.884 218.026 160.18 214.315 166.844ZM209.303 137.601L216.136 139.038C215.56 140.661 215.3 142.253 215.2 143.627L207.387 139.393L209.303 137.601ZM155.101 150.739C163.038 150.739 169.494 158.21 169.494 167.393C169.494 176.576 163.038 184.046 155.101 184.046C147.165 184.046 140.708 176.576 140.708 167.393C140.708 158.21 147.165 150.739 155.101 150.739ZM167.682 150.738C168.287 150.738 168.899 150.802 169.5 150.929C175.347 152.165 179.756 159.243 179.756 167.392C179.756 175.541 175.347 182.618 169.493 183.856C168.908 183.982 168.298 184.046 167.682 184.046C167.334 184.046 166.989 184.021 166.646 183.98C171.049 180.125 173.889 174.125 173.889 167.393C173.889 160.659 171.049 154.659 166.644 150.804C166.987 150.763 167.333 150.738 167.682 150.738ZM142.52 150.738C142.868 150.738 143.214 150.763 143.558 150.804C139.154 154.659 136.314 160.66 136.314 167.393C136.314 174.125 139.153 180.125 143.557 183.98C143.213 184.021 142.868 184.046 142.52 184.046C135.862 184.046 130.446 176.575 130.446 167.392C130.446 158.209 135.862 150.738 142.52 150.738Z" fill="white"/>
<path d="M149.909 164.994C151.122 164.994 152.106 164.011 152.106 162.797V159.342C152.106 158.128 151.122 157.145 149.909 157.145C148.695 157.145 147.711 158.128 147.711 159.342V162.797C147.711 164.011 148.695 164.994 149.909 164.994Z" fill="white"/>
<path d="M160.878 164.994C162.092 164.994 163.076 164.011 163.076 162.797V159.342C163.076 158.128 162.092 157.145 160.878 157.145C159.665 157.145 158.681 158.128 158.681 159.342V162.797C158.681 164.011 159.665 164.994 160.878 164.994Z" fill="white"/>
<path d="M143.902 171.447L148.355 175.9C149.167 176.712 150.467 176.762 151.339 176.014L155.101 172.788L158.863 176.014C159.276 176.368 159.785 176.544 160.293 176.544C160.857 176.544 161.42 176.327 161.847 175.9L166.3 171.447C167.158 170.589 167.158 169.198 166.3 168.34C165.442 167.482 164.051 167.482 163.193 168.34L160.179 171.354L156.532 168.226C155.708 167.52 154.494 167.52 153.671 168.226L150.023 171.354L147.01 168.34C146.151 167.482 144.76 167.482 143.902 168.34C143.044 169.198 143.044 170.589 143.902 171.447Z" fill="white"/>
<path d="M225.292 101.483C232.074 101.482 238.865 98.9601 244.108 93.8918C247.323 90.7819 249.736 86.9062 251.086 82.684C251.678 80.8321 250.98 78.8777 249.349 77.821C247.701 76.754 245.612 76.9175 244.148 78.2285C241.2 80.8722 237.392 82.3283 233.428 82.3283C227.417 82.3283 221.957 79.0148 219.178 73.681C218.617 72.6047 217.29 72.1875 216.214 72.7476C215.138 73.3084 214.72 74.6355 215.281 75.7116C218.819 82.5035 225.773 86.7225 233.427 86.7225C238.327 86.7225 243.038 84.9764 246.753 81.7892C245.598 85.1508 243.634 88.2348 241.052 90.7324C232.077 99.4081 217.697 99.1763 208.997 90.2162C204.823 85.918 202.546 80.2485 202.588 74.2517C202.63 68.2491 204.99 62.6059 209.235 58.3602C211.706 55.887 214.617 54.0662 217.903 52.9412C215.098 56.204 213.423 60.1772 213.051 64.4598C212.946 65.6686 213.841 66.7342 215.05 66.839C216.259 66.9466 217.324 66.0492 217.429 64.8401C217.73 61.3684 219.126 58.1549 221.463 55.5463C222.775 54.0835 222.94 51.9955 221.874 50.3508C220.815 48.716 218.854 48.017 216.995 48.6123C212.923 49.916 209.165 52.2129 206.127 55.2536C201.06 60.3202 198.243 67.0564 198.193 74.2213C198.144 81.3791 200.861 88.1467 205.844 93.2774C211.147 98.7389 218.216 101.483 225.292 101.483Z" fill="white"/>
</g>
<path d="M127.161 245V224.636H139.451V226.824H129.627V233.705H138.815V235.892H129.627V242.812H139.61V245H127.161ZM143.577 250.727V229.727H145.844V232.153H146.123C146.295 231.888 146.534 231.55 146.839 231.139C147.15 230.722 147.594 230.35 148.171 230.026C148.754 229.694 149.543 229.528 150.538 229.528C151.824 229.528 152.957 229.85 153.938 230.493C154.919 231.136 155.685 232.047 156.235 233.227C156.785 234.407 157.06 235.799 157.06 237.403C157.06 239.021 156.785 240.423 156.235 241.609C155.685 242.789 154.923 243.704 153.948 244.354C152.974 244.997 151.85 245.318 150.577 245.318C149.596 245.318 148.811 245.156 148.221 244.831C147.631 244.5 147.177 244.125 146.859 243.707C146.54 243.283 146.295 242.932 146.123 242.653H145.924V250.727H143.577ZM145.884 237.364C145.884 238.517 146.053 239.535 146.391 240.416C146.729 241.291 147.223 241.977 147.873 242.474C148.522 242.965 149.318 243.21 150.259 243.21C151.24 243.21 152.059 242.952 152.715 242.435C153.378 241.911 153.875 241.208 154.207 240.327C154.545 239.438 154.714 238.451 154.714 237.364C154.714 236.29 154.548 235.322 154.217 234.46C153.892 233.592 153.398 232.906 152.735 232.402C152.079 231.892 151.254 231.636 150.259 231.636C149.305 231.636 148.503 231.878 147.853 232.362C147.203 232.839 146.713 233.509 146.381 234.371C146.05 235.226 145.884 236.223 145.884 237.364ZM160.64 245V229.727H162.987V245H160.64ZM161.833 227.182C161.376 227.182 160.981 227.026 160.65 226.714C160.325 226.403 160.163 226.028 160.163 225.591C160.163 225.153 160.325 224.779 160.65 224.467C160.981 224.156 161.376 224 161.833 224C162.29 224 162.682 224.156 163.006 224.467C163.338 224.779 163.504 225.153 163.504 225.591C163.504 226.028 163.338 226.403 163.006 226.714C162.682 227.026 162.29 227.182 161.833 227.182ZM173.489 245.318C172.057 245.318 170.824 244.98 169.79 244.304C168.756 243.628 167.961 242.696 167.404 241.51C166.847 240.323 166.569 238.968 166.569 237.443C166.569 235.892 166.854 234.523 167.424 233.337C168 232.143 168.802 231.212 169.83 230.543C170.864 229.866 172.07 229.528 173.449 229.528C174.523 229.528 175.491 229.727 176.353 230.125C177.214 230.523 177.92 231.08 178.471 231.795C179.021 232.511 179.362 233.347 179.495 234.301H177.148C176.969 233.605 176.571 232.989 175.955 232.452C175.345 231.908 174.523 231.636 173.489 231.636C172.574 231.636 171.772 231.875 171.083 232.352C170.4 232.823 169.866 233.489 169.482 234.351C169.104 235.206 168.915 236.21 168.915 237.364C168.915 238.544 169.101 239.571 169.472 240.446C169.85 241.321 170.38 242 171.063 242.484C171.752 242.968 172.561 243.21 173.489 243.21C174.099 243.21 174.652 243.104 175.15 242.892C175.647 242.68 176.068 242.375 176.412 241.977C176.757 241.58 177.002 241.102 177.148 240.545H179.495C179.362 241.447 179.034 242.259 178.51 242.982C177.993 243.697 177.307 244.268 176.452 244.692C175.604 245.109 174.616 245.318 173.489 245.318ZM191.118 245V224.636H203.328V226.824H193.584V233.705H202.414V235.892H193.584V245H191.118ZM209.58 224.636V245H207.234V224.636H209.58ZM223.503 238.756V229.727H225.85V245H223.503V242.415H223.344C222.986 243.19 222.429 243.85 221.674 244.393C220.918 244.93 219.963 245.199 218.81 245.199C217.855 245.199 217.007 244.99 216.265 244.572C215.522 244.148 214.939 243.512 214.515 242.663C214.09 241.808 213.878 240.731 213.878 239.432V229.727H216.225V239.273C216.225 240.386 216.536 241.275 217.159 241.938C217.789 242.6 218.591 242.932 219.566 242.932C220.149 242.932 220.742 242.783 221.346 242.484C221.955 242.186 222.466 241.729 222.877 241.112C223.294 240.496 223.503 239.71 223.503 238.756ZM236.79 229.727V231.716H228.875V229.727H236.79ZM231.182 226.068H233.528V240.625C233.528 241.288 233.625 241.785 233.817 242.116C234.016 242.441 234.268 242.66 234.572 242.773C234.884 242.879 235.212 242.932 235.557 242.932C235.815 242.932 236.027 242.919 236.193 242.892C236.359 242.859 236.491 242.832 236.591 242.812L237.068 244.92C236.909 244.98 236.687 245.04 236.402 245.099C236.117 245.166 235.756 245.199 235.318 245.199C234.655 245.199 234.006 245.056 233.369 244.771C232.74 244.486 232.216 244.052 231.798 243.469C231.387 242.885 231.182 242.15 231.182 241.261V226.068ZM246.559 245.318C245.087 245.318 243.818 244.993 242.751 244.344C241.69 243.688 240.871 242.773 240.295 241.599C239.725 240.42 239.44 239.047 239.44 237.483C239.44 235.919 239.725 234.54 240.295 233.347C240.871 232.147 241.674 231.212 242.701 230.543C243.735 229.866 244.942 229.528 246.32 229.528C247.116 229.528 247.901 229.661 248.677 229.926C249.452 230.191 250.158 230.622 250.795 231.219C251.431 231.809 251.938 232.591 252.316 233.565C252.694 234.54 252.883 235.74 252.883 237.165V238.159H241.11V236.131H250.496C250.496 235.269 250.324 234.5 249.979 233.824C249.641 233.148 249.157 232.614 248.528 232.223C247.905 231.832 247.169 231.636 246.32 231.636C245.386 231.636 244.577 231.868 243.894 232.332C243.218 232.79 242.698 233.386 242.333 234.122C241.969 234.858 241.786 235.647 241.786 236.489V237.841C241.786 238.994 241.985 239.972 242.383 240.774C242.787 241.57 243.347 242.176 244.063 242.594C244.779 243.005 245.611 243.21 246.559 243.21C247.175 243.21 247.732 243.124 248.229 242.952C248.733 242.773 249.167 242.508 249.532 242.156C249.897 241.798 250.178 241.354 250.377 240.824L252.644 241.46C252.406 242.229 252.004 242.905 251.441 243.489C250.878 244.065 250.182 244.516 249.353 244.841C248.524 245.159 247.593 245.318 246.559 245.318Z" fill="white"/>
<defs>
<clipPath id="clip0_91_389">
<rect width="150" height="150" fill="white" transform="translate(114.5 48)"/>
</clipPath>
</defs>
</svg>
