<svg width="379" height="300" viewBox="0 0 379 300" fill="none" xmlns="http://www.w3.org/2000/svg">
<rect x="1" y="1" width="377" height="298" rx="11" stroke="white" stroke-width="2"/>
<g clip-path="url(#clip0_91_279)">
<path d="M264.44 172.38C263.693 166.597 258.216 164.005 247.012 160.811C251.637 153.093 253.334 144.182 252.052 134.274C250.934 125.63 247.547 116.223 241.986 106.315C232.605 89.6012 220.416 77.3512 219.902 76.838C218.303 75.241 215.473 77.0082 216.296 79.1744C219.49 87.5759 220.088 95.4547 218.071 102.593C217.483 104.675 216.745 106.388 216.063 107.702C211.9 100.517 204.352 97.2421 203.981 97.0847C202.234 96.3429 200.357 98.1737 201.093 99.9491C204.502 108.171 204.03 116.676 201.605 120.149C199.989 122.462 196.988 121.487 195.52 119.458C192.761 115.646 192.992 107.059 196.155 95.8979C199.281 84.865 195.377 77.6363 191.551 73.5154C187.467 69.1147 182.664 67.3241 182.462 67.2503C180.129 66.5023 178.392 69.6084 180.407 71.0858C180.675 71.5194 181.7 73.5579 182.777 80.6682C182.964 81.9052 183.03 88.0109 180.554 87.1012C178.501 86.3469 178.687 80.1268 178.715 78.7625C179.054 62.1963 167.616 49.2564 167.129 48.7138C165.716 47.1403 162.962 48.4305 163.328 50.5557C163.345 50.6498 164.94 60.0966 164.271 73.0663C164.125 75.8964 168.513 76.1252 168.659 73.2928C168.959 67.4852 168.828 62.3999 168.576 58.46C171.428 63.4194 174.486 70.6502 174.322 78.6722C174.245 82.419 174.715 89.0211 178.721 91.1428C180.37 92.0158 182.302 91.8649 183.888 90.739C186.595 88.8189 187.834 84.7074 187.122 80.0094C186.829 78.0746 186.507 76.1764 186.124 74.457C192.42 79.5052 194.075 87.1191 191.927 94.6994C188.292 107.53 188.304 116.982 191.96 122.034C195.16 126.455 201.843 127.483 205.208 122.665C208.091 118.537 208.688 111.289 207.005 104.046C209.512 105.996 212.333 108.947 213.63 112.965C214.144 114.559 216.262 114.999 217.37 113.743C217.779 113.279 225.977 103.701 222.988 86.8314C227.334 91.9965 233.233 99.6816 238.197 108.542C243.465 117.945 246.663 126.807 247.7 134.88C248.942 144.545 247.051 153.112 242.083 160.358C238.911 160.743 235.385 162.435 232.414 166.285C231.071 168.025 230.151 169.865 229.682 171.636C229.079 171.167 228.438 170.744 227.765 170.371C231.5 163.536 232.876 154.744 231.747 144.818C230.848 136.916 228.711 131.104 228.621 130.861C227.872 128.848 224.775 129.088 224.397 131.248C222.908 139.757 214.568 150.232 210.886 154.52C207.695 149.449 208.727 144.66 208.776 144.444C209.185 142.741 207.449 141.242 205.823 141.891C200.512 144.016 197.258 146.643 195.3 148.838C189.715 135.406 176.146 131.986 175.513 131.834C173.667 131.39 172.116 133.504 173.135 135.135C176.042 139.786 176.447 143.921 176.274 146.572C176.091 149.4 180.475 149.684 180.66 146.857C180.849 143.945 180.423 140.982 179.415 138.091C180.32 138.561 181.295 139.126 182.292 139.802C187.623 143.413 191.054 148.324 192.489 154.398C192.985 156.492 196.1 156.63 196.732 154.524C196.745 154.481 198.015 150.803 204.214 147.474C204.357 150.613 205.342 155.133 209.083 159.435C209.923 160.403 211.464 160.433 212.342 159.499C212.811 159 221.799 149.363 226.376 139.236C227.981 146.771 229.233 159.102 223.589 168.822C216.939 167.448 209.951 170.894 207.094 177.072C199.5 168.938 184.707 175.168 176.866 179.65C175.95 175.048 171.753 172.542 163.706 169.97C163.636 169.908 163.562 169.849 163.483 169.795C163.435 169.764 159.324 166.708 157.958 156.88C161.318 158.841 166.371 160.979 171.533 160.164C173.448 159.862 175.284 158.745 176.84 156.937C178.689 154.788 175.358 151.921 173.509 154.07C172.653 155.065 171.708 155.688 170.847 155.823C164.091 156.89 156.868 150.818 156.799 150.759C155.392 149.554 153.1 150.64 153.174 152.513C153.419 158.753 154.637 163.991 156.793 168.1C152.264 167.415 147.573 168.399 143.875 170.888C143.846 170.908 143.819 170.928 143.79 170.948C143.2 168.54 141.588 166.217 139.161 164.219C137.815 162.451 135.766 159.242 134.547 154.821C131.972 145.486 134.115 135.391 140.914 124.817C143.074 121.457 147.229 113.976 148.196 104.894C149.526 108.587 150.472 113.331 149.7 118.609C148.559 126.407 151.501 131.071 154.17 133.611C157.058 136.359 160.257 137.229 160.392 137.265C162.283 137.767 163.886 135.551 162.773 133.908C162.759 133.887 161.335 131.607 160.701 126.673C160.063 121.71 160.122 113.131 164.027 100.441C165.563 95.4488 166.749 90.1291 167.551 84.6298C167.961 81.8252 163.612 81.1906 163.203 83.9952C162.433 89.2727 161.297 94.371 159.827 99.149C155.166 114.298 155.599 124.28 156.832 130.061C154.319 127.431 153.383 123.795 154.048 119.245C156.109 105.162 147.779 94.6414 147.424 94.2005C146.056 92.5033 143.153 93.7812 143.551 95.9729C145.677 107.666 139.83 118.378 137.217 122.441C132.015 130.532 126.606 142.963 130.38 156.241C130.78 157.647 131.251 158.942 131.756 160.128C127.911 158.732 124.14 158.811 120.75 161.342C117.012 164.132 114.5 169.232 114.5 174.032C114.5 178.042 116.456 180.9 120.158 182.298C123.123 183.417 126.837 183.511 130.387 183.511C133.438 183.511 135.893 183.51 137.894 182.841C138.146 184.595 138.873 186.174 140.053 187.492C143.154 190.957 149.178 192.641 158.472 192.641C162.036 192.641 165.51 191.984 168.465 190.829C169.387 197.983 181.426 197.984 189.5 197.984C199.643 197.984 206.374 195.19 208.938 190.033C212.442 192.687 217.476 192.593 221.65 192.593C227.43 192.593 235.347 192.593 235.347 183.114C235.347 184.045 242.129 184.642 243.056 184.685C246.52 184.845 249.993 184.643 253.354 183.736C256.09 182.997 254.945 178.757 252.208 179.493C250.238 180.025 248.064 180.317 245.919 180.336C239.218 180.398 236.413 179.696 234.021 175.63C232.654 173.306 235.152 169.7 236.634 168.091C238.817 165.722 242.061 163.977 245.342 164.905C257.296 168.283 259.745 170.336 260.081 172.943C260.194 173.817 259.918 174.666 259.237 175.539C257.492 177.772 260.956 180.477 262.701 178.243C264.101 176.448 264.702 174.421 264.44 172.38ZM130.387 179.116C121.58 179.116 118.895 177.928 118.895 174.032C118.895 170.605 120.738 166.834 123.379 164.862C124.888 163.736 126.825 163.188 128.668 163.734C131.595 164.601 134.119 165.875 136.007 167.329C137.627 169.36 140.398 170.993 139.492 174.073C138.008 179.116 137.141 179.116 130.387 179.116ZM143.327 184.561C142.411 183.538 142.052 182.27 142.229 180.683C142.836 175.215 149.036 172.274 153.958 172.274C158.69 172.274 164.498 174.426 168.684 176.624C170.43 177.541 172.339 178.722 172.614 180.853C173.359 186.634 162.067 188.246 158.472 188.246C148.681 188.246 144.832 186.242 143.327 184.561ZM205.632 185.975C205.253 188.819 202.653 193.59 189.5 193.59C184.503 193.59 172.801 193.59 172.801 189.927C172.801 188.156 174.475 187.211 175.411 185.931C178.391 183.415 183.696 180.799 190.137 178.846C196.011 177.067 206.858 176.788 205.632 185.975ZM221.65 188.198C212.842 188.198 210.157 187.01 210.157 183.114C210.157 177.486 214.821 172.907 220.554 172.907C226.287 172.907 230.952 177.486 230.952 183.114C230.952 187.39 229.474 188.198 221.65 188.198Z" fill="white"/>
</g>
<path d="M131.591 245V224.636H143.801V226.824H134.057V233.705H142.886V235.892H134.057V245H131.591ZM147.706 245V229.727H150.053V245H147.706ZM148.9 227.182C148.442 227.182 148.048 227.026 147.716 226.714C147.391 226.403 147.229 226.028 147.229 225.591C147.229 225.153 147.391 224.779 147.716 224.467C148.048 224.156 148.442 224 148.9 224C149.357 224 149.748 224.156 150.073 224.467C150.404 224.779 150.57 225.153 150.57 225.591C150.57 226.028 150.404 226.403 150.073 226.714C149.748 227.026 149.357 227.182 148.9 227.182ZM154.351 245V229.727H156.618V232.034H156.777C157.055 231.278 157.559 230.665 158.288 230.195C159.018 229.724 159.839 229.489 160.754 229.489C160.927 229.489 161.142 229.492 161.401 229.499C161.659 229.505 161.855 229.515 161.987 229.528V231.915C161.908 231.895 161.725 231.865 161.44 231.825C161.162 231.779 160.867 231.756 160.555 231.756C159.813 231.756 159.15 231.911 158.567 232.223C157.99 232.528 157.533 232.952 157.195 233.496C156.863 234.033 156.697 234.646 156.697 235.335V245H154.351ZM170.707 245.318C169.236 245.318 167.966 244.993 166.899 244.344C165.839 243.688 165.02 242.773 164.443 241.599C163.873 240.42 163.588 239.047 163.588 237.483C163.588 235.919 163.873 234.54 164.443 233.347C165.02 232.147 165.822 231.212 166.849 230.543C167.884 229.866 169.09 229.528 170.469 229.528C171.264 229.528 172.05 229.661 172.825 229.926C173.601 230.191 174.307 230.622 174.943 231.219C175.58 231.809 176.087 232.591 176.464 233.565C176.842 234.54 177.031 235.74 177.031 237.165V238.159H165.259V236.131H174.645C174.645 235.269 174.473 234.5 174.128 233.824C173.79 233.148 173.306 232.614 172.676 232.223C172.053 231.832 171.317 231.636 170.469 231.636C169.534 231.636 168.725 231.868 168.043 232.332C167.366 232.79 166.846 233.386 166.482 234.122C166.117 234.858 165.935 235.647 165.935 236.489V237.841C165.935 238.994 166.134 239.972 166.531 240.774C166.936 241.57 167.496 242.176 168.212 242.594C168.928 243.005 169.759 243.21 170.707 243.21C171.324 243.21 171.881 243.124 172.378 242.952C172.882 242.773 173.316 242.508 173.68 242.156C174.045 241.798 174.327 241.354 174.526 240.824L176.793 241.46C176.554 242.229 176.153 242.905 175.589 243.489C175.026 244.065 174.33 244.516 173.501 244.841C172.673 245.159 171.741 245.318 170.707 245.318ZM180.601 250.727V229.727H182.868V232.153H183.146C183.319 231.888 183.557 231.55 183.862 231.139C184.174 230.722 184.618 230.35 185.195 230.026C185.778 229.694 186.567 229.528 187.561 229.528C188.847 229.528 189.981 229.85 190.962 230.493C191.943 231.136 192.708 232.047 193.259 233.227C193.809 234.407 194.084 235.799 194.084 237.403C194.084 239.021 193.809 240.423 193.259 241.609C192.708 242.789 191.946 243.704 190.972 244.354C189.997 244.997 188.874 245.318 187.601 245.318C186.62 245.318 185.834 245.156 185.244 244.831C184.654 244.5 184.2 244.125 183.882 243.707C183.564 243.283 183.319 242.932 183.146 242.653H182.947V250.727H180.601ZM182.908 237.364C182.908 238.517 183.077 239.535 183.415 240.416C183.753 241.291 184.247 241.977 184.896 242.474C185.546 242.965 186.341 243.21 187.283 243.21C188.264 243.21 189.082 242.952 189.739 242.435C190.402 241.911 190.899 241.208 191.23 240.327C191.568 239.438 191.737 238.451 191.737 237.364C191.737 236.29 191.571 235.322 191.24 234.46C190.915 233.592 190.421 232.906 189.759 232.402C189.102 231.892 188.277 231.636 187.283 231.636C186.328 231.636 185.526 231.878 184.876 232.362C184.227 232.839 183.736 233.509 183.405 234.371C183.073 235.226 182.908 236.223 182.908 237.364ZM200.01 224.636V245H197.663V224.636H200.01ZM208.802 245.358C207.834 245.358 206.956 245.176 206.167 244.811C205.378 244.44 204.752 243.906 204.288 243.21C203.824 242.508 203.592 241.659 203.592 240.665C203.592 239.79 203.764 239.08 204.109 238.537C204.454 237.987 204.914 237.556 205.491 237.244C206.068 236.933 206.704 236.701 207.4 236.548C208.103 236.389 208.809 236.263 209.518 236.17C210.446 236.051 211.199 235.962 211.775 235.902C212.359 235.836 212.783 235.726 213.048 235.574C213.32 235.421 213.456 235.156 213.456 234.778V234.699C213.456 233.718 213.187 232.955 212.65 232.412C212.12 231.868 211.315 231.597 210.234 231.597C209.114 231.597 208.235 231.842 207.599 232.332C206.963 232.823 206.515 233.347 206.257 233.903L204.029 233.108C204.427 232.18 204.958 231.457 205.62 230.94C206.29 230.417 207.019 230.052 207.808 229.847C208.603 229.634 209.386 229.528 210.154 229.528C210.645 229.528 211.208 229.588 211.845 229.707C212.488 229.82 213.108 230.055 213.704 230.413C214.307 230.771 214.808 231.312 215.206 232.034C215.603 232.757 215.802 233.724 215.802 234.938V245H213.456V242.932H213.336C213.177 243.263 212.912 243.618 212.541 243.996C212.17 244.374 211.676 244.695 211.059 244.96C210.443 245.225 209.69 245.358 208.802 245.358ZM209.16 243.25C210.088 243.25 210.87 243.068 211.507 242.703C212.15 242.339 212.634 241.868 212.958 241.291C213.29 240.714 213.456 240.108 213.456 239.472V237.324C213.356 237.443 213.137 237.553 212.799 237.652C212.468 237.745 212.083 237.828 211.646 237.901C211.215 237.967 210.794 238.027 210.383 238.08C209.979 238.126 209.651 238.166 209.399 238.199C208.789 238.278 208.219 238.408 207.689 238.587C207.165 238.759 206.741 239.021 206.416 239.372C206.098 239.717 205.939 240.187 205.939 240.784C205.939 241.599 206.24 242.216 206.843 242.634C207.453 243.045 208.225 243.25 209.16 243.25ZM226.29 245.318C224.858 245.318 223.625 244.98 222.591 244.304C221.557 243.628 220.761 242.696 220.205 241.51C219.648 240.323 219.369 238.968 219.369 237.443C219.369 235.892 219.654 234.523 220.224 233.337C220.801 232.143 221.603 231.212 222.631 230.543C223.665 229.866 224.871 229.528 226.25 229.528C227.324 229.528 228.292 229.727 229.153 230.125C230.015 230.523 230.721 231.08 231.271 231.795C231.821 232.511 232.163 233.347 232.295 234.301H229.949C229.77 233.605 229.372 232.989 228.756 232.452C228.146 231.908 227.324 231.636 226.29 231.636C225.375 231.636 224.573 231.875 223.884 232.352C223.201 232.823 222.667 233.489 222.283 234.351C221.905 235.206 221.716 236.21 221.716 237.364C221.716 238.544 221.902 239.571 222.273 240.446C222.651 241.321 223.181 242 223.864 242.484C224.553 242.968 225.362 243.21 226.29 243.21C226.9 243.21 227.453 243.104 227.95 242.892C228.447 242.68 228.868 242.375 229.213 241.977C229.558 241.58 229.803 241.102 229.949 240.545H232.295C232.163 241.447 231.835 242.259 231.311 242.982C230.794 243.697 230.108 244.268 229.253 244.692C228.404 245.109 227.417 245.318 226.29 245.318ZM242.129 245.318C240.658 245.318 239.388 244.993 238.321 244.344C237.26 243.688 236.442 242.773 235.865 241.599C235.295 240.42 235.01 239.047 235.01 237.483C235.01 235.919 235.295 234.54 235.865 233.347C236.442 232.147 237.244 231.212 238.271 230.543C239.305 229.866 240.512 229.528 241.891 229.528C242.686 229.528 243.472 229.661 244.247 229.926C245.023 230.191 245.729 230.622 246.365 231.219C247.001 231.809 247.509 232.591 247.886 233.565C248.264 234.54 248.453 235.74 248.453 237.165V238.159H236.68V236.131H246.067C246.067 235.269 245.894 234.5 245.55 233.824C245.212 233.148 244.728 232.614 244.098 232.223C243.475 231.832 242.739 231.636 241.891 231.636C240.956 231.636 240.147 231.868 239.464 232.332C238.788 232.79 238.268 233.386 237.903 234.122C237.539 234.858 237.357 235.647 237.357 236.489V237.841C237.357 238.994 237.555 239.972 237.953 240.774C238.357 241.57 238.918 242.176 239.634 242.594C240.349 243.005 241.181 243.21 242.129 243.21C242.746 243.21 243.303 243.124 243.8 242.952C244.304 242.773 244.738 242.508 245.102 242.156C245.467 241.798 245.749 241.354 245.947 240.824L248.214 241.46C247.976 242.229 247.575 242.905 247.011 243.489C246.448 244.065 245.752 244.516 244.923 244.841C244.095 245.159 243.163 245.318 242.129 245.318Z" fill="white"/>
<defs>
<clipPath id="clip0_91_279">
<rect width="150" height="150" fill="white" transform="translate(114.5 48)"/>
</clipPath>
</defs>
</svg>
