<svg width="379" height="300" viewBox="0 0 379 300" fill="none" xmlns="http://www.w3.org/2000/svg">
<rect x="1" y="1" width="377" height="298" rx="11" stroke="white" stroke-width="2"/>
<g clip-path="url(#clip0_91_825)">
<path d="M227.583 76.8798C223 76.8798 218.928 74.1326 217.208 69.8811C216.753 68.7561 215.472 68.2135 214.347 68.6676C213.222 69.1229 212.679 70.4034 213.134 71.5284C215.528 77.4487 221.2 81.2743 227.583 81.2743C236.176 81.2743 243.167 74.2832 243.167 65.6901C243.167 57.0971 236.176 50.106 227.583 50.106C221.323 50.106 215.693 53.8287 213.24 59.5902C212.764 60.7067 213.284 61.9973 214.4 62.4725C215.517 62.948 216.807 62.4282 217.283 61.3114C219.044 57.1741 223.087 54.5005 227.583 54.5005C233.753 54.5005 238.773 59.5202 238.773 65.6898C238.773 71.8601 233.753 76.8798 227.583 76.8798Z" fill="white"/>
<path d="M246.648 137.363C246.964 137.381 247.279 137.39 247.59 137.39C256.914 137.39 264.5 129.804 264.5 120.48C264.5 116.415 263.036 112.486 260.379 109.417C258.141 106.832 255.182 104.994 251.914 104.13C250.898 95.7811 243.713 89.2561 235.131 89.2561C226.55 89.2561 219.365 95.7808 218.349 104.13C215.081 104.994 212.122 106.832 209.884 109.417C207.226 112.486 205.763 116.415 205.763 120.48C205.763 129.804 213.348 137.39 222.672 137.39C222.984 137.39 223.299 137.381 223.615 137.363C226.214 139.792 229.441 141.304 232.934 141.752V159.102C230.118 158.275 227.211 157.65 224.24 157.233C224.018 151.246 219.145 146.427 213.136 146.295C212.083 139.854 206.479 134.923 199.745 134.923C195.086 134.923 190.847 137.275 188.375 141.08C186.738 140.313 184.951 139.915 183.103 139.915C177.303 139.915 172.306 143.987 170.987 149.482C170.125 149.621 169.298 149.865 168.516 150.196C166.458 147.353 163.146 145.605 159.547 145.605C158.498 145.605 157.472 145.752 156.488 146.034V136.472C161.547 135.989 166.222 133.84 169.912 130.284C170.454 130.323 170.995 130.343 171.529 130.343C183.964 130.343 194.081 120.225 194.081 107.79C194.081 102.368 192.129 97.1278 188.584 93.0342C185.473 89.44 181.317 86.9284 176.738 85.8433C176.243 80.5713 173.931 75.6828 170.12 71.9243C165.876 67.7378 160.254 65.4321 154.291 65.4321C148.328 65.4321 142.706 67.7378 138.461 71.9243C134.65 75.6828 132.338 80.5719 131.843 85.8444C129.121 86.4925 126.51 87.6562 124.205 89.2563C123.208 89.9486 122.961 91.3177 123.653 92.3144C124.346 93.311 125.715 93.5583 126.711 92.8663C128.997 91.279 131.543 90.2615 134.276 89.8426C135.336 89.68 136.124 88.7762 136.14 87.7042C136.213 82.913 138.133 78.42 141.547 75.0529C144.964 71.6826 149.49 69.8264 154.291 69.8264C159.092 69.8264 163.617 71.6826 167.035 75.0529C170.449 78.4197 172.369 82.9127 172.442 87.7042C172.458 88.7762 173.246 89.6803 174.306 89.8426C178.546 90.4927 182.437 92.6475 185.262 95.9105C188.116 99.2059 189.687 103.425 189.687 107.79C189.687 117.802 181.542 125.948 171.529 125.948C170.813 125.948 170.078 125.904 169.346 125.816C168.656 125.734 167.966 125.982 167.487 126.488C164.529 129.62 160.683 131.546 156.489 132.046V106.682L166.59 96.5803C167.448 95.7219 167.448 94.3309 166.59 93.4728C165.731 92.6149 164.34 92.6149 163.482 93.4728L156.489 100.467V90.0002C156.489 88.7864 155.505 87.8029 154.291 87.8029C153.078 87.8029 152.094 88.7864 152.094 90.0002V114.404L145.575 107.885C144.717 107.027 143.326 107.027 142.468 107.885C141.61 108.743 141.61 110.134 142.468 110.993L152.094 120.618V132.046C147.9 131.546 144.054 129.62 141.095 126.488C140.617 125.982 139.928 125.732 139.237 125.816C138.504 125.903 137.77 125.948 137.054 125.948C127.041 125.948 118.895 117.802 118.895 107.79C118.895 104.988 119.517 102.302 120.742 99.8041C121.277 98.7146 120.827 97.3982 119.738 96.8636C118.649 96.3292 117.332 96.7789 116.797 97.8685C115.273 100.974 114.5 104.312 114.5 107.79C114.5 120.225 124.617 130.343 137.053 130.343C137.587 130.343 138.127 130.323 138.67 130.284C142.36 133.84 147.034 135.989 152.093 136.472V143.494C150.1 142.08 147.68 141.275 145.115 141.275C139.213 141.275 134.287 145.538 133.255 151.146C127.873 151.39 123.571 155.844 123.571 161.284C123.571 161.937 123.634 162.582 123.758 163.216C123.71 163.241 123.661 163.263 123.614 163.289L118.011 166.25C115.846 167.396 114.5 169.629 114.5 172.078V190.766C114.5 193.593 116.8 195.893 119.627 195.893H143.055C144.269 195.893 145.253 194.91 145.253 193.696C145.253 192.482 144.269 191.499 143.055 191.499H119.627C119.223 191.499 118.895 191.17 118.895 190.766V172.078C118.895 171.262 119.343 170.518 120.065 170.136L125.668 167.174C142.26 158.404 164.76 159.064 180.382 168.779L197.3 179.299C207.313 185.526 220.62 187.419 232.896 184.363L248.002 180.602V190.766C248.002 191.17 247.673 191.499 247.27 191.499H153.309C152.096 191.499 151.112 192.482 151.112 193.696C151.112 194.91 152.096 195.893 153.309 195.893H247.27C250.097 195.893 252.397 193.593 252.397 190.766V172.078C252.397 169.629 251.051 167.396 248.886 166.251L243.283 163.289C241.366 162.276 239.377 161.378 237.329 160.591V141.752C240.822 141.304 244.048 139.792 246.648 137.363ZM152.093 156.619C143.58 156.554 135.353 158.135 127.967 161.239C127.992 158.087 130.562 155.53 133.72 155.53C134.091 155.53 134.466 155.567 134.834 155.639C135.485 155.767 136.158 155.594 136.666 155.17C137.175 154.745 137.465 154.114 137.455 153.452C137.454 153.408 137.453 153.364 137.45 153.309C137.464 149.094 140.897 145.67 145.115 145.67C148.142 145.67 150.851 147.432 152.093 150.176V156.619H152.093ZM162.243 157.493C160.355 157.177 158.434 156.946 156.488 156.801V150.737C157.428 150.253 158.467 150 159.547 150C161.686 150 163.659 151.022 164.906 152.693C163.64 154.018 162.708 155.664 162.243 157.493ZM183.448 165.511L182.703 165.047C177.844 162.026 172.388 159.784 166.554 158.372C167.326 155.702 169.795 153.74 172.702 153.74H172.878C174.023 153.74 174.976 152.86 175.068 151.718C175.401 147.564 178.931 144.31 183.103 144.31C184.855 144.31 186.521 144.862 187.921 145.906C188.464 146.312 189.164 146.443 189.818 146.264C190.471 146.084 191.006 145.612 191.265 144.986C192.691 141.542 196.019 139.317 199.745 139.317C204.803 139.317 208.919 143.433 208.919 148.491L208.919 148.479C208.916 148.527 208.914 148.576 208.913 148.624C208.902 149.288 209.191 149.921 209.7 150.347C210.208 150.774 210.883 150.948 211.534 150.819C211.979 150.731 212.434 150.687 212.884 150.687C216.426 150.687 219.358 153.343 219.797 156.767C217.675 156.622 215.529 156.575 213.366 156.639C202.617 156.957 192.529 159.864 184.195 165.047L183.448 165.511ZM241.229 167.174L246.832 170.136C247.554 170.517 248.002 171.262 248.002 172.078V176.074L231.834 180.098C220.688 182.873 208.645 181.179 199.62 175.567L187.632 168.112C203.197 159.042 225.027 158.611 241.229 167.174ZM235.131 105.426C233.918 105.426 232.934 106.409 232.934 107.623V120.805L227.155 115.026C226.297 114.168 224.905 114.168 224.047 115.026C223.189 115.884 223.189 117.275 224.047 118.133L232.934 127.02V137.306C230.31 136.846 227.914 135.564 226.036 133.576C225.619 133.135 225.04 132.888 224.439 132.888C224.352 132.888 224.265 132.893 224.177 132.904C223.672 132.965 223.166 132.995 222.672 132.995C215.771 132.995 210.157 127.381 210.157 120.48C210.157 114.355 214.714 109.037 220.758 108.11C221.818 107.948 222.605 107.044 222.622 105.972C222.725 99.178 228.337 93.6503 235.131 93.6503C241.926 93.6503 247.538 99.1777 247.641 105.972C247.658 107.044 248.445 107.948 249.505 108.11C255.548 109.037 260.105 114.355 260.105 120.48C260.105 127.382 254.491 132.996 247.59 132.996C247.097 132.996 246.591 132.965 246.085 132.904C245.393 132.822 244.704 133.071 244.226 133.577C242.349 135.564 239.952 136.846 237.328 137.307V107.623C237.329 106.409 236.345 105.426 235.131 105.426Z" fill="white"/>
<path d="M190.784 80.5405H194.085C195.298 80.5405 196.282 79.557 196.282 78.3433C196.282 77.1295 195.298 76.146 194.085 76.146H190.784C189.57 76.146 188.587 77.1295 188.587 78.3433C188.587 79.557 189.57 80.5405 190.784 80.5405Z" fill="white"/>
<path d="M203.62 95.5781H206.921C208.135 95.5781 209.119 94.5946 209.119 93.3809C209.119 92.1671 208.135 91.1836 206.921 91.1836H203.62C202.407 91.1836 201.423 92.1671 201.423 93.3809C201.423 94.5946 202.407 95.5781 203.62 95.5781Z" fill="white"/>
<path d="M116.697 82.3745H119.998C121.212 82.3745 122.195 81.391 122.195 80.1772C122.195 78.9635 121.212 77.98 119.998 77.98H116.697C115.484 77.98 114.5 78.9635 114.5 80.1772C114.5 81.391 115.484 82.3745 116.697 82.3745Z" fill="white"/>
</g>
<path d="M150.431 245V224.636H162.641V226.824H152.897V233.705H161.726V235.892H152.897V245H150.431ZM171.63 245.318C170.251 245.318 169.041 244.99 168 244.334C166.966 243.678 166.158 242.759 165.574 241.58C164.998 240.4 164.709 239.021 164.709 237.443C164.709 235.852 164.998 234.464 165.574 233.277C166.158 232.09 166.966 231.169 168 230.513C169.041 229.857 170.251 229.528 171.63 229.528C173.008 229.528 174.215 229.857 175.249 230.513C176.29 231.169 177.098 232.09 177.675 233.277C178.258 234.464 178.55 235.852 178.55 237.443C178.55 239.021 178.258 240.4 177.675 241.58C177.098 242.759 176.29 243.678 175.249 244.334C174.215 244.99 173.008 245.318 171.63 245.318ZM171.63 243.21C172.677 243.21 173.539 242.942 174.215 242.405C174.891 241.868 175.391 241.162 175.716 240.287C176.041 239.412 176.203 238.464 176.203 237.443C176.203 236.422 176.041 235.471 175.716 234.589C175.391 233.708 174.891 232.995 174.215 232.452C173.539 231.908 172.677 231.636 171.63 231.636C170.582 231.636 169.721 231.908 169.044 232.452C168.368 232.995 167.868 233.708 167.543 234.589C167.218 235.471 167.056 236.422 167.056 237.443C167.056 238.464 167.218 239.412 167.543 240.287C167.868 241.162 168.368 241.868 169.044 242.405C169.721 242.942 170.582 243.21 171.63 243.21ZM182.132 245V229.727H184.399V232.034H184.558C184.837 231.278 185.34 230.665 186.07 230.195C186.799 229.724 187.621 229.489 188.536 229.489C188.708 229.489 188.923 229.492 189.182 229.499C189.44 229.505 189.636 229.515 189.768 229.528V231.915C189.689 231.895 189.507 231.865 189.222 231.825C188.943 231.779 188.648 231.756 188.337 231.756C187.594 231.756 186.931 231.911 186.348 232.223C185.771 232.528 185.314 232.952 184.976 233.496C184.644 234.033 184.479 234.646 184.479 235.335V245H182.132ZM198.489 245.318C197.017 245.318 195.748 244.993 194.68 244.344C193.62 243.688 192.801 242.773 192.224 241.599C191.654 240.42 191.369 239.047 191.369 237.483C191.369 235.919 191.654 234.54 192.224 233.347C192.801 232.147 193.603 231.212 194.631 230.543C195.665 229.866 196.871 229.528 198.25 229.528C199.045 229.528 199.831 229.661 200.607 229.926C201.382 230.191 202.088 230.622 202.724 231.219C203.361 231.809 203.868 232.591 204.246 233.565C204.624 234.54 204.812 235.74 204.812 237.165V238.159H193.04V236.131H202.426C202.426 235.269 202.254 234.5 201.909 233.824C201.571 233.148 201.087 232.614 200.457 232.223C199.834 231.832 199.098 231.636 198.25 231.636C197.315 231.636 196.507 231.868 195.824 232.332C195.148 232.79 194.627 233.386 194.263 234.122C193.898 234.858 193.716 235.647 193.716 236.489V237.841C193.716 238.994 193.915 239.972 194.312 240.774C194.717 241.57 195.277 242.176 195.993 242.594C196.709 243.005 197.541 243.21 198.489 243.21C199.105 243.21 199.662 243.124 200.159 242.952C200.663 242.773 201.097 242.508 201.462 242.156C201.826 241.798 202.108 241.354 202.307 240.824L204.574 241.46C204.335 242.229 203.934 242.905 203.371 243.489C202.807 244.065 202.111 244.516 201.283 244.841C200.454 245.159 199.523 245.318 198.489 245.318ZM219.2 233.148L217.092 233.744C216.96 233.393 216.764 233.052 216.506 232.72C216.254 232.382 215.909 232.104 215.472 231.885C215.034 231.666 214.474 231.557 213.791 231.557C212.857 231.557 212.078 231.772 211.455 232.203C210.838 232.627 210.53 233.168 210.53 233.824C210.53 234.407 210.742 234.868 211.166 235.206C211.59 235.544 212.253 235.826 213.155 236.051L215.422 236.608C216.787 236.939 217.805 237.446 218.474 238.129C219.144 238.805 219.479 239.677 219.479 240.744C219.479 241.619 219.227 242.402 218.723 243.091C218.226 243.78 217.53 244.324 216.635 244.722C215.74 245.119 214.699 245.318 213.513 245.318C211.955 245.318 210.666 244.98 209.645 244.304C208.624 243.628 207.978 242.64 207.706 241.341L209.933 240.784C210.145 241.606 210.546 242.223 211.136 242.634C211.733 243.045 212.512 243.25 213.473 243.25C214.567 243.25 215.435 243.018 216.078 242.554C216.728 242.083 217.053 241.52 217.053 240.864C217.053 240.333 216.867 239.889 216.496 239.531C216.125 239.167 215.554 238.895 214.786 238.716L212.24 238.119C210.841 237.788 209.814 237.274 209.158 236.578C208.508 235.875 208.183 234.997 208.183 233.943C208.183 233.081 208.425 232.319 208.909 231.656C209.4 230.993 210.066 230.473 210.908 230.095C211.756 229.717 212.717 229.528 213.791 229.528C215.303 229.528 216.489 229.86 217.351 230.523C218.219 231.186 218.836 232.061 219.2 233.148ZM229.653 229.727V231.716H221.738V229.727H229.653ZM224.045 226.068H226.392V240.625C226.392 241.288 226.488 241.785 226.68 242.116C226.879 242.441 227.131 242.66 227.436 242.773C227.747 242.879 228.075 242.932 228.42 242.932C228.679 242.932 228.891 242.919 229.056 242.892C229.222 242.859 229.355 242.832 229.454 242.812L229.931 244.92C229.772 244.98 229.55 245.04 229.265 245.099C228.98 245.166 228.619 245.199 228.181 245.199C227.519 245.199 226.869 245.056 226.233 244.771C225.603 244.486 225.079 244.052 224.662 243.469C224.251 242.885 224.045 242.15 224.045 241.261V226.068Z" fill="white"/>
<defs>
<clipPath id="clip0_91_825">
<rect width="150" height="150" fill="white" transform="translate(114.5 48)"/>
</clipPath>
</defs>
</svg>
