<svg width="379" height="300" viewBox="0 0 379 300" fill="none" xmlns="http://www.w3.org/2000/svg">
<rect x="1" y="1" width="377" height="298" rx="11" stroke="white" stroke-width="2"/>
<g clip-path="url(#clip0_91_382)">
<path d="M253.906 97.3813C246.886 86.5778 237.455 80.6277 227.35 80.6277C222.093 80.6277 216.859 82.3093 212.105 85.5088C207.82 81.1852 203.081 78.1774 198.085 76.5749C200.043 74.6021 202.24 72.8655 204.622 71.432C204.669 72.5619 204.95 73.6726 205.568 74.6947C206.941 76.9657 209.582 78.1452 212.182 78.0271C217.039 77.8068 222.811 73.679 221.208 68.22C220.071 64.3473 216.27 63.4365 212.723 63.7804C215.188 61.1968 218.444 59.2 221.498 57.8776C224.071 56.7629 221.861 52.9652 219.28 54.0832C214.034 56.3554 208.699 60.4331 206.067 65.6739C202.765 67.1205 199.667 69.1941 196.964 71.5835C195.618 62.2805 191.639 56.66 188.233 53.4512C186.091 51.4333 181.569 47.6152 178.234 48.0309C175.213 47.7652 171.672 50.5641 169.477 55.1996C166.916 60.6083 167.446 65.8523 170.71 67.3976C173.255 68.6023 176.091 68.5622 178.457 70.2297C180.459 71.6406 181.873 73.7763 182.666 76.0719C177.025 77.4942 171.678 80.6831 166.895 85.5085C159.142 80.2908 149.461 79.1172 140.873 83.0022C138.29 84.1702 140.102 88.1738 142.684 87.0061C149.739 83.8149 157.666 84.7125 164.09 88.9191C162.677 90.9435 160.463 94.3266 159.07 97.5122C157.933 100.11 161.961 101.867 163.096 99.2738C164.884 95.1861 168.365 90.4791 168.858 89.8206C174.96 83.1443 182.095 79.6156 189.5 79.6156C196.906 79.6156 204.043 83.1457 210.145 89.8241C211.311 91.3545 213.295 94.164 213.847 95.4501C214.963 98.0542 219.003 96.3243 217.886 93.719C217.303 92.3596 215.964 90.3661 214.926 88.9092C218.872 86.3293 223.041 85.0222 227.349 85.0222C235.916 85.0222 244.039 90.2618 250.221 99.7757C256.594 109.582 260.103 122.664 260.103 136.61C260.103 150.557 256.594 163.639 250.221 173.445C244.038 182.959 235.916 188.199 227.349 188.199C223.067 188.199 218.922 186.906 214.997 184.357C216.407 182.501 218.576 179.435 220.447 175.879C221.767 173.371 217.879 171.325 216.558 173.833C213.898 178.886 210.486 182.995 210.181 183.358C204.071 190.062 196.92 193.605 189.5 193.605C182.073 193.605 174.917 190.056 168.804 183.342C168.687 183.21 165.994 180.137 164.238 176.45C163.02 173.891 159.052 175.781 160.271 178.339C161.426 180.766 162.896 182.917 163.989 184.366C160.068 186.909 155.927 188.199 151.65 188.199C143.083 188.199 134.961 182.959 128.778 173.445C122.406 163.638 118.896 150.557 118.896 136.61C118.896 119.055 124.535 102.843 133.98 93.2426C135.908 91.2824 132.863 88.1114 130.848 90.1607C120.612 100.564 114.502 117.929 114.502 136.61C114.502 151.397 118.264 165.329 125.094 175.84C132.114 186.643 141.545 192.593 151.65 192.593C156.907 192.593 162.141 190.912 166.895 187.712C173.574 194.451 181.354 198 189.5 198C197.645 198 205.425 194.451 212.104 187.712C216.859 190.912 222.092 192.593 227.349 192.593C237.454 192.593 246.885 186.643 253.906 175.84C260.736 165.329 264.497 151.397 264.497 136.61C264.497 121.824 260.736 107.892 253.906 97.3813ZM216.376 68.5487C216.965 69.3534 217.112 69.8661 216.898 70.706C216.546 72.0917 214.761 73.0251 213.504 73.3878C212.176 73.7716 210.525 73.8533 209.544 72.7108C208.702 71.7308 208.933 70.29 209.338 69.1047C211.272 68.3673 214.454 67.2772 216.376 68.5487ZM173.449 57.0804C175.117 53.5564 177.31 52.3271 177.812 52.3978C178.188 52.7458 178.624 55.2178 176.955 58.7406C175.288 62.2632 173.104 63.4933 172.592 63.4233C172.216 63.0753 171.781 60.603 173.449 57.0804ZM187.053 75.3304C185.539 70.4046 182.426 66.8513 178.03 64.952C179.14 63.7664 180.141 62.2808 180.927 60.6212C181.896 58.5748 182.457 56.4412 182.542 54.529C186.648 57.2755 192.168 63.2074 192.948 75.4376C190.995 75.1942 189.014 75.1576 187.053 75.3304Z" fill="white"/>
<path d="M167.848 134.481C169.089 134.481 170.34 134.352 171.583 134.091C176.291 133.103 180.333 130.341 182.964 126.313C183.628 125.297 183.342 123.936 182.326 123.272L155.846 105.976C154.844 105.32 153.46 105.611 152.805 106.614C147.374 114.929 149.72 126.112 158.035 131.543C161 133.479 164.388 134.481 167.848 134.481ZM155.431 110.954L177.937 125.654C176.026 127.753 173.512 129.196 170.68 129.791C167.12 130.537 163.483 129.853 160.438 127.864C154.778 124.167 152.776 116.945 155.431 110.954Z" fill="white"/>
<path d="M207.417 134.091C212.068 135.067 216.986 134.142 220.965 131.543C229.28 126.112 231.626 114.929 226.195 106.614C225.54 105.612 224.156 105.321 223.154 105.976L196.674 123.272C195.658 123.936 195.373 125.298 196.036 126.314C198.667 130.341 202.709 133.104 207.417 134.091ZM223.569 110.954C226.224 116.945 224.222 124.167 218.562 127.864C213.046 131.467 205.502 130.529 201.063 125.654L223.569 110.954Z" fill="white"/>
<path d="M160.182 164.779C169.182 169.149 180.139 171.733 189.613 171.733C190.956 171.733 192.334 171.091 192.334 169.533V163.948C192.334 163.404 192.777 162.961 193.32 162.961H200.961C201.505 162.961 201.947 163.404 201.947 163.948V167.771C201.947 169.172 203.299 170.238 204.661 169.907C209.706 168.688 214.552 166.893 219.066 164.572C221.587 163.275 219.577 159.368 217.056 160.664C213.667 162.407 210.074 163.832 206.342 164.914V163.948C206.342 160.981 203.928 158.567 200.961 158.567H193.321C190.354 158.567 187.94 160.981 187.94 163.948V167.311C179.502 167.031 170.006 164.664 162.102 160.826C151.61 155.732 146.381 149.533 143.781 144.477H153.875V146.119C153.875 149.086 156.289 151.5 159.256 151.5H166.897C169.864 151.5 172.277 149.086 172.277 146.119V144.477H205.45V146.119C205.45 149.086 207.863 151.5 210.83 151.5H218.471C221.438 151.5 223.852 149.086 223.852 146.119V144.477H235.069C233.036 148.078 230.064 151.533 226.336 154.608C224.149 156.411 226.945 159.801 229.132 157.998C234.453 153.609 238.422 148.461 240.609 143.111C241.191 141.689 240.112 140.083 238.576 140.083H221.655C220.441 140.083 219.458 141.066 219.458 142.28V146.119C219.458 146.663 219.015 147.106 218.471 147.106H210.83C210.287 147.106 209.844 146.663 209.844 146.119V142.28C209.844 141.066 208.861 140.083 207.647 140.083H170.08C168.866 140.083 167.883 141.066 167.883 142.28V146.119C167.883 146.663 167.44 147.106 166.896 147.106H159.256C158.712 147.106 158.269 146.663 158.269 146.119V142.28C158.269 141.066 157.286 140.083 156.072 140.083H140.424C138.924 140.083 137.847 141.62 138.359 143.03C140.605 149.209 146.214 157.997 160.182 164.779Z" fill="white"/>
</g>
<path d="M123.374 245V224.636H125.84V233.705H136.698V224.636H139.164V245H136.698V235.892H125.84V245H123.374ZM148.277 245.358C147.309 245.358 146.431 245.176 145.642 244.811C144.853 244.44 144.227 243.906 143.763 243.21C143.299 242.508 143.067 241.659 143.067 240.665C143.067 239.79 143.239 239.08 143.584 238.537C143.928 237.987 144.389 237.556 144.966 237.244C145.542 236.933 146.179 236.701 146.875 236.548C147.577 236.389 148.283 236.263 148.993 236.17C149.921 236.051 150.673 235.962 151.25 235.902C151.833 235.836 152.257 235.726 152.523 235.574C152.794 235.421 152.93 235.156 152.93 234.778V234.699C152.93 233.718 152.662 232.955 152.125 232.412C151.595 231.868 150.789 231.597 149.709 231.597C148.588 231.597 147.71 231.842 147.074 232.332C146.437 232.823 145.99 233.347 145.731 233.903L143.504 233.108C143.902 232.18 144.432 231.457 145.095 230.94C145.765 230.417 146.494 230.052 147.282 229.847C148.078 229.634 148.86 229.528 149.629 229.528C150.12 229.528 150.683 229.588 151.319 229.707C151.962 229.82 152.582 230.055 153.179 230.413C153.782 230.771 154.282 231.312 154.68 232.034C155.078 232.757 155.277 233.724 155.277 234.938V245H152.93V242.932H152.811C152.652 243.263 152.387 243.618 152.015 243.996C151.644 244.374 151.15 244.695 150.534 244.96C149.917 245.225 149.165 245.358 148.277 245.358ZM148.635 243.25C149.563 243.25 150.345 243.068 150.981 242.703C151.624 242.339 152.108 241.868 152.433 241.291C152.765 240.714 152.93 240.108 152.93 239.472V237.324C152.831 237.443 152.612 237.553 152.274 237.652C151.943 237.745 151.558 237.828 151.121 237.901C150.69 237.967 150.269 238.027 149.858 238.08C149.453 238.126 149.125 238.166 148.873 238.199C148.264 238.278 147.693 238.408 147.163 238.587C146.64 238.759 146.215 239.021 145.89 239.372C145.572 239.717 145.413 240.187 145.413 240.784C145.413 241.599 145.715 242.216 146.318 242.634C146.928 243.045 147.7 243.25 148.635 243.25ZM161.906 224.636V245H159.56V224.636H161.906ZM168.551 224.636V245H166.204V224.636H168.551ZM179.053 245.318C177.675 245.318 176.465 244.99 175.424 244.334C174.39 243.678 173.581 242.759 172.998 241.58C172.421 240.4 172.133 239.021 172.133 237.443C172.133 235.852 172.421 234.464 172.998 233.277C173.581 232.09 174.39 231.169 175.424 230.513C176.465 229.857 177.675 229.528 179.053 229.528C180.432 229.528 181.639 229.857 182.673 230.513C183.713 231.169 184.522 232.09 185.099 233.277C185.682 234.464 185.974 235.852 185.974 237.443C185.974 239.021 185.682 240.4 185.099 241.58C184.522 242.759 183.713 243.678 182.673 244.334C181.639 244.99 180.432 245.318 179.053 245.318ZM179.053 243.21C180.101 243.21 180.963 242.942 181.639 242.405C182.315 241.868 182.815 241.162 183.14 240.287C183.465 239.412 183.627 238.464 183.627 237.443C183.627 236.422 183.465 235.471 183.14 234.589C182.815 233.708 182.315 232.995 181.639 232.452C180.963 231.908 180.101 231.636 179.053 231.636C178.006 231.636 177.144 231.908 176.468 232.452C175.792 232.995 175.292 233.708 174.967 234.589C174.642 235.471 174.48 236.422 174.48 237.443C174.48 238.464 174.642 239.412 174.967 240.287C175.292 241.162 175.792 241.868 176.468 242.405C177.144 242.942 178.006 243.21 179.053 243.21ZM192.497 245L187.843 229.727H190.309L193.61 241.42H193.769L197.031 229.727H199.536L202.758 241.381H202.917L206.218 229.727H208.684L204.031 245H201.724L198.383 233.267H198.144L194.803 245H192.497ZM217.67 245.318C216.199 245.318 214.929 244.993 213.862 244.344C212.801 243.688 211.983 242.773 211.406 241.599C210.836 240.42 210.551 239.047 210.551 237.483C210.551 235.919 210.836 234.54 211.406 233.347C211.983 232.147 212.785 231.212 213.812 230.543C214.846 229.866 216.053 229.528 217.432 229.528C218.227 229.528 219.013 229.661 219.788 229.926C220.564 230.191 221.27 230.622 221.906 231.219C222.542 231.809 223.05 232.591 223.427 233.565C223.805 234.54 223.994 235.74 223.994 237.165V238.159H212.221V236.131H221.608C221.608 235.269 221.435 234.5 221.091 233.824C220.753 233.148 220.269 232.614 219.639 232.223C219.016 231.832 218.28 231.636 217.432 231.636C216.497 231.636 215.688 231.868 215.006 232.332C214.329 232.79 213.809 233.386 213.444 234.122C213.08 234.858 212.898 235.647 212.898 236.489V237.841C212.898 238.994 213.096 239.972 213.494 240.774C213.898 241.57 214.459 242.176 215.175 242.594C215.89 243.005 216.722 243.21 217.67 243.21C218.287 243.21 218.844 243.124 219.341 242.952C219.845 242.773 220.279 242.508 220.643 242.156C221.008 241.798 221.29 241.354 221.488 240.824L223.756 241.46C223.517 242.229 223.116 242.905 222.552 243.489C221.989 244.065 221.293 244.516 220.464 244.841C219.636 245.159 218.704 245.318 217.67 245.318ZM233.967 245.318C232.496 245.318 231.226 244.993 230.159 244.344C229.098 243.688 228.28 242.773 227.703 241.599C227.133 240.42 226.848 239.047 226.848 237.483C226.848 235.919 227.133 234.54 227.703 233.347C228.28 232.147 229.082 231.212 230.109 230.543C231.143 229.866 232.35 229.528 233.729 229.528C234.524 229.528 235.309 229.661 236.085 229.926C236.861 230.191 237.567 230.622 238.203 231.219C238.839 231.809 239.346 232.591 239.724 233.565C240.102 234.54 240.291 235.74 240.291 237.165V238.159H228.518V236.131H237.905C237.905 235.269 237.732 234.5 237.388 233.824C237.05 233.148 236.566 232.614 235.936 232.223C235.313 231.832 234.577 231.636 233.729 231.636C232.794 231.636 231.985 231.868 231.302 232.332C230.626 232.79 230.106 233.386 229.741 234.122C229.377 234.858 229.194 235.647 229.194 236.489V237.841C229.194 238.994 229.393 239.972 229.791 240.774C230.195 241.57 230.756 242.176 231.471 242.594C232.187 243.005 233.019 243.21 233.967 243.21C234.584 243.21 235.14 243.124 235.638 242.952C236.141 242.773 236.576 242.508 236.94 242.156C237.305 241.798 237.586 241.354 237.785 240.824L240.052 241.46C239.814 242.229 239.413 242.905 238.849 243.489C238.286 244.065 237.59 244.516 236.761 244.841C235.933 245.159 235.001 245.318 233.967 245.318ZM246.207 235.812V245H243.861V229.727H246.128V232.114H246.327C246.684 231.338 247.228 230.715 247.957 230.244C248.686 229.767 249.628 229.528 250.781 229.528C251.815 229.528 252.72 229.741 253.496 230.165C254.271 230.582 254.874 231.219 255.305 232.074C255.736 232.922 255.952 233.996 255.952 235.295V245H253.605V235.455C253.605 234.255 253.293 233.32 252.67 232.651C252.047 231.974 251.192 231.636 250.105 231.636C249.356 231.636 248.686 231.799 248.096 232.124C247.513 232.448 247.052 232.922 246.714 233.545C246.376 234.169 246.207 234.924 246.207 235.812Z" fill="white"/>
<defs>
<clipPath id="clip0_91_382">
<rect width="150" height="150" fill="white" transform="translate(114.5 48)"/>
</clipPath>
</defs>
</svg>
