<svg width="379" height="300" viewBox="0 0 379 300" fill="none" xmlns="http://www.w3.org/2000/svg">
<rect x="1" y="1" width="377" height="298" rx="11" stroke="white" stroke-width="2"/>
<g clip-path="url(#clip0_91_393)">
<path d="M184.358 146.07C183.5 145.212 182.108 145.212 181.251 146.07C180.392 146.928 180.392 148.319 181.251 149.177C183.646 151.572 186.792 152.77 189.938 152.77C193.084 152.77 196.23 151.572 198.625 149.177C199.483 148.319 199.483 146.928 198.625 146.07C197.767 145.212 196.375 145.212 195.518 146.07C192.44 149.147 187.434 149.147 184.358 146.07Z" fill="white"/>
<path d="M178.355 124.901C175.038 128.218 169.64 128.218 166.323 124.901C165.465 124.043 164.074 124.043 163.216 124.901C162.358 125.759 162.358 127.151 163.216 128.009C165.731 130.524 169.035 131.781 172.339 131.781C175.643 131.781 178.947 130.524 181.462 128.009C182.321 127.151 182.321 125.759 181.462 124.901C180.604 124.044 179.213 124.044 178.355 124.901Z" fill="white"/>
<path d="M206.667 131.781C209.971 131.781 213.275 130.524 215.79 128.009C216.649 127.151 216.649 125.759 215.79 124.901C214.932 124.043 213.541 124.043 212.683 124.901C209.366 128.218 203.969 128.218 200.651 124.901C199.793 124.043 198.402 124.043 197.544 124.901C196.686 125.759 196.686 127.151 197.544 128.009C200.059 130.524 203.363 131.781 206.667 131.781Z" fill="white"/>
<path d="M228.231 125.155C228.258 125.155 228.284 125.154 228.311 125.153C229.524 125.11 230.472 124.101 230.428 122.888C230.428 122.862 230.404 120.291 232.269 118.426C233.127 117.568 233.127 116.176 232.269 115.318C231.411 114.46 230.02 114.46 229.162 115.318C225.915 118.565 226.03 122.846 226.036 123.027C226.079 124.213 227.054 125.155 228.231 125.155Z" fill="white"/>
<path d="M150.696 125.144C150.722 125.144 150.749 125.145 150.776 125.145C151.953 125.145 152.927 124.212 152.97 123.026C152.976 122.846 153.091 118.565 149.845 115.318C148.986 114.46 147.595 114.46 146.737 115.318C145.879 116.176 145.879 117.567 146.737 118.425C148.582 120.269 148.579 122.805 148.578 122.886C148.544 124.092 149.489 125.101 150.696 125.144Z" fill="white"/>
<path d="M261.024 171.731C260.223 170.926 259.237 170.379 258.163 170.111C259.11 169.344 259.807 168.314 260.17 167.122C260.648 165.547 260.485 163.881 259.712 162.431C258.936 160.977 257.642 159.913 256.069 159.437C254.493 158.956 252.825 159.119 251.373 159.896L245.742 162.901C243.573 158.261 238.864 155.037 233.413 155.037C225.912 155.037 219.81 161.14 219.81 168.64C219.81 173.099 222.007 177.26 225.62 179.79V181.847C219.602 175.977 212.175 171.596 204.141 169.219C204.147 169.04 204.154 168.861 204.154 168.681V166.907C210.496 164.412 216.11 160.322 220.463 155.012C224.906 149.59 227.832 143.131 228.972 136.255C236.22 133.7 241.165 126.809 241.165 119.013C241.165 115.64 239.851 112.467 237.463 110.08C235.31 107.926 232.517 106.645 229.514 106.415V101.488C229.514 100.275 228.53 99.2909 227.317 99.2909H224.978C226.204 96.3551 226.915 93.2118 227.053 90.0339C227.087 89.2482 226.698 88.504 226.034 88.083C224.206 86.9246 222.255 85.9997 220.211 85.3112C222.269 79.7832 222.573 73.711 221.038 67.9536C220.835 67.1933 220.241 66.5995 219.481 66.3967C214.374 65.0332 209.068 65.1466 204.141 66.5751C203.912 65.5831 203.631 64.6037 203.296 63.646C202.895 62.5008 201.643 61.8961 200.496 62.2972C199.351 62.6977 198.747 63.951 199.148 65.0965C199.494 66.0876 199.768 67.1072 199.979 68.1399C197.023 69.5215 194.286 71.4127 191.918 73.7802C191.052 74.6482 190.246 75.567 189.504 76.5271C188.761 75.5667 187.955 74.6477 187.088 73.7787C184.719 71.4103 181.981 69.5186 179.023 68.137C180.317 61.88 184.123 56.2916 189.503 52.7759C191.325 53.9642 192.976 55.3895 194.422 57.0257C195.226 57.9348 196.615 58.0204 197.524 57.2165C198.433 56.4126 198.518 55.0242 197.714 54.1151C195.668 51.8003 193.276 49.8424 190.604 48.2958C189.922 47.9015 189.083 47.9015 188.402 48.2955C181.563 52.2524 176.64 58.9608 174.867 66.5748C169.94 65.1463 164.634 65.0329 159.526 66.3964C158.766 66.5992 158.172 67.1927 157.969 67.9524C156.431 73.7116 156.734 79.7855 158.797 85.3147C156.773 85.9935 154.816 86.9146 152.974 88.0824C152.309 88.5037 151.92 89.2476 151.954 90.0336C152.092 93.2141 152.802 96.3574 154.028 99.2906H151.689C150.476 99.2906 149.492 100.274 149.492 101.488V106.415C142.983 106.919 137.84 112.377 137.84 119.013C137.84 121.114 138.195 123.178 138.896 125.147C139.303 126.29 140.56 126.887 141.703 126.48C142.846 126.073 143.443 124.816 143.037 123.673C142.505 122.178 142.235 120.611 142.235 119.013C142.235 114.469 145.932 110.772 150.476 110.772H151.689C152.903 110.772 153.886 109.788 153.886 108.575V103.685H225.119V108.575C225.119 109.788 226.103 110.772 227.317 110.772H228.53C230.729 110.772 232.798 111.63 234.356 113.187C235.913 114.744 236.771 116.814 236.771 119.013C236.771 125.312 232.522 130.833 226.439 132.44C225.575 132.668 224.935 133.397 224.821 134.283C223.97 140.868 221.288 147.072 217.064 152.226C212.89 157.319 207.416 161.149 201.234 163.304C200.351 163.612 199.76 164.444 199.76 165.379V168.681C199.76 171.453 198.671 174.05 196.694 175.994C194.718 177.937 192.092 178.981 189.325 178.935C183.767 178.844 179.246 174.152 179.246 168.476V165.376C179.246 164.441 178.654 163.609 177.772 163.301C171.589 161.147 166.116 157.318 161.942 152.226C157.718 147.072 155.035 140.868 154.185 134.283C154.07 133.397 153.432 132.669 152.569 132.44C151.085 132.047 149.69 131.416 148.422 130.566C147.414 129.89 146.049 130.159 145.373 131.167C144.697 132.175 144.966 133.54 145.974 134.215C147.24 135.064 148.6 135.747 150.034 136.254C151.173 143.131 154.099 149.59 158.543 155.012C162.895 160.322 168.509 164.41 174.851 166.905V168.476C174.851 168.724 174.858 168.971 174.87 169.216C166.832 171.591 159.402 175.973 153.381 181.847V179.79C156.993 177.261 159.189 173.099 159.189 168.638C159.189 161.138 153.087 155.037 145.587 155.037C140.136 155.037 135.427 158.261 133.259 162.901L127.628 159.897C126.175 159.12 124.506 158.957 122.935 159.436C121.358 159.914 120.063 160.977 119.288 162.431C118.514 163.881 118.351 165.548 118.83 167.122C119.192 168.315 119.891 169.345 120.838 170.112C119.766 170.379 118.78 170.925 117.979 171.726C116.815 172.89 116.174 174.437 116.174 176.083C116.174 179.48 118.938 182.244 122.335 182.244H133.231V195.801C133.231 197.015 134.215 197.999 135.428 197.999H243.571C244.784 197.999 245.768 197.015 245.768 195.801V192.614C245.768 191.4 244.784 190.417 243.571 190.417C242.357 190.417 241.373 191.4 241.373 192.614V193.604H230.015V178.581C230.015 177.788 229.588 177.057 228.898 176.667C226.003 175.034 224.205 171.958 224.205 168.64C224.205 164.32 227.197 160.687 231.216 159.699V162.777C228.841 163.67 227.144 165.957 227.144 168.639C227.144 172.096 229.956 174.908 233.413 174.908C236.87 174.908 239.683 172.096 239.683 168.639C239.683 165.957 237.985 163.67 235.611 162.777V159.699C239.63 160.687 242.621 164.32 242.621 168.64C242.621 169.598 242.475 170.543 242.185 171.447C241.97 172.115 242.088 172.846 242.502 173.413C242.916 173.98 243.575 174.315 244.277 174.315H256.664C257.136 174.315 257.579 174.498 257.914 174.834C258.247 175.168 258.431 175.61 258.431 176.082C258.431 177.056 257.638 177.848 256.664 177.848H243.571C242.358 177.848 241.374 178.832 241.374 180.045V182.366C241.374 183.579 242.358 184.563 243.571 184.563C244.785 184.563 245.768 183.579 245.768 182.366V182.243H256.664C260.061 182.243 262.825 179.479 262.825 176.082C262.825 174.437 262.184 172.891 261.024 171.731ZM220.135 99.2912H192.31C193.049 98.0405 193.907 96.8628 194.877 95.7779C196.676 93.7649 198.812 92.1046 201.224 90.8437C205.99 88.3555 211.493 87.6573 216.72 88.8778C218.776 89.3583 220.738 90.1157 222.569 91.1343C222.281 93.9723 221.452 96.7517 220.135 99.2912ZM217.091 70.3436C218.071 75.0027 217.655 79.8432 215.908 84.2474C210.211 83.3258 204.34 84.2592 199.189 86.9483C197.74 87.7057 196.375 88.5843 195.102 89.576C194.612 86.3979 193.587 83.3252 192.064 80.4842C192.926 79.2048 193.918 77.9978 195.027 76.8871C200.793 71.1212 209.144 68.6734 217.091 70.3436ZM161.915 70.3436C169.864 68.6731 178.214 71.1206 183.979 76.8857C185.39 78.3001 186.615 79.8669 187.62 81.5448C189.788 85.1571 190.962 89.2745 191.039 93.4992C190.493 94.151 189.981 94.8293 189.501 95.5283C187.034 91.9458 183.716 88.9862 179.814 86.948C174.618 84.2331 168.738 83.351 163.102 84.2562C161.35 79.8497 160.933 75.006 161.915 70.3436ZM156.438 91.1346C163.018 87.4798 171.079 87.3424 177.78 90.8434C181.494 92.7832 184.572 95.7231 186.69 99.2912H158.871C157.555 96.7553 156.726 93.9761 156.438 91.1346ZM147.462 168.639C147.462 169.673 146.62 170.514 145.587 170.514C144.553 170.514 143.712 169.673 143.712 168.639C143.712 167.607 144.553 166.767 145.587 166.767C146.62 166.767 147.462 167.607 147.462 168.639ZM123.166 164.499C123.388 164.083 123.758 163.778 124.214 163.64C124.663 163.503 125.14 163.55 125.558 163.773L132.057 167.241C132.009 167.701 131.985 168.167 131.985 168.639C131.985 169.069 132.005 169.497 132.045 169.922H129.572L123.891 166.888C123.032 166.43 122.707 165.359 123.166 164.499ZM137.626 193.604V180.047C137.626 178.833 136.642 177.849 135.428 177.849H122.335C121.361 177.849 120.569 177.057 120.569 176.083C120.569 175.611 120.752 175.168 121.086 174.834C121.42 174.5 121.863 174.316 122.335 174.316H134.725C135.427 174.316 136.086 173.981 136.5 173.414C136.914 172.847 137.032 172.116 136.817 171.448C136.527 170.544 136.38 169.598 136.38 168.639C136.38 164.32 139.371 160.687 143.39 159.699V162.778C141.015 163.67 139.318 165.957 139.318 168.639C139.318 172.096 142.13 174.909 145.587 174.909C149.044 174.909 151.856 172.096 151.856 168.639C151.856 165.957 150.159 163.67 147.784 162.778V159.699C151.803 160.687 154.794 164.32 154.794 168.639C154.794 171.96 152.997 175.036 150.104 176.667C149.414 177.056 148.986 177.788 148.986 178.581V193.604H137.626ZM153.381 193.604V188.286C159.248 181.346 167.1 176.177 175.74 173.545C177.771 179.155 183.061 183.229 189.252 183.33C189.337 183.331 189.421 183.332 189.506 183.332C193.374 183.332 197.013 181.844 199.776 179.128C201.394 177.536 202.593 175.638 203.324 173.563C211.94 176.203 219.769 181.364 225.621 188.286V193.604H153.381V193.604ZM233.413 170.514C232.38 170.514 231.538 169.673 231.538 168.639C231.538 167.607 232.38 166.767 233.413 166.767C234.447 166.767 235.288 167.607 235.288 168.639C235.288 169.673 234.447 170.514 233.413 170.514ZM246.944 167.241L253.444 163.772C253.86 163.55 254.337 163.503 254.79 163.641C255.242 163.778 255.612 164.083 255.835 164.499C256.293 165.359 255.967 166.43 255.108 166.889L249.43 169.921H246.956C246.996 169.497 247.016 169.07 247.016 168.641C247.016 168.168 246.991 167.701 246.944 167.241Z" fill="white"/>
<path d="M262.303 79.9092H243.517C242.303 79.9092 241.319 78.9254 241.319 77.7119C241.319 76.4984 242.303 75.5146 243.517 75.5146H262.303C263.516 75.5146 264.5 76.4984 264.5 77.7119C264.5 78.9254 263.516 79.9092 262.303 79.9092Z" fill="white"/>
<path d="M251.683 105.547C251.121 105.547 250.559 105.332 250.13 104.903L236.846 91.6195C235.988 90.7614 235.988 89.37 236.846 88.5122C237.704 87.6541 239.096 87.6541 239.953 88.5122L253.237 101.796C254.095 102.654 254.095 104.045 253.237 104.903C252.808 105.332 252.245 105.547 251.683 105.547Z" fill="white"/>
<path d="M238.399 67.5549C237.837 67.5549 237.275 67.3405 236.846 66.9113C235.988 66.0532 235.988 64.6618 236.846 63.804L250.129 50.5205C250.987 49.6624 252.379 49.6624 253.237 50.5205C254.095 51.3786 254.095 52.7699 253.237 53.6278L239.953 66.9113C239.524 67.3402 238.962 67.5549 238.399 67.5549Z" fill="white"/>
<path d="M135.483 79.9092H116.697C115.484 79.9092 114.5 78.9254 114.5 77.7119C114.5 76.4984 115.484 75.5146 116.697 75.5146H135.483C136.697 75.5146 137.681 76.4984 137.681 77.7119C137.681 78.9254 136.697 79.9092 135.483 79.9092Z" fill="white"/>
<path d="M127.317 105.547C126.755 105.547 126.192 105.332 125.763 104.903C124.905 104.045 124.905 102.654 125.763 101.796L139.047 88.5122C139.905 87.6541 141.296 87.6541 142.154 88.5122C143.012 89.3703 143.012 90.7616 142.154 91.6195L128.87 104.903C128.441 105.332 127.879 105.547 127.317 105.547Z" fill="white"/>
<path d="M140.6 67.5549C140.038 67.5549 139.476 67.3405 139.047 66.9113L125.763 53.6278C124.905 52.7697 124.905 51.3783 125.763 50.5205C126.621 49.6624 128.012 49.6624 128.87 50.5205L142.154 63.804C143.012 64.6621 143.012 66.0534 142.154 66.9113C141.725 67.3402 141.163 67.5549 140.6 67.5549Z" fill="white"/>
</g>
<path d="M132.275 245V224.636H134.74V233.705H145.598V224.636H148.064V245H145.598V235.892H134.74V245H132.275ZM157.177 245.358C156.209 245.358 155.331 245.176 154.542 244.811C153.753 244.44 153.127 243.906 152.663 243.21C152.199 242.508 151.967 241.659 151.967 240.665C151.967 239.79 152.139 239.08 152.484 238.537C152.829 237.987 153.289 237.556 153.866 237.244C154.443 236.933 155.079 236.701 155.775 236.548C156.478 236.389 157.184 236.263 157.893 236.17C158.821 236.051 159.574 235.962 160.15 235.902C160.734 235.836 161.158 235.726 161.423 235.574C161.695 235.421 161.831 235.156 161.831 234.778V234.699C161.831 233.718 161.562 232.955 161.025 232.412C160.495 231.868 159.69 231.597 158.609 231.597C157.489 231.597 156.61 231.842 155.974 232.332C155.338 232.823 154.89 233.347 154.632 233.903L152.404 233.108C152.802 232.18 153.333 231.457 153.995 230.94C154.665 230.417 155.394 230.052 156.183 229.847C156.978 229.634 157.761 229.528 158.529 229.528C159.02 229.528 159.583 229.588 160.22 229.707C160.863 229.82 161.483 230.055 162.079 230.413C162.682 230.771 163.183 231.312 163.581 232.034C163.978 232.757 164.177 233.724 164.177 234.938V245H161.831V242.932H161.711C161.552 243.263 161.287 243.618 160.916 243.996C160.545 244.374 160.051 244.695 159.434 244.96C158.818 245.225 158.065 245.358 157.177 245.358ZM157.535 243.25C158.463 243.25 159.245 243.068 159.882 242.703C160.525 242.339 161.009 241.868 161.333 241.291C161.665 240.714 161.831 240.108 161.831 239.472V237.324C161.731 237.443 161.512 237.553 161.174 237.652C160.843 237.745 160.458 237.828 160.021 237.901C159.59 237.967 159.169 238.027 158.758 238.08C158.354 238.126 158.026 238.166 157.774 238.199C157.164 238.278 156.594 238.408 156.064 238.587C155.54 238.759 155.116 239.021 154.791 239.372C154.473 239.717 154.314 240.187 154.314 240.784C154.314 241.599 154.615 242.216 155.218 242.634C155.828 243.045 156.6 243.25 157.535 243.25ZM168.46 245V229.727H170.727V232.034H170.886C171.165 231.278 171.669 230.665 172.398 230.195C173.127 229.724 173.949 229.489 174.864 229.489C175.036 229.489 175.251 229.492 175.51 229.499C175.768 229.505 175.964 229.515 176.097 229.528V231.915C176.017 231.895 175.835 231.865 175.55 231.825C175.271 231.779 174.976 231.756 174.665 231.756C173.922 231.756 173.259 231.911 172.676 232.223C172.099 232.528 171.642 232.952 171.304 233.496C170.973 234.033 170.807 234.646 170.807 235.335V245H168.46ZM178.878 245V229.727H181.145V232.114H181.344C181.662 231.298 182.176 230.665 182.885 230.214C183.595 229.757 184.446 229.528 185.441 229.528C186.448 229.528 187.287 229.757 187.956 230.214C188.632 230.665 189.159 231.298 189.537 232.114H189.696C190.087 231.325 190.674 230.698 191.456 230.234C192.239 229.764 193.176 229.528 194.27 229.528C195.636 229.528 196.753 229.956 197.621 230.811C198.489 231.66 198.924 232.982 198.924 234.778V245H196.577V234.778C196.577 233.652 196.269 232.846 195.652 232.362C195.036 231.878 194.31 231.636 193.475 231.636C192.401 231.636 191.569 231.961 190.979 232.611C190.389 233.254 190.094 234.069 190.094 235.057V245H187.708V234.54C187.708 233.671 187.426 232.972 186.863 232.442C186.299 231.905 185.573 231.636 184.685 231.636C184.075 231.636 183.505 231.799 182.975 232.124C182.451 232.448 182.027 232.899 181.702 233.476C181.384 234.046 181.225 234.705 181.225 235.455V245H178.878ZM209.419 245.318C208.04 245.318 206.83 244.99 205.789 244.334C204.755 243.678 203.947 242.759 203.363 241.58C202.787 240.4 202.498 239.021 202.498 237.443C202.498 235.852 202.787 234.464 203.363 233.277C203.947 232.09 204.755 231.169 205.789 230.513C206.83 229.857 208.04 229.528 209.419 229.528C210.797 229.528 212.004 229.857 213.038 230.513C214.079 231.169 214.887 232.09 215.464 233.277C216.047 234.464 216.339 235.852 216.339 237.443C216.339 239.021 216.047 240.4 215.464 241.58C214.887 242.759 214.079 243.678 213.038 244.334C212.004 244.99 210.797 245.318 209.419 245.318ZM209.419 243.21C210.466 243.21 211.328 242.942 212.004 242.405C212.68 241.868 213.181 241.162 213.505 240.287C213.83 239.412 213.993 238.464 213.993 237.443C213.993 236.422 213.83 235.471 213.505 234.589C213.181 233.708 212.68 232.995 212.004 232.452C211.328 231.908 210.466 231.636 209.419 231.636C208.371 231.636 207.51 231.908 206.833 232.452C206.157 232.995 205.657 233.708 205.332 234.589C205.007 235.471 204.845 236.422 204.845 237.443C204.845 238.464 205.007 239.412 205.332 240.287C205.657 241.162 206.157 241.868 206.833 242.405C207.51 242.942 208.371 243.21 209.419 243.21ZM222.268 235.812V245H219.921V229.727H222.188V232.114H222.387C222.745 231.338 223.289 230.715 224.018 230.244C224.747 229.767 225.688 229.528 226.842 229.528C227.876 229.528 228.781 229.741 229.556 230.165C230.332 230.582 230.935 231.219 231.366 232.074C231.797 232.922 232.012 233.996 232.012 235.295V245H229.665V235.455C229.665 234.255 229.354 233.32 228.731 232.651C228.108 231.974 227.253 231.636 226.165 231.636C225.416 231.636 224.747 231.799 224.157 232.124C223.574 232.448 223.113 232.922 222.775 233.545C222.437 234.169 222.268 234.924 222.268 235.812ZM237.265 250.727C236.867 250.727 236.512 250.694 236.201 250.628C235.889 250.568 235.674 250.509 235.554 250.449L236.151 248.381C236.721 248.527 237.225 248.58 237.662 248.54C238.1 248.5 238.488 248.304 238.826 247.953C239.17 247.608 239.485 247.048 239.77 246.273L240.208 245.08L234.56 229.727H237.105L241.321 241.898H241.48L245.696 229.727H248.242L241.759 247.227C241.467 248.016 241.106 248.669 240.675 249.186C240.244 249.71 239.744 250.098 239.174 250.349C238.61 250.601 237.974 250.727 237.265 250.727Z" fill="white"/>
<defs>
<clipPath id="clip0_91_393">
<rect width="150" height="150" fill="white" transform="translate(114.5 48)"/>
</clipPath>
</defs>
</svg>
