<svg width="379" height="300" viewBox="0 0 379 300" fill="none" xmlns="http://www.w3.org/2000/svg">
<rect x="1" y="1" width="377" height="298" rx="11" stroke="white" stroke-width="2"/>
<g clip-path="url(#clip0_91_423)">
<path d="M240.339 168.984C230.218 162.237 224.158 150.331 222.333 138.305C222.15 137.097 221.018 136.263 219.809 136.446C218.597 136.63 217.766 137.762 217.949 138.971C218.61 143.329 219.767 147.569 221.388 151.581H181.362C180.138 151.581 179.144 152.574 179.144 153.798C179.144 155.023 180.138 156.016 181.362 156.016H223.396C224.907 158.965 226.682 161.69 228.514 163.999H155.165C156.91 161.802 158.723 159.052 160.279 156.016H172.492C173.716 156.016 174.71 155.023 174.71 153.798C174.71 152.574 173.716 151.581 172.492 151.581H162.294C164.982 144.879 166.398 137.494 166.398 130.051C166.398 121.622 171.521 114.367 178.822 111.238C184.691 108.726 188.873 109.897 196.827 109.597C208.027 109.597 217.158 118.717 217.281 129.821C217.292 131.036 218.283 132.011 219.495 132.011H219.521C220.746 132 221.728 130.994 221.713 129.77C221.595 118.848 214.473 109.755 204.872 106.487V61.0292C204.872 53.8446 199.029 48.0024 191.848 48.0024C184.664 48.0024 178.822 53.8446 178.822 61.0292V76.2705C178.822 77.495 179.815 78.4883 181.038 78.4883C182.263 78.4883 183.256 77.495 183.256 76.2705V61.0292C183.256 56.2902 187.108 52.437 191.848 52.437C196.584 52.437 200.437 56.2902 200.437 61.0292V105.423C199.252 105.248 198.045 105.162 196.827 105.162C187.6 105.229 186.175 104.996 183.256 105.423V85.1408C183.256 83.9128 182.263 82.9229 181.038 82.9229C179.815 82.9229 178.822 83.9128 178.822 85.1408V106.493C169.025 109.839 161.962 119.135 161.962 130.051C161.962 145.037 155.647 160.761 143.339 168.987C138.639 172.127 140.847 179.486 146.523 179.486H174.691V180.852C174.691 190.307 182.384 198 191.839 198C201.294 198 208.987 190.307 208.987 180.852V179.486H237.154C242.833 179.486 245.036 172.132 240.339 168.984ZM204.552 180.852C204.552 187.862 198.849 193.566 191.839 193.566C184.829 193.566 179.126 187.862 179.126 180.852V180.374H204.552V180.852ZM237.154 175.05H146.523C145.223 175.05 144.735 173.378 145.805 172.673C147.667 171.426 149.448 170.002 151.101 168.433H232.569C237.175 172.798 238.458 172.41 238.458 173.717C238.459 174.252 238.112 175.05 237.154 175.05Z" fill="white"/>
<path d="M259.312 48.1921L235.042 58.9507C234.24 59.3066 233.722 60.1008 233.722 60.9786V82.0815C226.992 77.4398 217.71 82.2646 217.71 90.5032C217.71 96.1406 222.295 100.727 227.934 100.727C233.571 100.727 238.158 96.1406 238.158 90.5032V62.4205L257.993 53.6281V71.3229C251.261 66.6812 241.979 71.5049 241.979 79.7435C241.979 85.382 246.566 89.9688 252.203 89.9688C257.842 89.9688 262.429 85.382 262.429 79.7435V50.2189C262.429 48.6178 260.778 47.5432 259.312 48.1921ZM227.934 96.2928C224.741 96.2928 222.144 93.695 222.144 90.5032C222.144 87.3103 224.741 84.7136 227.934 84.7136C231.126 84.7136 233.722 87.3103 233.722 90.5032C233.722 93.695 231.126 96.2928 227.934 96.2928ZM252.203 85.533C249.012 85.533 246.415 82.9364 246.415 79.7435C246.415 76.5517 249.012 73.955 252.203 73.955C255.396 73.955 257.993 76.5517 257.993 79.7435C257.993 82.9364 255.396 85.533 252.203 85.533Z" fill="white"/>
<path d="M158.508 100.464V65.5768C158.508 64.3511 157.515 63.3589 156.29 63.3589C155.066 63.3589 154.073 64.3511 154.073 65.5768V91.3134C146.474 85.2858 135.151 90.6942 135.151 100.464C135.151 106.904 140.39 112.143 146.83 112.143C153.269 112.143 158.508 106.904 158.508 100.464ZM139.585 100.464C139.585 96.4701 142.836 93.2199 146.83 93.2199C150.824 93.2199 154.073 96.4701 154.073 100.464C154.073 104.458 150.824 107.708 146.83 107.708C142.836 107.708 139.585 104.458 139.585 100.464Z" fill="white"/>
<path d="M134.489 122.263C133.265 122.263 132.273 123.257 132.273 124.481V144.66C125.723 140.291 116.844 144.993 116.844 152.926C116.844 158.404 121.299 162.859 126.775 162.859C132.251 162.859 136.707 158.404 136.707 152.926V124.481C136.707 123.257 135.714 122.263 134.489 122.263ZM126.776 158.424C123.745 158.424 121.28 155.958 121.28 152.926C121.28 149.896 123.745 147.43 126.776 147.43C129.806 147.43 132.273 149.896 132.273 152.926C132.273 155.958 129.806 158.424 126.776 158.424Z" fill="white"/>
</g>
<path d="M132.81 224.636H135.276V239.193C135.276 240.492 135.037 241.596 134.56 242.504C134.083 243.412 133.41 244.102 132.542 244.572C131.673 245.043 130.649 245.278 129.469 245.278C128.356 245.278 127.365 245.076 126.496 244.672C125.628 244.261 124.945 243.678 124.448 242.922C123.951 242.166 123.702 241.268 123.702 240.227H126.128C126.128 240.804 126.271 241.308 126.556 241.739C126.848 242.163 127.245 242.494 127.749 242.733C128.253 242.972 128.826 243.091 129.469 243.091C130.179 243.091 130.782 242.942 131.279 242.643C131.776 242.345 132.154 241.908 132.412 241.331C132.678 240.748 132.81 240.035 132.81 239.193V224.636ZM139.9 245V229.727H142.246V245H139.9ZM141.093 227.182C140.635 227.182 140.241 227.026 139.91 226.714C139.585 226.403 139.422 226.028 139.422 225.591C139.422 225.153 139.585 224.779 139.91 224.467C140.241 224.156 140.635 224 141.093 224C141.55 224 141.941 224.156 142.266 224.467C142.598 224.779 142.763 225.153 142.763 225.591C142.763 226.028 142.598 226.403 142.266 226.714C141.941 227.026 141.55 227.182 141.093 227.182ZM148.891 235.812V245H146.544V229.727H148.811V232.114H149.01C149.368 231.338 149.912 230.715 150.641 230.244C151.37 229.767 152.311 229.528 153.465 229.528C154.499 229.528 155.404 229.741 156.179 230.165C156.955 230.582 157.558 231.219 157.989 232.074C158.42 232.922 158.635 233.996 158.635 235.295V245H156.289V235.455C156.289 234.255 155.977 233.32 155.354 232.651C154.731 231.974 153.876 231.636 152.789 231.636C152.039 231.636 151.37 231.799 150.78 232.124C150.197 232.448 149.736 232.922 149.398 233.545C149.06 234.169 148.891 234.924 148.891 235.812ZM169.088 251.045C167.954 251.045 166.98 250.9 166.165 250.608C165.349 250.323 164.67 249.945 164.126 249.474C163.589 249.01 163.162 248.513 162.844 247.983L164.713 246.67C164.925 246.949 165.193 247.267 165.518 247.625C165.843 247.99 166.287 248.304 166.851 248.57C167.421 248.841 168.166 248.977 169.088 248.977C170.321 248.977 171.338 248.679 172.14 248.082C172.943 247.486 173.344 246.551 173.344 245.278V242.176H173.145C172.972 242.455 172.727 242.799 172.409 243.21C172.097 243.615 171.647 243.976 171.057 244.294C170.473 244.606 169.684 244.761 168.69 244.761C167.457 244.761 166.35 244.47 165.369 243.886C164.395 243.303 163.622 242.455 163.052 241.341C162.489 240.227 162.207 238.875 162.207 237.284C162.207 235.72 162.482 234.357 163.032 233.197C163.583 232.031 164.348 231.129 165.329 230.493C166.31 229.85 167.444 229.528 168.73 229.528C169.724 229.528 170.513 229.694 171.096 230.026C171.686 230.35 172.137 230.722 172.449 231.139C172.767 231.55 173.012 231.888 173.184 232.153H173.423V229.727H175.69V245.438C175.69 246.75 175.392 247.817 174.795 248.639C174.205 249.468 173.41 250.074 172.409 250.459C171.415 250.85 170.308 251.045 169.088 251.045ZM169.008 242.653C169.95 242.653 170.745 242.438 171.395 242.007C172.044 241.576 172.538 240.956 172.876 240.148C173.214 239.339 173.383 238.371 173.383 237.244C173.383 236.144 173.218 235.173 172.886 234.331C172.555 233.489 172.064 232.83 171.415 232.352C170.765 231.875 169.963 231.636 169.008 231.636C168.014 231.636 167.185 231.888 166.523 232.392C165.866 232.896 165.372 233.572 165.041 234.42C164.716 235.269 164.554 236.21 164.554 237.244C164.554 238.305 164.72 239.243 165.051 240.058C165.389 240.867 165.886 241.503 166.542 241.967C167.205 242.425 168.027 242.653 169.008 242.653ZM182.332 224.636V245H179.986V224.636H182.332ZM193.034 245.318C191.562 245.318 190.293 244.993 189.225 244.344C188.165 243.688 187.346 242.773 186.769 241.599C186.199 240.42 185.914 239.047 185.914 237.483C185.914 235.919 186.199 234.54 186.769 233.347C187.346 232.147 188.148 231.212 189.176 230.543C190.21 229.866 191.416 229.528 192.795 229.528C193.59 229.528 194.376 229.661 195.151 229.926C195.927 230.191 196.633 230.622 197.269 231.219C197.906 231.809 198.413 232.591 198.791 233.565C199.169 234.54 199.357 235.74 199.357 237.165V238.159H187.585V236.131H196.971C196.971 235.269 196.799 234.5 196.454 233.824C196.116 233.148 195.632 232.614 195.002 232.223C194.379 231.832 193.643 231.636 192.795 231.636C191.86 231.636 191.052 231.868 190.369 232.332C189.693 232.79 189.172 233.386 188.808 234.122C188.443 234.858 188.261 235.647 188.261 236.489V237.841C188.261 238.994 188.46 239.972 188.857 240.774C189.262 241.57 189.822 242.176 190.538 242.594C191.254 243.005 192.086 243.21 193.034 243.21C193.65 243.21 194.207 243.124 194.704 242.952C195.208 242.773 195.642 242.508 196.007 242.156C196.371 241.798 196.653 241.354 196.852 240.824L199.119 241.46C198.88 242.229 198.479 242.905 197.916 243.489C197.352 244.065 196.656 244.516 195.828 244.841C194.999 245.159 194.068 245.318 193.034 245.318ZM211.12 245V224.636H218.24C219.658 224.636 220.828 224.882 221.749 225.372C222.671 225.856 223.357 226.509 223.808 227.331C224.258 228.146 224.484 229.051 224.484 230.045C224.484 230.92 224.328 231.643 224.017 232.213C223.712 232.783 223.307 233.234 222.803 233.565C222.306 233.897 221.766 234.142 221.183 234.301V234.5C221.806 234.54 222.432 234.759 223.062 235.156C223.692 235.554 224.219 236.124 224.643 236.866C225.067 237.609 225.279 238.517 225.279 239.591C225.279 240.612 225.047 241.53 224.583 242.345C224.119 243.161 223.387 243.807 222.386 244.284C221.385 244.761 220.082 245 218.478 245H211.12ZM213.586 242.812H218.478C220.089 242.812 221.232 242.501 221.909 241.878C222.591 241.248 222.933 240.486 222.933 239.591C222.933 238.902 222.757 238.265 222.406 237.682C222.054 237.092 221.554 236.621 220.904 236.27C220.255 235.912 219.486 235.733 218.597 235.733H213.586V242.812ZM213.586 233.585H218.16C218.902 233.585 219.572 233.439 220.169 233.148C220.772 232.856 221.249 232.445 221.6 231.915C221.958 231.384 222.137 230.761 222.137 230.045C222.137 229.151 221.826 228.392 221.203 227.768C220.579 227.139 219.592 226.824 218.24 226.824H213.586V233.585ZM235.416 245.318C233.945 245.318 232.675 244.993 231.608 244.344C230.548 243.688 229.729 242.773 229.152 241.599C228.582 240.42 228.297 239.047 228.297 237.483C228.297 235.919 228.582 234.54 229.152 233.347C229.729 232.147 230.531 231.212 231.558 230.543C232.593 229.866 233.799 229.528 235.178 229.528C235.973 229.528 236.759 229.661 237.534 229.926C238.31 230.191 239.016 230.622 239.652 231.219C240.289 231.809 240.796 232.591 241.173 233.565C241.551 234.54 241.74 235.74 241.74 237.165V238.159H229.968V236.131H239.354C239.354 235.269 239.182 234.5 238.837 233.824C238.499 233.148 238.015 232.614 237.385 232.223C236.762 231.832 236.026 231.636 235.178 231.636C234.243 231.636 233.434 231.868 232.752 232.332C232.075 232.79 231.555 233.386 231.191 234.122C230.826 234.858 230.644 235.647 230.644 236.489V237.841C230.644 238.994 230.843 239.972 231.24 240.774C231.645 241.57 232.205 242.176 232.921 242.594C233.637 243.005 234.468 243.21 235.416 243.21C236.033 243.21 236.59 243.124 237.087 242.952C237.591 242.773 238.025 242.508 238.389 242.156C238.754 241.798 239.036 241.354 239.235 240.824L241.502 241.46C241.263 242.229 240.862 242.905 240.298 243.489C239.735 244.065 239.039 244.516 238.21 244.841C237.382 245.159 236.45 245.318 235.416 245.318ZM247.656 224.636V245H245.31V224.636H247.656ZM254.301 224.636V245H251.954V224.636H254.301Z" fill="white"/>
<defs>
<clipPath id="clip0_91_423">
<rect width="150" height="150" fill="white" transform="translate(114.5 48)"/>
</clipPath>
</defs>
</svg>
