<svg width="379" height="300" viewBox="0 0 379 300" fill="none" xmlns="http://www.w3.org/2000/svg">
<rect x="1" y="1" width="377" height="298" rx="11" stroke="white" stroke-width="2"/>
<g clip-path="url(#clip0_91_741)">
<path d="M137.317 144.104C136.459 143.246 135.067 143.246 134.209 144.104C129.925 148.388 129.925 155.359 134.209 159.644L152.857 178.291C154.999 180.433 157.813 181.504 160.627 181.504C163.441 181.504 166.254 180.433 168.397 178.291C168.809 177.879 169.04 177.32 169.04 176.737C169.04 176.154 168.809 175.595 168.397 175.183L137.317 144.104ZM160.626 177.114C158.865 177.114 157.21 176.428 155.965 175.183L137.317 156.536C136.072 155.29 135.386 153.635 135.386 151.874C135.386 150.873 135.607 149.906 136.027 149.03L163.47 176.473C162.593 176.893 161.627 177.114 160.626 177.114Z" fill="white"/>
<path d="M263.857 61.0755L251.425 48.6438C251.013 48.2318 250.454 48 249.871 48C249.288 48 248.729 48.2315 248.316 48.6438L213.941 83.0197L153.288 98.3104C144.209 100.468 135.908 105.111 129.28 111.738C109.573 131.446 109.573 163.512 129.28 183.22C139.134 193.074 152.078 198 165.021 198C177.965 198 190.908 193.074 200.762 183.22C207.389 176.593 212.032 168.292 214.19 159.214L229.481 98.5589L251.425 76.6153C252.283 75.757 252.283 74.3655 251.425 73.5076C250.567 72.6493 249.176 72.6493 248.317 73.5076L233.714 88.1102L224.391 78.7868L243.655 59.5214L254.533 70.3992C255.391 71.2575 256.783 71.2575 257.641 70.3992L263.857 64.1835C264.715 63.3253 264.715 61.9337 263.857 61.0755ZM209.924 158.153C209.922 158.163 209.919 158.173 209.917 158.183C207.949 166.475 203.709 174.057 197.654 180.112C179.661 198.106 150.382 198.105 132.389 180.112C114.395 162.118 114.395 132.84 132.389 114.846C138.443 108.792 146.026 104.551 154.318 102.583C154.328 102.581 154.338 102.578 154.348 102.576L214.395 87.4381L225.062 98.1056L209.924 158.153ZM230.606 91.2177L227.498 94.3254L218.175 85.0019L221.282 81.8942L230.606 91.2177ZM256.087 65.7374L246.763 56.4136L249.871 53.3059L259.194 62.6297L256.087 65.7374Z" fill="white"/>
<path d="M169.95 123.903C164.809 129.044 164.809 137.409 169.95 142.55C172.521 145.121 175.897 146.406 179.274 146.406C182.65 146.406 186.027 145.121 188.597 142.55C193.738 137.409 193.738 129.044 188.597 123.903C183.456 118.762 175.091 118.762 169.95 123.903ZM185.489 139.442C182.063 142.87 176.485 142.87 173.058 139.442C169.63 136.015 169.63 130.438 173.058 127.011C174.771 125.297 177.022 124.44 179.274 124.44C181.525 124.44 183.776 125.297 185.489 127.011C188.917 130.438 188.917 136.015 185.489 139.442Z" fill="white"/>
<path d="M163.734 117.687C155.166 126.256 155.166 140.198 163.734 148.766C168.019 153.05 173.646 155.193 179.274 155.193C184.901 155.193 190.529 153.05 194.813 148.766C203.381 140.198 203.381 126.256 194.813 117.687C186.244 109.119 172.303 109.119 163.734 117.687ZM191.705 145.658C184.851 152.513 173.697 152.513 166.842 145.658C159.987 138.803 159.987 127.65 166.842 120.795C170.269 117.368 174.772 115.654 179.274 115.654C183.776 115.654 188.278 117.368 191.705 120.795C198.56 127.65 198.56 138.803 191.705 145.658Z" fill="white"/>
</g>
<path d="M162.804 245V224.636H165.27V242.812H174.736V245H162.804ZM187.861 238.756V229.727H190.207V245H187.861V242.415H187.702C187.344 243.19 186.787 243.85 186.031 244.393C185.275 244.93 184.321 245.199 183.167 245.199C182.213 245.199 181.364 244.99 180.622 244.572C179.88 244.148 179.296 243.512 178.872 242.663C178.448 241.808 178.236 240.731 178.236 239.432V229.727H180.582V239.273C180.582 240.386 180.894 241.275 181.517 241.938C182.147 242.6 182.949 242.932 183.923 242.932C184.506 242.932 185.1 242.783 185.703 242.484C186.313 242.186 186.823 241.729 187.234 241.112C187.652 240.496 187.861 239.71 187.861 238.756ZM201.147 229.727V231.716H193.232V229.727H201.147ZM195.539 226.068H197.886V240.625C197.886 241.288 197.982 241.785 198.174 242.116C198.373 242.441 198.625 242.66 198.93 242.773C199.241 242.879 199.57 242.932 199.914 242.932C200.173 242.932 200.385 242.919 200.551 242.892C200.716 242.859 200.849 242.832 200.948 242.812L201.426 244.92C201.267 244.98 201.044 245.04 200.759 245.099C200.474 245.166 200.113 245.199 199.676 245.199C199.013 245.199 198.363 245.056 197.727 244.771C197.097 244.486 196.573 244.052 196.156 243.469C195.745 242.885 195.539 242.15 195.539 241.261V226.068ZM210.916 245.318C209.445 245.318 208.175 244.993 207.108 244.344C206.048 243.688 205.229 242.773 204.652 241.599C204.082 240.42 203.797 239.047 203.797 237.483C203.797 235.919 204.082 234.54 204.652 233.347C205.229 232.147 206.031 231.212 207.058 230.543C208.093 229.866 209.299 229.528 210.678 229.528C211.473 229.528 212.259 229.661 213.034 229.926C213.81 230.191 214.516 230.622 215.152 231.219C215.789 231.809 216.296 232.591 216.673 233.565C217.051 234.54 217.24 235.74 217.24 237.165V238.159H205.468V236.131H214.854C214.854 235.269 214.682 234.5 214.337 233.824C213.999 233.148 213.515 232.614 212.885 232.223C212.262 231.832 211.526 231.636 210.678 231.636C209.743 231.636 208.934 231.868 208.252 232.332C207.575 232.79 207.055 233.386 206.691 234.122C206.326 234.858 206.144 235.647 206.144 236.489V237.841C206.144 238.994 206.343 239.972 206.74 240.774C207.145 241.57 207.705 242.176 208.421 242.594C209.137 243.005 209.968 243.21 210.916 243.21C211.533 243.21 212.09 243.124 212.587 242.952C213.091 242.773 213.525 242.508 213.889 242.156C214.254 241.798 214.536 241.354 214.735 240.824L217.002 241.46C216.763 242.229 216.362 242.905 215.798 243.489C215.235 244.065 214.539 244.516 213.71 244.841C212.882 245.159 211.95 245.318 210.916 245.318Z" fill="white"/>
<defs>
<clipPath id="clip0_91_741">
<rect width="150" height="150" fill="white" transform="translate(114.5 48)"/>
</clipPath>
</defs>
</svg>
