<svg width="379" height="300" viewBox="0 0 379 300" fill="none" xmlns="http://www.w3.org/2000/svg">
<rect x="1" y="1" width="377" height="298" rx="11" stroke="white" stroke-width="2"/>
<g clip-path="url(#clip0_91_980)">
<path d="M243.762 171.403C243.528 171.637 243.219 171.765 242.889 171.765C242.559 171.765 242.249 171.636 242.016 171.403C239.821 169.209 236.25 169.209 234.055 171.403C233.197 172.261 233.197 173.652 234.055 174.51C234.913 175.368 236.304 175.369 237.162 174.511C237.644 174.03 238.427 174.029 238.908 174.51C239.971 175.574 241.385 176.159 242.889 176.159C244.393 176.159 245.806 175.574 246.869 174.511C247.351 174.029 248.134 174.029 248.615 174.511C249.474 175.368 250.865 175.368 251.723 174.511C252.581 173.652 252.581 172.261 251.723 171.403C249.528 169.209 245.956 169.209 243.762 171.403Z" fill="white"/>
<path d="M257.174 152.458C252.51 150.514 247.635 149.097 242.659 148.229V143.55C245.744 143.384 248.824 143.113 251.892 142.73C253.378 142.544 254.688 141.644 255.395 140.323C256.102 139.002 256.124 137.413 255.454 136.073L248.799 122.763C249.508 122.296 250.085 121.635 250.452 120.841C251.094 119.451 251.008 117.836 250.22 116.523L239.573 98.7798C238.73 97.3742 237.247 96.5351 235.609 96.5351C233.969 96.5351 232.487 97.3742 231.643 98.7801L220.997 116.523C220.21 117.837 220.123 119.451 220.765 120.841C221.132 121.636 221.709 122.296 222.418 122.764L215.763 136.074C215.606 136.388 215.49 136.717 215.409 137.053C214.546 132.89 212.692 128.961 209.975 125.649C209.206 124.71 207.821 124.573 206.883 125.343C205.944 126.112 205.808 127.497 206.577 128.435C209.797 132.361 211.57 137.326 211.57 142.414C211.57 145.219 211.052 147.936 210.035 150.509C209.607 150.647 199.133 154.275 199.133 154.275C193.813 149.005 187.509 144.767 180.53 141.835C181.474 140.601 182.023 139.06 181.989 137.414C181.919 133.987 179.301 131.048 175.9 130.576C175.554 130.528 175.202 130.505 174.859 130.51C174.774 130.504 174.698 130.471 174.682 130.443C172.998 127.49 169.842 125.656 166.446 125.656C164.665 125.656 162.931 126.162 161.435 127.096C161.238 126.951 161.056 126.735 160.91 126.457C158.758 122.371 154.556 119.832 149.944 119.832C145.504 119.832 141.378 122.23 139.176 126.09C138.986 126.423 138.602 126.628 138.172 126.628C138.167 126.628 138.162 126.628 138.157 126.628C137.715 126.619 137.27 126.651 136.826 126.712C132.49 127.313 129.152 131.061 129.062 135.431C129.016 137.674 129.801 139.767 131.156 141.388L123.517 143.297C121.779 143.732 120.215 144.535 118.894 145.607V103.873C118.894 94.3701 126.493 86.5191 135.832 86.3717C141.259 86.278 146.346 88.7536 149.644 92.9495C144.667 95.1989 141.194 100.206 141.194 106.013C141.194 107.227 142.177 108.21 143.391 108.21C144.605 108.21 145.588 107.227 145.588 106.013C145.588 100.876 149.506 96.6376 154.51 96.1276C159.683 95.5106 164.731 99.4841 165.363 104.631C165.427 105.083 165.462 105.544 165.462 106.013C165.462 107.226 166.445 108.21 167.659 108.21C168.869 108.21 169.85 107.232 169.856 106.023C170.729 105.864 171.618 105.783 172.512 105.783C179.275 105.783 185.164 110.355 186.836 116.903C187.077 117.846 187.601 118.679 188.35 119.311C189.116 119.957 190.042 120.334 191.028 120.402C193.903 120.598 196.667 121.341 199.243 122.61C200.333 123.147 201.649 122.699 202.185 121.61C202.721 120.522 202.273 119.204 201.185 118.668C198.093 117.145 194.776 116.253 191.328 116.018C191.282 116.015 191.229 115.991 191.183 115.952C191.139 115.914 191.107 115.865 191.094 115.815C188.925 107.321 181.284 101.388 172.512 101.388C171.393 101.388 170.28 101.485 169.184 101.678C167.282 95.4306 160.794 91.0402 154.187 91.7433C150.139 85.5666 143.22 81.8626 135.763 81.9772C124.039 82.1623 114.5 91.985 114.5 103.873V190.95C114.5 194.837 117.663 198 121.551 198H127.871C129.085 198 130.068 197.017 130.068 195.803C130.068 194.589 129.085 193.606 127.871 193.606H121.551C120.086 193.606 118.895 192.414 118.895 190.95V189.413L119.607 189.235C124.336 188.053 129.336 187.987 134.093 189.044C137.717 189.849 141.049 191.403 143.937 193.606H138.125C136.911 193.606 135.928 194.589 135.928 195.803C135.928 197.017 136.911 198 138.125 198H257.449C261.337 198 264.5 194.837 264.5 190.95V163.446C264.5 158.625 261.625 154.312 257.174 152.458ZM232.952 143.713C233.837 143.731 234.723 143.743 235.608 143.743C236.494 143.743 237.379 143.731 238.264 143.713V152.121C238.264 152.248 238.161 152.351 238.035 152.351H233.182C233.055 152.351 232.952 152.248 232.952 152.121L232.952 143.713ZM219.693 138.039L226.791 123.843C229.714 124.217 232.669 124.408 235.608 124.408C236.822 124.408 237.806 123.424 237.806 122.21C237.806 120.997 236.822 120.013 235.608 120.013C232.039 120.013 228.445 119.715 224.925 119.129C224.924 119.129 224.924 119.129 224.924 119.129C224.891 119.124 224.804 119.109 224.754 118.999C224.703 118.889 224.748 118.813 224.766 118.785L235.411 101.042C235.431 101.008 235.478 100.93 235.608 100.93C235.738 100.93 235.785 101.008 235.805 101.042L246.451 118.784C246.468 118.813 246.513 118.888 246.462 118.999C246.412 119.109 246.325 119.123 246.293 119.129C245.992 119.179 245.69 119.224 245.388 119.269L245.337 119.277C244.2 119.449 243.398 120.468 243.484 121.615C243.511 121.97 243.622 122.3 243.797 122.586L251.523 138.039C251.538 138.068 251.576 138.145 251.52 138.25C251.464 138.354 251.378 138.365 251.346 138.369C240.903 139.674 230.313 139.674 219.87 138.369C219.837 138.365 219.752 138.354 219.696 138.25C219.641 138.145 219.679 138.068 219.693 138.039ZM215.965 142.414C215.965 141.752 215.935 141.092 215.885 140.434C216.605 141.694 217.881 142.549 219.325 142.73C222.393 143.114 225.473 143.384 228.558 143.55V147.261C224.018 147.421 219.523 148.031 215.117 149.085C215.679 146.922 215.965 144.692 215.965 142.414ZM170.866 132.621C171.68 134.049 173.241 134.918 174.911 134.905C175.037 134.906 175.169 134.911 175.298 134.929C176.56 135.104 177.569 136.235 177.596 137.504C177.62 138.676 176.868 139.712 175.792 140.077C174.055 139.517 172.285 139.034 170.485 138.634C169.363 138.385 168.233 138.169 167.099 137.981C167.281 137.348 167.391 136.697 167.421 136.035C167.52 133.853 166.827 131.777 165.557 130.13C165.849 130.078 166.146 130.051 166.446 130.051C168.268 130.051 169.961 131.036 170.866 132.621ZM133.456 135.522C133.502 133.289 135.21 131.373 137.429 131.065C137.655 131.034 137.88 131.021 138.105 131.022C140.132 131.042 142.011 129.991 142.994 128.268C144.416 125.775 147.079 124.227 149.944 124.227C152.921 124.227 155.633 125.866 157.021 128.504C157.722 129.835 158.814 130.841 160.098 131.337C160.289 131.412 160.472 131.5 160.648 131.597C160.669 131.608 160.69 131.62 160.711 131.631C162.197 132.475 163.11 134.089 163.031 135.836C163.007 136.372 162.871 136.899 162.638 137.398C155.27 136.692 147.776 137.234 140.601 139.028L136.68 140.008C134.746 139.406 133.414 137.587 133.456 135.522ZM124.583 147.561L141.666 143.291C150.753 141.019 160.388 140.892 169.531 142.924C187.106 146.829 201.59 159.141 208.276 175.856L215.376 193.606H197.588C191.049 171.186 173.503 153.321 149.193 152.96C140.805 152.135 124.241 156.657 118.895 157.93V154.847C118.895 151.394 121.234 148.398 124.583 147.561ZM175.067 193.606C165.721 169.916 141.064 164.71 118.895 171.406V162.46C128.506 160.282 139.399 156.852 149.028 157.35C170.601 157.573 187.082 173.572 192.855 193.606H175.067ZM135.046 184.754C129.744 183.576 124.177 183.625 118.895 184.888V175.936C138.999 169.806 160.876 172.842 170.302 193.606H150.436C146.314 189.134 141.016 186.081 135.046 184.754ZM260.105 190.95C260.105 192.414 258.914 193.606 257.449 193.606H220.109L212.356 174.224C209.928 168.153 206.543 162.623 202.404 157.791L210.189 155.089C216.127 153.043 222.296 151.893 228.557 151.658V152.122C228.557 154.671 230.631 156.745 233.181 156.745H238.035C240.391 156.745 242.338 154.972 242.62 152.691C247.026 153.511 251.344 154.789 255.484 156.514C258.291 157.684 260.105 160.405 260.105 163.446V190.95H260.105Z" fill="white"/>
<path d="M234.395 71.8087H254.859C257.442 71.8087 259.968 70.7446 261.788 68.8898C263.584 67.06 264.546 64.6658 264.498 62.1489C264.401 57.0234 260.15 52.8536 255.022 52.8536C255.021 52.8536 254.998 52.8536 254.997 52.8536C254.94 52.8536 254.877 52.8161 254.83 52.7528C252.557 49.7323 249.09 48 245.316 48C240.516 48 236.189 50.8998 234.342 55.2823C229.952 55.3857 226.29 58.9181 226.136 63.2452C226.056 65.5104 226.877 67.6547 228.448 69.2827C230.02 70.9116 232.132 71.8087 234.395 71.8087ZM234.54 59.6748H235.018C236.457 59.6748 237.75 58.7552 238.238 57.3861C239.3 54.4008 242.144 52.3945 245.316 52.3945C247.696 52.3945 249.884 53.4879 251.318 55.3945C252.191 56.5556 253.567 57.2479 254.994 57.2479H255.001H255.022C257.773 57.2479 260.052 59.4838 260.104 62.2321C260.13 63.5596 259.614 64.8311 258.651 65.8119C257.652 66.83 256.27 67.4142 254.859 67.4142H234.395C233.335 67.4142 232.346 66.994 231.61 66.2312C230.874 65.4688 230.49 64.4643 230.528 63.4017C230.601 61.3465 232.401 59.6748 234.54 59.6748Z" fill="white"/>
<path d="M143.555 76.6619H164.019C166.283 76.6619 168.395 75.7648 169.966 74.1362C171.537 72.5079 172.359 70.364 172.278 68.0987C172.122 63.6978 168.534 60.236 164.072 60.1361C162.225 55.7533 157.898 52.8535 153.099 52.8535C149.325 52.8535 145.857 54.5858 143.584 57.6069C143.536 57.6699 143.474 57.7074 143.442 57.7077L143.421 57.7074C143.411 57.7071 143.402 57.7071 143.392 57.7071C138.264 57.7071 134.013 61.877 133.916 67.0024C133.868 69.5196 134.831 71.9138 136.626 73.7437C138.446 75.5979 140.972 76.6619 143.555 76.6619ZM143.38 62.1014C143.397 62.102 143.409 62.1017 143.417 62.1017C144.848 62.1017 146.223 61.4088 147.096 60.2483C148.53 58.3414 150.718 57.248 153.099 57.248C156.27 57.248 159.114 59.2543 160.176 62.2399C160.663 63.6087 161.957 64.5286 163.396 64.5286H163.873C166.013 64.5286 167.813 66.2003 167.886 68.2552C167.924 69.3178 167.539 70.3227 166.804 71.0847C166.068 71.8476 165.079 72.2677 164.019 72.2677H143.555C142.144 72.2677 140.762 71.6838 139.763 70.6654C138.801 69.6846 138.284 68.4131 138.31 67.0854C138.361 64.3408 140.635 62.1075 143.38 62.1014Z" fill="white"/>
<path d="M204.061 86.3691C213.301 86.3691 220.818 78.8516 220.818 69.6113C220.818 60.3711 213.301 52.8535 204.061 52.8535C194.82 52.8535 187.303 60.3711 187.303 69.6113C187.303 78.8516 194.82 86.3691 204.061 86.3691ZM204.061 57.2478C210.878 57.2478 216.424 62.7939 216.424 69.611C216.424 76.4281 210.878 81.9743 204.061 81.9743C197.243 81.9743 191.697 76.4281 191.697 69.611C191.697 62.7939 197.243 57.2478 204.061 57.2478Z" fill="white"/>
</g>
<path d="M127.995 224.636H130.938L137.859 241.54H138.097L145.018 224.636H147.961V245H145.654V229.528H145.455L139.092 245H136.865L130.501 229.528H130.302V245H127.995V224.636ZM158.991 245.318C157.519 245.318 156.25 244.993 155.182 244.344C154.122 243.688 153.303 242.773 152.726 241.599C152.156 240.42 151.871 239.047 151.871 237.483C151.871 235.919 152.156 234.54 152.726 233.347C153.303 232.147 154.105 231.212 155.133 230.543C156.167 229.866 157.373 229.528 158.752 229.528C159.547 229.528 160.333 229.661 161.108 229.926C161.884 230.191 162.59 230.622 163.226 231.219C163.863 231.809 164.37 232.591 164.748 233.565C165.126 234.54 165.314 235.74 165.314 237.165V238.159H153.542V236.131H162.928C162.928 235.269 162.756 234.5 162.411 233.824C162.073 233.148 161.589 232.614 160.959 232.223C160.336 231.832 159.6 231.636 158.752 231.636C157.817 231.636 157.009 231.868 156.326 232.332C155.65 232.79 155.129 233.386 154.765 234.122C154.4 234.858 154.218 235.647 154.218 236.489V237.841C154.218 238.994 154.417 239.972 154.814 240.774C155.219 241.57 155.779 242.176 156.495 242.594C157.211 243.005 158.043 243.21 158.991 243.21C159.607 243.21 160.164 243.124 160.661 242.952C161.165 242.773 161.599 242.508 161.964 242.156C162.328 241.798 162.61 241.354 162.809 240.824L165.076 241.46C164.837 242.229 164.436 242.905 163.873 243.489C163.309 244.065 162.613 244.516 161.785 244.841C160.956 245.159 160.025 245.318 158.991 245.318ZM173.378 245.358C172.411 245.358 171.532 245.176 170.743 244.811C169.955 244.44 169.328 243.906 168.864 243.21C168.4 242.508 168.168 241.659 168.168 240.665C168.168 239.79 168.34 239.08 168.685 238.537C169.03 237.987 169.491 237.556 170.067 237.244C170.644 236.933 171.28 236.701 171.976 236.548C172.679 236.389 173.385 236.263 174.094 236.17C175.022 236.051 175.775 235.962 176.351 235.902C176.935 235.836 177.359 235.726 177.624 235.574C177.896 235.421 178.032 235.156 178.032 234.778V234.699C178.032 233.718 177.763 232.955 177.226 232.412C176.696 231.868 175.891 231.597 174.81 231.597C173.69 231.597 172.812 231.842 172.175 232.332C171.539 232.823 171.091 233.347 170.833 233.903L168.606 233.108C169.003 232.18 169.534 231.457 170.197 230.94C170.866 230.417 171.595 230.052 172.384 229.847C173.18 229.634 173.962 229.528 174.731 229.528C175.221 229.528 175.785 229.588 176.421 229.707C177.064 229.82 177.684 230.055 178.28 230.413C178.884 230.771 179.384 231.312 179.782 232.034C180.18 232.757 180.378 233.724 180.378 234.938V245H178.032V242.932H177.912C177.753 243.263 177.488 243.618 177.117 243.996C176.746 244.374 176.252 244.695 175.635 244.96C175.019 245.225 174.267 245.358 173.378 245.358ZM173.736 243.25C174.664 243.25 175.447 243.068 176.083 242.703C176.726 242.339 177.21 241.868 177.535 241.291C177.866 240.714 178.032 240.108 178.032 239.472V237.324C177.932 237.443 177.714 237.553 177.376 237.652C177.044 237.745 176.66 237.828 176.222 237.901C175.791 237.967 175.37 238.027 174.959 238.08C174.555 238.126 174.227 238.166 173.975 238.199C173.365 238.278 172.795 238.408 172.265 238.587C171.741 238.759 171.317 239.021 170.992 239.372C170.674 239.717 170.515 240.187 170.515 240.784C170.515 241.599 170.816 242.216 171.42 242.634C172.029 243.045 172.802 243.25 173.736 243.25ZM190.428 245.318C189.156 245.318 188.032 244.997 187.058 244.354C186.083 243.704 185.321 242.789 184.771 241.609C184.221 240.423 183.945 239.021 183.945 237.403C183.945 235.799 184.221 234.407 184.771 233.227C185.321 232.047 186.087 231.136 187.068 230.493C188.049 229.85 189.182 229.528 190.468 229.528C191.463 229.528 192.248 229.694 192.825 230.026C193.408 230.35 193.852 230.722 194.157 231.139C194.469 231.55 194.711 231.888 194.883 232.153H195.082V224.636H197.428V245H195.161V242.653H194.883C194.711 242.932 194.465 243.283 194.147 243.707C193.829 244.125 193.375 244.5 192.785 244.831C192.195 245.156 191.41 245.318 190.428 245.318ZM190.747 243.21C191.688 243.21 192.483 242.965 193.133 242.474C193.783 241.977 194.276 241.291 194.615 240.416C194.953 239.535 195.122 238.517 195.122 237.364C195.122 236.223 194.956 235.226 194.624 234.371C194.293 233.509 193.802 232.839 193.153 232.362C192.503 231.878 191.701 231.636 190.747 231.636C189.752 231.636 188.924 231.892 188.261 232.402C187.605 232.906 187.111 233.592 186.779 234.46C186.454 235.322 186.292 236.29 186.292 237.364C186.292 238.451 186.458 239.438 186.789 240.327C187.127 241.208 187.624 241.911 188.281 242.435C188.944 242.952 189.766 243.21 190.747 243.21ZM208.257 245.318C206.878 245.318 205.668 244.99 204.627 244.334C203.593 243.678 202.785 242.759 202.201 241.58C201.624 240.4 201.336 239.021 201.336 237.443C201.336 235.852 201.624 234.464 202.201 233.277C202.785 232.09 203.593 231.169 204.627 230.513C205.668 229.857 206.878 229.528 208.257 229.528C209.635 229.528 210.842 229.857 211.876 230.513C212.917 231.169 213.725 232.09 214.302 233.277C214.885 234.464 215.177 235.852 215.177 237.443C215.177 239.021 214.885 240.4 214.302 241.58C213.725 242.759 212.917 243.678 211.876 244.334C210.842 244.99 209.635 245.318 208.257 245.318ZM208.257 243.21C209.304 243.21 210.166 242.942 210.842 242.405C211.518 241.868 212.018 241.162 212.343 240.287C212.668 239.412 212.83 238.464 212.83 237.443C212.83 236.422 212.668 235.471 212.343 234.589C212.018 233.708 211.518 232.995 210.842 232.452C210.166 231.908 209.304 231.636 208.257 231.636C207.209 231.636 206.347 231.908 205.671 232.452C204.995 232.995 204.495 233.708 204.17 234.589C203.845 235.471 203.683 236.422 203.683 237.443C203.683 238.464 203.845 239.412 204.17 240.287C204.495 241.162 204.995 241.868 205.671 242.405C206.347 242.942 207.209 243.21 208.257 243.21ZM221.7 245L217.046 229.727H219.512L222.813 241.42H222.972L226.234 229.727H228.74L231.961 241.381H232.12L235.421 229.727H237.887L233.234 245H230.927L227.586 233.267H227.347L224.007 245H221.7ZM251.808 233.148L249.7 233.744C249.567 233.393 249.372 233.052 249.113 232.72C248.861 232.382 248.517 232.104 248.079 231.885C247.642 231.666 247.081 231.557 246.399 231.557C245.464 231.557 244.685 231.772 244.062 232.203C243.445 232.627 243.137 233.168 243.137 233.824C243.137 234.407 243.349 234.868 243.774 235.206C244.198 235.544 244.861 235.826 245.762 236.051L248.029 236.608C249.395 236.939 250.412 237.446 251.082 238.129C251.751 238.805 252.086 239.677 252.086 240.744C252.086 241.619 251.834 242.402 251.33 243.091C250.833 243.78 250.137 244.324 249.242 244.722C248.347 245.119 247.307 245.318 246.12 245.318C244.562 245.318 243.273 244.98 242.252 244.304C241.231 243.628 240.585 242.64 240.313 241.341L242.541 240.784C242.753 241.606 243.154 242.223 243.744 242.634C244.34 243.045 245.119 243.25 246.08 243.25C247.174 243.25 248.043 243.018 248.686 242.554C249.335 242.083 249.66 241.52 249.66 240.864C249.66 240.333 249.474 239.889 249.103 239.531C248.732 239.167 248.162 238.895 247.393 238.716L244.847 238.119C243.449 237.788 242.421 237.274 241.765 236.578C241.115 235.875 240.791 234.997 240.791 233.943C240.791 233.081 241.033 232.319 241.517 231.656C242.007 230.993 242.673 230.473 243.515 230.095C244.364 229.717 245.325 229.528 246.399 229.528C247.91 229.528 249.097 229.86 249.958 230.523C250.827 231.186 251.443 232.061 251.808 233.148Z" fill="white"/>
<defs>
<clipPath id="clip0_91_980">
<rect width="150" height="150" fill="white" transform="translate(114.5 48)"/>
</clipPath>
</defs>
</svg>
