<svg width="379" height="300" viewBox="0 0 379 300" fill="none" xmlns="http://www.w3.org/2000/svg">
<rect x="1" y="1" width="377" height="298" rx="11" stroke="white" stroke-width="2"/>
<g clip-path="url(#clip0_91_754)">
<path d="M260.727 167.291C258.34 164.904 255.181 163.571 251.813 163.518L241.338 153.042L243.025 151.355C249.942 144.438 249.942 133.184 243.025 126.267C243.025 126.267 240.597 123.839 240.596 123.838C239.749 122.991 238.334 122.992 237.488 123.838L229.443 131.883C220.812 128.828 217.172 125.477 209.651 116.316C211.52 114.736 213.403 113.127 215.27 111.514C248.73 82.6205 247.137 59.7163 247.052 58.7553C246.961 57.7112 246.102 56.8498 245.056 56.7582C238.718 56.2021 231.741 58.8133 226.132 61.3988C214.67 66.6819 203.286 75.814 192.297 88.5405C191.362 89.6227 190.436 90.7026 189.501 91.7992C188.6 90.7436 187.67 89.6594 186.704 88.5405C182.963 84.2093 179.109 80.2308 175.247 76.7157C174.349 75.8986 172.959 75.9646 172.142 76.8616C171.326 77.759 171.391 79.1491 172.288 79.9659C176.021 83.3632 179.752 87.2145 183.377 91.4134C190.731 99.9291 197.716 108.739 204.875 117.416C204.877 117.418 204.879 117.421 204.881 117.423C212.965 127.372 217.182 131.8 226.028 135.297L219.812 141.514L140.02 61.7225C145.532 62.8238 154.669 65.9169 165.795 74.5053C166.755 75.2468 168.136 75.0692 168.877 74.1086C169.619 73.148 169.441 71.7678 168.481 71.0263C148.593 55.6748 134.534 56.7063 133.945 56.7579C132.966 56.8434 132.109 57.6453 131.967 58.6343C131.961 58.6747 131.951 58.714 131.948 58.7553C131.863 59.7163 130.27 82.6205 163.73 111.514C165.703 113.217 167.57 114.81 169.35 116.315C161.659 125.677 158.078 128.875 149.557 131.883C149.557 131.883 141.528 123.853 141.512 123.838C140.664 122.989 139.251 122.991 138.404 123.838L135.975 126.267C129.058 133.184 129.058 144.438 135.975 151.355L137.662 153.042L127.187 163.518C123.819 163.571 120.66 164.904 118.273 167.291C113.242 172.322 113.242 180.507 118.273 185.537C120.709 187.974 123.949 189.316 127.396 189.316C130.842 189.316 134.082 187.974 136.519 185.537C138.906 183.15 140.239 179.991 140.293 176.623L150.768 166.147L152.455 167.835C155.806 171.185 160.26 173.03 164.999 173.03C169.738 173.03 174.193 171.185 177.543 167.835C177.543 167.835 179.967 165.411 179.973 165.405C180.821 164.557 180.82 163.145 179.973 162.298L171.928 154.254C175.224 144.954 178.905 141.413 189.5 132.824C200.2 141.5 203.804 145.018 207.072 154.253C207.072 154.253 199.042 162.284 199.028 162.298C198.178 163.147 198.181 164.559 199.028 165.406L201.457 167.835C204.808 171.186 209.263 173.031 214.001 173.031C218.74 173.031 223.195 171.185 226.546 167.835L228.233 166.148L238.708 176.623C238.761 179.991 240.094 183.15 242.482 185.538C244.919 187.975 248.159 189.317 251.605 189.317C255.051 189.317 258.291 187.975 260.728 185.538C265.758 180.507 265.758 172.322 260.727 167.291ZM192.38 95.195C193.47 93.9153 194.539 92.6673 195.623 91.4128C214.708 69.3115 230.84 63.2949 239.012 61.6906L198.339 102.364C196.527 100.156 194.554 97.7749 192.38 95.195ZM206.785 112.79C204.899 110.456 203.022 108.117 201.131 105.787L242.108 64.8104C241.665 67.0598 240.889 69.9124 239.54 73.2508C233.639 87.8494 221.523 100.308 212.397 108.188C210.563 109.771 208.713 111.352 206.877 112.906C206.847 112.867 206.816 112.828 206.785 112.79ZM172.715 119.144C172.754 119.176 172.793 119.209 172.832 119.242C174.488 120.624 176.063 121.926 177.554 123.149L159.188 141.514L152.972 135.298C161.334 131.995 165.53 127.888 172.715 119.144ZM133.411 182.43C131.805 184.036 129.668 184.921 127.396 184.921C125.123 184.921 122.988 184.036 121.38 182.43C118.064 179.113 118.064 173.716 121.38 170.399C122.987 168.793 125.123 167.908 127.396 167.908C130.152 167.908 132.831 169.316 134.398 171.583C136.703 174.92 136.276 179.565 133.411 182.43ZM139.293 171.408C138.733 170.078 137.948 168.842 136.955 167.75C135.696 166.36 134.132 165.246 132.403 164.518L140.77 156.15L143.132 158.512L147.66 163.04L139.293 171.408ZM175.311 163.852L174.436 164.727C171.915 167.248 168.564 168.636 164.999 168.636C161.435 168.636 158.083 167.248 155.563 164.727L139.083 148.248C133.88 143.045 133.88 134.578 139.083 129.375L139.958 128.499L175.311 163.852ZM168.51 150.835L162.296 144.622L180.977 125.941C182.639 127.31 184.326 128.651 186.003 130.002C176.132 138.034 171.938 142.096 168.51 150.835ZM188.755 126.575C181.281 120.554 173.868 114.461 166.603 108.188C157.477 100.308 145.361 87.8494 139.46 73.2508C138.111 69.9118 137.335 67.0589 136.892 64.8101L216.704 144.622L210.487 150.839C206.567 140.922 201.483 136.828 188.755 126.575ZM223.438 164.727C220.917 167.248 217.566 168.636 214.001 168.636C210.436 168.636 207.085 167.248 204.564 164.727L203.689 163.852L239.042 128.499L239.917 129.375C245.12 134.578 245.12 143.044 239.917 148.248L223.438 164.727ZM239.708 171.408L231.34 163.041L238.23 156.151L246.598 164.518C245.267 165.078 244.031 165.864 242.938 166.857C241.549 168.116 240.435 169.68 239.708 171.408ZM257.62 182.43C256.013 184.036 253.877 184.921 251.604 184.921C249.332 184.921 247.196 184.037 245.589 182.43C243.879 180.72 242.969 178.299 243.115 175.887C243.115 175.882 243.117 175.877 243.117 175.871C243.402 171.661 246.839 168.196 251.061 167.928C251.065 167.927 251.069 167.926 251.073 167.926C253.495 167.764 255.906 168.686 257.619 170.399C260.937 173.716 260.937 179.113 257.62 182.43Z" fill="white"/>
</g>
<path d="M132.626 245V229.727H134.893V232.114H135.092C135.41 231.298 135.924 230.665 136.633 230.214C137.343 229.757 138.194 229.528 139.189 229.528C140.196 229.528 141.035 229.757 141.704 230.214C142.381 230.665 142.907 231.298 143.285 232.114H143.444C143.836 231.325 144.422 230.698 145.204 230.234C145.987 229.764 146.925 229.528 148.018 229.528C149.384 229.528 150.501 229.956 151.369 230.811C152.238 231.66 152.672 232.982 152.672 234.778V245H150.325V234.778C150.325 233.652 150.017 232.846 149.4 232.362C148.784 231.878 148.058 231.636 147.223 231.636C146.149 231.636 145.317 231.961 144.727 232.611C144.137 233.254 143.842 234.069 143.842 235.057V245H141.456V234.54C141.456 233.671 141.174 232.972 140.611 232.442C140.047 231.905 139.321 231.636 138.433 231.636C137.823 231.636 137.253 231.799 136.723 232.124C136.199 232.448 135.775 232.899 135.45 233.476C135.132 234.046 134.973 234.705 134.973 235.455V245H132.626ZM163.366 245.318C161.894 245.318 160.625 244.993 159.557 244.344C158.497 243.688 157.678 242.773 157.101 241.599C156.531 240.42 156.246 239.047 156.246 237.483C156.246 235.919 156.531 234.54 157.101 233.347C157.678 232.147 158.48 231.212 159.508 230.543C160.542 229.866 161.748 229.528 163.127 229.528C163.922 229.528 164.708 229.661 165.483 229.926C166.259 230.191 166.965 230.622 167.601 231.219C168.238 231.809 168.745 232.591 169.123 233.565C169.501 234.54 169.689 235.74 169.689 237.165V238.159H157.917V236.131H167.303C167.303 235.269 167.131 234.5 166.786 233.824C166.448 233.148 165.964 232.614 165.334 232.223C164.711 231.832 163.975 231.636 163.127 231.636C162.192 231.636 161.384 231.868 160.701 232.332C160.025 232.79 159.504 233.386 159.14 234.122C158.775 234.858 158.593 235.647 158.593 236.489V237.841C158.593 238.994 158.792 239.972 159.189 240.774C159.594 241.57 160.154 242.176 160.87 242.594C161.586 243.005 162.418 243.21 163.366 243.21C163.982 243.21 164.539 243.124 165.036 242.952C165.54 242.773 165.974 242.508 166.339 242.156C166.703 241.798 166.985 241.354 167.184 240.824L169.451 241.46C169.212 242.229 168.811 242.905 168.248 243.489C167.684 244.065 166.988 244.516 166.16 244.841C165.331 245.159 164.4 245.318 163.366 245.318ZM179.026 245.318C177.753 245.318 176.63 244.997 175.655 244.354C174.681 243.704 173.919 242.789 173.368 241.609C172.818 240.423 172.543 239.021 172.543 237.403C172.543 235.799 172.818 234.407 173.368 233.227C173.919 232.047 174.684 231.136 175.665 230.493C176.646 229.85 177.78 229.528 179.066 229.528C180.06 229.528 180.846 229.694 181.422 230.026C182.006 230.35 182.45 230.722 182.755 231.139C183.066 231.55 183.308 231.888 183.481 232.153H183.68V224.636H186.026V245H183.759V242.653H183.481C183.308 242.932 183.063 243.283 182.745 243.707C182.427 244.125 181.973 244.5 181.383 244.831C180.793 245.156 180.007 245.318 179.026 245.318ZM179.344 243.21C180.286 243.21 181.081 242.965 181.731 242.474C182.38 241.977 182.874 241.291 183.212 240.416C183.55 239.535 183.719 238.517 183.719 237.364C183.719 236.223 183.554 235.226 183.222 234.371C182.891 233.509 182.4 232.839 181.751 232.362C181.101 231.878 180.299 231.636 179.344 231.636C178.35 231.636 177.521 231.892 176.858 232.402C176.202 232.906 175.708 233.592 175.377 234.46C175.052 235.322 174.89 236.29 174.89 237.364C174.89 238.451 175.055 239.438 175.387 240.327C175.725 241.208 176.222 241.911 176.878 242.435C177.541 242.952 178.363 243.21 179.344 243.21ZM190.65 245V229.727H192.996V245H190.65ZM191.843 227.182C191.385 227.182 190.991 227.026 190.66 226.714C190.335 226.403 190.172 226.028 190.172 225.591C190.172 225.153 190.335 224.779 190.66 224.467C190.991 224.156 191.385 224 191.843 224C192.3 224 192.691 224.156 193.016 224.467C193.348 224.779 193.513 225.153 193.513 225.591C193.513 226.028 193.348 226.403 193.016 226.714C192.691 227.026 192.3 227.182 191.843 227.182ZM203.698 245.318C202.226 245.318 200.957 244.993 199.889 244.344C198.829 243.688 198.01 242.773 197.433 241.599C196.863 240.42 196.578 239.047 196.578 237.483C196.578 235.919 196.863 234.54 197.433 233.347C198.01 232.147 198.812 231.212 199.84 230.543C200.874 229.866 202.08 229.528 203.459 229.528C204.254 229.528 205.04 229.661 205.816 229.926C206.591 230.191 207.297 230.622 207.933 231.219C208.57 231.809 209.077 232.591 209.455 233.565C209.833 234.54 210.021 235.74 210.021 237.165V238.159H198.249V236.131H207.635C207.635 235.269 207.463 234.5 207.118 233.824C206.78 233.148 206.296 232.614 205.666 232.223C205.043 231.832 204.307 231.636 203.459 231.636C202.524 231.636 201.716 231.868 201.033 232.332C200.357 232.79 199.836 233.386 199.472 234.122C199.107 234.858 198.925 235.647 198.925 236.489V237.841C198.925 238.994 199.124 239.972 199.521 240.774C199.926 241.57 200.486 242.176 201.202 242.594C201.918 243.005 202.75 243.21 203.698 243.21C204.314 243.21 204.871 243.124 205.368 242.952C205.872 242.773 206.306 242.508 206.671 242.156C207.035 241.798 207.317 241.354 207.516 240.824L209.783 241.46C209.544 242.229 209.143 242.905 208.58 243.489C208.016 244.065 207.32 244.516 206.492 244.841C205.663 245.159 204.732 245.318 203.698 245.318ZM225.615 229.727L219.967 245H217.581L211.933 229.727H214.479L218.694 241.898H218.854L223.069 229.727H225.615ZM232.742 245.358C231.774 245.358 230.896 245.176 230.107 244.811C229.318 244.44 228.691 243.906 228.227 243.21C227.763 242.508 227.531 241.659 227.531 240.665C227.531 239.79 227.704 239.08 228.048 238.537C228.393 237.987 228.854 237.556 229.431 237.244C230.007 236.933 230.644 236.701 231.34 236.548C232.042 236.389 232.748 236.263 233.458 236.17C234.386 236.051 235.138 235.962 235.715 235.902C236.298 235.836 236.722 235.726 236.987 235.574C237.259 235.421 237.395 235.156 237.395 234.778V234.699C237.395 233.718 237.127 232.955 236.59 232.412C236.059 231.868 235.254 231.597 234.173 231.597C233.053 231.597 232.175 231.842 231.539 232.332C230.902 232.823 230.455 233.347 230.196 233.903L227.969 233.108C228.367 232.18 228.897 231.457 229.56 230.94C230.229 230.417 230.959 230.052 231.747 229.847C232.543 229.634 233.325 229.528 234.094 229.528C234.584 229.528 235.148 229.588 235.784 229.707C236.427 229.82 237.047 230.055 237.644 230.413C238.247 230.771 238.747 231.312 239.145 232.034C239.543 232.757 239.742 233.724 239.742 234.938V245H237.395V242.932H237.276C237.117 243.263 236.852 243.618 236.48 243.996C236.109 244.374 235.615 244.695 234.999 244.96C234.382 245.225 233.63 245.358 232.742 245.358ZM233.1 243.25C234.028 243.25 234.81 243.068 235.446 242.703C236.089 242.339 236.573 241.868 236.898 241.291C237.229 240.714 237.395 240.108 237.395 239.472V237.324C237.296 237.443 237.077 237.553 236.739 237.652C236.407 237.745 236.023 237.828 235.585 237.901C235.155 237.967 234.734 238.027 234.323 238.08C233.918 238.126 233.59 238.166 233.338 238.199C232.728 238.278 232.158 238.408 231.628 238.587C231.104 238.759 230.68 239.021 230.355 239.372C230.037 239.717 229.878 240.187 229.878 240.784C229.878 241.599 230.18 242.216 230.783 242.634C231.393 243.045 232.165 243.25 233.1 243.25ZM246.371 224.636V245H244.025V224.636H246.371Z" fill="white"/>
<defs>
<clipPath id="clip0_91_754">
<rect width="150" height="150" fill="white" transform="translate(114.5 48)"/>
</clipPath>
</defs>
</svg>
