<svg width="379" height="300" viewBox="0 0 379 300" fill="none" xmlns="http://www.w3.org/2000/svg">
<rect x="1" y="1" width="377" height="298" rx="11" stroke="white" stroke-width="2"/>
<g clip-path="url(#clip0_91_965)">
<path d="M262.298 179.808C259.148 179.808 256.08 180.918 253.66 182.935C250.287 185.745 245.391 185.744 242.019 182.935C241.426 182.441 240.795 182.004 240.135 181.623C243.352 177.797 245.863 173.419 247.613 168.565C248.139 167.224 247.078 165.642 245.638 165.619L194.251 163.387V154.007L219.841 154.881C221.054 154.931 222.075 153.971 222.117 152.756C222.158 151.541 221.207 150.522 219.992 150.48L194.251 149.602V67.3215L240.379 151.176L228.792 150.781C227.581 150.741 226.558 151.691 226.517 152.906C226.475 154.121 227.427 155.14 228.642 155.181L244.099 155.709C245.75 155.818 246.948 153.873 246.104 152.447L193.988 57.7081C193.409 56.5784 191.841 56.1969 190.807 56.9337C190.271 57.2999 177.526 66.1177 163.521 85.0567C162.798 86.0343 163.005 87.4127 163.982 88.1358C164.96 88.8591 166.339 88.6523 167.062 87.6747C175.104 76.7991 182.81 69.3046 187.764 64.9971C179.955 90.8402 177.622 112.085 177.084 125.775C176.638 137.119 177.299 145.057 177.762 148.938L138.988 147.25C143.874 128.408 151.517 110.958 161.727 95.3443C162.392 94.3265 162.107 92.9624 161.089 92.2968C160.071 91.6315 158.707 91.9166 158.041 92.9346C147.089 109.684 139.019 128.483 134.055 148.81C133.704 150.111 134.751 151.506 136.098 151.532L189.848 153.843V163.196L159.456 161.875C158.237 161.817 157.214 162.765 157.161 163.98C157.108 165.194 158.05 166.222 159.265 166.275L242.337 169.883C240.653 173.64 238.42 177.031 235.684 180.011C234.862 179.868 234.024 179.799 233.179 179.81C229.956 179.764 226.817 180.871 224.339 182.935C220.967 185.745 216.071 185.744 212.699 182.935C210.278 180.918 207.21 179.808 204.06 179.808C200.909 179.808 197.841 180.918 195.421 182.935C192.049 185.745 187.153 185.744 183.781 182.935C181.303 180.871 178.162 179.769 174.941 179.81C171.718 179.764 168.578 180.871 166.101 182.935C162.728 185.745 157.832 185.744 154.46 182.935C154.062 182.603 153.644 182.298 153.213 182.016C153.208 182.012 153.206 182.008 153.2 182.004C145.71 176.787 141.2 171.673 138.736 168.302C137.91 167.173 137.253 166.159 136.738 165.296L150.483 165.893C151.697 165.949 152.725 165.004 152.778 163.789C152.831 162.574 151.889 161.547 150.674 161.494L133.175 160.734C131.663 160.626 130.456 162.261 131.006 163.673C131.138 164.043 133.844 171.355 143.548 180.003C141.218 180.402 139.015 181.408 137.183 182.934C133.81 185.744 128.914 185.744 125.542 182.934C123.054 180.862 119.894 179.749 116.663 179.81C115.447 179.831 114.479 180.834 114.501 182.05C114.522 183.266 115.528 184.229 116.741 184.213C118.932 184.168 121.048 184.922 122.723 186.318C127.729 190.488 134.995 190.488 140.001 186.318C141.632 184.959 143.699 184.211 145.821 184.211C147.944 184.211 150.011 184.959 151.641 186.318C156.647 190.488 163.914 190.488 168.919 186.318C170.595 184.922 172.712 184.177 174.901 184.213C174.927 184.213 174.954 184.213 174.979 184.213C177.167 184.165 179.286 184.921 180.962 186.318C185.967 190.488 193.234 190.488 198.239 186.318C199.87 184.959 201.937 184.211 204.06 184.211C206.182 184.211 208.249 184.959 209.88 186.318C214.885 190.487 222.152 190.488 227.157 186.318C228.833 184.922 230.951 184.177 233.14 184.213C233.166 184.213 233.192 184.213 233.218 184.213C235.402 184.168 237.524 184.921 239.2 186.318C241.703 188.403 244.771 189.445 247.839 189.445C250.907 189.445 253.975 188.403 256.477 186.318C258.108 184.959 260.175 184.211 262.298 184.211C263.514 184.211 264.499 183.225 264.499 182.009C264.5 180.793 263.514 179.808 262.298 179.808ZM189.848 149.436L182.227 149.127C181.798 145.76 181.014 137.623 181.491 125.772C181.976 113.715 183.891 95.6633 189.848 73.7141V149.436Z" fill="white"/>
</g>
<path d="M159.598 229.727C159.479 228.72 158.995 227.938 158.147 227.381C157.298 226.824 156.257 226.545 155.025 226.545C154.123 226.545 153.334 226.691 152.658 226.983C151.989 227.275 151.465 227.676 151.087 228.186C150.716 228.696 150.53 229.277 150.53 229.926C150.53 230.47 150.659 230.937 150.918 231.328C151.183 231.713 151.521 232.034 151.932 232.293C152.343 232.545 152.774 232.753 153.225 232.919C153.676 233.078 154.09 233.207 154.468 233.307L156.536 233.864C157.066 234.003 157.656 234.195 158.306 234.44C158.962 234.686 159.588 235.02 160.185 235.445C160.788 235.862 161.285 236.399 161.676 237.055C162.068 237.712 162.263 238.517 162.263 239.472C162.263 240.572 161.975 241.566 161.398 242.455C160.828 243.343 159.993 244.049 158.892 244.572C157.799 245.096 156.47 245.358 154.905 245.358C153.447 245.358 152.184 245.123 151.117 244.652C150.056 244.181 149.221 243.525 148.611 242.683C148.008 241.841 147.667 240.864 147.587 239.75H150.132C150.199 240.519 150.457 241.155 150.908 241.659C151.365 242.156 151.942 242.527 152.638 242.773C153.341 243.011 154.096 243.131 154.905 243.131C155.846 243.131 156.692 242.978 157.441 242.673C158.19 242.362 158.783 241.931 159.221 241.381C159.658 240.824 159.877 240.174 159.877 239.432C159.877 238.756 159.688 238.205 159.31 237.781C158.932 237.357 158.435 237.012 157.819 236.747C157.202 236.482 156.536 236.25 155.82 236.051L153.314 235.335C151.723 234.878 150.464 234.225 149.536 233.376C148.608 232.528 148.144 231.418 148.144 230.045C148.144 228.905 148.452 227.911 149.069 227.062C149.692 226.207 150.527 225.545 151.574 225.074C152.628 224.597 153.805 224.358 155.104 224.358C156.417 224.358 157.583 224.593 158.604 225.064C159.625 225.528 160.434 226.164 161.03 226.973C161.633 227.782 161.952 228.7 161.985 229.727H159.598ZM170.494 245.358C169.526 245.358 168.647 245.176 167.859 244.811C167.07 244.44 166.443 243.906 165.979 243.21C165.515 242.508 165.283 241.659 165.283 240.665C165.283 239.79 165.456 239.08 165.8 238.537C166.145 237.987 166.606 237.556 167.183 237.244C167.759 236.933 168.396 236.701 169.092 236.548C169.794 236.389 170.5 236.263 171.21 236.17C172.138 236.051 172.89 235.962 173.467 235.902C174.05 235.836 174.474 235.726 174.739 235.574C175.011 235.421 175.147 235.156 175.147 234.778V234.699C175.147 233.718 174.879 232.955 174.342 232.412C173.811 231.868 173.006 231.597 171.925 231.597C170.805 231.597 169.927 231.842 169.29 232.332C168.654 232.823 168.207 233.347 167.948 233.903L165.721 233.108C166.119 232.18 166.649 231.457 167.312 230.94C167.981 230.417 168.71 230.052 169.499 229.847C170.295 229.634 171.077 229.528 171.846 229.528C172.336 229.528 172.9 229.588 173.536 229.707C174.179 229.82 174.799 230.055 175.396 230.413C175.999 230.771 176.499 231.312 176.897 232.034C177.295 232.757 177.494 233.724 177.494 234.938V245H175.147V242.932H175.028C174.869 243.263 174.603 243.618 174.232 243.996C173.861 244.374 173.367 244.695 172.751 244.96C172.134 245.225 171.382 245.358 170.494 245.358ZM170.852 243.25C171.78 243.25 172.562 243.068 173.198 242.703C173.841 242.339 174.325 241.868 174.65 241.291C174.981 240.714 175.147 240.108 175.147 239.472V237.324C175.048 237.443 174.829 237.553 174.491 237.652C174.159 237.745 173.775 237.828 173.337 237.901C172.906 237.967 172.486 238.027 172.075 238.08C171.67 238.126 171.342 238.166 171.09 238.199C170.48 238.278 169.91 238.408 169.38 238.587C168.856 238.759 168.432 239.021 168.107 239.372C167.789 239.717 167.63 240.187 167.63 240.784C167.63 241.599 167.932 242.216 168.535 242.634C169.145 243.045 169.917 243.25 170.852 243.25ZM181.777 245V229.727H184.123V245H181.777ZM182.97 227.182C182.512 227.182 182.118 227.026 181.787 226.714C181.462 226.403 181.299 226.028 181.299 225.591C181.299 225.153 181.462 224.779 181.787 224.467C182.118 224.156 182.512 224 182.97 224C183.427 224 183.818 224.156 184.143 224.467C184.475 224.779 184.64 225.153 184.64 225.591C184.64 226.028 184.475 226.403 184.143 226.714C183.818 227.026 183.427 227.182 182.97 227.182ZM190.768 224.636V245H188.421V224.636H190.768ZM195.066 245V229.727H197.412V245H195.066ZM196.259 227.182C195.801 227.182 195.407 227.026 195.076 226.714C194.751 226.403 194.588 226.028 194.588 225.591C194.588 225.153 194.751 224.779 195.076 224.467C195.407 224.156 195.801 224 196.259 224C196.716 224 197.107 224.156 197.432 224.467C197.764 224.779 197.929 225.153 197.929 225.591C197.929 226.028 197.764 226.403 197.432 226.714C197.107 227.026 196.716 227.182 196.259 227.182ZM204.057 235.812V245H201.71V229.727H203.977V232.114H204.176C204.534 231.338 205.078 230.715 205.807 230.244C206.536 229.767 207.477 229.528 208.631 229.528C209.665 229.528 210.57 229.741 211.345 230.165C212.121 230.582 212.724 231.219 213.155 232.074C213.586 232.922 213.801 233.996 213.801 235.295V245H211.455V235.455C211.455 234.255 211.143 233.32 210.52 232.651C209.897 231.974 209.042 231.636 207.955 231.636C207.205 231.636 206.536 231.799 205.946 232.124C205.363 232.448 204.902 232.922 204.564 233.545C204.226 234.169 204.057 234.924 204.057 235.812ZM224.254 251.045C223.12 251.045 222.146 250.9 221.331 250.608C220.515 250.323 219.836 249.945 219.292 249.474C218.755 249.01 218.328 248.513 218.01 247.983L219.879 246.67C220.091 246.949 220.359 247.267 220.684 247.625C221.009 247.99 221.453 248.304 222.017 248.57C222.587 248.841 223.333 248.977 224.254 248.977C225.487 248.977 226.504 248.679 227.306 248.082C228.109 247.486 228.51 246.551 228.51 245.278V242.176H228.311C228.138 242.455 227.893 242.799 227.575 243.21C227.263 243.615 226.813 243.976 226.223 244.294C225.639 244.606 224.85 244.761 223.856 244.761C222.623 244.761 221.516 244.47 220.535 243.886C219.561 243.303 218.788 242.455 218.218 241.341C217.655 240.227 217.373 238.875 217.373 237.284C217.373 235.72 217.648 234.357 218.199 233.197C218.749 232.031 219.514 231.129 220.495 230.493C221.476 229.85 222.61 229.528 223.896 229.528C224.89 229.528 225.679 229.694 226.262 230.026C226.852 230.35 227.303 230.722 227.615 231.139C227.933 231.55 228.178 231.888 228.35 232.153H228.589V229.727H230.856V245.438C230.856 246.75 230.558 247.817 229.961 248.639C229.371 249.468 228.576 250.074 227.575 250.459C226.581 250.85 225.474 251.045 224.254 251.045ZM224.174 242.653C225.116 242.653 225.911 242.438 226.561 242.007C227.21 241.576 227.704 240.956 228.042 240.148C228.38 239.339 228.549 238.371 228.549 237.244C228.549 236.144 228.384 235.173 228.052 234.331C227.721 233.489 227.23 232.83 226.581 232.352C225.931 231.875 225.129 231.636 224.174 231.636C223.18 231.636 222.351 231.888 221.689 232.392C221.032 232.896 220.538 233.572 220.207 234.42C219.882 235.269 219.72 236.21 219.72 237.244C219.72 238.305 219.886 239.243 220.217 240.058C220.555 240.867 221.052 241.503 221.708 241.967C222.371 242.425 223.193 242.653 224.174 242.653Z" fill="white"/>
<defs>
<clipPath id="clip0_91_965">
<rect width="150" height="150" fill="white" transform="translate(114.5 48)"/>
</clipPath>
</defs>
</svg>
