<svg width="379" height="300" viewBox="0 0 379 300" fill="none" xmlns="http://www.w3.org/2000/svg">
<rect x="1" y="1" width="377" height="298" rx="11" stroke="white" stroke-width="2"/>
<g clip-path="url(#clip0_91_1044)">
<path d="M262.303 144.288C255.823 144.288 252.543 145.557 249.371 146.784C246.446 147.915 243.683 148.984 238.024 148.984C232.365 148.984 229.602 147.916 226.677 146.784C223.505 145.557 220.225 144.288 213.745 144.288C207.269 144.288 203.991 145.557 200.821 146.784C197.899 147.916 195.138 148.984 189.483 148.984C183.826 148.984 181.065 147.916 178.142 146.784C174.971 145.557 171.692 144.288 165.214 144.288C158.738 144.288 155.46 145.557 152.29 146.784C149.367 147.916 146.607 148.984 140.952 148.984C135.299 148.984 132.54 147.916 129.618 146.784C126.449 145.557 123.172 144.288 116.697 144.288C115.484 144.288 114.5 145.271 114.5 146.485C114.5 147.698 115.484 148.682 116.697 148.682C122.35 148.682 125.11 149.751 128.031 150.882C131.201 152.11 134.478 153.379 140.952 153.379C147.428 153.379 150.706 152.11 153.876 150.882C156.799 149.751 159.559 148.682 165.214 148.682C170.871 148.682 173.632 149.751 176.555 150.882C179.726 152.11 183.005 153.379 189.483 153.379C195.959 153.379 199.237 152.11 202.408 150.882C205.33 149.751 208.09 148.682 213.745 148.682C219.404 148.682 222.167 149.751 225.092 150.883C228.264 152.11 231.544 153.379 238.024 153.379C244.504 153.379 247.784 152.11 250.956 150.883C253.881 149.751 256.643 148.682 262.303 148.682C263.516 148.682 264.5 147.698 264.5 146.485C264.5 145.271 263.516 144.288 262.303 144.288Z" fill="white"/>
<path d="M252.611 157.283C252.174 156.151 250.902 155.587 249.77 156.024L249.37 156.178C248.047 156.69 246.797 157.174 245.311 157.56C244.136 157.865 243.431 159.064 243.736 160.239C243.993 161.228 244.885 161.884 245.861 161.884C246.044 161.884 246.23 161.861 246.415 161.813C248.147 161.363 249.575 160.811 250.955 160.276L251.351 160.124C252.483 159.687 253.047 158.415 252.611 157.283Z" fill="white"/>
<path d="M236.549 158.353C231.861 158.183 229.343 157.209 226.677 156.178C223.505 154.951 220.225 153.681 213.745 153.681C207.269 153.681 203.991 154.951 200.821 156.178C197.899 157.31 195.138 158.378 189.483 158.378C183.826 158.378 181.065 157.31 178.142 156.178C174.971 154.951 171.692 153.681 165.214 153.681C158.738 153.681 155.46 154.951 152.29 156.178C149.63 157.208 147.119 158.18 142.45 158.351C141.237 158.396 140.29 159.415 140.335 160.628C140.379 161.841 141.399 162.785 142.611 162.743C148.017 162.545 150.996 161.391 153.877 160.276C156.799 159.144 159.559 158.076 165.214 158.076C170.871 158.076 173.632 159.144 176.555 160.276C179.727 161.503 183.006 162.773 189.484 162.773C195.96 162.773 199.238 161.503 202.408 160.276C205.33 159.145 208.091 158.076 213.746 158.076C219.405 158.076 222.167 159.145 225.092 160.276C227.979 161.394 230.964 162.549 236.391 162.744C237.596 162.788 238.622 161.841 238.665 160.628C238.709 159.415 237.761 158.396 236.549 158.353Z" fill="white"/>
<path d="M213.745 163.076C207.269 163.076 203.991 164.345 200.821 165.572C197.899 166.704 195.138 167.773 189.483 167.773C183.826 167.773 181.065 166.704 178.142 165.572C174.971 164.345 171.692 163.076 165.214 163.076C164 163.076 163.017 164.059 163.017 165.273C163.017 166.486 164 167.47 165.214 167.47C170.871 167.47 173.632 168.539 176.555 169.67C179.727 170.898 183.005 172.167 189.483 172.167C195.959 172.167 199.237 170.898 202.408 169.67C205.33 168.539 208.09 167.47 213.745 167.47C214.959 167.47 215.942 166.486 215.942 165.273C215.942 164.059 214.959 163.076 213.745 163.076Z" fill="white"/>
<path d="M133.693 157.565C132.197 157.177 130.943 156.691 129.616 156.177C128.485 155.739 127.212 156.301 126.774 157.432C126.335 158.564 126.897 159.837 128.029 160.275C129.414 160.812 130.847 161.367 132.59 161.819C132.775 161.867 132.96 161.89 133.143 161.89C134.12 161.89 135.012 161.233 135.268 160.243C135.573 159.068 134.867 157.869 133.693 157.565Z" fill="white"/>
<path d="M218.294 114.705C211.729 105.288 200.965 99.666 189.5 99.666C170.159 99.666 154.424 115.401 154.424 134.742C154.424 135.577 154.454 136.419 154.512 137.245C154.594 138.403 155.559 139.288 156.702 139.288C156.754 139.288 156.806 139.286 156.859 139.282C158.069 139.197 158.981 138.146 158.896 136.936C158.845 136.212 158.819 135.474 158.819 134.742C158.819 117.824 172.582 104.061 189.5 104.061C199.529 104.061 208.945 108.979 214.688 117.218C215.382 118.213 216.752 118.458 217.747 117.764C218.743 117.07 218.987 115.7 218.294 114.705Z" fill="white"/>
<path d="M144.879 132.545H130.788C129.575 132.545 128.591 133.529 128.591 134.743C128.591 135.956 129.575 136.94 130.788 136.94H144.879C146.093 136.94 147.076 135.956 147.076 134.743C147.076 133.529 146.093 132.545 144.879 132.545Z" fill="white"/>
<path d="M189.5 73.833C188.287 73.833 187.303 74.8168 187.303 76.0303V90.1212C187.303 91.335 188.287 92.3185 189.5 92.3185C190.713 92.3185 191.697 91.3347 191.697 90.1212V76.0303C191.697 74.8168 190.713 73.833 189.5 73.833Z" fill="white"/>
<path d="M232.569 91.6734C231.711 90.8153 230.32 90.8153 229.462 91.6734L219.498 101.637C218.64 102.495 218.64 103.887 219.498 104.744C219.927 105.173 220.489 105.388 221.052 105.388C221.614 105.388 222.177 105.174 222.605 104.744L232.569 94.7806C233.427 93.9225 233.427 92.5312 232.569 91.6734Z" fill="white"/>
<path d="M174.454 92.6773L172.657 88.3378C172.193 87.2166 170.907 86.6846 169.786 87.1487C168.665 87.613 168.133 88.8986 168.597 90.0195L170.394 94.3589C170.745 95.205 171.563 95.7159 172.425 95.7159C172.706 95.7159 172.99 95.662 173.265 95.5481C174.386 95.0837 174.919 93.7982 174.454 92.6773Z" fill="white"/>
<path d="M237.094 115.029C236.63 113.908 235.344 113.375 234.223 113.84L229.884 115.637C228.762 116.101 228.23 117.387 228.695 118.508C229.045 119.354 229.863 119.865 230.725 119.865C231.006 119.865 231.291 119.811 231.565 119.697L235.905 117.9C237.026 117.435 237.558 116.15 237.094 115.029Z" fill="white"/>
<path d="M209.214 87.1483C208.093 86.6839 206.807 87.2163 206.343 88.3375L204.546 92.6769C204.081 93.7978 204.614 95.0831 205.735 95.5477C206.01 95.6617 206.295 95.7156 206.575 95.7156C207.437 95.7156 208.255 95.2046 208.606 94.3585L210.403 90.0191C210.867 88.8979 210.335 87.6126 209.214 87.1483Z" fill="white"/>
<path d="M149.116 115.637L144.777 113.839C143.655 113.375 142.37 113.907 141.906 115.028C141.442 116.15 141.974 117.435 143.095 117.899L147.435 119.697C147.71 119.81 147.995 119.864 148.275 119.864C149.137 119.864 149.955 119.353 150.305 118.507C150.77 117.386 150.237 116.101 149.116 115.637Z" fill="white"/>
<path d="M148.737 87.9243C145.491 87.9243 142.358 89.006 139.775 90.9949C138.599 90.6267 137.387 90.4403 136.156 90.4403C129.395 90.4403 123.894 95.9411 123.894 102.703C123.894 103.916 124.878 104.9 126.091 104.9H161.318C162.532 104.9 163.515 103.916 163.515 102.703C163.515 94.5539 156.886 87.9243 148.737 87.9243ZM128.601 100.505C129.554 97.2328 132.58 94.8349 136.156 94.8349C137.238 94.8349 138.304 95.0628 139.322 95.5125C140.124 95.8667 141.061 95.71 141.704 95.1135C143.647 93.3111 146.145 92.3186 148.737 92.3186C153.709 92.3186 157.876 95.8313 158.887 100.505H128.601Z" fill="white"/>
<path d="M226.405 124.829C225.174 124.829 223.962 125.015 222.785 125.383C220.203 123.394 217.069 122.312 213.824 122.312C205.675 122.312 199.045 128.942 199.045 137.091C199.045 138.304 200.029 139.288 201.242 139.288H236.47C237.683 139.288 238.667 138.304 238.667 137.091C238.667 130.329 233.166 124.829 226.405 124.829ZM203.674 134.893C204.685 130.22 208.852 126.707 213.824 126.707C216.416 126.707 218.913 127.7 220.857 129.502C221.501 130.098 222.436 130.255 223.239 129.901C224.257 129.451 225.322 129.223 226.405 129.223C229.981 129.223 233.007 131.621 233.96 134.893H203.674Z" fill="white"/>
</g>
<path d="M157.301 229.727C157.182 228.72 156.698 227.938 155.85 227.381C155.001 226.824 153.961 226.545 152.728 226.545C151.826 226.545 151.037 226.691 150.361 226.983C149.692 227.275 149.168 227.676 148.79 228.186C148.419 228.696 148.233 229.277 148.233 229.926C148.233 230.47 148.363 230.937 148.621 231.328C148.886 231.713 149.224 232.034 149.635 232.293C150.046 232.545 150.477 232.753 150.928 232.919C151.379 233.078 151.793 233.207 152.171 233.307L154.239 233.864C154.769 234.003 155.359 234.195 156.009 234.44C156.665 234.686 157.292 235.02 157.888 235.445C158.491 235.862 158.989 236.399 159.38 237.055C159.771 237.712 159.966 238.517 159.966 239.472C159.966 240.572 159.678 241.566 159.101 242.455C158.531 243.343 157.696 244.049 156.596 244.572C155.502 245.096 154.173 245.358 152.608 245.358C151.15 245.358 149.887 245.123 148.82 244.652C147.759 244.181 146.924 243.525 146.314 242.683C145.711 241.841 145.37 240.864 145.29 239.75H147.836C147.902 240.519 148.16 241.155 148.611 241.659C149.069 242.156 149.645 242.527 150.341 242.773C151.044 243.011 151.8 243.131 152.608 243.131C153.55 243.131 154.395 242.978 155.144 242.673C155.893 242.362 156.486 241.931 156.924 241.381C157.361 240.824 157.58 240.174 157.58 239.432C157.58 238.756 157.391 238.205 157.013 237.781C156.635 237.357 156.138 237.012 155.522 236.747C154.905 236.482 154.239 236.25 153.523 236.051L151.017 235.335C149.426 234.878 148.167 234.225 147.239 233.376C146.311 232.528 145.847 231.418 145.847 230.045C145.847 228.905 146.155 227.911 146.772 227.062C147.395 226.207 148.23 225.545 149.277 225.074C150.331 224.597 151.508 224.358 152.807 224.358C154.12 224.358 155.286 224.593 156.307 225.064C157.328 225.528 158.137 226.164 158.733 226.973C159.337 227.782 159.655 228.7 159.688 229.727H157.301ZM173.327 238.756V229.727H175.674V245H173.327V242.415H173.168C172.81 243.19 172.254 243.85 171.498 244.393C170.742 244.93 169.788 245.199 168.634 245.199C167.68 245.199 166.831 244.99 166.089 244.572C165.346 244.148 164.763 243.512 164.339 242.663C163.915 241.808 163.702 240.731 163.702 239.432V229.727H166.049V239.273C166.049 240.386 166.361 241.275 166.984 241.938C167.613 242.6 168.415 242.932 169.39 242.932C169.973 242.932 170.567 242.783 171.17 242.484C171.78 242.186 172.29 241.729 172.701 241.112C173.119 240.496 173.327 239.71 173.327 238.756ZM182.319 235.812V245H179.972V229.727H182.239V232.114H182.438C182.796 231.338 183.339 230.715 184.069 230.244C184.798 229.767 185.739 229.528 186.892 229.528C187.926 229.528 188.831 229.741 189.607 230.165C190.382 230.582 190.986 231.219 191.417 232.074C191.847 232.922 192.063 233.996 192.063 235.295V245H189.716V235.455C189.716 234.255 189.405 233.32 188.782 232.651C188.158 231.974 187.303 231.636 186.216 231.636C185.467 231.636 184.798 231.799 184.208 232.124C183.624 232.448 183.164 232.922 182.826 233.545C182.488 234.169 182.319 234.924 182.319 235.812ZM207.169 233.148L205.061 233.744C204.929 233.393 204.733 233.052 204.474 232.72C204.223 232.382 203.878 232.104 203.44 231.885C203.003 231.666 202.443 231.557 201.76 231.557C200.825 231.557 200.046 231.772 199.423 232.203C198.807 232.627 198.499 233.168 198.499 233.824C198.499 234.407 198.711 234.868 199.135 235.206C199.559 235.544 200.222 235.826 201.124 236.051L203.391 236.608C204.756 236.939 205.774 237.446 206.443 238.129C207.113 238.805 207.447 239.677 207.447 240.744C207.447 241.619 207.196 242.402 206.692 243.091C206.195 243.78 205.499 244.324 204.604 244.722C203.709 245.119 202.668 245.318 201.482 245.318C199.924 245.318 198.634 244.98 197.614 244.304C196.593 243.628 195.946 242.64 195.675 241.341L197.902 240.784C198.114 241.606 198.515 242.223 199.105 242.634C199.702 243.045 200.481 243.25 201.442 243.25C202.536 243.25 203.404 243.018 204.047 242.554C204.696 242.083 205.021 241.52 205.021 240.864C205.021 240.333 204.836 239.889 204.464 239.531C204.093 239.167 203.523 238.895 202.754 238.716L200.209 238.119C198.81 237.788 197.783 237.274 197.126 236.578C196.477 235.875 196.152 234.997 196.152 233.943C196.152 233.081 196.394 232.319 196.878 231.656C197.368 230.993 198.035 230.473 198.876 230.095C199.725 229.717 200.686 229.528 201.76 229.528C203.271 229.528 204.458 229.86 205.32 230.523C206.188 231.186 206.804 232.061 207.169 233.148ZM217.383 245.318C215.912 245.318 214.642 244.993 213.575 244.344C212.514 243.688 211.696 242.773 211.119 241.599C210.549 240.42 210.264 239.047 210.264 237.483C210.264 235.919 210.549 234.54 211.119 233.347C211.696 232.147 212.498 231.212 213.525 230.543C214.559 229.866 215.766 229.528 217.145 229.528C217.94 229.528 218.725 229.661 219.501 229.926C220.277 230.191 220.983 230.622 221.619 231.219C222.255 231.809 222.762 232.591 223.14 233.565C223.518 234.54 223.707 235.74 223.707 237.165V238.159H211.934V236.131H221.321C221.321 235.269 221.148 234.5 220.804 233.824C220.466 233.148 219.982 232.614 219.352 232.223C218.729 231.832 217.993 231.636 217.145 231.636C216.21 231.636 215.401 231.868 214.718 232.332C214.042 232.79 213.522 233.386 213.157 234.122C212.793 234.858 212.61 235.647 212.61 236.489V237.841C212.61 238.994 212.809 239.972 213.207 240.774C213.611 241.57 214.172 242.176 214.887 242.594C215.603 243.005 216.435 243.21 217.383 243.21C218 243.21 218.556 243.124 219.054 242.952C219.557 242.773 219.992 242.508 220.356 242.156C220.721 241.798 221.002 241.354 221.201 240.824L223.468 241.46C223.23 242.229 222.829 242.905 222.265 243.489C221.702 244.065 221.006 244.516 220.177 244.841C219.349 245.159 218.417 245.318 217.383 245.318ZM233.919 229.727V231.716H226.004V229.727H233.919ZM228.311 226.068H230.657V240.625C230.657 241.288 230.753 241.785 230.946 242.116C231.145 242.441 231.396 242.66 231.701 242.773C232.013 242.879 232.341 242.932 232.686 242.932C232.944 242.932 233.156 242.919 233.322 242.892C233.488 242.859 233.62 242.832 233.72 242.812L234.197 244.92C234.038 244.98 233.816 245.04 233.531 245.099C233.246 245.166 232.885 245.199 232.447 245.199C231.784 245.199 231.135 245.056 230.498 244.771C229.868 244.486 229.345 244.052 228.927 243.469C228.516 242.885 228.311 242.15 228.311 241.261V226.068Z" fill="white"/>
<defs>
<clipPath id="clip0_91_1044">
<rect width="150" height="150" fill="white" transform="translate(114.5 48)"/>
</clipPath>
</defs>
</svg>
