<svg width="379" height="300" viewBox="0 0 379 300" fill="none" xmlns="http://www.w3.org/2000/svg">
<rect x="1" y="1" width="377" height="298" rx="11" stroke="white" stroke-width="2"/>
<path d="M153.845 141.246C153.845 146.492 158.113 150.76 163.36 150.76C168.606 150.76 172.874 146.492 172.874 141.246C172.874 135.999 168.606 131.731 163.36 131.731C158.113 131.731 153.845 135.999 153.845 141.246ZM163.36 136.134C166.179 136.134 168.472 138.427 168.472 141.246C168.472 144.065 166.179 146.358 163.36 146.358C160.541 146.358 158.248 144.065 158.248 141.246C158.248 138.427 160.541 136.134 163.36 136.134Z" fill="white"/>
<path d="M215.633 150.76C220.879 150.76 225.148 146.492 225.148 141.246C225.148 135.999 220.879 131.731 215.633 131.731C210.387 131.731 206.119 135.999 206.119 141.246C206.119 146.492 210.387 150.76 215.633 150.76ZM215.633 136.134C218.452 136.134 220.745 138.427 220.745 141.246C220.745 144.065 218.452 146.358 215.633 146.358C212.814 146.358 210.521 144.065 210.521 141.246C210.521 138.427 212.814 136.134 215.633 136.134Z" fill="white"/>
<path d="M233.938 183.499C233.27 182.483 231.905 182.201 230.889 182.869C229.874 183.537 229.592 184.902 230.26 185.918L235.309 193.598H228.558L213.169 170.026C215.106 169.693 216.997 169.186 218.823 168.523L224.555 177.24C225.222 178.256 226.587 178.538 227.603 177.87C228.619 177.202 228.901 175.838 228.233 174.822L222.905 166.718C228.52 163.767 233.266 159.208 236.433 153.451C241.52 144.204 243.484 133.785 242.114 123.32L234.015 61.4912C233.008 53.7999 226.399 48 218.642 48H160.35C152.593 48 145.984 53.7999 144.977 61.4909L136.879 123.32C136.606 125.403 136.466 127.524 136.462 129.623C136.46 130.839 137.444 131.826 138.659 131.828H138.663C139.877 131.828 140.862 130.845 140.865 129.631C140.868 127.72 140.996 125.789 141.244 123.892L142.466 114.559C142.999 115.358 143.59 116.16 144.247 116.965C146.877 120.187 150.896 122.977 155.272 124.62C155.527 124.716 155.788 124.761 156.046 124.761C156.937 124.761 157.775 124.216 158.107 123.333C158.534 122.195 157.958 120.926 156.819 120.499C153.15 119.121 149.81 116.818 147.657 114.181C145.29 111.281 143.924 108.53 143.588 105.999L149.342 62.0622C150.063 56.555 154.796 52.4019 160.35 52.4019H218.642C224.197 52.4019 228.929 56.555 229.65 62.0622L235.405 105.998C235.069 108.53 233.703 111.281 231.335 114.18C229.183 116.818 225.843 119.121 222.174 120.498C221.035 120.925 220.459 122.195 220.886 123.333C221.218 124.216 222.056 124.761 222.947 124.761C223.204 124.761 223.466 124.715 223.72 124.62C228.097 122.977 232.116 120.187 234.746 116.965C235.403 116.16 235.994 115.358 236.526 114.559L237.749 123.892C238.997 133.421 237.208 142.908 232.576 151.329C227.565 160.439 217.993 166.098 207.595 166.098H171.399C161.001 166.098 151.428 160.439 146.417 151.328C144.336 147.546 142.815 143.49 141.895 139.272C141.636 138.084 140.464 137.331 139.275 137.59C138.087 137.849 137.334 139.022 137.593 140.21C138.603 144.842 140.274 149.297 142.559 153.451C145.726 159.207 150.472 163.767 156.087 166.718L139.156 192.471C138.435 193.569 138.373 194.969 138.997 196.125C139.621 197.281 140.824 198 142.138 198H150.886C152.096 198 153.213 197.395 153.874 196.382L157.776 190.407H221.217L225.118 196.382C225.78 197.395 226.897 198 228.107 198H236.855C238.169 198 239.372 197.282 239.996 196.125C240.619 194.969 240.558 193.569 239.836 192.471L233.938 183.499ZM170.778 170.491C170.985 170.494 171.191 170.501 171.399 170.501H207.594C207.801 170.501 208.007 170.494 208.214 170.491L211.937 176.194H167.055L170.778 170.491ZM150.435 193.598H143.684L160.17 168.523C161.996 169.186 163.887 169.693 165.824 170.026L150.435 193.598ZM160.65 186.004L164.181 180.596H214.812L218.343 186.004H160.65Z" fill="white"/>
<path d="M216.053 61.5911C217.269 61.5911 218.254 60.6056 218.254 59.39C218.254 58.1745 217.269 57.189 216.053 57.189H162.939C161.724 57.189 160.738 58.1745 160.738 59.39C160.738 60.6056 161.724 61.5911 162.939 61.5911H216.053Z" fill="white"/>
<path d="M153.621 71.5745L151.036 96.2832C150.827 98.2777 151.92 100.164 153.756 100.977C157.149 102.481 164.814 105.305 178.012 107.319C181.822 107.9 185.659 108.191 189.496 108.191C193.333 108.191 197.171 107.9 200.981 107.319C214.179 105.305 221.843 102.481 225.237 100.977C227.073 100.164 228.166 98.2777 227.957 96.2835L225.372 71.5748C225.126 69.2211 223.156 67.4463 220.79 67.4463H158.203C155.837 67.446 153.867 69.2208 153.621 71.5745ZM191.698 71.8484H220.789C220.895 71.8484 220.982 71.9275 220.994 72.0324L223.578 96.7417C223.587 96.8305 223.537 96.9151 223.453 96.9523C220.883 98.0914 213.483 100.958 200.317 102.967C197.456 103.403 194.578 103.663 191.698 103.752V71.8484ZM187.295 103.752C184.414 103.663 181.537 103.403 178.676 102.967C165.51 100.958 158.11 98.0914 155.539 96.9523C155.455 96.9151 155.405 96.8305 155.414 96.7414L157.999 72.0324C158.01 71.9275 158.098 71.8484 158.203 71.8484H187.295L187.295 103.752Z" fill="white"/>
<path d="M158.053 226.824V224.636H173.326V226.824H166.923V245H164.457V226.824H158.053ZM175.228 245V229.727H177.495V232.034H177.654C177.932 231.278 178.436 230.665 179.165 230.195C179.894 229.724 180.716 229.489 181.631 229.489C181.804 229.489 182.019 229.492 182.278 229.499C182.536 229.505 182.732 229.515 182.864 229.528V231.915C182.785 231.895 182.602 231.865 182.317 231.825C182.039 231.779 181.744 231.756 181.432 231.756C180.69 231.756 180.027 231.911 179.444 232.223C178.867 232.528 178.41 232.952 178.072 233.496C177.74 234.033 177.574 234.646 177.574 235.335V245H175.228ZM190.14 245.358C189.172 245.358 188.294 245.176 187.505 244.811C186.716 244.44 186.09 243.906 185.626 243.21C185.162 242.508 184.93 241.659 184.93 240.665C184.93 239.79 185.102 239.08 185.447 238.537C185.792 237.987 186.252 237.556 186.829 237.244C187.406 236.933 188.042 236.701 188.738 236.548C189.441 236.389 190.147 236.263 190.856 236.17C191.784 236.051 192.536 235.962 193.113 235.902C193.696 235.836 194.121 235.726 194.386 235.574C194.658 235.421 194.794 235.156 194.794 234.778V234.699C194.794 233.718 194.525 232.955 193.988 232.412C193.458 231.868 192.652 231.597 191.572 231.597C190.452 231.597 189.573 231.842 188.937 232.332C188.301 232.823 187.853 233.347 187.595 233.903L185.367 233.108C185.765 232.18 186.295 231.457 186.958 230.94C187.628 230.417 188.357 230.052 189.146 229.847C189.941 229.634 190.723 229.528 191.492 229.528C191.983 229.528 192.546 229.588 193.183 229.707C193.826 229.82 194.445 230.055 195.042 230.413C195.645 230.771 196.146 231.312 196.544 232.034C196.941 232.757 197.14 233.724 197.14 234.938V245H194.794V242.932H194.674C194.515 243.263 194.25 243.618 193.879 243.996C193.508 244.374 193.014 244.695 192.397 244.96C191.781 245.225 191.028 245.358 190.14 245.358ZM190.498 243.25C191.426 243.25 192.208 243.068 192.845 242.703C193.488 242.339 193.972 241.868 194.296 241.291C194.628 240.714 194.794 240.108 194.794 239.472V237.324C194.694 237.443 194.475 237.553 194.137 237.652C193.806 237.745 193.421 237.828 192.984 237.901C192.553 237.967 192.132 238.027 191.721 238.08C191.317 238.126 190.989 238.166 190.737 238.199C190.127 238.278 189.557 238.408 189.026 238.587C188.503 238.759 188.079 239.021 187.754 239.372C187.436 239.717 187.276 240.187 187.276 240.784C187.276 241.599 187.578 242.216 188.181 242.634C188.791 243.045 189.563 243.25 190.498 243.25ZM201.423 245V229.727H203.77V245H201.423ZM202.616 227.182C202.159 227.182 201.765 227.026 201.433 226.714C201.108 226.403 200.946 226.028 200.946 225.591C200.946 225.153 201.108 224.779 201.433 224.467C201.765 224.156 202.159 224 202.616 224C203.074 224 203.465 224.156 203.79 224.467C204.121 224.779 204.287 225.153 204.287 225.591C204.287 226.028 204.121 226.403 203.79 226.714C203.465 227.026 203.074 227.182 202.616 227.182ZM210.414 235.812V245H208.068V229.727H210.335V232.114H210.534C210.892 231.338 211.435 230.715 212.164 230.244C212.893 229.767 213.835 229.528 214.988 229.528C216.022 229.528 216.927 229.741 217.703 230.165C218.478 230.582 219.081 231.219 219.512 232.074C219.943 232.922 220.159 233.996 220.159 235.295V245H217.812V235.455C217.812 234.255 217.5 233.32 216.877 232.651C216.254 231.974 215.399 231.636 214.312 231.636C213.563 231.636 212.893 231.799 212.303 232.124C211.72 232.448 211.259 232.922 210.921 233.545C210.583 234.169 210.414 234.924 210.414 235.812Z" fill="white"/>
</svg>
