<svg width="379" height="300" viewBox="0 0 379 300" fill="none" xmlns="http://www.w3.org/2000/svg">
<rect x="1" y="1" width="377" height="298" rx="11" stroke="white" stroke-width="2"/>
<g clip-path="url(#clip0_91_339)">
<path d="M116.134 173.696C117.504 174.059 118.492 174.667 119.635 175.371C121.673 176.625 123.982 178.046 128.442 178.046C132.88 178.046 135.19 176.625 137.227 175.371C139.063 174.241 140.514 173.348 143.709 173.348C146.904 173.348 148.354 174.241 150.191 175.371C152.228 176.625 154.537 178.046 158.976 178.046C163.414 178.046 165.723 176.625 167.761 175.371C169.597 174.241 171.048 173.348 174.243 173.348C177.438 173.348 178.888 174.241 180.725 175.371C182.757 176.622 185.061 178.039 189.479 178.046H189.499C189.499 178.046 189.513 178.046 189.52 178.046C193.938 178.039 196.241 176.622 198.274 175.371C200.111 174.241 201.561 173.348 204.756 173.348C207.951 173.348 209.402 174.241 211.238 175.371C213.275 176.625 215.585 178.046 220.023 178.046C224.462 178.046 226.771 176.625 228.808 175.371C230.645 174.241 232.096 173.348 235.29 173.348C238.485 173.348 239.936 174.241 241.772 175.371C243.81 176.625 246.119 178.046 250.579 178.046C255.017 178.046 257.326 176.625 259.364 175.371C260.507 174.667 261.495 174.059 262.865 173.696C264.038 173.385 264.736 172.182 264.425 171.009C264.114 169.836 262.911 169.137 261.738 169.448C259.743 169.977 258.318 170.854 257.061 171.628C255.224 172.759 253.774 173.651 250.558 173.651C247.363 173.651 245.912 172.759 244.076 171.628C242.038 170.375 239.729 168.953 235.29 168.953C230.852 168.953 228.542 170.375 226.505 171.628C224.669 172.759 223.218 173.651 220.023 173.651C216.828 173.651 215.378 172.759 213.541 171.628C211.819 170.568 209.897 169.392 206.664 169.053L200.221 129.248C199.454 124.51 201.589 119.804 205.659 117.26L237.392 97.4266C247.025 91.4058 252.776 81.0299 252.776 69.6704V58.4084C252.776 57.4209 252.117 56.5546 251.166 56.2909C250.214 56.0272 249.203 56.4309 248.695 57.2779C244.744 63.8638 237.518 67.9551 229.837 67.9551H203.603C197.594 67.9551 192.334 71.2263 189.511 76.0811C186.687 71.2263 181.427 67.9551 175.418 67.9551H149.184C141.503 67.9551 134.277 63.8638 130.326 57.2779C129.817 56.4309 128.806 56.0272 127.855 56.2909C126.903 56.5546 126.244 57.4209 126.244 58.4084V69.6704C126.244 81.0299 131.995 91.4061 141.628 97.4266L173.361 117.26C177.432 119.804 179.566 124.51 178.799 129.248L172.357 169.051C169.111 169.387 167.184 170.566 165.458 171.628C163.621 172.759 162.171 173.651 158.976 173.651C155.781 173.651 154.331 172.759 152.494 171.628C150.457 170.375 148.147 168.953 143.709 168.953C139.27 168.953 136.961 170.375 134.924 171.628C133.087 172.759 131.636 173.651 128.421 173.651C125.226 173.651 123.775 172.759 121.938 171.628C120.681 170.854 119.256 169.977 117.261 169.448C116.088 169.137 114.885 169.836 114.574 171.009C114.263 172.182 114.962 173.385 116.134 173.696ZM183.138 129.95C184.188 123.461 181.265 117.017 175.691 113.533L143.957 93.7001C135.618 88.4876 130.639 79.5047 130.639 69.6701V64.7195C135.524 69.5283 142.197 72.3496 149.184 72.3496H175.418C181.977 72.3496 187.313 77.6859 187.313 84.2452C187.313 85.4586 188.297 86.4424 189.511 86.4424C190.724 86.4424 191.708 85.4586 191.708 84.2452C191.708 77.6859 197.044 72.3496 203.603 72.3496H229.837C236.824 72.3496 243.497 69.5283 248.382 64.7195V69.6701C248.382 79.5044 243.403 88.4876 235.063 93.6998L203.33 113.533C197.756 117.017 194.833 123.461 195.883 129.95L202.225 169.13C199.363 169.547 197.58 170.638 195.971 171.628C194.624 172.457 193.481 173.157 191.708 173.472V93.6403C191.708 92.4268 190.724 91.4431 189.511 91.4431C188.297 91.4431 187.313 92.4268 187.313 93.6403V173.476C185.527 173.163 184.381 172.461 183.028 171.628C181.424 170.64 179.645 169.552 176.796 169.133L183.138 129.95Z" fill="white"/>
<path d="M261.739 181.192C259.744 181.721 258.319 182.598 257.061 183.372C255.224 184.502 253.774 185.395 250.558 185.395C247.363 185.395 245.912 184.502 244.076 183.372C242.039 182.118 239.729 180.697 235.291 180.697C230.852 180.697 228.543 182.118 226.505 183.372C224.669 184.502 223.218 185.395 220.024 185.395C216.829 185.395 215.378 184.502 213.542 183.372C211.504 182.118 209.195 180.697 204.757 180.697C200.318 180.697 198.009 182.118 195.971 183.372C194.137 184.501 192.687 185.393 189.5 185.395C186.313 185.393 184.863 184.501 183.028 183.372C180.991 182.118 178.682 180.697 174.243 180.697C169.804 180.697 167.495 182.118 165.458 183.372C163.621 184.502 162.171 185.395 158.976 185.395C155.781 185.395 154.331 184.502 152.494 183.372C150.457 182.118 148.147 180.697 143.709 180.697C139.27 180.697 136.961 182.118 134.924 183.372C133.087 184.502 131.636 185.395 128.421 185.395C125.226 185.395 123.775 184.502 121.939 183.372C120.681 182.598 119.256 181.721 117.261 181.192C116.087 180.881 114.885 181.58 114.574 182.753C114.263 183.926 114.962 185.129 116.134 185.44C117.504 185.803 118.492 186.411 119.635 187.115C121.673 188.369 123.982 189.789 128.442 189.789C132.88 189.789 135.19 188.368 137.227 187.115C139.063 185.984 140.514 185.092 143.709 185.092C146.904 185.092 148.354 185.984 150.191 187.115C152.228 188.368 154.537 189.789 158.976 189.789C163.414 189.789 165.723 188.368 167.761 187.115C169.597 185.984 171.048 185.092 174.243 185.092C177.438 185.092 178.888 185.984 180.725 187.115C182.757 188.366 185.061 189.783 189.479 189.789H189.499C189.499 189.789 189.513 189.789 189.52 189.789C193.938 189.783 196.241 188.366 198.274 187.115C200.111 185.984 201.561 185.092 204.756 185.092C207.951 185.092 209.402 185.984 211.238 187.115C213.275 188.368 215.585 189.789 220.023 189.789C224.462 189.789 226.771 188.368 228.808 187.115C230.645 185.984 232.096 185.092 235.29 185.092C238.485 185.092 239.936 185.984 241.772 187.115C243.81 188.368 246.119 189.789 250.579 189.789C255.017 189.789 257.326 188.369 259.364 187.115C260.507 186.411 261.495 185.803 262.865 185.44C264.037 185.129 264.736 183.926 264.425 182.753C264.115 181.58 262.912 180.881 261.739 181.192Z" fill="white"/>
</g>
<path d="M154.745 245L149.177 224.636H151.682L155.938 241.222H156.137L160.472 224.636H163.256L167.591 241.222H167.79L172.046 224.636H174.552L168.983 245H166.438L161.944 228.773H161.785L157.29 245H154.745ZM179.653 235.812V245H177.306V224.636H179.653V232.114H179.851C180.209 231.325 180.746 230.698 181.462 230.234C182.185 229.764 183.146 229.528 184.346 229.528C185.386 229.528 186.298 229.737 187.08 230.155C187.862 230.566 188.469 231.199 188.9 232.054C189.337 232.902 189.556 233.983 189.556 235.295V245H187.209V235.455C187.209 234.241 186.894 233.304 186.265 232.641C185.642 231.971 184.777 231.636 183.67 231.636C182.901 231.636 182.211 231.799 181.601 232.124C180.998 232.448 180.521 232.922 180.17 233.545C179.825 234.169 179.653 234.924 179.653 235.812ZM198.343 245.358C197.375 245.358 196.497 245.176 195.708 244.811C194.919 244.44 194.293 243.906 193.829 243.21C193.365 242.508 193.133 241.659 193.133 240.665C193.133 239.79 193.305 239.08 193.65 238.537C193.995 237.987 194.455 237.556 195.032 237.244C195.609 236.933 196.245 236.701 196.941 236.548C197.644 236.389 198.35 236.263 199.059 236.17C199.987 236.051 200.74 235.962 201.316 235.902C201.9 235.836 202.324 235.726 202.589 235.574C202.861 235.421 202.997 235.156 202.997 234.778V234.699C202.997 233.718 202.728 232.955 202.191 232.412C201.661 231.868 200.856 231.597 199.775 231.597C198.655 231.597 197.776 231.842 197.14 232.332C196.504 232.823 196.056 233.347 195.798 233.903L193.57 233.108C193.968 232.18 194.499 231.457 195.161 230.94C195.831 230.417 196.56 230.052 197.349 229.847C198.144 229.634 198.927 229.528 199.695 229.528C200.186 229.528 200.749 229.588 201.386 229.707C202.029 229.82 202.649 230.055 203.245 230.413C203.848 230.771 204.349 231.312 204.747 232.034C205.144 232.757 205.343 233.724 205.343 234.938V245H202.997V242.932H202.877C202.718 243.263 202.453 243.618 202.082 243.996C201.711 244.374 201.217 244.695 200.6 244.96C199.984 245.225 199.231 245.358 198.343 245.358ZM198.701 243.25C199.629 243.25 200.411 243.068 201.048 242.703C201.691 242.339 202.175 241.868 202.499 241.291C202.831 240.714 202.997 240.108 202.997 239.472V237.324C202.897 237.443 202.678 237.553 202.34 237.652C202.009 237.745 201.624 237.828 201.187 237.901C200.756 237.967 200.335 238.027 199.924 238.08C199.52 238.126 199.192 238.166 198.94 238.199C198.33 238.278 197.76 238.408 197.23 238.587C196.706 238.759 196.282 239.021 195.957 239.372C195.639 239.717 195.48 240.187 195.48 240.784C195.48 241.599 195.781 242.216 196.384 242.634C196.994 243.045 197.767 243.25 198.701 243.25ZM211.973 224.636V245H209.626V224.636H211.973ZM222.674 245.318C221.203 245.318 219.933 244.993 218.866 244.344C217.805 243.688 216.987 242.773 216.41 241.599C215.84 240.42 215.555 239.047 215.555 237.483C215.555 235.919 215.84 234.54 216.41 233.347C216.987 232.147 217.789 231.212 218.816 230.543C219.85 229.866 221.057 229.528 222.436 229.528C223.231 229.528 224.017 229.661 224.792 229.926C225.568 230.191 226.274 230.622 226.91 231.219C227.546 231.809 228.053 232.591 228.431 233.565C228.809 234.54 228.998 235.74 228.998 237.165V238.159H217.225V236.131H226.612C226.612 235.269 226.439 234.5 226.095 233.824C225.757 233.148 225.273 232.614 224.643 232.223C224.02 231.832 223.284 231.636 222.436 231.636C221.501 231.636 220.692 231.868 220.009 232.332C219.333 232.79 218.813 233.386 218.448 234.122C218.084 234.858 217.901 235.647 217.901 236.489V237.841C217.901 238.994 218.1 239.972 218.498 240.774C218.902 241.57 219.463 242.176 220.178 242.594C220.894 243.005 221.726 243.21 222.674 243.21C223.291 243.21 223.847 243.124 224.345 242.952C224.848 242.773 225.283 242.508 225.647 242.156C226.012 241.798 226.294 241.354 226.492 240.824L228.759 241.46C228.521 242.229 228.12 242.905 227.556 243.489C226.993 244.065 226.297 244.516 225.468 244.841C224.64 245.159 223.708 245.318 222.674 245.318Z" fill="white"/>
<defs>
<clipPath id="clip0_91_339">
<rect width="150" height="150" fill="white" transform="translate(114.5 48)"/>
</clipPath>
</defs>
</svg>
